G04 #@! TF.GenerationSoftware,KiCad,Pcbnew,(5.1.5-0-10_14)*
G04 #@! TF.CreationDate,2020-07-31T02:19:59+02:00*
G04 #@! TF.ProjectId,output.Panel,6f757470-7574-42e5-9061-6e656c2e6b69,rev?*
G04 #@! TF.SameCoordinates,Original*
G04 #@! TF.FileFunction,Legend,Top*
G04 #@! TF.FilePolarity,Positive*
%FSLAX46Y46*%
G04 Gerber Fmt 4.6, Leading zero omitted, Abs format (unit mm)*
G04 Created by KiCad (PCBNEW (5.1.5-0-10_14)) date 2020-07-31 02:19:59*
%MOMM*%
%LPD*%
G04 APERTURE LIST*
%ADD10C,0.120000*%
%ADD11C,0.150000*%
G04 APERTURE END LIST*
D10*
X153000000Y-35025000D02*
X153000000Y-38025000D01*
X150000000Y-38025000D02*
X156000000Y-38025000D01*
X155000000Y-39025000D02*
X151000000Y-39025000D01*
X152000000Y-40025000D02*
X154000000Y-40025000D01*
X153000000Y-35025000D02*
X147000000Y-35025000D01*
X102032000Y-45090000D02*
X94920000Y-45090000D01*
X95174000Y-42804000D02*
X99746000Y-42804000D01*
X99746000Y-42804000D02*
G75*
G02X101016000Y-44074000I0J-1270000D01*
G01*
X102032000Y-45090000D02*
G75*
G02X101016000Y-44074000I0J1016000D01*
G01*
X105588000Y-45090000D02*
X102032000Y-45090000D01*
X107112000Y-48392000D02*
X107112000Y-46614000D01*
X105588000Y-45090000D02*
G75*
G02X107112000Y-46614000I0J-1524000D01*
G01*
X93650000Y-44328000D02*
G75*
G02X95174000Y-42804000I1524000J0D01*
G01*
X93650000Y-48646000D02*
X93650000Y-44328000D01*
X95174000Y-50170000D02*
G75*
G02X93650000Y-48646000I0J1524000D01*
G01*
X107112000Y-48392000D02*
G75*
G02X105334000Y-50170000I-1778000J0D01*
G01*
X95174000Y-50170000D02*
X105334000Y-50170000D01*
X106350000Y-36835000D02*
X106350000Y-35565000D01*
X113970000Y-38105000D02*
X107620000Y-38105000D01*
X115240000Y-35565000D02*
X115240000Y-36835000D01*
X107620000Y-34295000D02*
X113970000Y-34295000D01*
X107620000Y-38105000D02*
G75*
G02X106350000Y-36835000I0J1270000D01*
G01*
X106350000Y-35565000D02*
G75*
G02X107620000Y-34295000I1270000J0D01*
G01*
X115240000Y-36835000D02*
G75*
G02X113970000Y-38105000I-1270000J0D01*
G01*
X113970000Y-34295000D02*
G75*
G02X115240000Y-35565000I0J-1270000D01*
G01*
D11*
X107920119Y-36604761D02*
X108062976Y-36652380D01*
X108301071Y-36652380D01*
X108396309Y-36604761D01*
X108443928Y-36557142D01*
X108491547Y-36461904D01*
X108491547Y-36366666D01*
X108443928Y-36271428D01*
X108396309Y-36223809D01*
X108301071Y-36176190D01*
X108110595Y-36128571D01*
X108015357Y-36080952D01*
X107967738Y-36033333D01*
X107920119Y-35938095D01*
X107920119Y-35842857D01*
X107967738Y-35747619D01*
X108015357Y-35700000D01*
X108110595Y-35652380D01*
X108348690Y-35652380D01*
X108491547Y-35700000D01*
X108920119Y-36652380D02*
X108920119Y-35652380D01*
X109158214Y-35652380D01*
X109301071Y-35700000D01*
X109396309Y-35795238D01*
X109443928Y-35890476D01*
X109491547Y-36080952D01*
X109491547Y-36223809D01*
X109443928Y-36414285D01*
X109396309Y-36509523D01*
X109301071Y-36604761D01*
X109158214Y-36652380D01*
X108920119Y-36652380D01*
X111253452Y-36557142D02*
X111205833Y-36604761D01*
X111062976Y-36652380D01*
X110967738Y-36652380D01*
X110824880Y-36604761D01*
X110729642Y-36509523D01*
X110682023Y-36414285D01*
X110634404Y-36223809D01*
X110634404Y-36080952D01*
X110682023Y-35890476D01*
X110729642Y-35795238D01*
X110824880Y-35700000D01*
X110967738Y-35652380D01*
X111062976Y-35652380D01*
X111205833Y-35700000D01*
X111253452Y-35747619D01*
X112110595Y-36652380D02*
X112110595Y-36128571D01*
X112062976Y-36033333D01*
X111967738Y-35985714D01*
X111777261Y-35985714D01*
X111682023Y-36033333D01*
X112110595Y-36604761D02*
X112015357Y-36652380D01*
X111777261Y-36652380D01*
X111682023Y-36604761D01*
X111634404Y-36509523D01*
X111634404Y-36414285D01*
X111682023Y-36319047D01*
X111777261Y-36271428D01*
X112015357Y-36271428D01*
X112110595Y-36223809D01*
X112586785Y-36652380D02*
X112586785Y-35985714D01*
X112586785Y-36176190D02*
X112634404Y-36080952D01*
X112682023Y-36033333D01*
X112777261Y-35985714D01*
X112872500Y-35985714D01*
X113634404Y-36652380D02*
X113634404Y-35652380D01*
X113634404Y-36604761D02*
X113539166Y-36652380D01*
X113348690Y-36652380D01*
X113253452Y-36604761D01*
X113205833Y-36557142D01*
X113158214Y-36461904D01*
X113158214Y-36176190D01*
X113205833Y-36080952D01*
X113253452Y-36033333D01*
X113348690Y-35985714D01*
X113539166Y-35985714D01*
X113634404Y-36033333D01*
D10*
X90475000Y-35565000D02*
G75*
G02X92380000Y-33660000I1905000J0D01*
G01*
X113970000Y-33660000D02*
X92380000Y-33660000D01*
X113970000Y-33660000D02*
G75*
G02X115875000Y-35565000I0J-1905000D01*
G01*
X115875000Y-50805000D02*
X115875000Y-35565000D01*
X90348000Y-50932000D02*
X90475000Y-35565000D01*
D11*
X94953976Y-44478761D02*
X95096833Y-44526380D01*
X95334928Y-44526380D01*
X95430166Y-44478761D01*
X95477785Y-44431142D01*
X95525404Y-44335904D01*
X95525404Y-44240666D01*
X95477785Y-44145428D01*
X95430166Y-44097809D01*
X95334928Y-44050190D01*
X95144452Y-44002571D01*
X95049214Y-43954952D01*
X95001595Y-43907333D01*
X94953976Y-43812095D01*
X94953976Y-43716857D01*
X95001595Y-43621619D01*
X95049214Y-43574000D01*
X95144452Y-43526380D01*
X95382547Y-43526380D01*
X95525404Y-43574000D01*
X96334928Y-44478761D02*
X96239690Y-44526380D01*
X96049214Y-44526380D01*
X95953976Y-44478761D01*
X95906357Y-44383523D01*
X95906357Y-44002571D01*
X95953976Y-43907333D01*
X96049214Y-43859714D01*
X96239690Y-43859714D01*
X96334928Y-43907333D01*
X96382547Y-44002571D01*
X96382547Y-44097809D01*
X95906357Y-44193047D01*
X96811119Y-44526380D02*
X96811119Y-43859714D01*
X96811119Y-44050190D02*
X96858738Y-43954952D01*
X96906357Y-43907333D01*
X97001595Y-43859714D01*
X97096833Y-43859714D01*
X97334928Y-43859714D02*
X97573023Y-44526380D01*
X97811119Y-43859714D01*
X98192071Y-44526380D02*
X98192071Y-43859714D01*
X98192071Y-43526380D02*
X98144452Y-43574000D01*
X98192071Y-43621619D01*
X98239690Y-43574000D01*
X98192071Y-43526380D01*
X98192071Y-43621619D01*
X99096833Y-44478761D02*
X99001595Y-44526380D01*
X98811119Y-44526380D01*
X98715880Y-44478761D01*
X98668261Y-44431142D01*
X98620642Y-44335904D01*
X98620642Y-44050190D01*
X98668261Y-43954952D01*
X98715880Y-43907333D01*
X98811119Y-43859714D01*
X99001595Y-43859714D01*
X99096833Y-43907333D01*
X99906357Y-44478761D02*
X99811119Y-44526380D01*
X99620642Y-44526380D01*
X99525404Y-44478761D01*
X99477785Y-44383523D01*
X99477785Y-44002571D01*
X99525404Y-43907333D01*
X99620642Y-43859714D01*
X99811119Y-43859714D01*
X99906357Y-43907333D01*
X99953976Y-44002571D01*
X99953976Y-44097809D01*
X99477785Y-44193047D01*
D10*
X153000000Y-84025000D02*
X147000000Y-84025000D01*
X152000000Y-89025000D02*
X154000000Y-89025000D01*
X155000000Y-88025000D02*
X151000000Y-88025000D01*
X150000000Y-87025000D02*
X156000000Y-87025000D01*
X153000000Y-84025000D02*
X153000000Y-87025000D01*
D11*
X240591619Y-100810380D02*
X241163047Y-100810380D01*
X240877333Y-101810380D02*
X240877333Y-100810380D01*
X241401142Y-100810380D02*
X242067809Y-101810380D01*
X242067809Y-100810380D02*
X241401142Y-101810380D01*
X244020190Y-101810380D02*
X243972571Y-101810380D01*
X243877333Y-101762761D01*
X243734476Y-101619904D01*
X243496380Y-101334190D01*
X243401142Y-101191333D01*
X243353523Y-101048476D01*
X243353523Y-100953238D01*
X243401142Y-100858000D01*
X243496380Y-100810380D01*
X243544000Y-100810380D01*
X243639238Y-100858000D01*
X243686857Y-100953238D01*
X243686857Y-101000857D01*
X243639238Y-101096095D01*
X243591619Y-101143714D01*
X243305904Y-101334190D01*
X243258285Y-101381809D01*
X243210666Y-101477047D01*
X243210666Y-101619904D01*
X243258285Y-101715142D01*
X243305904Y-101762761D01*
X243401142Y-101810380D01*
X243544000Y-101810380D01*
X243639238Y-101762761D01*
X243686857Y-101715142D01*
X243829714Y-101524666D01*
X243877333Y-101381809D01*
X243877333Y-101286571D01*
X245782095Y-101810380D02*
X245448761Y-101334190D01*
X245210666Y-101810380D02*
X245210666Y-100810380D01*
X245591619Y-100810380D01*
X245686857Y-100858000D01*
X245734476Y-100905619D01*
X245782095Y-101000857D01*
X245782095Y-101143714D01*
X245734476Y-101238952D01*
X245686857Y-101286571D01*
X245591619Y-101334190D01*
X245210666Y-101334190D01*
X246115428Y-100810380D02*
X246782095Y-101810380D01*
X246782095Y-100810380D02*
X246115428Y-101810380D01*
X247924952Y-101810380D02*
X247924952Y-101143714D01*
X247924952Y-101334190D02*
X247972571Y-101238952D01*
X248020190Y-101191333D01*
X248115428Y-101143714D01*
X248210666Y-101143714D01*
X248924952Y-101762761D02*
X248829714Y-101810380D01*
X248639238Y-101810380D01*
X248544000Y-101762761D01*
X248496380Y-101667523D01*
X248496380Y-101286571D01*
X248544000Y-101191333D01*
X248639238Y-101143714D01*
X248829714Y-101143714D01*
X248924952Y-101191333D01*
X248972571Y-101286571D01*
X248972571Y-101381809D01*
X248496380Y-101477047D01*
X249258285Y-101143714D02*
X249639238Y-101143714D01*
X249401142Y-101810380D02*
X249401142Y-100953238D01*
X249448761Y-100858000D01*
X249544000Y-100810380D01*
X249639238Y-100810380D01*
X250353523Y-101762761D02*
X250258285Y-101810380D01*
X250067809Y-101810380D01*
X249972571Y-101762761D01*
X249924952Y-101667523D01*
X249924952Y-101286571D01*
X249972571Y-101191333D01*
X250067809Y-101143714D01*
X250258285Y-101143714D01*
X250353523Y-101191333D01*
X250401142Y-101286571D01*
X250401142Y-101381809D01*
X249924952Y-101477047D01*
X250829714Y-101810380D02*
X250829714Y-101143714D01*
X250829714Y-101334190D02*
X250877333Y-101238952D01*
X250924952Y-101191333D01*
X251020190Y-101143714D01*
X251115428Y-101143714D01*
X251448761Y-101810380D02*
X251448761Y-101143714D01*
X251448761Y-101334190D02*
X251496380Y-101238952D01*
X251544000Y-101191333D01*
X251639238Y-101143714D01*
X251734476Y-101143714D01*
X252448761Y-101762761D02*
X252353523Y-101810380D01*
X252163047Y-101810380D01*
X252067809Y-101762761D01*
X252020190Y-101667523D01*
X252020190Y-101286571D01*
X252067809Y-101191333D01*
X252163047Y-101143714D01*
X252353523Y-101143714D01*
X252448761Y-101191333D01*
X252496380Y-101286571D01*
X252496380Y-101381809D01*
X252020190Y-101477047D01*
X253353523Y-101810380D02*
X253353523Y-100810380D01*
X253353523Y-101762761D02*
X253258285Y-101810380D01*
X253067809Y-101810380D01*
X252972571Y-101762761D01*
X252924952Y-101715142D01*
X252877333Y-101619904D01*
X252877333Y-101334190D01*
X252924952Y-101238952D01*
X252972571Y-101191333D01*
X253067809Y-101143714D01*
X253258285Y-101143714D01*
X253353523Y-101191333D01*
X242139238Y-102793714D02*
X242520190Y-102793714D01*
X242282095Y-102460380D02*
X242282095Y-103317523D01*
X242329714Y-103412761D01*
X242424952Y-103460380D01*
X242520190Y-103460380D01*
X242996380Y-103460380D02*
X242901142Y-103412761D01*
X242853523Y-103365142D01*
X242805904Y-103269904D01*
X242805904Y-102984190D01*
X242853523Y-102888952D01*
X242901142Y-102841333D01*
X242996380Y-102793714D01*
X243139238Y-102793714D01*
X243234476Y-102841333D01*
X243282095Y-102888952D01*
X243329714Y-102984190D01*
X243329714Y-103269904D01*
X243282095Y-103365142D01*
X243234476Y-103412761D01*
X243139238Y-103460380D01*
X242996380Y-103460380D01*
X244377333Y-102793714D02*
X244758285Y-102793714D01*
X244520190Y-102460380D02*
X244520190Y-103317523D01*
X244567809Y-103412761D01*
X244663047Y-103460380D01*
X244758285Y-103460380D01*
X245091619Y-103460380D02*
X245091619Y-102460380D01*
X245520190Y-103460380D02*
X245520190Y-102936571D01*
X245472571Y-102841333D01*
X245377333Y-102793714D01*
X245234476Y-102793714D01*
X245139238Y-102841333D01*
X245091619Y-102888952D01*
X245996380Y-103460380D02*
X245996380Y-102793714D01*
X245996380Y-102460380D02*
X245948761Y-102508000D01*
X245996380Y-102555619D01*
X246044000Y-102508000D01*
X245996380Y-102460380D01*
X245996380Y-102555619D01*
X246424952Y-103412761D02*
X246520190Y-103460380D01*
X246710666Y-103460380D01*
X246805904Y-103412761D01*
X246853523Y-103317523D01*
X246853523Y-103269904D01*
X246805904Y-103174666D01*
X246710666Y-103127047D01*
X246567809Y-103127047D01*
X246472571Y-103079428D01*
X246424952Y-102984190D01*
X246424952Y-102936571D01*
X246472571Y-102841333D01*
X246567809Y-102793714D01*
X246710666Y-102793714D01*
X246805904Y-102841333D01*
X248044000Y-103460380D02*
X248044000Y-102460380D01*
X248044000Y-102841333D02*
X248139238Y-102793714D01*
X248329714Y-102793714D01*
X248424952Y-102841333D01*
X248472571Y-102888952D01*
X248520190Y-102984190D01*
X248520190Y-103269904D01*
X248472571Y-103365142D01*
X248424952Y-103412761D01*
X248329714Y-103460380D01*
X248139238Y-103460380D01*
X248044000Y-103412761D01*
X249091619Y-103460380D02*
X248996380Y-103412761D01*
X248948761Y-103365142D01*
X248901142Y-103269904D01*
X248901142Y-102984190D01*
X248948761Y-102888952D01*
X248996380Y-102841333D01*
X249091619Y-102793714D01*
X249234476Y-102793714D01*
X249329714Y-102841333D01*
X249377333Y-102888952D01*
X249424952Y-102984190D01*
X249424952Y-103269904D01*
X249377333Y-103365142D01*
X249329714Y-103412761D01*
X249234476Y-103460380D01*
X249091619Y-103460380D01*
X250282095Y-103460380D02*
X250282095Y-102936571D01*
X250234476Y-102841333D01*
X250139238Y-102793714D01*
X249948761Y-102793714D01*
X249853523Y-102841333D01*
X250282095Y-103412761D02*
X250186857Y-103460380D01*
X249948761Y-103460380D01*
X249853523Y-103412761D01*
X249805904Y-103317523D01*
X249805904Y-103222285D01*
X249853523Y-103127047D01*
X249948761Y-103079428D01*
X250186857Y-103079428D01*
X250282095Y-103031809D01*
X250758285Y-103460380D02*
X250758285Y-102793714D01*
X250758285Y-102984190D02*
X250805904Y-102888952D01*
X250853523Y-102841333D01*
X250948761Y-102793714D01*
X251044000Y-102793714D01*
X251805904Y-103460380D02*
X251805904Y-102460380D01*
X251805904Y-103412761D02*
X251710666Y-103460380D01*
X251520190Y-103460380D01*
X251424952Y-103412761D01*
X251377333Y-103365142D01*
X251329714Y-103269904D01*
X251329714Y-102984190D01*
X251377333Y-102888952D01*
X251424952Y-102841333D01*
X251520190Y-102793714D01*
X251710666Y-102793714D01*
X251805904Y-102841333D01*
D10*
X244504000Y-92277000D02*
X244504000Y-99897000D01*
X247044000Y-92277000D02*
X247044000Y-99897000D01*
X249584000Y-92277000D02*
X249584000Y-99897000D01*
X252124000Y-92277000D02*
X252124000Y-99897000D01*
X241964000Y-92277000D02*
X252124000Y-92277000D01*
X241964000Y-99897000D02*
X241964000Y-92277000D01*
X239424000Y-99897000D02*
X239424000Y-96087000D01*
X254664000Y-99897000D02*
X239424000Y-99897000D01*
X254664000Y-96087000D02*
X254664000Y-99897000D01*
X239424000Y-96087000D02*
X254664000Y-96087000D01*
D11*
X253798761Y-99057547D02*
X253846380Y-98914690D01*
X253846380Y-98676595D01*
X253798761Y-98581357D01*
X253751142Y-98533738D01*
X253655904Y-98486119D01*
X253560666Y-98486119D01*
X253465428Y-98533738D01*
X253417809Y-98581357D01*
X253370190Y-98676595D01*
X253322571Y-98867071D01*
X253274952Y-98962309D01*
X253227333Y-99009928D01*
X253132095Y-99057547D01*
X253036857Y-99057547D01*
X252941619Y-99009928D01*
X252894000Y-98962309D01*
X252846380Y-98867071D01*
X252846380Y-98628976D01*
X252894000Y-98486119D01*
X253846380Y-98057547D02*
X252846380Y-98057547D01*
X252846380Y-97819452D01*
X252894000Y-97676595D01*
X252989238Y-97581357D01*
X253084476Y-97533738D01*
X253274952Y-97486119D01*
X253417809Y-97486119D01*
X253608285Y-97533738D01*
X253703523Y-97581357D01*
X253798761Y-97676595D01*
X253846380Y-97819452D01*
X253846380Y-98057547D01*
X253560666Y-97105166D02*
X253560666Y-96628976D01*
X253846380Y-97200404D02*
X252846380Y-96867071D01*
X253846380Y-96533738D01*
X251258761Y-99009928D02*
X251306380Y-98867071D01*
X251306380Y-98628976D01*
X251258761Y-98533738D01*
X251211142Y-98486119D01*
X251115904Y-98438500D01*
X251020666Y-98438500D01*
X250925428Y-98486119D01*
X250877809Y-98533738D01*
X250830190Y-98628976D01*
X250782571Y-98819452D01*
X250734952Y-98914690D01*
X250687333Y-98962309D01*
X250592095Y-99009928D01*
X250496857Y-99009928D01*
X250401619Y-98962309D01*
X250354000Y-98914690D01*
X250306380Y-98819452D01*
X250306380Y-98581357D01*
X250354000Y-98438500D01*
X251211142Y-97438500D02*
X251258761Y-97486119D01*
X251306380Y-97628976D01*
X251306380Y-97724214D01*
X251258761Y-97867071D01*
X251163523Y-97962309D01*
X251068285Y-98009928D01*
X250877809Y-98057547D01*
X250734952Y-98057547D01*
X250544476Y-98009928D01*
X250449238Y-97962309D01*
X250354000Y-97867071D01*
X250306380Y-97724214D01*
X250306380Y-97628976D01*
X250354000Y-97486119D01*
X250401619Y-97438500D01*
X251306380Y-96533738D02*
X251306380Y-97009928D01*
X250306380Y-97009928D01*
X242686380Y-99057547D02*
X242686380Y-98438500D01*
X243067333Y-98771833D01*
X243067333Y-98628976D01*
X243114952Y-98533738D01*
X243162571Y-98486119D01*
X243257809Y-98438500D01*
X243495904Y-98438500D01*
X243591142Y-98486119D01*
X243638761Y-98533738D01*
X243686380Y-98628976D01*
X243686380Y-98914690D01*
X243638761Y-99009928D01*
X243591142Y-99057547D01*
X242686380Y-98152785D02*
X243686380Y-97819452D01*
X242686380Y-97486119D01*
X242686380Y-97248023D02*
X242686380Y-96628976D01*
X243067333Y-96962309D01*
X243067333Y-96819452D01*
X243114952Y-96724214D01*
X243162571Y-96676595D01*
X243257809Y-96628976D01*
X243495904Y-96628976D01*
X243591142Y-96676595D01*
X243638761Y-96724214D01*
X243686380Y-96819452D01*
X243686380Y-97105166D01*
X243638761Y-97200404D01*
X243591142Y-97248023D01*
X247766380Y-98057547D02*
X247766380Y-97486119D01*
X248766380Y-97771833D02*
X247766380Y-97771833D01*
X247766380Y-97248023D02*
X248766380Y-96581357D01*
X247766380Y-96581357D02*
X248766380Y-97248023D01*
X246226380Y-97581357D02*
X245750190Y-97914690D01*
X246226380Y-98152785D02*
X245226380Y-98152785D01*
X245226380Y-97771833D01*
X245274000Y-97676595D01*
X245321619Y-97628976D01*
X245416857Y-97581357D01*
X245559714Y-97581357D01*
X245654952Y-97628976D01*
X245702571Y-97676595D01*
X245750190Y-97771833D01*
X245750190Y-98152785D01*
X245226380Y-97248023D02*
X246226380Y-96581357D01*
X245226380Y-96581357D02*
X246226380Y-97248023D01*
X240194000Y-98724214D02*
X240146380Y-98819452D01*
X240146380Y-98962309D01*
X240194000Y-99105166D01*
X240289238Y-99200404D01*
X240384476Y-99248023D01*
X240574952Y-99295642D01*
X240717809Y-99295642D01*
X240908285Y-99248023D01*
X241003523Y-99200404D01*
X241098761Y-99105166D01*
X241146380Y-98962309D01*
X241146380Y-98867071D01*
X241098761Y-98724214D01*
X241051142Y-98676595D01*
X240717809Y-98676595D01*
X240717809Y-98867071D01*
X241146380Y-98248023D02*
X240146380Y-98248023D01*
X241146380Y-97676595D01*
X240146380Y-97676595D01*
X241146380Y-97200404D02*
X240146380Y-97200404D01*
X240146380Y-96962309D01*
X240194000Y-96819452D01*
X240289238Y-96724214D01*
X240384476Y-96676595D01*
X240574952Y-96628976D01*
X240717809Y-96628976D01*
X240908285Y-96676595D01*
X241003523Y-96724214D01*
X241098761Y-96819452D01*
X241146380Y-96962309D01*
X241146380Y-97200404D01*
X250306380Y-95247547D02*
X250306380Y-94628500D01*
X250687333Y-94961833D01*
X250687333Y-94818976D01*
X250734952Y-94723738D01*
X250782571Y-94676119D01*
X250877809Y-94628500D01*
X251115904Y-94628500D01*
X251211142Y-94676119D01*
X251258761Y-94723738D01*
X251306380Y-94818976D01*
X251306380Y-95104690D01*
X251258761Y-95199928D01*
X251211142Y-95247547D01*
X250306380Y-94342785D02*
X251306380Y-94009452D01*
X250306380Y-93676119D01*
X250306380Y-93438023D02*
X250306380Y-92818976D01*
X250687333Y-93152309D01*
X250687333Y-93009452D01*
X250734952Y-92914214D01*
X250782571Y-92866595D01*
X250877809Y-92818976D01*
X251115904Y-92818976D01*
X251211142Y-92866595D01*
X251258761Y-92914214D01*
X251306380Y-93009452D01*
X251306380Y-93295166D01*
X251258761Y-93390404D01*
X251211142Y-93438023D01*
X247766380Y-94247547D02*
X247766380Y-93676119D01*
X248766380Y-93961833D02*
X247766380Y-93961833D01*
X247766380Y-93438023D02*
X248766380Y-92771357D01*
X247766380Y-92771357D02*
X248766380Y-93438023D01*
X246226380Y-93771357D02*
X245750190Y-94104690D01*
X246226380Y-94342785D02*
X245226380Y-94342785D01*
X245226380Y-93961833D01*
X245274000Y-93866595D01*
X245321619Y-93818976D01*
X245416857Y-93771357D01*
X245559714Y-93771357D01*
X245654952Y-93818976D01*
X245702571Y-93866595D01*
X245750190Y-93961833D01*
X245750190Y-94342785D01*
X245226380Y-93438023D02*
X246226380Y-92771357D01*
X245226380Y-92771357D02*
X246226380Y-93438023D01*
X242734000Y-94914214D02*
X242686380Y-95009452D01*
X242686380Y-95152309D01*
X242734000Y-95295166D01*
X242829238Y-95390404D01*
X242924476Y-95438023D01*
X243114952Y-95485642D01*
X243257809Y-95485642D01*
X243448285Y-95438023D01*
X243543523Y-95390404D01*
X243638761Y-95295166D01*
X243686380Y-95152309D01*
X243686380Y-95057071D01*
X243638761Y-94914214D01*
X243591142Y-94866595D01*
X243257809Y-94866595D01*
X243257809Y-95057071D01*
X243686380Y-94438023D02*
X242686380Y-94438023D01*
X243686380Y-93866595D01*
X242686380Y-93866595D01*
X243686380Y-93390404D02*
X242686380Y-93390404D01*
X242686380Y-93152309D01*
X242734000Y-93009452D01*
X242829238Y-92914214D01*
X242924476Y-92866595D01*
X243114952Y-92818976D01*
X243257809Y-92818976D01*
X243448285Y-92866595D01*
X243543523Y-92914214D01*
X243638761Y-93009452D01*
X243686380Y-93152309D01*
X243686380Y-93390404D01*
D10*
X153500000Y-63425000D02*
X153500000Y-64825000D01*
X152800000Y-65525000D02*
X152200000Y-65525000D01*
X151500000Y-64825000D02*
X151500000Y-63425000D01*
X152200000Y-62725000D02*
X152800000Y-62725000D01*
X152800000Y-62725000D02*
G75*
G02X153500000Y-63425000I0J-700000D01*
G01*
X151500000Y-63425000D02*
G75*
G02X152200000Y-62725000I700000J0D01*
G01*
X152200000Y-65525000D02*
G75*
G02X151500000Y-64825000I0J700000D01*
G01*
X153500000Y-64825000D02*
G75*
G02X152800000Y-65525000I-700000J0D01*
G01*
X150500000Y-61625000D02*
G75*
G02X149800000Y-62325000I-700000J0D01*
G01*
X149200000Y-62325000D02*
G75*
G02X148500000Y-61625000I0J700000D01*
G01*
X148500000Y-60225000D02*
G75*
G02X149200000Y-59525000I700000J0D01*
G01*
X149800000Y-59525000D02*
G75*
G02X150500000Y-60225000I0J-700000D01*
G01*
X149200000Y-59525000D02*
X149800000Y-59525000D01*
X148500000Y-61625000D02*
X148500000Y-60225000D01*
X149800000Y-62325000D02*
X149200000Y-62325000D01*
X150500000Y-60225000D02*
X150500000Y-61625000D01*
X153500000Y-57025000D02*
X153500000Y-58425000D01*
X152800000Y-59125000D02*
X152200000Y-59125000D01*
X151500000Y-58425000D02*
X151500000Y-57025000D01*
X152200000Y-56325000D02*
X152800000Y-56325000D01*
X152800000Y-56325000D02*
G75*
G02X153500000Y-57025000I0J-700000D01*
G01*
X151500000Y-57025000D02*
G75*
G02X152200000Y-56325000I700000J0D01*
G01*
X152200000Y-59125000D02*
G75*
G02X151500000Y-58425000I0J700000D01*
G01*
X153500000Y-58425000D02*
G75*
G02X152800000Y-59125000I-700000J0D01*
G01*
X153500000Y-50625000D02*
X153500000Y-52025000D01*
X152800000Y-52725000D02*
X152200000Y-52725000D01*
X151500000Y-52025000D02*
X151500000Y-50625000D01*
X152200000Y-49925000D02*
X152800000Y-49925000D01*
X152800000Y-49925000D02*
G75*
G02X153500000Y-50625000I0J-700000D01*
G01*
X151500000Y-50625000D02*
G75*
G02X152200000Y-49925000I700000J0D01*
G01*
X152200000Y-52725000D02*
G75*
G02X151500000Y-52025000I0J700000D01*
G01*
X153500000Y-52025000D02*
G75*
G02X152800000Y-52725000I-700000J0D01*
G01*
X150500000Y-48825000D02*
G75*
G02X149800000Y-49525000I-700000J0D01*
G01*
X149200000Y-49525000D02*
G75*
G02X148500000Y-48825000I0J700000D01*
G01*
X148500000Y-47425000D02*
G75*
G02X149200000Y-46725000I700000J0D01*
G01*
X149800000Y-46725000D02*
G75*
G02X150500000Y-47425000I0J-700000D01*
G01*
X149200000Y-46725000D02*
X149800000Y-46725000D01*
X148500000Y-48825000D02*
X148500000Y-47425000D01*
X149800000Y-49525000D02*
X149200000Y-49525000D01*
X150500000Y-47425000D02*
X150500000Y-48825000D01*
X150500000Y-55225000D02*
G75*
G02X149800000Y-55925000I-700000J0D01*
G01*
X149200000Y-55925000D02*
G75*
G02X148500000Y-55225000I0J700000D01*
G01*
X148500000Y-53825000D02*
G75*
G02X149200000Y-53125000I700000J0D01*
G01*
X149800000Y-53125000D02*
G75*
G02X150500000Y-53825000I0J-700000D01*
G01*
X149200000Y-53125000D02*
X149800000Y-53125000D01*
X148500000Y-55225000D02*
X148500000Y-53825000D01*
X149800000Y-55925000D02*
X149200000Y-55925000D01*
X150500000Y-53825000D02*
X150500000Y-55225000D01*
X106034000Y-48519000D02*
G75*
G03X106034000Y-48519000I-700000J0D01*
G01*
X103494000Y-48519000D02*
G75*
G03X103494000Y-48519000I-700000J0D01*
G01*
X100954000Y-48519000D02*
G75*
G03X100954000Y-48519000I-700000J0D01*
G01*
X98414000Y-48519000D02*
G75*
G03X98414000Y-48519000I-700000J0D01*
G01*
X95874000Y-48519000D02*
G75*
G03X95874000Y-48519000I-700000J0D01*
G01*
X134925000Y-51440000D02*
X37135000Y-51440000D01*
X37135000Y-108590000D02*
X37135000Y-51440000D01*
X134925000Y-108590000D02*
X37135000Y-108590000D01*
X134925000Y-51440000D02*
X134925000Y-108590000D01*
X41711530Y-105161000D02*
G75*
G03X41711530Y-105161000I-1782530J0D01*
G01*
X133913530Y-105161000D02*
G75*
G03X133913530Y-105161000I-1782530J0D01*
G01*
X133913530Y-54869000D02*
G75*
G03X133913530Y-54869000I-1782530J0D01*
G01*
X41711530Y-54869000D02*
G75*
G03X41711530Y-54869000I-1782530J0D01*
G01*
X84338249Y-45020487D02*
G75*
G03X80070000Y-45065000I-2118249J-1544513D01*
G01*
X80054474Y-48093234D02*
G75*
G03X84370000Y-48115000I2165526J1528234D01*
G01*
X80070000Y-48115000D02*
X80070000Y-45065000D01*
X84370000Y-48115000D02*
X84370000Y-45065000D01*
X58340000Y-122385000D02*
X58340000Y-120885000D01*
X57090000Y-118385000D02*
X52590000Y-118385000D01*
X51340000Y-120885000D02*
X51340000Y-122385000D01*
X52590000Y-124885000D02*
X57090000Y-124885000D01*
X119935000Y-122330000D02*
X119935000Y-120830000D01*
X118685000Y-118330000D02*
X114185000Y-118330000D01*
X112935000Y-120830000D02*
X112935000Y-122330000D01*
X114185000Y-124830000D02*
X118685000Y-124830000D01*
X91712500Y-130265000D02*
X79712500Y-130265000D01*
X93712500Y-128265000D02*
G75*
G02X91712500Y-130265000I-2000000J0D01*
G01*
X79712500Y-130265000D02*
G75*
G02X77712500Y-128265000I0J2000000D01*
G01*
X93712500Y-109765000D02*
X93712500Y-128265000D01*
X77712500Y-109765000D02*
X93712500Y-109765000D01*
X77712500Y-128265000D02*
X77712500Y-109765000D01*
X150500000Y-96425000D02*
X150500000Y-97825000D01*
X149800000Y-98525000D02*
X149200000Y-98525000D01*
X148500000Y-97825000D02*
X148500000Y-96425000D01*
X149200000Y-95725000D02*
X149800000Y-95725000D01*
X149800000Y-95725000D02*
G75*
G02X150500000Y-96425000I0J-700000D01*
G01*
X148500000Y-96425000D02*
G75*
G02X149200000Y-95725000I700000J0D01*
G01*
X149200000Y-98525000D02*
G75*
G02X148500000Y-97825000I0J700000D01*
G01*
X150500000Y-97825000D02*
G75*
G02X149800000Y-98525000I-700000J0D01*
G01*
X153500000Y-101025000D02*
G75*
G02X152800000Y-101725000I-700000J0D01*
G01*
X152200000Y-101725000D02*
G75*
G02X151500000Y-101025000I0J700000D01*
G01*
X151500000Y-99625000D02*
G75*
G02X152200000Y-98925000I700000J0D01*
G01*
X152800000Y-98925000D02*
G75*
G02X153500000Y-99625000I0J-700000D01*
G01*
X152200000Y-98925000D02*
X152800000Y-98925000D01*
X151500000Y-101025000D02*
X151500000Y-99625000D01*
X152800000Y-101725000D02*
X152200000Y-101725000D01*
X153500000Y-99625000D02*
X153500000Y-101025000D01*
X150500000Y-102825000D02*
X150500000Y-104225000D01*
X149800000Y-104925000D02*
X149200000Y-104925000D01*
X148500000Y-104225000D02*
X148500000Y-102825000D01*
X149200000Y-102125000D02*
X149800000Y-102125000D01*
X149800000Y-102125000D02*
G75*
G02X150500000Y-102825000I0J-700000D01*
G01*
X148500000Y-102825000D02*
G75*
G02X149200000Y-102125000I700000J0D01*
G01*
X149200000Y-104925000D02*
G75*
G02X148500000Y-104225000I0J700000D01*
G01*
X150500000Y-104225000D02*
G75*
G02X149800000Y-104925000I-700000J0D01*
G01*
X153500000Y-107425000D02*
G75*
G02X152800000Y-108125000I-700000J0D01*
G01*
X152200000Y-108125000D02*
G75*
G02X151500000Y-107425000I0J700000D01*
G01*
X151500000Y-106025000D02*
G75*
G02X152200000Y-105325000I700000J0D01*
G01*
X152800000Y-105325000D02*
G75*
G02X153500000Y-106025000I0J-700000D01*
G01*
X152200000Y-105325000D02*
X152800000Y-105325000D01*
X151500000Y-107425000D02*
X151500000Y-106025000D01*
X152800000Y-108125000D02*
X152200000Y-108125000D01*
X153500000Y-106025000D02*
X153500000Y-107425000D01*
X150500000Y-109225000D02*
X150500000Y-110625000D01*
X149800000Y-111325000D02*
X149200000Y-111325000D01*
X148500000Y-110625000D02*
X148500000Y-109225000D01*
X149200000Y-108525000D02*
X149800000Y-108525000D01*
X149800000Y-108525000D02*
G75*
G02X150500000Y-109225000I0J-700000D01*
G01*
X148500000Y-109225000D02*
G75*
G02X149200000Y-108525000I700000J0D01*
G01*
X149200000Y-111325000D02*
G75*
G02X148500000Y-110625000I0J700000D01*
G01*
X150500000Y-110625000D02*
G75*
G02X149800000Y-111325000I-700000J0D01*
G01*
X153500000Y-113825000D02*
G75*
G02X152800000Y-114525000I-700000J0D01*
G01*
X152200000Y-114525000D02*
G75*
G02X151500000Y-113825000I0J700000D01*
G01*
X151500000Y-112425000D02*
G75*
G02X152200000Y-111725000I700000J0D01*
G01*
X152800000Y-111725000D02*
G75*
G02X153500000Y-112425000I0J-700000D01*
G01*
X152200000Y-111725000D02*
X152800000Y-111725000D01*
X151500000Y-113825000D02*
X151500000Y-112425000D01*
X152800000Y-114525000D02*
X152200000Y-114525000D01*
X153500000Y-112425000D02*
X153500000Y-113825000D01*
X208380000Y-39080000D02*
X208000000Y-39080000D01*
X208380000Y-32660000D02*
X208380000Y-39080000D01*
X226620000Y-32660000D02*
X226620000Y-39080000D01*
X208380000Y-32660000D02*
X226620000Y-32660000D01*
X226620000Y-58405000D02*
X225620000Y-58405000D01*
X226620000Y-57625000D02*
X226620000Y-58405000D01*
X208380000Y-58405000D02*
X209380000Y-58405000D01*
X208380000Y-57625000D02*
X208380000Y-58405000D01*
X206622000Y-48445267D02*
X206622000Y-48102733D01*
X205602000Y-48445267D02*
X205602000Y-48102733D01*
X205037733Y-56799000D02*
X205380267Y-56799000D01*
X205037733Y-55779000D02*
X205380267Y-55779000D01*
X205380267Y-53747000D02*
X205037733Y-53747000D01*
X205380267Y-54767000D02*
X205037733Y-54767000D01*
X203384646Y-53695000D02*
X203384646Y-52695000D01*
X203884646Y-53195000D02*
X202884646Y-53195000D01*
X193324000Y-50919000D02*
X193324000Y-49721000D01*
X193364000Y-51182000D02*
X193364000Y-49458000D01*
X193404000Y-51382000D02*
X193404000Y-49258000D01*
X193444000Y-51550000D02*
X193444000Y-49090000D01*
X193484000Y-51698000D02*
X193484000Y-48942000D01*
X193524000Y-51830000D02*
X193524000Y-48810000D01*
X193564000Y-51950000D02*
X193564000Y-48690000D01*
X193604000Y-52062000D02*
X193604000Y-48578000D01*
X193644000Y-52166000D02*
X193644000Y-48474000D01*
X193684000Y-52264000D02*
X193684000Y-48376000D01*
X193724000Y-52357000D02*
X193724000Y-48283000D01*
X193764000Y-52445000D02*
X193764000Y-48195000D01*
X193804000Y-52529000D02*
X193804000Y-48111000D01*
X193844000Y-52609000D02*
X193844000Y-48031000D01*
X193884000Y-52685000D02*
X193884000Y-47955000D01*
X193924000Y-52759000D02*
X193924000Y-47881000D01*
X193964000Y-52830000D02*
X193964000Y-47810000D01*
X194004000Y-52899000D02*
X194004000Y-47741000D01*
X194044000Y-52965000D02*
X194044000Y-47675000D01*
X194084000Y-53029000D02*
X194084000Y-47611000D01*
X194124000Y-53090000D02*
X194124000Y-47550000D01*
X194164000Y-53150000D02*
X194164000Y-47490000D01*
X194204000Y-53209000D02*
X194204000Y-47431000D01*
X194244000Y-53265000D02*
X194244000Y-47375000D01*
X194284000Y-53320000D02*
X194284000Y-47320000D01*
X194324000Y-53374000D02*
X194324000Y-47266000D01*
X194364000Y-53426000D02*
X194364000Y-47214000D01*
X194404000Y-53476000D02*
X194404000Y-47164000D01*
X194444000Y-53526000D02*
X194444000Y-47114000D01*
X194484000Y-53574000D02*
X194484000Y-47066000D01*
X194524000Y-53621000D02*
X194524000Y-47019000D01*
X194564000Y-53667000D02*
X194564000Y-46973000D01*
X194604000Y-53712000D02*
X194604000Y-46928000D01*
X194644000Y-53756000D02*
X194644000Y-46884000D01*
X194684000Y-49079000D02*
X194684000Y-46842000D01*
X194684000Y-53798000D02*
X194684000Y-51561000D01*
X194724000Y-49079000D02*
X194724000Y-46800000D01*
X194724000Y-53840000D02*
X194724000Y-51561000D01*
X194764000Y-49079000D02*
X194764000Y-46759000D01*
X194764000Y-53881000D02*
X194764000Y-51561000D01*
X194804000Y-49079000D02*
X194804000Y-46719000D01*
X194804000Y-53921000D02*
X194804000Y-51561000D01*
X194844000Y-49079000D02*
X194844000Y-46680000D01*
X194844000Y-53960000D02*
X194844000Y-51561000D01*
X194884000Y-49079000D02*
X194884000Y-46641000D01*
X194884000Y-53999000D02*
X194884000Y-51561000D01*
X194924000Y-49079000D02*
X194924000Y-46604000D01*
X194924000Y-54036000D02*
X194924000Y-51561000D01*
X194964000Y-49079000D02*
X194964000Y-46567000D01*
X194964000Y-54073000D02*
X194964000Y-51561000D01*
X195004000Y-49079000D02*
X195004000Y-46531000D01*
X195004000Y-54109000D02*
X195004000Y-51561000D01*
X195044000Y-49079000D02*
X195044000Y-46496000D01*
X195044000Y-54144000D02*
X195044000Y-51561000D01*
X195084000Y-49079000D02*
X195084000Y-46462000D01*
X195084000Y-54178000D02*
X195084000Y-51561000D01*
X195124000Y-49079000D02*
X195124000Y-46428000D01*
X195124000Y-54212000D02*
X195124000Y-51561000D01*
X195164000Y-49079000D02*
X195164000Y-46395000D01*
X195164000Y-54245000D02*
X195164000Y-51561000D01*
X195204000Y-49079000D02*
X195204000Y-46363000D01*
X195204000Y-54277000D02*
X195204000Y-51561000D01*
X195244000Y-49079000D02*
X195244000Y-46331000D01*
X195244000Y-54309000D02*
X195244000Y-51561000D01*
X195284000Y-49079000D02*
X195284000Y-46300000D01*
X195284000Y-54340000D02*
X195284000Y-51561000D01*
X195324000Y-49079000D02*
X195324000Y-46270000D01*
X195324000Y-54370000D02*
X195324000Y-51561000D01*
X195364000Y-49079000D02*
X195364000Y-46240000D01*
X195364000Y-54400000D02*
X195364000Y-51561000D01*
X195404000Y-49079000D02*
X195404000Y-46210000D01*
X195404000Y-54430000D02*
X195404000Y-51561000D01*
X195444000Y-49079000D02*
X195444000Y-46182000D01*
X195444000Y-54458000D02*
X195444000Y-51561000D01*
X195484000Y-49079000D02*
X195484000Y-46154000D01*
X195484000Y-54486000D02*
X195484000Y-51561000D01*
X195524000Y-49079000D02*
X195524000Y-46126000D01*
X195524000Y-54514000D02*
X195524000Y-51561000D01*
X195564000Y-49079000D02*
X195564000Y-46099000D01*
X195564000Y-54541000D02*
X195564000Y-51561000D01*
X195604000Y-49079000D02*
X195604000Y-46073000D01*
X195604000Y-54567000D02*
X195604000Y-51561000D01*
X195644000Y-49079000D02*
X195644000Y-46047000D01*
X195644000Y-54593000D02*
X195644000Y-51561000D01*
X195684000Y-49079000D02*
X195684000Y-46022000D01*
X195684000Y-54618000D02*
X195684000Y-51561000D01*
X195724000Y-49079000D02*
X195724000Y-45997000D01*
X195724000Y-54643000D02*
X195724000Y-51561000D01*
X195764000Y-49079000D02*
X195764000Y-45973000D01*
X195764000Y-54667000D02*
X195764000Y-51561000D01*
X195804000Y-49079000D02*
X195804000Y-45949000D01*
X195804000Y-54691000D02*
X195804000Y-51561000D01*
X195844000Y-49079000D02*
X195844000Y-45925000D01*
X195844000Y-54715000D02*
X195844000Y-51561000D01*
X195884000Y-49079000D02*
X195884000Y-45903000D01*
X195884000Y-54737000D02*
X195884000Y-51561000D01*
X195924000Y-49079000D02*
X195924000Y-45880000D01*
X195924000Y-54760000D02*
X195924000Y-51561000D01*
X195964000Y-49079000D02*
X195964000Y-45858000D01*
X195964000Y-54782000D02*
X195964000Y-51561000D01*
X196004000Y-49079000D02*
X196004000Y-45837000D01*
X196004000Y-54803000D02*
X196004000Y-51561000D01*
X196044000Y-49079000D02*
X196044000Y-45816000D01*
X196044000Y-54824000D02*
X196044000Y-51561000D01*
X196084000Y-49079000D02*
X196084000Y-45795000D01*
X196084000Y-54845000D02*
X196084000Y-51561000D01*
X196124000Y-49079000D02*
X196124000Y-45775000D01*
X196124000Y-54865000D02*
X196124000Y-51561000D01*
X196164000Y-49079000D02*
X196164000Y-45756000D01*
X196164000Y-54884000D02*
X196164000Y-51561000D01*
X196204000Y-49079000D02*
X196204000Y-45736000D01*
X196204000Y-54904000D02*
X196204000Y-51561000D01*
X196244000Y-49079000D02*
X196244000Y-45717000D01*
X196244000Y-54923000D02*
X196244000Y-51561000D01*
X196284000Y-49079000D02*
X196284000Y-45699000D01*
X196284000Y-54941000D02*
X196284000Y-51561000D01*
X196324000Y-49079000D02*
X196324000Y-45681000D01*
X196324000Y-54959000D02*
X196324000Y-51561000D01*
X196364000Y-49079000D02*
X196364000Y-45663000D01*
X196364000Y-54977000D02*
X196364000Y-51561000D01*
X196404000Y-49079000D02*
X196404000Y-45646000D01*
X196404000Y-54994000D02*
X196404000Y-51561000D01*
X196444000Y-49079000D02*
X196444000Y-45630000D01*
X196444000Y-55010000D02*
X196444000Y-51561000D01*
X196484000Y-49079000D02*
X196484000Y-45613000D01*
X196484000Y-55027000D02*
X196484000Y-51561000D01*
X196524000Y-49079000D02*
X196524000Y-45597000D01*
X196524000Y-55043000D02*
X196524000Y-51561000D01*
X196564000Y-49079000D02*
X196564000Y-45582000D01*
X196564000Y-55058000D02*
X196564000Y-51561000D01*
X196604000Y-49079000D02*
X196604000Y-45566000D01*
X196604000Y-55074000D02*
X196604000Y-51561000D01*
X196644000Y-49079000D02*
X196644000Y-45552000D01*
X196644000Y-55088000D02*
X196644000Y-51561000D01*
X196684000Y-49079000D02*
X196684000Y-45537000D01*
X196684000Y-55103000D02*
X196684000Y-51561000D01*
X196724000Y-49079000D02*
X196724000Y-45523000D01*
X196724000Y-55117000D02*
X196724000Y-51561000D01*
X196764000Y-49079000D02*
X196764000Y-45509000D01*
X196764000Y-55131000D02*
X196764000Y-51561000D01*
X196804000Y-49079000D02*
X196804000Y-45496000D01*
X196804000Y-55144000D02*
X196804000Y-51561000D01*
X196844000Y-49079000D02*
X196844000Y-45483000D01*
X196844000Y-55157000D02*
X196844000Y-51561000D01*
X196884000Y-49079000D02*
X196884000Y-45470000D01*
X196884000Y-55170000D02*
X196884000Y-51561000D01*
X196924000Y-49079000D02*
X196924000Y-45458000D01*
X196924000Y-55182000D02*
X196924000Y-51561000D01*
X196964000Y-49079000D02*
X196964000Y-45446000D01*
X196964000Y-55194000D02*
X196964000Y-51561000D01*
X197004000Y-49079000D02*
X197004000Y-45435000D01*
X197004000Y-55205000D02*
X197004000Y-51561000D01*
X197044000Y-49079000D02*
X197044000Y-45423000D01*
X197044000Y-55217000D02*
X197044000Y-51561000D01*
X197084000Y-49079000D02*
X197084000Y-45413000D01*
X197084000Y-55227000D02*
X197084000Y-51561000D01*
X197124000Y-49079000D02*
X197124000Y-45402000D01*
X197124000Y-55238000D02*
X197124000Y-51561000D01*
X197164000Y-55248000D02*
X197164000Y-45392000D01*
X197204000Y-55258000D02*
X197204000Y-45382000D01*
X197244000Y-55267000D02*
X197244000Y-45373000D01*
X197284000Y-55276000D02*
X197284000Y-45364000D01*
X197324000Y-55285000D02*
X197324000Y-45355000D01*
X197364000Y-55294000D02*
X197364000Y-45346000D01*
X197404000Y-55302000D02*
X197404000Y-45338000D01*
X197444000Y-55310000D02*
X197444000Y-45330000D01*
X197484000Y-55317000D02*
X197484000Y-45323000D01*
X197524000Y-55324000D02*
X197524000Y-45316000D01*
X197564000Y-55331000D02*
X197564000Y-45309000D01*
X197604000Y-55338000D02*
X197604000Y-45302000D01*
X197644000Y-55344000D02*
X197644000Y-45296000D01*
X197684000Y-55350000D02*
X197684000Y-45290000D01*
X197725000Y-55355000D02*
X197725000Y-45285000D01*
X197765000Y-55360000D02*
X197765000Y-45280000D01*
X197805000Y-55365000D02*
X197805000Y-45275000D01*
X197845000Y-55370000D02*
X197845000Y-45270000D01*
X197885000Y-55374000D02*
X197885000Y-45266000D01*
X197925000Y-55378000D02*
X197925000Y-45262000D01*
X197965000Y-55382000D02*
X197965000Y-45258000D01*
X198005000Y-55385000D02*
X198005000Y-45255000D01*
X198045000Y-55388000D02*
X198045000Y-45252000D01*
X198085000Y-55390000D02*
X198085000Y-45250000D01*
X198125000Y-55393000D02*
X198125000Y-45247000D01*
X198165000Y-55395000D02*
X198165000Y-45245000D01*
X198205000Y-55397000D02*
X198205000Y-45243000D01*
X198245000Y-55398000D02*
X198245000Y-45242000D01*
X198285000Y-55399000D02*
X198285000Y-45241000D01*
X198325000Y-55400000D02*
X198325000Y-45240000D01*
X198365000Y-55400000D02*
X198365000Y-45240000D01*
X198405000Y-55400000D02*
X198405000Y-45240000D01*
X203525000Y-50320000D02*
G75*
G03X203525000Y-50320000I-5120000J0D01*
G01*
X203865000Y-58605000D02*
X204180000Y-58605000D01*
X201440000Y-58605000D02*
X201755000Y-58605000D01*
X203865000Y-63545000D02*
X204180000Y-63545000D01*
X201440000Y-63545000D02*
X201755000Y-63545000D01*
X204180000Y-63545000D02*
X204180000Y-58605000D01*
X201440000Y-63545000D02*
X201440000Y-58605000D01*
X189839000Y-56250000D02*
X189839000Y-55935000D01*
X189839000Y-58675000D02*
X189839000Y-58360000D01*
X194779000Y-56250000D02*
X194779000Y-55935000D01*
X194779000Y-58675000D02*
X194779000Y-58360000D01*
X194779000Y-55935000D02*
X189839000Y-55935000D01*
X194779000Y-58675000D02*
X189839000Y-58675000D01*
X188740000Y-47295000D02*
X191480000Y-47295000D01*
X188740000Y-54535000D02*
X191480000Y-54535000D01*
X191480000Y-54535000D02*
X191480000Y-47295000D01*
X188740000Y-54535000D02*
X188740000Y-47295000D01*
X188345354Y-36785000D02*
X188345354Y-37785000D01*
X187845354Y-37285000D02*
X188845354Y-37285000D01*
X198406000Y-39561000D02*
X198406000Y-40759000D01*
X198366000Y-39298000D02*
X198366000Y-41022000D01*
X198326000Y-39098000D02*
X198326000Y-41222000D01*
X198286000Y-38930000D02*
X198286000Y-41390000D01*
X198246000Y-38782000D02*
X198246000Y-41538000D01*
X198206000Y-38650000D02*
X198206000Y-41670000D01*
X198166000Y-38530000D02*
X198166000Y-41790000D01*
X198126000Y-38418000D02*
X198126000Y-41902000D01*
X198086000Y-38314000D02*
X198086000Y-42006000D01*
X198046000Y-38216000D02*
X198046000Y-42104000D01*
X198006000Y-38123000D02*
X198006000Y-42197000D01*
X197966000Y-38035000D02*
X197966000Y-42285000D01*
X197926000Y-37951000D02*
X197926000Y-42369000D01*
X197886000Y-37871000D02*
X197886000Y-42449000D01*
X197846000Y-37795000D02*
X197846000Y-42525000D01*
X197806000Y-37721000D02*
X197806000Y-42599000D01*
X197766000Y-37650000D02*
X197766000Y-42670000D01*
X197726000Y-37581000D02*
X197726000Y-42739000D01*
X197686000Y-37515000D02*
X197686000Y-42805000D01*
X197646000Y-37451000D02*
X197646000Y-42869000D01*
X197606000Y-37390000D02*
X197606000Y-42930000D01*
X197566000Y-37330000D02*
X197566000Y-42990000D01*
X197526000Y-37271000D02*
X197526000Y-43049000D01*
X197486000Y-37215000D02*
X197486000Y-43105000D01*
X197446000Y-37160000D02*
X197446000Y-43160000D01*
X197406000Y-37106000D02*
X197406000Y-43214000D01*
X197366000Y-37054000D02*
X197366000Y-43266000D01*
X197326000Y-37004000D02*
X197326000Y-43316000D01*
X197286000Y-36954000D02*
X197286000Y-43366000D01*
X197246000Y-36906000D02*
X197246000Y-43414000D01*
X197206000Y-36859000D02*
X197206000Y-43461000D01*
X197166000Y-36813000D02*
X197166000Y-43507000D01*
X197126000Y-36768000D02*
X197126000Y-43552000D01*
X197086000Y-36724000D02*
X197086000Y-43596000D01*
X197046000Y-41401000D02*
X197046000Y-43638000D01*
X197046000Y-36682000D02*
X197046000Y-38919000D01*
X197006000Y-41401000D02*
X197006000Y-43680000D01*
X197006000Y-36640000D02*
X197006000Y-38919000D01*
X196966000Y-41401000D02*
X196966000Y-43721000D01*
X196966000Y-36599000D02*
X196966000Y-38919000D01*
X196926000Y-41401000D02*
X196926000Y-43761000D01*
X196926000Y-36559000D02*
X196926000Y-38919000D01*
X196886000Y-41401000D02*
X196886000Y-43800000D01*
X196886000Y-36520000D02*
X196886000Y-38919000D01*
X196846000Y-41401000D02*
X196846000Y-43839000D01*
X196846000Y-36481000D02*
X196846000Y-38919000D01*
X196806000Y-41401000D02*
X196806000Y-43876000D01*
X196806000Y-36444000D02*
X196806000Y-38919000D01*
X196766000Y-41401000D02*
X196766000Y-43913000D01*
X196766000Y-36407000D02*
X196766000Y-38919000D01*
X196726000Y-41401000D02*
X196726000Y-43949000D01*
X196726000Y-36371000D02*
X196726000Y-38919000D01*
X196686000Y-41401000D02*
X196686000Y-43984000D01*
X196686000Y-36336000D02*
X196686000Y-38919000D01*
X196646000Y-41401000D02*
X196646000Y-44018000D01*
X196646000Y-36302000D02*
X196646000Y-38919000D01*
X196606000Y-41401000D02*
X196606000Y-44052000D01*
X196606000Y-36268000D02*
X196606000Y-38919000D01*
X196566000Y-41401000D02*
X196566000Y-44085000D01*
X196566000Y-36235000D02*
X196566000Y-38919000D01*
X196526000Y-41401000D02*
X196526000Y-44117000D01*
X196526000Y-36203000D02*
X196526000Y-38919000D01*
X196486000Y-41401000D02*
X196486000Y-44149000D01*
X196486000Y-36171000D02*
X196486000Y-38919000D01*
X196446000Y-41401000D02*
X196446000Y-44180000D01*
X196446000Y-36140000D02*
X196446000Y-38919000D01*
X196406000Y-41401000D02*
X196406000Y-44210000D01*
X196406000Y-36110000D02*
X196406000Y-38919000D01*
X196366000Y-41401000D02*
X196366000Y-44240000D01*
X196366000Y-36080000D02*
X196366000Y-38919000D01*
X196326000Y-41401000D02*
X196326000Y-44270000D01*
X196326000Y-36050000D02*
X196326000Y-38919000D01*
X196286000Y-41401000D02*
X196286000Y-44298000D01*
X196286000Y-36022000D02*
X196286000Y-38919000D01*
X196246000Y-41401000D02*
X196246000Y-44326000D01*
X196246000Y-35994000D02*
X196246000Y-38919000D01*
X196206000Y-41401000D02*
X196206000Y-44354000D01*
X196206000Y-35966000D02*
X196206000Y-38919000D01*
X196166000Y-41401000D02*
X196166000Y-44381000D01*
X196166000Y-35939000D02*
X196166000Y-38919000D01*
X196126000Y-41401000D02*
X196126000Y-44407000D01*
X196126000Y-35913000D02*
X196126000Y-38919000D01*
X196086000Y-41401000D02*
X196086000Y-44433000D01*
X196086000Y-35887000D02*
X196086000Y-38919000D01*
X196046000Y-41401000D02*
X196046000Y-44458000D01*
X196046000Y-35862000D02*
X196046000Y-38919000D01*
X196006000Y-41401000D02*
X196006000Y-44483000D01*
X196006000Y-35837000D02*
X196006000Y-38919000D01*
X195966000Y-41401000D02*
X195966000Y-44507000D01*
X195966000Y-35813000D02*
X195966000Y-38919000D01*
X195926000Y-41401000D02*
X195926000Y-44531000D01*
X195926000Y-35789000D02*
X195926000Y-38919000D01*
X195886000Y-41401000D02*
X195886000Y-44555000D01*
X195886000Y-35765000D02*
X195886000Y-38919000D01*
X195846000Y-41401000D02*
X195846000Y-44577000D01*
X195846000Y-35743000D02*
X195846000Y-38919000D01*
X195806000Y-41401000D02*
X195806000Y-44600000D01*
X195806000Y-35720000D02*
X195806000Y-38919000D01*
X195766000Y-41401000D02*
X195766000Y-44622000D01*
X195766000Y-35698000D02*
X195766000Y-38919000D01*
X195726000Y-41401000D02*
X195726000Y-44643000D01*
X195726000Y-35677000D02*
X195726000Y-38919000D01*
X195686000Y-41401000D02*
X195686000Y-44664000D01*
X195686000Y-35656000D02*
X195686000Y-38919000D01*
X195646000Y-41401000D02*
X195646000Y-44685000D01*
X195646000Y-35635000D02*
X195646000Y-38919000D01*
X195606000Y-41401000D02*
X195606000Y-44705000D01*
X195606000Y-35615000D02*
X195606000Y-38919000D01*
X195566000Y-41401000D02*
X195566000Y-44724000D01*
X195566000Y-35596000D02*
X195566000Y-38919000D01*
X195526000Y-41401000D02*
X195526000Y-44744000D01*
X195526000Y-35576000D02*
X195526000Y-38919000D01*
X195486000Y-41401000D02*
X195486000Y-44763000D01*
X195486000Y-35557000D02*
X195486000Y-38919000D01*
X195446000Y-41401000D02*
X195446000Y-44781000D01*
X195446000Y-35539000D02*
X195446000Y-38919000D01*
X195406000Y-41401000D02*
X195406000Y-44799000D01*
X195406000Y-35521000D02*
X195406000Y-38919000D01*
X195366000Y-41401000D02*
X195366000Y-44817000D01*
X195366000Y-35503000D02*
X195366000Y-38919000D01*
X195326000Y-41401000D02*
X195326000Y-44834000D01*
X195326000Y-35486000D02*
X195326000Y-38919000D01*
X195286000Y-41401000D02*
X195286000Y-44850000D01*
X195286000Y-35470000D02*
X195286000Y-38919000D01*
X195246000Y-41401000D02*
X195246000Y-44867000D01*
X195246000Y-35453000D02*
X195246000Y-38919000D01*
X195206000Y-41401000D02*
X195206000Y-44883000D01*
X195206000Y-35437000D02*
X195206000Y-38919000D01*
X195166000Y-41401000D02*
X195166000Y-44898000D01*
X195166000Y-35422000D02*
X195166000Y-38919000D01*
X195126000Y-41401000D02*
X195126000Y-44914000D01*
X195126000Y-35406000D02*
X195126000Y-38919000D01*
X195086000Y-41401000D02*
X195086000Y-44928000D01*
X195086000Y-35392000D02*
X195086000Y-38919000D01*
X195046000Y-41401000D02*
X195046000Y-44943000D01*
X195046000Y-35377000D02*
X195046000Y-38919000D01*
X195006000Y-41401000D02*
X195006000Y-44957000D01*
X195006000Y-35363000D02*
X195006000Y-38919000D01*
X194966000Y-41401000D02*
X194966000Y-44971000D01*
X194966000Y-35349000D02*
X194966000Y-38919000D01*
X194926000Y-41401000D02*
X194926000Y-44984000D01*
X194926000Y-35336000D02*
X194926000Y-38919000D01*
X194886000Y-41401000D02*
X194886000Y-44997000D01*
X194886000Y-35323000D02*
X194886000Y-38919000D01*
X194846000Y-41401000D02*
X194846000Y-45010000D01*
X194846000Y-35310000D02*
X194846000Y-38919000D01*
X194806000Y-41401000D02*
X194806000Y-45022000D01*
X194806000Y-35298000D02*
X194806000Y-38919000D01*
X194766000Y-41401000D02*
X194766000Y-45034000D01*
X194766000Y-35286000D02*
X194766000Y-38919000D01*
X194726000Y-41401000D02*
X194726000Y-45045000D01*
X194726000Y-35275000D02*
X194726000Y-38919000D01*
X194686000Y-41401000D02*
X194686000Y-45057000D01*
X194686000Y-35263000D02*
X194686000Y-38919000D01*
X194646000Y-41401000D02*
X194646000Y-45067000D01*
X194646000Y-35253000D02*
X194646000Y-38919000D01*
X194606000Y-41401000D02*
X194606000Y-45078000D01*
X194606000Y-35242000D02*
X194606000Y-38919000D01*
X194566000Y-35232000D02*
X194566000Y-45088000D01*
X194526000Y-35222000D02*
X194526000Y-45098000D01*
X194486000Y-35213000D02*
X194486000Y-45107000D01*
X194446000Y-35204000D02*
X194446000Y-45116000D01*
X194406000Y-35195000D02*
X194406000Y-45125000D01*
X194366000Y-35186000D02*
X194366000Y-45134000D01*
X194326000Y-35178000D02*
X194326000Y-45142000D01*
X194286000Y-35170000D02*
X194286000Y-45150000D01*
X194246000Y-35163000D02*
X194246000Y-45157000D01*
X194206000Y-35156000D02*
X194206000Y-45164000D01*
X194166000Y-35149000D02*
X194166000Y-45171000D01*
X194126000Y-35142000D02*
X194126000Y-45178000D01*
X194086000Y-35136000D02*
X194086000Y-45184000D01*
X194046000Y-35130000D02*
X194046000Y-45190000D01*
X194005000Y-35125000D02*
X194005000Y-45195000D01*
X193965000Y-35120000D02*
X193965000Y-45200000D01*
X193925000Y-35115000D02*
X193925000Y-45205000D01*
X193885000Y-35110000D02*
X193885000Y-45210000D01*
X193845000Y-35106000D02*
X193845000Y-45214000D01*
X193805000Y-35102000D02*
X193805000Y-45218000D01*
X193765000Y-35098000D02*
X193765000Y-45222000D01*
X193725000Y-35095000D02*
X193725000Y-45225000D01*
X193685000Y-35092000D02*
X193685000Y-45228000D01*
X193645000Y-35090000D02*
X193645000Y-45230000D01*
X193605000Y-35087000D02*
X193605000Y-45233000D01*
X193565000Y-35085000D02*
X193565000Y-45235000D01*
X193525000Y-35083000D02*
X193525000Y-45237000D01*
X193485000Y-35082000D02*
X193485000Y-45238000D01*
X193445000Y-35081000D02*
X193445000Y-45239000D01*
X193405000Y-35080000D02*
X193405000Y-45240000D01*
X193365000Y-35080000D02*
X193365000Y-45240000D01*
X193325000Y-35080000D02*
X193325000Y-45240000D01*
X198445000Y-40160000D02*
G75*
G03X198445000Y-40160000I-5120000J0D01*
G01*
X231482000Y-64202000D02*
X231482000Y-64517000D01*
X231482000Y-61777000D02*
X231482000Y-62092000D01*
X226542000Y-64202000D02*
X226542000Y-64517000D01*
X226542000Y-61777000D02*
X226542000Y-62092000D01*
X226542000Y-64517000D02*
X231482000Y-64517000D01*
X226542000Y-61777000D02*
X231482000Y-61777000D01*
X205828000Y-44390000D02*
X205828000Y-44705000D01*
X205828000Y-41965000D02*
X205828000Y-42280000D01*
X200888000Y-44390000D02*
X200888000Y-44705000D01*
X200888000Y-41965000D02*
X200888000Y-42280000D01*
X200888000Y-44705000D02*
X205828000Y-44705000D01*
X200888000Y-41965000D02*
X205828000Y-41965000D01*
X203300000Y-66725000D02*
X201300000Y-66725000D01*
X203300000Y-68965000D02*
X203300000Y-66725000D01*
X191800000Y-69942000D02*
X191850000Y-69892000D01*
X189367000Y-72375000D02*
X189392000Y-72351000D01*
X191608000Y-69700000D02*
X191632000Y-69675000D01*
X189150000Y-72158000D02*
X189199000Y-72108000D01*
X196800000Y-69942000D02*
X196850000Y-69892000D01*
X194367000Y-72375000D02*
X194392000Y-72351000D01*
X196608000Y-69700000D02*
X196632000Y-69675000D01*
X194150000Y-72158000D02*
X194199000Y-72108000D01*
X187940000Y-77585000D02*
X187940000Y-66965000D01*
X203060000Y-77585000D02*
X203060000Y-66965000D01*
X203060000Y-66965000D02*
X187940000Y-66965000D01*
X203060000Y-77585000D02*
X187940000Y-77585000D01*
X203060000Y-74025000D02*
X187940000Y-74025000D01*
X203060000Y-73025000D02*
X187940000Y-73025000D01*
X203060000Y-69025000D02*
X187940000Y-69025000D01*
X192280000Y-71025000D02*
G75*
G03X192280000Y-71025000I-1780000J0D01*
G01*
X197280000Y-71025000D02*
G75*
G03X197280000Y-71025000I-1780000J0D01*
G01*
X200469186Y-69244611D02*
G75*
G02X201196000Y-69386000I30814J-1780389D01*
G01*
X202139205Y-70329484D02*
G75*
G02X202139000Y-71721000I-1639205J-695516D01*
G01*
X201195516Y-72664205D02*
G75*
G02X199804000Y-72664000I-695516J1639205D01*
G01*
X198860795Y-71720516D02*
G75*
G02X198861000Y-70329000I1639205J695516D01*
G01*
X199804499Y-69386501D02*
G75*
G02X200500000Y-69245000I695501J-1638499D01*
G01*
X234582000Y-49788000D02*
X234582000Y-51788000D01*
X236822000Y-49788000D02*
X234582000Y-49788000D01*
X237799000Y-61288000D02*
X237749000Y-61238000D01*
X240232000Y-63721000D02*
X240208000Y-63696000D01*
X237557000Y-61480000D02*
X237532000Y-61456000D01*
X240015000Y-63938000D02*
X239965000Y-63889000D01*
X237799000Y-56288000D02*
X237749000Y-56238000D01*
X240232000Y-58721000D02*
X240208000Y-58696000D01*
X237557000Y-56480000D02*
X237532000Y-56456000D01*
X240015000Y-58938000D02*
X239965000Y-58889000D01*
X245442000Y-65148000D02*
X234822000Y-65148000D01*
X245442000Y-50028000D02*
X234822000Y-50028000D01*
X234822000Y-50028000D02*
X234822000Y-65148000D01*
X245442000Y-50028000D02*
X245442000Y-65148000D01*
X241882000Y-50028000D02*
X241882000Y-65148000D01*
X240882000Y-50028000D02*
X240882000Y-65148000D01*
X236882000Y-50028000D02*
X236882000Y-65148000D01*
X240662000Y-62588000D02*
G75*
G03X240662000Y-62588000I-1780000J0D01*
G01*
X240662000Y-57588000D02*
G75*
G03X240662000Y-57588000I-1780000J0D01*
G01*
X237101611Y-52618814D02*
G75*
G02X237243000Y-51892000I1780389J30814D01*
G01*
X238186484Y-50948795D02*
G75*
G02X239578000Y-50949000I695516J-1639205D01*
G01*
X240521205Y-51892484D02*
G75*
G02X240521000Y-53284000I-1639205J-695516D01*
G01*
X239577516Y-54227205D02*
G75*
G02X238186000Y-54227000I-695516J1639205D01*
G01*
X237243501Y-53283501D02*
G75*
G02X237102000Y-52588000I1638499J695501D01*
G01*
X234582000Y-34788000D02*
X234582000Y-36788000D01*
X236822000Y-34788000D02*
X234582000Y-34788000D01*
X237799000Y-46288000D02*
X237749000Y-46238000D01*
X240232000Y-48721000D02*
X240208000Y-48696000D01*
X237557000Y-46480000D02*
X237532000Y-46456000D01*
X240015000Y-48938000D02*
X239965000Y-48889000D01*
X237799000Y-41288000D02*
X237749000Y-41238000D01*
X240232000Y-43721000D02*
X240208000Y-43696000D01*
X237557000Y-41480000D02*
X237532000Y-41456000D01*
X240015000Y-43938000D02*
X239965000Y-43889000D01*
X245442000Y-50148000D02*
X234822000Y-50148000D01*
X245442000Y-35028000D02*
X234822000Y-35028000D01*
X234822000Y-35028000D02*
X234822000Y-50148000D01*
X245442000Y-35028000D02*
X245442000Y-50148000D01*
X241882000Y-35028000D02*
X241882000Y-50148000D01*
X240882000Y-35028000D02*
X240882000Y-50148000D01*
X236882000Y-35028000D02*
X236882000Y-50148000D01*
X240662000Y-47588000D02*
G75*
G03X240662000Y-47588000I-1780000J0D01*
G01*
X240662000Y-42588000D02*
G75*
G03X240662000Y-42588000I-1780000J0D01*
G01*
X237101611Y-37618814D02*
G75*
G02X237243000Y-36892000I1780389J30814D01*
G01*
X238186484Y-35948795D02*
G75*
G02X239578000Y-35949000I695516J-1639205D01*
G01*
X240521205Y-36892484D02*
G75*
G02X240521000Y-38284000I-1639205J-695516D01*
G01*
X239577516Y-39227205D02*
G75*
G02X238186000Y-39227000I-695516J1639205D01*
G01*
X237243501Y-38283501D02*
G75*
G02X237102000Y-37588000I1638499J695501D01*
G01*
X233300000Y-66725000D02*
X231300000Y-66725000D01*
X233300000Y-68965000D02*
X233300000Y-66725000D01*
X221800000Y-69942000D02*
X221850000Y-69892000D01*
X219367000Y-72375000D02*
X219392000Y-72351000D01*
X221608000Y-69700000D02*
X221632000Y-69675000D01*
X219150000Y-72158000D02*
X219199000Y-72108000D01*
X226800000Y-69942000D02*
X226850000Y-69892000D01*
X224367000Y-72375000D02*
X224392000Y-72351000D01*
X226608000Y-69700000D02*
X226632000Y-69675000D01*
X224150000Y-72158000D02*
X224199000Y-72108000D01*
X217940000Y-77585000D02*
X217940000Y-66965000D01*
X233060000Y-77585000D02*
X233060000Y-66965000D01*
X233060000Y-66965000D02*
X217940000Y-66965000D01*
X233060000Y-77585000D02*
X217940000Y-77585000D01*
X233060000Y-74025000D02*
X217940000Y-74025000D01*
X233060000Y-73025000D02*
X217940000Y-73025000D01*
X233060000Y-69025000D02*
X217940000Y-69025000D01*
X222280000Y-71025000D02*
G75*
G03X222280000Y-71025000I-1780000J0D01*
G01*
X227280000Y-71025000D02*
G75*
G03X227280000Y-71025000I-1780000J0D01*
G01*
X230469186Y-69244611D02*
G75*
G02X231196000Y-69386000I30814J-1780389D01*
G01*
X232139205Y-70329484D02*
G75*
G02X232139000Y-71721000I-1639205J-695516D01*
G01*
X231195516Y-72664205D02*
G75*
G02X229804000Y-72664000I-695516J1639205D01*
G01*
X228860795Y-71720516D02*
G75*
G02X228861000Y-70329000I1639205J695516D01*
G01*
X229804499Y-69386501D02*
G75*
G02X230500000Y-69245000I695501J-1638499D01*
G01*
X218300000Y-66725000D02*
X216300000Y-66725000D01*
X218300000Y-68965000D02*
X218300000Y-66725000D01*
X206800000Y-69942000D02*
X206850000Y-69892000D01*
X204367000Y-72375000D02*
X204392000Y-72351000D01*
X206608000Y-69700000D02*
X206632000Y-69675000D01*
X204150000Y-72158000D02*
X204199000Y-72108000D01*
X211800000Y-69942000D02*
X211850000Y-69892000D01*
X209367000Y-72375000D02*
X209392000Y-72351000D01*
X211608000Y-69700000D02*
X211632000Y-69675000D01*
X209150000Y-72158000D02*
X209199000Y-72108000D01*
X202940000Y-77585000D02*
X202940000Y-66965000D01*
X218060000Y-77585000D02*
X218060000Y-66965000D01*
X218060000Y-66965000D02*
X202940000Y-66965000D01*
X218060000Y-77585000D02*
X202940000Y-77585000D01*
X218060000Y-74025000D02*
X202940000Y-74025000D01*
X218060000Y-73025000D02*
X202940000Y-73025000D01*
X218060000Y-69025000D02*
X202940000Y-69025000D01*
X207280000Y-71025000D02*
G75*
G03X207280000Y-71025000I-1780000J0D01*
G01*
X212280000Y-71025000D02*
G75*
G03X212280000Y-71025000I-1780000J0D01*
G01*
X215469186Y-69244611D02*
G75*
G02X216196000Y-69386000I30814J-1780389D01*
G01*
X217139205Y-70329484D02*
G75*
G02X217139000Y-71721000I-1639205J-695516D01*
G01*
X216195516Y-72664205D02*
G75*
G02X214804000Y-72664000I-695516J1639205D01*
G01*
X213860795Y-71720516D02*
G75*
G02X213861000Y-70329000I1639205J695516D01*
G01*
X214804499Y-69386501D02*
G75*
G02X215500000Y-69245000I695501J-1638499D01*
G01*
X199238000Y-61431000D02*
X199238000Y-62831000D01*
X198538000Y-63531000D02*
X197938000Y-63531000D01*
X197238000Y-62831000D02*
X197238000Y-61431000D01*
X197938000Y-60731000D02*
X198538000Y-60731000D01*
X198538000Y-60731000D02*
G75*
G02X199238000Y-61431000I0J-700000D01*
G01*
X197238000Y-61431000D02*
G75*
G02X197938000Y-60731000I700000J0D01*
G01*
X197938000Y-63531000D02*
G75*
G02X197238000Y-62831000I0J700000D01*
G01*
X199238000Y-62831000D02*
G75*
G02X198538000Y-63531000I-700000J0D01*
G01*
X205212000Y-59483000D02*
X211222000Y-59483000D01*
X207462000Y-66303000D02*
X211222000Y-66303000D01*
X211222000Y-59483000D02*
X211222000Y-60743000D01*
X211222000Y-66303000D02*
X211222000Y-65043000D01*
X192260000Y-64720000D02*
X195710000Y-64720000D01*
X192260000Y-64720000D02*
X190310000Y-64720000D01*
X192260000Y-59600000D02*
X194210000Y-59600000D01*
X192260000Y-59600000D02*
X190310000Y-59600000D01*
X228836000Y-40514000D02*
X231296000Y-40514000D01*
X228836000Y-39044000D02*
X228836000Y-40514000D01*
X231296000Y-39044000D02*
X228836000Y-39044000D01*
X230324733Y-42321000D02*
X230667267Y-42321000D01*
X230324733Y-41301000D02*
X230667267Y-41301000D01*
X220414000Y-87999000D02*
G75*
G03X220414000Y-87999000I-5120000J0D01*
G01*
X210214000Y-87999000D02*
X220374000Y-87999000D01*
X210214000Y-87959000D02*
X220374000Y-87959000D01*
X210214000Y-87919000D02*
X220374000Y-87919000D01*
X210215000Y-87879000D02*
X220373000Y-87879000D01*
X210216000Y-87839000D02*
X220372000Y-87839000D01*
X210217000Y-87799000D02*
X220371000Y-87799000D01*
X210219000Y-87759000D02*
X220369000Y-87759000D01*
X210221000Y-87719000D02*
X220367000Y-87719000D01*
X210224000Y-87679000D02*
X220364000Y-87679000D01*
X210226000Y-87639000D02*
X220362000Y-87639000D01*
X210229000Y-87599000D02*
X220359000Y-87599000D01*
X210232000Y-87559000D02*
X220356000Y-87559000D01*
X210236000Y-87519000D02*
X220352000Y-87519000D01*
X210240000Y-87479000D02*
X220348000Y-87479000D01*
X210244000Y-87439000D02*
X220344000Y-87439000D01*
X210249000Y-87399000D02*
X220339000Y-87399000D01*
X210254000Y-87359000D02*
X220334000Y-87359000D01*
X210259000Y-87319000D02*
X220329000Y-87319000D01*
X210264000Y-87278000D02*
X220324000Y-87278000D01*
X210270000Y-87238000D02*
X220318000Y-87238000D01*
X210276000Y-87198000D02*
X220312000Y-87198000D01*
X210283000Y-87158000D02*
X220305000Y-87158000D01*
X210290000Y-87118000D02*
X220298000Y-87118000D01*
X210297000Y-87078000D02*
X220291000Y-87078000D01*
X210304000Y-87038000D02*
X220284000Y-87038000D01*
X210312000Y-86998000D02*
X220276000Y-86998000D01*
X210320000Y-86958000D02*
X220268000Y-86958000D01*
X210329000Y-86918000D02*
X220259000Y-86918000D01*
X210338000Y-86878000D02*
X220250000Y-86878000D01*
X210347000Y-86838000D02*
X220241000Y-86838000D01*
X210356000Y-86798000D02*
X220232000Y-86798000D01*
X210366000Y-86758000D02*
X220222000Y-86758000D01*
X210376000Y-86718000D02*
X214053000Y-86718000D01*
X216535000Y-86718000D02*
X220212000Y-86718000D01*
X210387000Y-86678000D02*
X214053000Y-86678000D01*
X216535000Y-86678000D02*
X220201000Y-86678000D01*
X210397000Y-86638000D02*
X214053000Y-86638000D01*
X216535000Y-86638000D02*
X220191000Y-86638000D01*
X210409000Y-86598000D02*
X214053000Y-86598000D01*
X216535000Y-86598000D02*
X220179000Y-86598000D01*
X210420000Y-86558000D02*
X214053000Y-86558000D01*
X216535000Y-86558000D02*
X220168000Y-86558000D01*
X210432000Y-86518000D02*
X214053000Y-86518000D01*
X216535000Y-86518000D02*
X220156000Y-86518000D01*
X210444000Y-86478000D02*
X214053000Y-86478000D01*
X216535000Y-86478000D02*
X220144000Y-86478000D01*
X210457000Y-86438000D02*
X214053000Y-86438000D01*
X216535000Y-86438000D02*
X220131000Y-86438000D01*
X210470000Y-86398000D02*
X214053000Y-86398000D01*
X216535000Y-86398000D02*
X220118000Y-86398000D01*
X210483000Y-86358000D02*
X214053000Y-86358000D01*
X216535000Y-86358000D02*
X220105000Y-86358000D01*
X210497000Y-86318000D02*
X214053000Y-86318000D01*
X216535000Y-86318000D02*
X220091000Y-86318000D01*
X210511000Y-86278000D02*
X214053000Y-86278000D01*
X216535000Y-86278000D02*
X220077000Y-86278000D01*
X210526000Y-86238000D02*
X214053000Y-86238000D01*
X216535000Y-86238000D02*
X220062000Y-86238000D01*
X210540000Y-86198000D02*
X214053000Y-86198000D01*
X216535000Y-86198000D02*
X220048000Y-86198000D01*
X210556000Y-86158000D02*
X214053000Y-86158000D01*
X216535000Y-86158000D02*
X220032000Y-86158000D01*
X210571000Y-86118000D02*
X214053000Y-86118000D01*
X216535000Y-86118000D02*
X220017000Y-86118000D01*
X210587000Y-86078000D02*
X214053000Y-86078000D01*
X216535000Y-86078000D02*
X220001000Y-86078000D01*
X210604000Y-86038000D02*
X214053000Y-86038000D01*
X216535000Y-86038000D02*
X219984000Y-86038000D01*
X210620000Y-85998000D02*
X214053000Y-85998000D01*
X216535000Y-85998000D02*
X219968000Y-85998000D01*
X210637000Y-85958000D02*
X214053000Y-85958000D01*
X216535000Y-85958000D02*
X219951000Y-85958000D01*
X210655000Y-85918000D02*
X214053000Y-85918000D01*
X216535000Y-85918000D02*
X219933000Y-85918000D01*
X210673000Y-85878000D02*
X214053000Y-85878000D01*
X216535000Y-85878000D02*
X219915000Y-85878000D01*
X210691000Y-85838000D02*
X214053000Y-85838000D01*
X216535000Y-85838000D02*
X219897000Y-85838000D01*
X210710000Y-85798000D02*
X214053000Y-85798000D01*
X216535000Y-85798000D02*
X219878000Y-85798000D01*
X210730000Y-85758000D02*
X214053000Y-85758000D01*
X216535000Y-85758000D02*
X219858000Y-85758000D01*
X210749000Y-85718000D02*
X214053000Y-85718000D01*
X216535000Y-85718000D02*
X219839000Y-85718000D01*
X210769000Y-85678000D02*
X214053000Y-85678000D01*
X216535000Y-85678000D02*
X219819000Y-85678000D01*
X210790000Y-85638000D02*
X214053000Y-85638000D01*
X216535000Y-85638000D02*
X219798000Y-85638000D01*
X210811000Y-85598000D02*
X214053000Y-85598000D01*
X216535000Y-85598000D02*
X219777000Y-85598000D01*
X210832000Y-85558000D02*
X214053000Y-85558000D01*
X216535000Y-85558000D02*
X219756000Y-85558000D01*
X210854000Y-85518000D02*
X214053000Y-85518000D01*
X216535000Y-85518000D02*
X219734000Y-85518000D01*
X210877000Y-85478000D02*
X214053000Y-85478000D01*
X216535000Y-85478000D02*
X219711000Y-85478000D01*
X210899000Y-85438000D02*
X214053000Y-85438000D01*
X216535000Y-85438000D02*
X219689000Y-85438000D01*
X210923000Y-85398000D02*
X214053000Y-85398000D01*
X216535000Y-85398000D02*
X219665000Y-85398000D01*
X210947000Y-85358000D02*
X214053000Y-85358000D01*
X216535000Y-85358000D02*
X219641000Y-85358000D01*
X210971000Y-85318000D02*
X214053000Y-85318000D01*
X216535000Y-85318000D02*
X219617000Y-85318000D01*
X210996000Y-85278000D02*
X214053000Y-85278000D01*
X216535000Y-85278000D02*
X219592000Y-85278000D01*
X211021000Y-85238000D02*
X214053000Y-85238000D01*
X216535000Y-85238000D02*
X219567000Y-85238000D01*
X211047000Y-85198000D02*
X214053000Y-85198000D01*
X216535000Y-85198000D02*
X219541000Y-85198000D01*
X211073000Y-85158000D02*
X214053000Y-85158000D01*
X216535000Y-85158000D02*
X219515000Y-85158000D01*
X211100000Y-85118000D02*
X214053000Y-85118000D01*
X216535000Y-85118000D02*
X219488000Y-85118000D01*
X211128000Y-85078000D02*
X214053000Y-85078000D01*
X216535000Y-85078000D02*
X219460000Y-85078000D01*
X211156000Y-85038000D02*
X214053000Y-85038000D01*
X216535000Y-85038000D02*
X219432000Y-85038000D01*
X211184000Y-84998000D02*
X214053000Y-84998000D01*
X216535000Y-84998000D02*
X219404000Y-84998000D01*
X211214000Y-84958000D02*
X214053000Y-84958000D01*
X216535000Y-84958000D02*
X219374000Y-84958000D01*
X211244000Y-84918000D02*
X214053000Y-84918000D01*
X216535000Y-84918000D02*
X219344000Y-84918000D01*
X211274000Y-84878000D02*
X214053000Y-84878000D01*
X216535000Y-84878000D02*
X219314000Y-84878000D01*
X211305000Y-84838000D02*
X214053000Y-84838000D01*
X216535000Y-84838000D02*
X219283000Y-84838000D01*
X211337000Y-84798000D02*
X214053000Y-84798000D01*
X216535000Y-84798000D02*
X219251000Y-84798000D01*
X211369000Y-84758000D02*
X214053000Y-84758000D01*
X216535000Y-84758000D02*
X219219000Y-84758000D01*
X211402000Y-84718000D02*
X214053000Y-84718000D01*
X216535000Y-84718000D02*
X219186000Y-84718000D01*
X211436000Y-84678000D02*
X214053000Y-84678000D01*
X216535000Y-84678000D02*
X219152000Y-84678000D01*
X211470000Y-84638000D02*
X214053000Y-84638000D01*
X216535000Y-84638000D02*
X219118000Y-84638000D01*
X211505000Y-84598000D02*
X214053000Y-84598000D01*
X216535000Y-84598000D02*
X219083000Y-84598000D01*
X211541000Y-84558000D02*
X214053000Y-84558000D01*
X216535000Y-84558000D02*
X219047000Y-84558000D01*
X211578000Y-84518000D02*
X214053000Y-84518000D01*
X216535000Y-84518000D02*
X219010000Y-84518000D01*
X211615000Y-84478000D02*
X214053000Y-84478000D01*
X216535000Y-84478000D02*
X218973000Y-84478000D01*
X211654000Y-84438000D02*
X214053000Y-84438000D01*
X216535000Y-84438000D02*
X218934000Y-84438000D01*
X211693000Y-84398000D02*
X214053000Y-84398000D01*
X216535000Y-84398000D02*
X218895000Y-84398000D01*
X211733000Y-84358000D02*
X214053000Y-84358000D01*
X216535000Y-84358000D02*
X218855000Y-84358000D01*
X211774000Y-84318000D02*
X214053000Y-84318000D01*
X216535000Y-84318000D02*
X218814000Y-84318000D01*
X211816000Y-84278000D02*
X214053000Y-84278000D01*
X216535000Y-84278000D02*
X218772000Y-84278000D01*
X211858000Y-84238000D02*
X218730000Y-84238000D01*
X211902000Y-84198000D02*
X218686000Y-84198000D01*
X211947000Y-84158000D02*
X218641000Y-84158000D01*
X211993000Y-84118000D02*
X218595000Y-84118000D01*
X212040000Y-84078000D02*
X218548000Y-84078000D01*
X212088000Y-84038000D02*
X218500000Y-84038000D01*
X212138000Y-83998000D02*
X218450000Y-83998000D01*
X212188000Y-83958000D02*
X218400000Y-83958000D01*
X212240000Y-83918000D02*
X218348000Y-83918000D01*
X212294000Y-83878000D02*
X218294000Y-83878000D01*
X212349000Y-83838000D02*
X218239000Y-83838000D01*
X212405000Y-83798000D02*
X218183000Y-83798000D01*
X212464000Y-83758000D02*
X218124000Y-83758000D01*
X212524000Y-83718000D02*
X218064000Y-83718000D01*
X212585000Y-83678000D02*
X218003000Y-83678000D01*
X212649000Y-83638000D02*
X217939000Y-83638000D01*
X212715000Y-83598000D02*
X217873000Y-83598000D01*
X212784000Y-83558000D02*
X217804000Y-83558000D01*
X212855000Y-83518000D02*
X217733000Y-83518000D01*
X212929000Y-83478000D02*
X217659000Y-83478000D01*
X213005000Y-83438000D02*
X217583000Y-83438000D01*
X213085000Y-83398000D02*
X217503000Y-83398000D01*
X213169000Y-83358000D02*
X217419000Y-83358000D01*
X213257000Y-83318000D02*
X217331000Y-83318000D01*
X213350000Y-83278000D02*
X217238000Y-83278000D01*
X213448000Y-83238000D02*
X217140000Y-83238000D01*
X213552000Y-83198000D02*
X217036000Y-83198000D01*
X213664000Y-83158000D02*
X216924000Y-83158000D01*
X213784000Y-83118000D02*
X216804000Y-83118000D01*
X213916000Y-83078000D02*
X216672000Y-83078000D01*
X214064000Y-83038000D02*
X216524000Y-83038000D01*
X214232000Y-82998000D02*
X216356000Y-82998000D01*
X214432000Y-82958000D02*
X216156000Y-82958000D01*
X214695000Y-82918000D02*
X215893000Y-82918000D01*
X212419000Y-93478646D02*
X212419000Y-92478646D01*
X211919000Y-92978646D02*
X212919000Y-92978646D01*
X191457000Y-102721000D02*
X191772000Y-102721000D01*
X189032000Y-102721000D02*
X189347000Y-102721000D01*
X191457000Y-107661000D02*
X191772000Y-107661000D01*
X189032000Y-107661000D02*
X189347000Y-107661000D01*
X191772000Y-107661000D02*
X191772000Y-102721000D01*
X189032000Y-107661000D02*
X189032000Y-102721000D01*
X195013000Y-102721000D02*
X195328000Y-102721000D01*
X192588000Y-102721000D02*
X192903000Y-102721000D01*
X195013000Y-107661000D02*
X195328000Y-107661000D01*
X192588000Y-107661000D02*
X192903000Y-107661000D01*
X195328000Y-107661000D02*
X195328000Y-102721000D01*
X192588000Y-107661000D02*
X192588000Y-102721000D01*
X192588000Y-101191000D02*
X192588000Y-93951000D01*
X195328000Y-101191000D02*
X195328000Y-93951000D01*
X192588000Y-101191000D02*
X195328000Y-101191000D01*
X192588000Y-93951000D02*
X195328000Y-93951000D01*
X200235000Y-92978646D02*
X201235000Y-92978646D01*
X200735000Y-93478646D02*
X200735000Y-92478646D01*
X203011000Y-82918000D02*
X204209000Y-82918000D01*
X202748000Y-82958000D02*
X204472000Y-82958000D01*
X202548000Y-82998000D02*
X204672000Y-82998000D01*
X202380000Y-83038000D02*
X204840000Y-83038000D01*
X202232000Y-83078000D02*
X204988000Y-83078000D01*
X202100000Y-83118000D02*
X205120000Y-83118000D01*
X201980000Y-83158000D02*
X205240000Y-83158000D01*
X201868000Y-83198000D02*
X205352000Y-83198000D01*
X201764000Y-83238000D02*
X205456000Y-83238000D01*
X201666000Y-83278000D02*
X205554000Y-83278000D01*
X201573000Y-83318000D02*
X205647000Y-83318000D01*
X201485000Y-83358000D02*
X205735000Y-83358000D01*
X201401000Y-83398000D02*
X205819000Y-83398000D01*
X201321000Y-83438000D02*
X205899000Y-83438000D01*
X201245000Y-83478000D02*
X205975000Y-83478000D01*
X201171000Y-83518000D02*
X206049000Y-83518000D01*
X201100000Y-83558000D02*
X206120000Y-83558000D01*
X201031000Y-83598000D02*
X206189000Y-83598000D01*
X200965000Y-83638000D02*
X206255000Y-83638000D01*
X200901000Y-83678000D02*
X206319000Y-83678000D01*
X200840000Y-83718000D02*
X206380000Y-83718000D01*
X200780000Y-83758000D02*
X206440000Y-83758000D01*
X200721000Y-83798000D02*
X206499000Y-83798000D01*
X200665000Y-83838000D02*
X206555000Y-83838000D01*
X200610000Y-83878000D02*
X206610000Y-83878000D01*
X200556000Y-83918000D02*
X206664000Y-83918000D01*
X200504000Y-83958000D02*
X206716000Y-83958000D01*
X200454000Y-83998000D02*
X206766000Y-83998000D01*
X200404000Y-84038000D02*
X206816000Y-84038000D01*
X200356000Y-84078000D02*
X206864000Y-84078000D01*
X200309000Y-84118000D02*
X206911000Y-84118000D01*
X200263000Y-84158000D02*
X206957000Y-84158000D01*
X200218000Y-84198000D02*
X207002000Y-84198000D01*
X200174000Y-84238000D02*
X207046000Y-84238000D01*
X204851000Y-84278000D02*
X207088000Y-84278000D01*
X200132000Y-84278000D02*
X202369000Y-84278000D01*
X204851000Y-84318000D02*
X207130000Y-84318000D01*
X200090000Y-84318000D02*
X202369000Y-84318000D01*
X204851000Y-84358000D02*
X207171000Y-84358000D01*
X200049000Y-84358000D02*
X202369000Y-84358000D01*
X204851000Y-84398000D02*
X207211000Y-84398000D01*
X200009000Y-84398000D02*
X202369000Y-84398000D01*
X204851000Y-84438000D02*
X207250000Y-84438000D01*
X199970000Y-84438000D02*
X202369000Y-84438000D01*
X204851000Y-84478000D02*
X207289000Y-84478000D01*
X199931000Y-84478000D02*
X202369000Y-84478000D01*
X204851000Y-84518000D02*
X207326000Y-84518000D01*
X199894000Y-84518000D02*
X202369000Y-84518000D01*
X204851000Y-84558000D02*
X207363000Y-84558000D01*
X199857000Y-84558000D02*
X202369000Y-84558000D01*
X204851000Y-84598000D02*
X207399000Y-84598000D01*
X199821000Y-84598000D02*
X202369000Y-84598000D01*
X204851000Y-84638000D02*
X207434000Y-84638000D01*
X199786000Y-84638000D02*
X202369000Y-84638000D01*
X204851000Y-84678000D02*
X207468000Y-84678000D01*
X199752000Y-84678000D02*
X202369000Y-84678000D01*
X204851000Y-84718000D02*
X207502000Y-84718000D01*
X199718000Y-84718000D02*
X202369000Y-84718000D01*
X204851000Y-84758000D02*
X207535000Y-84758000D01*
X199685000Y-84758000D02*
X202369000Y-84758000D01*
X204851000Y-84798000D02*
X207567000Y-84798000D01*
X199653000Y-84798000D02*
X202369000Y-84798000D01*
X204851000Y-84838000D02*
X207599000Y-84838000D01*
X199621000Y-84838000D02*
X202369000Y-84838000D01*
X204851000Y-84878000D02*
X207630000Y-84878000D01*
X199590000Y-84878000D02*
X202369000Y-84878000D01*
X204851000Y-84918000D02*
X207660000Y-84918000D01*
X199560000Y-84918000D02*
X202369000Y-84918000D01*
X204851000Y-84958000D02*
X207690000Y-84958000D01*
X199530000Y-84958000D02*
X202369000Y-84958000D01*
X204851000Y-84998000D02*
X207720000Y-84998000D01*
X199500000Y-84998000D02*
X202369000Y-84998000D01*
X204851000Y-85038000D02*
X207748000Y-85038000D01*
X199472000Y-85038000D02*
X202369000Y-85038000D01*
X204851000Y-85078000D02*
X207776000Y-85078000D01*
X199444000Y-85078000D02*
X202369000Y-85078000D01*
X204851000Y-85118000D02*
X207804000Y-85118000D01*
X199416000Y-85118000D02*
X202369000Y-85118000D01*
X204851000Y-85158000D02*
X207831000Y-85158000D01*
X199389000Y-85158000D02*
X202369000Y-85158000D01*
X204851000Y-85198000D02*
X207857000Y-85198000D01*
X199363000Y-85198000D02*
X202369000Y-85198000D01*
X204851000Y-85238000D02*
X207883000Y-85238000D01*
X199337000Y-85238000D02*
X202369000Y-85238000D01*
X204851000Y-85278000D02*
X207908000Y-85278000D01*
X199312000Y-85278000D02*
X202369000Y-85278000D01*
X204851000Y-85318000D02*
X207933000Y-85318000D01*
X199287000Y-85318000D02*
X202369000Y-85318000D01*
X204851000Y-85358000D02*
X207957000Y-85358000D01*
X199263000Y-85358000D02*
X202369000Y-85358000D01*
X204851000Y-85398000D02*
X207981000Y-85398000D01*
X199239000Y-85398000D02*
X202369000Y-85398000D01*
X204851000Y-85438000D02*
X208005000Y-85438000D01*
X199215000Y-85438000D02*
X202369000Y-85438000D01*
X204851000Y-85478000D02*
X208027000Y-85478000D01*
X199193000Y-85478000D02*
X202369000Y-85478000D01*
X204851000Y-85518000D02*
X208050000Y-85518000D01*
X199170000Y-85518000D02*
X202369000Y-85518000D01*
X204851000Y-85558000D02*
X208072000Y-85558000D01*
X199148000Y-85558000D02*
X202369000Y-85558000D01*
X204851000Y-85598000D02*
X208093000Y-85598000D01*
X199127000Y-85598000D02*
X202369000Y-85598000D01*
X204851000Y-85638000D02*
X208114000Y-85638000D01*
X199106000Y-85638000D02*
X202369000Y-85638000D01*
X204851000Y-85678000D02*
X208135000Y-85678000D01*
X199085000Y-85678000D02*
X202369000Y-85678000D01*
X204851000Y-85718000D02*
X208155000Y-85718000D01*
X199065000Y-85718000D02*
X202369000Y-85718000D01*
X204851000Y-85758000D02*
X208174000Y-85758000D01*
X199046000Y-85758000D02*
X202369000Y-85758000D01*
X204851000Y-85798000D02*
X208194000Y-85798000D01*
X199026000Y-85798000D02*
X202369000Y-85798000D01*
X204851000Y-85838000D02*
X208213000Y-85838000D01*
X199007000Y-85838000D02*
X202369000Y-85838000D01*
X204851000Y-85878000D02*
X208231000Y-85878000D01*
X198989000Y-85878000D02*
X202369000Y-85878000D01*
X204851000Y-85918000D02*
X208249000Y-85918000D01*
X198971000Y-85918000D02*
X202369000Y-85918000D01*
X204851000Y-85958000D02*
X208267000Y-85958000D01*
X198953000Y-85958000D02*
X202369000Y-85958000D01*
X204851000Y-85998000D02*
X208284000Y-85998000D01*
X198936000Y-85998000D02*
X202369000Y-85998000D01*
X204851000Y-86038000D02*
X208300000Y-86038000D01*
X198920000Y-86038000D02*
X202369000Y-86038000D01*
X204851000Y-86078000D02*
X208317000Y-86078000D01*
X198903000Y-86078000D02*
X202369000Y-86078000D01*
X204851000Y-86118000D02*
X208333000Y-86118000D01*
X198887000Y-86118000D02*
X202369000Y-86118000D01*
X204851000Y-86158000D02*
X208348000Y-86158000D01*
X198872000Y-86158000D02*
X202369000Y-86158000D01*
X204851000Y-86198000D02*
X208364000Y-86198000D01*
X198856000Y-86198000D02*
X202369000Y-86198000D01*
X204851000Y-86238000D02*
X208378000Y-86238000D01*
X198842000Y-86238000D02*
X202369000Y-86238000D01*
X204851000Y-86278000D02*
X208393000Y-86278000D01*
X198827000Y-86278000D02*
X202369000Y-86278000D01*
X204851000Y-86318000D02*
X208407000Y-86318000D01*
X198813000Y-86318000D02*
X202369000Y-86318000D01*
X204851000Y-86358000D02*
X208421000Y-86358000D01*
X198799000Y-86358000D02*
X202369000Y-86358000D01*
X204851000Y-86398000D02*
X208434000Y-86398000D01*
X198786000Y-86398000D02*
X202369000Y-86398000D01*
X204851000Y-86438000D02*
X208447000Y-86438000D01*
X198773000Y-86438000D02*
X202369000Y-86438000D01*
X204851000Y-86478000D02*
X208460000Y-86478000D01*
X198760000Y-86478000D02*
X202369000Y-86478000D01*
X204851000Y-86518000D02*
X208472000Y-86518000D01*
X198748000Y-86518000D02*
X202369000Y-86518000D01*
X204851000Y-86558000D02*
X208484000Y-86558000D01*
X198736000Y-86558000D02*
X202369000Y-86558000D01*
X204851000Y-86598000D02*
X208495000Y-86598000D01*
X198725000Y-86598000D02*
X202369000Y-86598000D01*
X204851000Y-86638000D02*
X208507000Y-86638000D01*
X198713000Y-86638000D02*
X202369000Y-86638000D01*
X204851000Y-86678000D02*
X208517000Y-86678000D01*
X198703000Y-86678000D02*
X202369000Y-86678000D01*
X204851000Y-86718000D02*
X208528000Y-86718000D01*
X198692000Y-86718000D02*
X202369000Y-86718000D01*
X198682000Y-86758000D02*
X208538000Y-86758000D01*
X198672000Y-86798000D02*
X208548000Y-86798000D01*
X198663000Y-86838000D02*
X208557000Y-86838000D01*
X198654000Y-86878000D02*
X208566000Y-86878000D01*
X198645000Y-86918000D02*
X208575000Y-86918000D01*
X198636000Y-86958000D02*
X208584000Y-86958000D01*
X198628000Y-86998000D02*
X208592000Y-86998000D01*
X198620000Y-87038000D02*
X208600000Y-87038000D01*
X198613000Y-87078000D02*
X208607000Y-87078000D01*
X198606000Y-87118000D02*
X208614000Y-87118000D01*
X198599000Y-87158000D02*
X208621000Y-87158000D01*
X198592000Y-87198000D02*
X208628000Y-87198000D01*
X198586000Y-87238000D02*
X208634000Y-87238000D01*
X198580000Y-87278000D02*
X208640000Y-87278000D01*
X198575000Y-87319000D02*
X208645000Y-87319000D01*
X198570000Y-87359000D02*
X208650000Y-87359000D01*
X198565000Y-87399000D02*
X208655000Y-87399000D01*
X198560000Y-87439000D02*
X208660000Y-87439000D01*
X198556000Y-87479000D02*
X208664000Y-87479000D01*
X198552000Y-87519000D02*
X208668000Y-87519000D01*
X198548000Y-87559000D02*
X208672000Y-87559000D01*
X198545000Y-87599000D02*
X208675000Y-87599000D01*
X198542000Y-87639000D02*
X208678000Y-87639000D01*
X198540000Y-87679000D02*
X208680000Y-87679000D01*
X198537000Y-87719000D02*
X208683000Y-87719000D01*
X198535000Y-87759000D02*
X208685000Y-87759000D01*
X198533000Y-87799000D02*
X208687000Y-87799000D01*
X198532000Y-87839000D02*
X208688000Y-87839000D01*
X198531000Y-87879000D02*
X208689000Y-87879000D01*
X198530000Y-87919000D02*
X208690000Y-87919000D01*
X198530000Y-87959000D02*
X208690000Y-87959000D01*
X198530000Y-87999000D02*
X208690000Y-87999000D01*
X208730000Y-87999000D02*
G75*
G03X208730000Y-87999000I-5120000J0D01*
G01*
X230888000Y-108055000D02*
X230888000Y-112995000D01*
X228148000Y-108055000D02*
X228148000Y-112995000D01*
X230888000Y-108055000D02*
X230573000Y-108055000D01*
X228463000Y-108055000D02*
X228148000Y-108055000D01*
X230888000Y-112995000D02*
X230573000Y-112995000D01*
X228463000Y-112995000D02*
X228148000Y-112995000D01*
X230888000Y-100435000D02*
X230888000Y-105375000D01*
X228148000Y-100435000D02*
X228148000Y-105375000D01*
X230888000Y-100435000D02*
X230573000Y-100435000D01*
X228463000Y-100435000D02*
X228148000Y-100435000D01*
X230888000Y-105375000D02*
X230573000Y-105375000D01*
X228463000Y-105375000D02*
X228148000Y-105375000D01*
X199739499Y-112101501D02*
G75*
G02X200435000Y-111960000I695501J-1638499D01*
G01*
X198795795Y-114435516D02*
G75*
G02X198796000Y-113044000I1639205J695516D01*
G01*
X201130516Y-115379205D02*
G75*
G02X199739000Y-115379000I-695516J1639205D01*
G01*
X202074205Y-113044484D02*
G75*
G02X202074000Y-114436000I-1639205J-695516D01*
G01*
X200404186Y-111959611D02*
G75*
G02X201131000Y-112101000I30814J-1780389D01*
G01*
X197215000Y-113740000D02*
G75*
G03X197215000Y-113740000I-1780000J0D01*
G01*
X192215000Y-113740000D02*
G75*
G03X192215000Y-113740000I-1780000J0D01*
G01*
X202995000Y-111740000D02*
X187875000Y-111740000D01*
X202995000Y-115740000D02*
X187875000Y-115740000D01*
X202995000Y-116740000D02*
X187875000Y-116740000D01*
X202995000Y-120300000D02*
X187875000Y-120300000D01*
X202995000Y-109680000D02*
X187875000Y-109680000D01*
X202995000Y-120300000D02*
X202995000Y-109680000D01*
X187875000Y-120300000D02*
X187875000Y-109680000D01*
X194085000Y-114873000D02*
X194134000Y-114823000D01*
X196543000Y-112415000D02*
X196567000Y-112390000D01*
X194302000Y-115090000D02*
X194327000Y-115066000D01*
X196735000Y-112657000D02*
X196785000Y-112607000D01*
X189085000Y-114873000D02*
X189134000Y-114823000D01*
X191543000Y-112415000D02*
X191567000Y-112390000D01*
X189302000Y-115090000D02*
X189327000Y-115066000D01*
X191735000Y-112657000D02*
X191785000Y-112607000D01*
X203235000Y-111680000D02*
X203235000Y-109440000D01*
X203235000Y-109440000D02*
X201235000Y-109440000D01*
X263697000Y-109440000D02*
X261697000Y-109440000D01*
X263697000Y-111680000D02*
X263697000Y-109440000D01*
X252197000Y-112657000D02*
X252247000Y-112607000D01*
X249764000Y-115090000D02*
X249789000Y-115066000D01*
X252005000Y-112415000D02*
X252029000Y-112390000D01*
X249547000Y-114873000D02*
X249596000Y-114823000D01*
X257197000Y-112657000D02*
X257247000Y-112607000D01*
X254764000Y-115090000D02*
X254789000Y-115066000D01*
X257005000Y-112415000D02*
X257029000Y-112390000D01*
X254547000Y-114873000D02*
X254596000Y-114823000D01*
X248337000Y-120300000D02*
X248337000Y-109680000D01*
X263457000Y-120300000D02*
X263457000Y-109680000D01*
X263457000Y-109680000D02*
X248337000Y-109680000D01*
X263457000Y-120300000D02*
X248337000Y-120300000D01*
X263457000Y-116740000D02*
X248337000Y-116740000D01*
X263457000Y-115740000D02*
X248337000Y-115740000D01*
X263457000Y-111740000D02*
X248337000Y-111740000D01*
X252677000Y-113740000D02*
G75*
G03X252677000Y-113740000I-1780000J0D01*
G01*
X257677000Y-113740000D02*
G75*
G03X257677000Y-113740000I-1780000J0D01*
G01*
X260866186Y-111959611D02*
G75*
G02X261593000Y-112101000I30814J-1780389D01*
G01*
X262536205Y-113044484D02*
G75*
G02X262536000Y-114436000I-1639205J-695516D01*
G01*
X261592516Y-115379205D02*
G75*
G02X260201000Y-115379000I-695516J1639205D01*
G01*
X259257795Y-114435516D02*
G75*
G02X259258000Y-113044000I1639205J695516D01*
G01*
X260201499Y-112101501D02*
G75*
G02X260897000Y-111960000I695501J-1638499D01*
G01*
X245201499Y-112101501D02*
G75*
G02X245897000Y-111960000I695501J-1638499D01*
G01*
X244257795Y-114435516D02*
G75*
G02X244258000Y-113044000I1639205J695516D01*
G01*
X246592516Y-115379205D02*
G75*
G02X245201000Y-115379000I-695516J1639205D01*
G01*
X247536205Y-113044484D02*
G75*
G02X247536000Y-114436000I-1639205J-695516D01*
G01*
X245866186Y-111959611D02*
G75*
G02X246593000Y-112101000I30814J-1780389D01*
G01*
X242677000Y-113740000D02*
G75*
G03X242677000Y-113740000I-1780000J0D01*
G01*
X237677000Y-113740000D02*
G75*
G03X237677000Y-113740000I-1780000J0D01*
G01*
X248457000Y-111740000D02*
X233337000Y-111740000D01*
X248457000Y-115740000D02*
X233337000Y-115740000D01*
X248457000Y-116740000D02*
X233337000Y-116740000D01*
X248457000Y-120300000D02*
X233337000Y-120300000D01*
X248457000Y-109680000D02*
X233337000Y-109680000D01*
X248457000Y-120300000D02*
X248457000Y-109680000D01*
X233337000Y-120300000D02*
X233337000Y-109680000D01*
X239547000Y-114873000D02*
X239596000Y-114823000D01*
X242005000Y-112415000D02*
X242029000Y-112390000D01*
X239764000Y-115090000D02*
X239789000Y-115066000D01*
X242197000Y-112657000D02*
X242247000Y-112607000D01*
X234547000Y-114873000D02*
X234596000Y-114823000D01*
X237005000Y-112415000D02*
X237029000Y-112390000D01*
X234764000Y-115090000D02*
X234789000Y-115066000D01*
X237197000Y-112657000D02*
X237247000Y-112607000D01*
X248697000Y-111680000D02*
X248697000Y-109440000D01*
X248697000Y-109440000D02*
X246697000Y-109440000D01*
X206134000Y-106805000D02*
G75*
G02X205434000Y-107505000I-700000J0D01*
G01*
X204834000Y-107505000D02*
G75*
G02X204134000Y-106805000I0J700000D01*
G01*
X204134000Y-105405000D02*
G75*
G02X204834000Y-104705000I700000J0D01*
G01*
X205434000Y-104705000D02*
G75*
G02X206134000Y-105405000I0J-700000D01*
G01*
X204834000Y-104705000D02*
X205434000Y-104705000D01*
X204134000Y-106805000D02*
X204134000Y-105405000D01*
X205434000Y-107505000D02*
X204834000Y-107505000D01*
X206134000Y-105405000D02*
X206134000Y-106805000D01*
X233330000Y-106696733D02*
X233330000Y-107039267D01*
X232310000Y-106696733D02*
X232310000Y-107039267D01*
X235108000Y-107067267D02*
X235108000Y-106724733D01*
X234088000Y-107067267D02*
X234088000Y-106724733D01*
X235866000Y-107039267D02*
X235866000Y-106696733D01*
X236886000Y-107039267D02*
X236886000Y-106696733D01*
X234282000Y-90753000D02*
G75*
G03X234282000Y-90753000I-700000J0D01*
G01*
X234282000Y-93293000D02*
G75*
G03X234282000Y-93293000I-700000J0D01*
G01*
X234282000Y-95833000D02*
G75*
G03X234282000Y-95833000I-700000J0D01*
G01*
X234282000Y-98373000D02*
G75*
G03X234282000Y-98373000I-700000J0D01*
G01*
X234282000Y-100913000D02*
G75*
G03X234282000Y-100913000I-700000J0D01*
G01*
X203464000Y-96311000D02*
X202204000Y-96311000D01*
X196644000Y-96311000D02*
X197904000Y-96311000D01*
X203464000Y-100071000D02*
X203464000Y-96311000D01*
X196644000Y-102321000D02*
X196644000Y-96311000D01*
X200054000Y-103433000D02*
X198104000Y-103433000D01*
X200054000Y-103433000D02*
X202004000Y-103433000D01*
X200054000Y-108553000D02*
X198104000Y-108553000D01*
X200054000Y-108553000D02*
X203504000Y-108553000D01*
X226582000Y-95750000D02*
X226582000Y-94970000D01*
X226582000Y-94970000D02*
X225582000Y-94970000D01*
X208342000Y-95750000D02*
X208342000Y-94970000D01*
X208342000Y-94970000D02*
X209342000Y-94970000D01*
X226582000Y-120715000D02*
X208342000Y-120715000D01*
X208342000Y-120715000D02*
X208342000Y-114295000D01*
X226582000Y-120715000D02*
X226582000Y-114295000D01*
X226582000Y-114295000D02*
X226962000Y-114295000D01*
D11*
X152428571Y-67382142D02*
X152428571Y-67715476D01*
X152952380Y-67715476D02*
X151952380Y-67715476D01*
X151952380Y-67239285D01*
X149428571Y-64539285D02*
X149428571Y-64205952D01*
X149952380Y-64063095D02*
X149952380Y-64539285D01*
X148952380Y-64539285D01*
X148952380Y-64063095D01*
X152952380Y-61386904D02*
X151952380Y-61386904D01*
X151952380Y-61148809D01*
X152000000Y-61005952D01*
X152095238Y-60910714D01*
X152190476Y-60863095D01*
X152380952Y-60815476D01*
X152523809Y-60815476D01*
X152714285Y-60863095D01*
X152809523Y-60910714D01*
X152904761Y-61005952D01*
X152952380Y-61148809D01*
X152952380Y-61386904D01*
X152428571Y-54653571D02*
X152476190Y-54510714D01*
X152523809Y-54463095D01*
X152619047Y-54415476D01*
X152761904Y-54415476D01*
X152857142Y-54463095D01*
X152904761Y-54510714D01*
X152952380Y-54605952D01*
X152952380Y-54986904D01*
X151952380Y-54986904D01*
X151952380Y-54653571D01*
X152000000Y-54558333D01*
X152047619Y-54510714D01*
X152142857Y-54463095D01*
X152238095Y-54463095D01*
X152333333Y-54510714D01*
X152380952Y-54558333D01*
X152428571Y-54653571D01*
X152428571Y-54986904D01*
X149666666Y-51763095D02*
X149666666Y-51286904D01*
X149952380Y-51858333D02*
X148952380Y-51525000D01*
X149952380Y-51191666D01*
X169428571Y-64382142D02*
X169428571Y-64715476D01*
X169952380Y-64715476D02*
X168952380Y-64715476D01*
X168952380Y-64239285D01*
X158428571Y-60239285D02*
X158428571Y-59905952D01*
X158952380Y-59763095D02*
X158952380Y-60239285D01*
X157952380Y-60239285D01*
X157952380Y-59763095D01*
X169952380Y-55786904D02*
X168952380Y-55786904D01*
X168952380Y-55548809D01*
X169000000Y-55405952D01*
X169095238Y-55310714D01*
X169190476Y-55263095D01*
X169380952Y-55215476D01*
X169523809Y-55215476D01*
X169714285Y-55263095D01*
X169809523Y-55310714D01*
X169904761Y-55405952D01*
X169952380Y-55548809D01*
X169952380Y-55786904D01*
X158857142Y-50715476D02*
X158904761Y-50763095D01*
X158952380Y-50905952D01*
X158952380Y-51001190D01*
X158904761Y-51144047D01*
X158809523Y-51239285D01*
X158714285Y-51286904D01*
X158523809Y-51334523D01*
X158380952Y-51334523D01*
X158190476Y-51286904D01*
X158095238Y-51239285D01*
X158000000Y-51144047D01*
X157952380Y-51001190D01*
X157952380Y-50905952D01*
X158000000Y-50763095D01*
X158047619Y-50715476D01*
X169428571Y-46453571D02*
X169476190Y-46310714D01*
X169523809Y-46263095D01*
X169619047Y-46215476D01*
X169761904Y-46215476D01*
X169857142Y-46263095D01*
X169904761Y-46310714D01*
X169952380Y-46405952D01*
X169952380Y-46786904D01*
X168952380Y-46786904D01*
X168952380Y-46453571D01*
X169000000Y-46358333D01*
X169047619Y-46310714D01*
X169142857Y-46263095D01*
X169238095Y-46263095D01*
X169333333Y-46310714D01*
X169380952Y-46358333D01*
X169428571Y-46453571D01*
X169428571Y-46786904D01*
X158666666Y-42263095D02*
X158666666Y-41786904D01*
X158952380Y-42358333D02*
X157952380Y-42025000D01*
X158952380Y-41691666D01*
X149857142Y-57615476D02*
X149904761Y-57663095D01*
X149952380Y-57805952D01*
X149952380Y-57901190D01*
X149904761Y-58044047D01*
X149809523Y-58139285D01*
X149714285Y-58186904D01*
X149523809Y-58234523D01*
X149380952Y-58234523D01*
X149190476Y-58186904D01*
X149095238Y-58139285D01*
X149000000Y-58044047D01*
X148952380Y-57901190D01*
X148952380Y-57805952D01*
X149000000Y-57663095D01*
X149047619Y-57615476D01*
X104953047Y-46939428D02*
X105714952Y-46939428D01*
X102413047Y-46939428D02*
X103174952Y-46939428D01*
X102794000Y-47320380D02*
X102794000Y-46558476D01*
X100087333Y-47320380D02*
X99754000Y-46844190D01*
X99515904Y-47320380D02*
X99515904Y-46320380D01*
X99896857Y-46320380D01*
X99992095Y-46368000D01*
X100039714Y-46415619D01*
X100087333Y-46510857D01*
X100087333Y-46653714D01*
X100039714Y-46748952D01*
X99992095Y-46796571D01*
X99896857Y-46844190D01*
X99515904Y-46844190D01*
X100420666Y-46320380D02*
X101087333Y-47320380D01*
X101087333Y-46320380D02*
X100420666Y-47320380D01*
X96952095Y-46320380D02*
X97523523Y-46320380D01*
X97237809Y-47320380D02*
X97237809Y-46320380D01*
X97761619Y-46320380D02*
X98428285Y-47320380D01*
X98428285Y-46320380D02*
X97761619Y-47320380D01*
X95245428Y-46796571D02*
X95388285Y-46844190D01*
X95435904Y-46891809D01*
X95483523Y-46987047D01*
X95483523Y-47129904D01*
X95435904Y-47225142D01*
X95388285Y-47272761D01*
X95293047Y-47320380D01*
X94912095Y-47320380D01*
X94912095Y-46320380D01*
X95245428Y-46320380D01*
X95340666Y-46368000D01*
X95388285Y-46415619D01*
X95435904Y-46510857D01*
X95435904Y-46606095D01*
X95388285Y-46701333D01*
X95340666Y-46748952D01*
X95245428Y-46796571D01*
X94912095Y-46796571D01*
X38865476Y-50622380D02*
X38865476Y-49622380D01*
X39198809Y-50336666D01*
X39532142Y-49622380D01*
X39532142Y-50622380D01*
X40532142Y-50622380D02*
X39960714Y-50622380D01*
X40246428Y-50622380D02*
X40246428Y-49622380D01*
X40151190Y-49765238D01*
X40055952Y-49860476D01*
X39960714Y-49908095D01*
X82053333Y-47017380D02*
X81720000Y-46541190D01*
X81481904Y-47017380D02*
X81481904Y-46017380D01*
X81862857Y-46017380D01*
X81958095Y-46065000D01*
X82005714Y-46112619D01*
X82053333Y-46207857D01*
X82053333Y-46350714D01*
X82005714Y-46445952D01*
X81958095Y-46493571D01*
X81862857Y-46541190D01*
X81481904Y-46541190D01*
X83005714Y-47017380D02*
X82434285Y-47017380D01*
X82720000Y-47017380D02*
X82720000Y-46017380D01*
X82624761Y-46160238D01*
X82529523Y-46255476D01*
X82434285Y-46303095D01*
X53506666Y-120424761D02*
X53649523Y-120472380D01*
X53887619Y-120472380D01*
X53982857Y-120424761D01*
X54030476Y-120377142D01*
X54078095Y-120281904D01*
X54078095Y-120186666D01*
X54030476Y-120091428D01*
X53982857Y-120043809D01*
X53887619Y-119996190D01*
X53697142Y-119948571D01*
X53601904Y-119900952D01*
X53554285Y-119853333D01*
X53506666Y-119758095D01*
X53506666Y-119662857D01*
X53554285Y-119567619D01*
X53601904Y-119520000D01*
X53697142Y-119472380D01*
X53935238Y-119472380D01*
X54078095Y-119520000D01*
X54411428Y-119472380D02*
X54649523Y-120472380D01*
X54840000Y-119758095D01*
X55030476Y-120472380D01*
X55268571Y-119472380D01*
X56173333Y-120472380D02*
X55601904Y-120472380D01*
X55887619Y-120472380D02*
X55887619Y-119472380D01*
X55792380Y-119615238D01*
X55697142Y-119710476D01*
X55601904Y-119758095D01*
X115101666Y-120369761D02*
X115244523Y-120417380D01*
X115482619Y-120417380D01*
X115577857Y-120369761D01*
X115625476Y-120322142D01*
X115673095Y-120226904D01*
X115673095Y-120131666D01*
X115625476Y-120036428D01*
X115577857Y-119988809D01*
X115482619Y-119941190D01*
X115292142Y-119893571D01*
X115196904Y-119845952D01*
X115149285Y-119798333D01*
X115101666Y-119703095D01*
X115101666Y-119607857D01*
X115149285Y-119512619D01*
X115196904Y-119465000D01*
X115292142Y-119417380D01*
X115530238Y-119417380D01*
X115673095Y-119465000D01*
X116006428Y-119417380D02*
X116244523Y-120417380D01*
X116435000Y-119703095D01*
X116625476Y-120417380D01*
X116863571Y-119417380D01*
X117196904Y-119512619D02*
X117244523Y-119465000D01*
X117339761Y-119417380D01*
X117577857Y-119417380D01*
X117673095Y-119465000D01*
X117720714Y-119512619D01*
X117768333Y-119607857D01*
X117768333Y-119703095D01*
X117720714Y-119845952D01*
X117149285Y-120417380D01*
X117768333Y-120417380D01*
X84379166Y-116169761D02*
X84522023Y-116217380D01*
X84760119Y-116217380D01*
X84855357Y-116169761D01*
X84902976Y-116122142D01*
X84950595Y-116026904D01*
X84950595Y-115931666D01*
X84902976Y-115836428D01*
X84855357Y-115788809D01*
X84760119Y-115741190D01*
X84569642Y-115693571D01*
X84474404Y-115645952D01*
X84426785Y-115598333D01*
X84379166Y-115503095D01*
X84379166Y-115407857D01*
X84426785Y-115312619D01*
X84474404Y-115265000D01*
X84569642Y-115217380D01*
X84807738Y-115217380D01*
X84950595Y-115265000D01*
X85283928Y-115217380D02*
X85522023Y-116217380D01*
X85712500Y-115503095D01*
X85902976Y-116217380D01*
X86141071Y-115217380D01*
X86426785Y-115217380D02*
X87045833Y-115217380D01*
X86712500Y-115598333D01*
X86855357Y-115598333D01*
X86950595Y-115645952D01*
X86998214Y-115693571D01*
X87045833Y-115788809D01*
X87045833Y-116026904D01*
X86998214Y-116122142D01*
X86950595Y-116169761D01*
X86855357Y-116217380D01*
X86569642Y-116217380D01*
X86474404Y-116169761D01*
X86426785Y-116122142D01*
X158666666Y-91263095D02*
X158666666Y-90786904D01*
X158952380Y-91358333D02*
X157952380Y-91025000D01*
X158952380Y-90691666D01*
X169428571Y-95453571D02*
X169476190Y-95310714D01*
X169523809Y-95263095D01*
X169619047Y-95215476D01*
X169761904Y-95215476D01*
X169857142Y-95263095D01*
X169904761Y-95310714D01*
X169952380Y-95405952D01*
X169952380Y-95786904D01*
X168952380Y-95786904D01*
X168952380Y-95453571D01*
X169000000Y-95358333D01*
X169047619Y-95310714D01*
X169142857Y-95263095D01*
X169238095Y-95263095D01*
X169333333Y-95310714D01*
X169380952Y-95358333D01*
X169428571Y-95453571D01*
X169428571Y-95786904D01*
X158857142Y-99715476D02*
X158904761Y-99763095D01*
X158952380Y-99905952D01*
X158952380Y-100001190D01*
X158904761Y-100144047D01*
X158809523Y-100239285D01*
X158714285Y-100286904D01*
X158523809Y-100334523D01*
X158380952Y-100334523D01*
X158190476Y-100286904D01*
X158095238Y-100239285D01*
X158000000Y-100144047D01*
X157952380Y-100001190D01*
X157952380Y-99905952D01*
X158000000Y-99763095D01*
X158047619Y-99715476D01*
X169952380Y-104786904D02*
X168952380Y-104786904D01*
X168952380Y-104548809D01*
X169000000Y-104405952D01*
X169095238Y-104310714D01*
X169190476Y-104263095D01*
X169380952Y-104215476D01*
X169523809Y-104215476D01*
X169714285Y-104263095D01*
X169809523Y-104310714D01*
X169904761Y-104405952D01*
X169952380Y-104548809D01*
X169952380Y-104786904D01*
X158428571Y-109239285D02*
X158428571Y-108905952D01*
X158952380Y-108763095D02*
X158952380Y-109239285D01*
X157952380Y-109239285D01*
X157952380Y-108763095D01*
X169428571Y-113382142D02*
X169428571Y-113715476D01*
X169952380Y-113715476D02*
X168952380Y-113715476D01*
X168952380Y-113239285D01*
X149666666Y-100763095D02*
X149666666Y-100286904D01*
X149952380Y-100858333D02*
X148952380Y-100525000D01*
X149952380Y-100191666D01*
X152428571Y-103653571D02*
X152476190Y-103510714D01*
X152523809Y-103463095D01*
X152619047Y-103415476D01*
X152761904Y-103415476D01*
X152857142Y-103463095D01*
X152904761Y-103510714D01*
X152952380Y-103605952D01*
X152952380Y-103986904D01*
X151952380Y-103986904D01*
X151952380Y-103653571D01*
X152000000Y-103558333D01*
X152047619Y-103510714D01*
X152142857Y-103463095D01*
X152238095Y-103463095D01*
X152333333Y-103510714D01*
X152380952Y-103558333D01*
X152428571Y-103653571D01*
X152428571Y-103986904D01*
X149857142Y-106615476D02*
X149904761Y-106663095D01*
X149952380Y-106805952D01*
X149952380Y-106901190D01*
X149904761Y-107044047D01*
X149809523Y-107139285D01*
X149714285Y-107186904D01*
X149523809Y-107234523D01*
X149380952Y-107234523D01*
X149190476Y-107186904D01*
X149095238Y-107139285D01*
X149000000Y-107044047D01*
X148952380Y-106901190D01*
X148952380Y-106805952D01*
X149000000Y-106663095D01*
X149047619Y-106615476D01*
X152952380Y-110386904D02*
X151952380Y-110386904D01*
X151952380Y-110148809D01*
X152000000Y-110005952D01*
X152095238Y-109910714D01*
X152190476Y-109863095D01*
X152380952Y-109815476D01*
X152523809Y-109815476D01*
X152714285Y-109863095D01*
X152809523Y-109910714D01*
X152904761Y-110005952D01*
X152952380Y-110148809D01*
X152952380Y-110386904D01*
X149428571Y-113539285D02*
X149428571Y-113205952D01*
X149952380Y-113063095D02*
X149952380Y-113539285D01*
X148952380Y-113539285D01*
X148952380Y-113063095D01*
X152428571Y-116382142D02*
X152428571Y-116715476D01*
X152952380Y-116715476D02*
X151952380Y-116715476D01*
X151952380Y-116239285D01*
X215952380Y-44213904D02*
X216761904Y-44213904D01*
X216857142Y-44166285D01*
X216904761Y-44118666D01*
X216952380Y-44023428D01*
X216952380Y-43832952D01*
X216904761Y-43737714D01*
X216857142Y-43690095D01*
X216761904Y-43642476D01*
X215952380Y-43642476D01*
X215952380Y-43261523D02*
X215952380Y-42642476D01*
X216333333Y-42975809D01*
X216333333Y-42832952D01*
X216380952Y-42737714D01*
X216428571Y-42690095D01*
X216523809Y-42642476D01*
X216761904Y-42642476D01*
X216857142Y-42690095D01*
X216904761Y-42737714D01*
X216952380Y-42832952D01*
X216952380Y-43118666D01*
X216904761Y-43213904D01*
X216857142Y-43261523D01*
X205134380Y-48440666D02*
X204658190Y-48774000D01*
X205134380Y-49012095D02*
X204134380Y-49012095D01*
X204134380Y-48631142D01*
X204182000Y-48535904D01*
X204229619Y-48488285D01*
X204324857Y-48440666D01*
X204467714Y-48440666D01*
X204562952Y-48488285D01*
X204610571Y-48535904D01*
X204658190Y-48631142D01*
X204658190Y-49012095D01*
X204134380Y-48107333D02*
X204134380Y-47488285D01*
X204515333Y-47821619D01*
X204515333Y-47678761D01*
X204562952Y-47583523D01*
X204610571Y-47535904D01*
X204705809Y-47488285D01*
X204943904Y-47488285D01*
X205039142Y-47535904D01*
X205086761Y-47583523D01*
X205134380Y-47678761D01*
X205134380Y-47964476D01*
X205086761Y-48059714D01*
X205039142Y-48107333D01*
X205042333Y-52931380D02*
X204709000Y-52455190D01*
X204470904Y-52931380D02*
X204470904Y-51931380D01*
X204851857Y-51931380D01*
X204947095Y-51979000D01*
X204994714Y-52026619D01*
X205042333Y-52121857D01*
X205042333Y-52264714D01*
X204994714Y-52359952D01*
X204947095Y-52407571D01*
X204851857Y-52455190D01*
X204470904Y-52455190D01*
X205423285Y-52026619D02*
X205470904Y-51979000D01*
X205566142Y-51931380D01*
X205804238Y-51931380D01*
X205899476Y-51979000D01*
X205947095Y-52026619D01*
X205994714Y-52121857D01*
X205994714Y-52217095D01*
X205947095Y-52359952D01*
X205375666Y-52931380D01*
X205994714Y-52931380D01*
X205042333Y-51407380D02*
X204709000Y-50931190D01*
X204470904Y-51407380D02*
X204470904Y-50407380D01*
X204851857Y-50407380D01*
X204947095Y-50455000D01*
X204994714Y-50502619D01*
X205042333Y-50597857D01*
X205042333Y-50740714D01*
X204994714Y-50835952D01*
X204947095Y-50883571D01*
X204851857Y-50931190D01*
X204470904Y-50931190D01*
X205994714Y-51407380D02*
X205423285Y-51407380D01*
X205709000Y-51407380D02*
X205709000Y-50407380D01*
X205613761Y-50550238D01*
X205518523Y-50645476D01*
X205423285Y-50693095D01*
X200738333Y-48772142D02*
X200690714Y-48819761D01*
X200547857Y-48867380D01*
X200452619Y-48867380D01*
X200309761Y-48819761D01*
X200214523Y-48724523D01*
X200166904Y-48629285D01*
X200119285Y-48438809D01*
X200119285Y-48295952D01*
X200166904Y-48105476D01*
X200214523Y-48010238D01*
X200309761Y-47915000D01*
X200452619Y-47867380D01*
X200547857Y-47867380D01*
X200690714Y-47915000D01*
X200738333Y-47962619D01*
X201690714Y-48867380D02*
X201119285Y-48867380D01*
X201405000Y-48867380D02*
X201405000Y-47867380D01*
X201309761Y-48010238D01*
X201214523Y-48105476D01*
X201119285Y-48153095D01*
X203167142Y-61241666D02*
X203214761Y-61289285D01*
X203262380Y-61432142D01*
X203262380Y-61527380D01*
X203214761Y-61670238D01*
X203119523Y-61765476D01*
X203024285Y-61813095D01*
X202833809Y-61860714D01*
X202690952Y-61860714D01*
X202500476Y-61813095D01*
X202405238Y-61765476D01*
X202310000Y-61670238D01*
X202262380Y-61527380D01*
X202262380Y-61432142D01*
X202310000Y-61289285D01*
X202357619Y-61241666D01*
X202357619Y-60860714D02*
X202310000Y-60813095D01*
X202262380Y-60717857D01*
X202262380Y-60479761D01*
X202310000Y-60384523D01*
X202357619Y-60336904D01*
X202452857Y-60289285D01*
X202548095Y-60289285D01*
X202690952Y-60336904D01*
X203262380Y-60908333D01*
X203262380Y-60289285D01*
X192142333Y-57662142D02*
X192094714Y-57709761D01*
X191951857Y-57757380D01*
X191856619Y-57757380D01*
X191713761Y-57709761D01*
X191618523Y-57614523D01*
X191570904Y-57519285D01*
X191523285Y-57328809D01*
X191523285Y-57185952D01*
X191570904Y-56995476D01*
X191618523Y-56900238D01*
X191713761Y-56805000D01*
X191856619Y-56757380D01*
X191951857Y-56757380D01*
X192094714Y-56805000D01*
X192142333Y-56852619D01*
X192475666Y-56757380D02*
X193094714Y-56757380D01*
X192761380Y-57138333D01*
X192904238Y-57138333D01*
X192999476Y-57185952D01*
X193047095Y-57233571D01*
X193094714Y-57328809D01*
X193094714Y-57566904D01*
X193047095Y-57662142D01*
X192999476Y-57709761D01*
X192904238Y-57757380D01*
X192618523Y-57757380D01*
X192523285Y-57709761D01*
X192475666Y-57662142D01*
X190467142Y-51081666D02*
X190514761Y-51129285D01*
X190562380Y-51272142D01*
X190562380Y-51367380D01*
X190514761Y-51510238D01*
X190419523Y-51605476D01*
X190324285Y-51653095D01*
X190133809Y-51700714D01*
X189990952Y-51700714D01*
X189800476Y-51653095D01*
X189705238Y-51605476D01*
X189610000Y-51510238D01*
X189562380Y-51367380D01*
X189562380Y-51272142D01*
X189610000Y-51129285D01*
X189657619Y-51081666D01*
X189895714Y-50224523D02*
X190562380Y-50224523D01*
X189514761Y-50462619D02*
X190229047Y-50700714D01*
X190229047Y-50081666D01*
X190578333Y-38612142D02*
X190530714Y-38659761D01*
X190387857Y-38707380D01*
X190292619Y-38707380D01*
X190149761Y-38659761D01*
X190054523Y-38564523D01*
X190006904Y-38469285D01*
X189959285Y-38278809D01*
X189959285Y-38135952D01*
X190006904Y-37945476D01*
X190054523Y-37850238D01*
X190149761Y-37755000D01*
X190292619Y-37707380D01*
X190387857Y-37707380D01*
X190530714Y-37755000D01*
X190578333Y-37802619D01*
X191483095Y-37707380D02*
X191006904Y-37707380D01*
X190959285Y-38183571D01*
X191006904Y-38135952D01*
X191102142Y-38088333D01*
X191340238Y-38088333D01*
X191435476Y-38135952D01*
X191483095Y-38183571D01*
X191530714Y-38278809D01*
X191530714Y-38516904D01*
X191483095Y-38612142D01*
X191435476Y-38659761D01*
X191340238Y-38707380D01*
X191102142Y-38707380D01*
X191006904Y-38659761D01*
X190959285Y-38612142D01*
X228845333Y-59694142D02*
X228797714Y-59741761D01*
X228654857Y-59789380D01*
X228559619Y-59789380D01*
X228416761Y-59741761D01*
X228321523Y-59646523D01*
X228273904Y-59551285D01*
X228226285Y-59360809D01*
X228226285Y-59217952D01*
X228273904Y-59027476D01*
X228321523Y-58932238D01*
X228416761Y-58837000D01*
X228559619Y-58789380D01*
X228654857Y-58789380D01*
X228797714Y-58837000D01*
X228845333Y-58884619D01*
X229702476Y-58789380D02*
X229512000Y-58789380D01*
X229416761Y-58837000D01*
X229369142Y-58884619D01*
X229273904Y-59027476D01*
X229226285Y-59217952D01*
X229226285Y-59598904D01*
X229273904Y-59694142D01*
X229321523Y-59741761D01*
X229416761Y-59789380D01*
X229607238Y-59789380D01*
X229702476Y-59741761D01*
X229750095Y-59694142D01*
X229797714Y-59598904D01*
X229797714Y-59360809D01*
X229750095Y-59265571D01*
X229702476Y-59217952D01*
X229607238Y-59170333D01*
X229416761Y-59170333D01*
X229321523Y-59217952D01*
X229273904Y-59265571D01*
X229226285Y-59360809D01*
X203151333Y-43692142D02*
X203103714Y-43739761D01*
X202960857Y-43787380D01*
X202865619Y-43787380D01*
X202722761Y-43739761D01*
X202627523Y-43644523D01*
X202579904Y-43549285D01*
X202532285Y-43358809D01*
X202532285Y-43215952D01*
X202579904Y-43025476D01*
X202627523Y-42930238D01*
X202722761Y-42835000D01*
X202865619Y-42787380D01*
X202960857Y-42787380D01*
X203103714Y-42835000D01*
X203151333Y-42882619D01*
X203484666Y-42787380D02*
X204151333Y-42787380D01*
X203722761Y-43787380D01*
X195166666Y-75172380D02*
X195166666Y-75886666D01*
X195119047Y-76029523D01*
X195023809Y-76124761D01*
X194880952Y-76172380D01*
X194785714Y-76172380D01*
X196166666Y-76172380D02*
X195595238Y-76172380D01*
X195880952Y-76172380D02*
X195880952Y-75172380D01*
X195785714Y-75315238D01*
X195690476Y-75410476D01*
X195595238Y-75458095D01*
X243029380Y-57921333D02*
X243743666Y-57921333D01*
X243886523Y-57968952D01*
X243981761Y-58064190D01*
X244029380Y-58207047D01*
X244029380Y-58302285D01*
X243124619Y-57492761D02*
X243077000Y-57445142D01*
X243029380Y-57349904D01*
X243029380Y-57111809D01*
X243077000Y-57016571D01*
X243124619Y-56968952D01*
X243219857Y-56921333D01*
X243315095Y-56921333D01*
X243457952Y-56968952D01*
X244029380Y-57540380D01*
X244029380Y-56921333D01*
X243029380Y-42906333D02*
X243743666Y-42906333D01*
X243886523Y-42953952D01*
X243981761Y-43049190D01*
X244029380Y-43192047D01*
X244029380Y-43287285D01*
X243029380Y-42525380D02*
X243029380Y-41906333D01*
X243410333Y-42239666D01*
X243410333Y-42096809D01*
X243457952Y-42001571D01*
X243505571Y-41953952D01*
X243600809Y-41906333D01*
X243838904Y-41906333D01*
X243934142Y-41953952D01*
X243981761Y-42001571D01*
X244029380Y-42096809D01*
X244029380Y-42382523D01*
X243981761Y-42477761D01*
X243934142Y-42525380D01*
X225336666Y-75172380D02*
X225336666Y-75886666D01*
X225289047Y-76029523D01*
X225193809Y-76124761D01*
X225050952Y-76172380D01*
X224955714Y-76172380D01*
X226241428Y-75505714D02*
X226241428Y-76172380D01*
X226003333Y-75124761D02*
X225765238Y-75839047D01*
X226384285Y-75839047D01*
X210096666Y-75172380D02*
X210096666Y-75886666D01*
X210049047Y-76029523D01*
X209953809Y-76124761D01*
X209810952Y-76172380D01*
X209715714Y-76172380D01*
X211049047Y-75172380D02*
X210572857Y-75172380D01*
X210525238Y-75648571D01*
X210572857Y-75600952D01*
X210668095Y-75553333D01*
X210906190Y-75553333D01*
X211001428Y-75600952D01*
X211049047Y-75648571D01*
X211096666Y-75743809D01*
X211096666Y-75981904D01*
X211049047Y-76077142D01*
X211001428Y-76124761D01*
X210906190Y-76172380D01*
X210668095Y-76172380D01*
X210572857Y-76124761D01*
X210525238Y-76077142D01*
X197531666Y-65477380D02*
X197531666Y-66191666D01*
X197484047Y-66334523D01*
X197388809Y-66429761D01*
X197245952Y-66477380D01*
X197150714Y-66477380D01*
X198007857Y-66477380D02*
X198007857Y-65477380D01*
X198388809Y-65477380D01*
X198484047Y-65525000D01*
X198531666Y-65572619D01*
X198579285Y-65667857D01*
X198579285Y-65810714D01*
X198531666Y-65905952D01*
X198484047Y-65953571D01*
X198388809Y-66001190D01*
X198007857Y-66001190D01*
X199531666Y-66477380D02*
X198960238Y-66477380D01*
X199245952Y-66477380D02*
X199245952Y-65477380D01*
X199150714Y-65620238D01*
X199055476Y-65715476D01*
X198960238Y-65763095D01*
X208550095Y-62345380D02*
X208550095Y-63154904D01*
X208597714Y-63250142D01*
X208645333Y-63297761D01*
X208740571Y-63345380D01*
X208931047Y-63345380D01*
X209026285Y-63297761D01*
X209073904Y-63250142D01*
X209121523Y-63154904D01*
X209121523Y-62345380D01*
X210121523Y-63345380D02*
X209550095Y-63345380D01*
X209835809Y-63345380D02*
X209835809Y-62345380D01*
X209740571Y-62488238D01*
X209645333Y-62583476D01*
X209550095Y-62631095D01*
X191253095Y-63107380D02*
X191253095Y-63916904D01*
X191300714Y-64012142D01*
X191348333Y-64059761D01*
X191443571Y-64107380D01*
X191634047Y-64107380D01*
X191729285Y-64059761D01*
X191776904Y-64012142D01*
X191824523Y-63916904D01*
X191824523Y-63107380D01*
X192253095Y-63202619D02*
X192300714Y-63155000D01*
X192395952Y-63107380D01*
X192634047Y-63107380D01*
X192729285Y-63155000D01*
X192776904Y-63202619D01*
X192824523Y-63297857D01*
X192824523Y-63393095D01*
X192776904Y-63535952D01*
X192205476Y-64107380D01*
X192824523Y-64107380D01*
X229757904Y-38801380D02*
X229757904Y-37801380D01*
X229996000Y-37801380D01*
X230138857Y-37849000D01*
X230234095Y-37944238D01*
X230281714Y-38039476D01*
X230329333Y-38229952D01*
X230329333Y-38372809D01*
X230281714Y-38563285D01*
X230234095Y-38658523D01*
X230138857Y-38753761D01*
X229996000Y-38801380D01*
X229757904Y-38801380D01*
X231281714Y-38801380D02*
X230710285Y-38801380D01*
X230996000Y-38801380D02*
X230996000Y-37801380D01*
X230900761Y-37944238D01*
X230805523Y-38039476D01*
X230710285Y-38087095D01*
X229853142Y-43787380D02*
X229519809Y-43311190D01*
X229281714Y-43787380D02*
X229281714Y-42787380D01*
X229662666Y-42787380D01*
X229757904Y-42835000D01*
X229805523Y-42882619D01*
X229853142Y-42977857D01*
X229853142Y-43120714D01*
X229805523Y-43215952D01*
X229757904Y-43263571D01*
X229662666Y-43311190D01*
X229281714Y-43311190D01*
X230805523Y-43787380D02*
X230234095Y-43787380D01*
X230519809Y-43787380D02*
X230519809Y-42787380D01*
X230424571Y-42930238D01*
X230329333Y-43025476D01*
X230234095Y-43073095D01*
X231662666Y-43120714D02*
X231662666Y-43787380D01*
X231424571Y-42739761D02*
X231186476Y-43454047D01*
X231805523Y-43454047D01*
X217937142Y-90665666D02*
X217984761Y-90713285D01*
X218032380Y-90856142D01*
X218032380Y-90951380D01*
X217984761Y-91094238D01*
X217889523Y-91189476D01*
X217794285Y-91237095D01*
X217603809Y-91284714D01*
X217460952Y-91284714D01*
X217270476Y-91237095D01*
X217175238Y-91189476D01*
X217080000Y-91094238D01*
X217032380Y-90951380D01*
X217032380Y-90856142D01*
X217080000Y-90713285D01*
X217127619Y-90665666D01*
X218032380Y-89713285D02*
X218032380Y-90284714D01*
X218032380Y-89999000D02*
X217032380Y-89999000D01*
X217175238Y-90094238D01*
X217270476Y-90189476D01*
X217318095Y-90284714D01*
X190759142Y-105357666D02*
X190806761Y-105405285D01*
X190854380Y-105548142D01*
X190854380Y-105643380D01*
X190806761Y-105786238D01*
X190711523Y-105881476D01*
X190616285Y-105929095D01*
X190425809Y-105976714D01*
X190282952Y-105976714D01*
X190092476Y-105929095D01*
X189997238Y-105881476D01*
X189902000Y-105786238D01*
X189854380Y-105643380D01*
X189854380Y-105548142D01*
X189902000Y-105405285D01*
X189949619Y-105357666D01*
X189949619Y-104976714D02*
X189902000Y-104929095D01*
X189854380Y-104833857D01*
X189854380Y-104595761D01*
X189902000Y-104500523D01*
X189949619Y-104452904D01*
X190044857Y-104405285D01*
X190140095Y-104405285D01*
X190282952Y-104452904D01*
X190854380Y-105024333D01*
X190854380Y-104405285D01*
X194315142Y-105397666D02*
X194362761Y-105445285D01*
X194410380Y-105588142D01*
X194410380Y-105683380D01*
X194362761Y-105826238D01*
X194267523Y-105921476D01*
X194172285Y-105969095D01*
X193981809Y-106016714D01*
X193838952Y-106016714D01*
X193648476Y-105969095D01*
X193553238Y-105921476D01*
X193458000Y-105826238D01*
X193410380Y-105683380D01*
X193410380Y-105588142D01*
X193458000Y-105445285D01*
X193505619Y-105397666D01*
X193410380Y-105064333D02*
X193410380Y-104445285D01*
X193791333Y-104778619D01*
X193791333Y-104635761D01*
X193838952Y-104540523D01*
X193886571Y-104492904D01*
X193981809Y-104445285D01*
X194219904Y-104445285D01*
X194315142Y-104492904D01*
X194362761Y-104540523D01*
X194410380Y-104635761D01*
X194410380Y-104921476D01*
X194362761Y-105016714D01*
X194315142Y-105064333D01*
X194315142Y-97737666D02*
X194362761Y-97785285D01*
X194410380Y-97928142D01*
X194410380Y-98023380D01*
X194362761Y-98166238D01*
X194267523Y-98261476D01*
X194172285Y-98309095D01*
X193981809Y-98356714D01*
X193838952Y-98356714D01*
X193648476Y-98309095D01*
X193553238Y-98261476D01*
X193458000Y-98166238D01*
X193410380Y-98023380D01*
X193410380Y-97928142D01*
X193458000Y-97785285D01*
X193505619Y-97737666D01*
X193743714Y-96880523D02*
X194410380Y-96880523D01*
X193362761Y-97118619D02*
X194077047Y-97356714D01*
X194077047Y-96737666D01*
X206507142Y-90665666D02*
X206554761Y-90713285D01*
X206602380Y-90856142D01*
X206602380Y-90951380D01*
X206554761Y-91094238D01*
X206459523Y-91189476D01*
X206364285Y-91237095D01*
X206173809Y-91284714D01*
X206030952Y-91284714D01*
X205840476Y-91237095D01*
X205745238Y-91189476D01*
X205650000Y-91094238D01*
X205602380Y-90951380D01*
X205602380Y-90856142D01*
X205650000Y-90713285D01*
X205697619Y-90665666D01*
X205602380Y-89760904D02*
X205602380Y-90237095D01*
X206078571Y-90284714D01*
X206030952Y-90237095D01*
X205983333Y-90141857D01*
X205983333Y-89903761D01*
X206030952Y-89808523D01*
X206078571Y-89760904D01*
X206173809Y-89713285D01*
X206411904Y-89713285D01*
X206507142Y-89760904D01*
X206554761Y-89808523D01*
X206602380Y-89903761D01*
X206602380Y-90141857D01*
X206554761Y-90237095D01*
X206507142Y-90284714D01*
X229875142Y-110731666D02*
X229922761Y-110779285D01*
X229970380Y-110922142D01*
X229970380Y-111017380D01*
X229922761Y-111160238D01*
X229827523Y-111255476D01*
X229732285Y-111303095D01*
X229541809Y-111350714D01*
X229398952Y-111350714D01*
X229208476Y-111303095D01*
X229113238Y-111255476D01*
X229018000Y-111160238D01*
X228970380Y-111017380D01*
X228970380Y-110922142D01*
X229018000Y-110779285D01*
X229065619Y-110731666D01*
X228970380Y-109874523D02*
X228970380Y-110065000D01*
X229018000Y-110160238D01*
X229065619Y-110207857D01*
X229208476Y-110303095D01*
X229398952Y-110350714D01*
X229779904Y-110350714D01*
X229875142Y-110303095D01*
X229922761Y-110255476D01*
X229970380Y-110160238D01*
X229970380Y-109969761D01*
X229922761Y-109874523D01*
X229875142Y-109826904D01*
X229779904Y-109779285D01*
X229541809Y-109779285D01*
X229446571Y-109826904D01*
X229398952Y-109874523D01*
X229351333Y-109969761D01*
X229351333Y-110160238D01*
X229398952Y-110255476D01*
X229446571Y-110303095D01*
X229541809Y-110350714D01*
X229875142Y-103071666D02*
X229922761Y-103119285D01*
X229970380Y-103262142D01*
X229970380Y-103357380D01*
X229922761Y-103500238D01*
X229827523Y-103595476D01*
X229732285Y-103643095D01*
X229541809Y-103690714D01*
X229398952Y-103690714D01*
X229208476Y-103643095D01*
X229113238Y-103595476D01*
X229018000Y-103500238D01*
X228970380Y-103357380D01*
X228970380Y-103262142D01*
X229018000Y-103119285D01*
X229065619Y-103071666D01*
X228970380Y-102738333D02*
X228970380Y-102071666D01*
X229970380Y-102500238D01*
X194894666Y-117637380D02*
X194894666Y-118351666D01*
X194847047Y-118494523D01*
X194751809Y-118589761D01*
X194608952Y-118637380D01*
X194513714Y-118637380D01*
X195894666Y-118637380D02*
X195323238Y-118637380D01*
X195608952Y-118637380D02*
X195608952Y-117637380D01*
X195513714Y-117780238D01*
X195418476Y-117875476D01*
X195323238Y-117923095D01*
X255600666Y-117891380D02*
X255600666Y-118605666D01*
X255553047Y-118748523D01*
X255457809Y-118843761D01*
X255314952Y-118891380D01*
X255219714Y-118891380D01*
X256029238Y-117986619D02*
X256076857Y-117939000D01*
X256172095Y-117891380D01*
X256410190Y-117891380D01*
X256505428Y-117939000D01*
X256553047Y-117986619D01*
X256600666Y-118081857D01*
X256600666Y-118177095D01*
X256553047Y-118319952D01*
X255981619Y-118891380D01*
X256600666Y-118891380D01*
X240563666Y-117891380D02*
X240563666Y-118605666D01*
X240516047Y-118748523D01*
X240420809Y-118843761D01*
X240277952Y-118891380D01*
X240182714Y-118891380D01*
X240944619Y-117891380D02*
X241563666Y-117891380D01*
X241230333Y-118272333D01*
X241373190Y-118272333D01*
X241468428Y-118319952D01*
X241516047Y-118367571D01*
X241563666Y-118462809D01*
X241563666Y-118700904D01*
X241516047Y-118796142D01*
X241468428Y-118843761D01*
X241373190Y-118891380D01*
X241087476Y-118891380D01*
X240992238Y-118843761D01*
X240944619Y-118796142D01*
X204586380Y-103778333D02*
X205300666Y-103778333D01*
X205443523Y-103825952D01*
X205538761Y-103921190D01*
X205586380Y-104064047D01*
X205586380Y-104159285D01*
X205586380Y-103302142D02*
X204586380Y-103302142D01*
X204586380Y-102921190D01*
X204634000Y-102825952D01*
X204681619Y-102778333D01*
X204776857Y-102730714D01*
X204919714Y-102730714D01*
X205014952Y-102778333D01*
X205062571Y-102825952D01*
X205110190Y-102921190D01*
X205110190Y-103302142D01*
X205586380Y-101778333D02*
X205586380Y-102349761D01*
X205586380Y-102064047D02*
X204586380Y-102064047D01*
X204729238Y-102159285D01*
X204824476Y-102254523D01*
X204872095Y-102349761D01*
X233272380Y-104127666D02*
X232796190Y-104461000D01*
X233272380Y-104699095D02*
X232272380Y-104699095D01*
X232272380Y-104318142D01*
X232320000Y-104222904D01*
X232367619Y-104175285D01*
X232462857Y-104127666D01*
X232605714Y-104127666D01*
X232700952Y-104175285D01*
X232748571Y-104222904D01*
X232796190Y-104318142D01*
X232796190Y-104699095D01*
X233272380Y-103175285D02*
X233272380Y-103746714D01*
X233272380Y-103461000D02*
X232272380Y-103461000D01*
X232415238Y-103556238D01*
X232510476Y-103651476D01*
X232558095Y-103746714D01*
X235050380Y-104127666D02*
X234574190Y-104461000D01*
X235050380Y-104699095D02*
X234050380Y-104699095D01*
X234050380Y-104318142D01*
X234098000Y-104222904D01*
X234145619Y-104175285D01*
X234240857Y-104127666D01*
X234383714Y-104127666D01*
X234478952Y-104175285D01*
X234526571Y-104222904D01*
X234574190Y-104318142D01*
X234574190Y-104699095D01*
X234145619Y-103746714D02*
X234098000Y-103699095D01*
X234050380Y-103603857D01*
X234050380Y-103365761D01*
X234098000Y-103270523D01*
X234145619Y-103222904D01*
X234240857Y-103175285D01*
X234336095Y-103175285D01*
X234478952Y-103222904D01*
X235050380Y-103794333D01*
X235050380Y-103175285D01*
X236828380Y-104127666D02*
X236352190Y-104461000D01*
X236828380Y-104699095D02*
X235828380Y-104699095D01*
X235828380Y-104318142D01*
X235876000Y-104222904D01*
X235923619Y-104175285D01*
X236018857Y-104127666D01*
X236161714Y-104127666D01*
X236256952Y-104175285D01*
X236304571Y-104222904D01*
X236352190Y-104318142D01*
X236352190Y-104699095D01*
X235828380Y-103794333D02*
X235828380Y-103175285D01*
X236209333Y-103508619D01*
X236209333Y-103365761D01*
X236256952Y-103270523D01*
X236304571Y-103222904D01*
X236399809Y-103175285D01*
X236637904Y-103175285D01*
X236733142Y-103222904D01*
X236780761Y-103270523D01*
X236828380Y-103365761D01*
X236828380Y-103651476D01*
X236780761Y-103746714D01*
X236733142Y-103794333D01*
X235288571Y-90681571D02*
X235336190Y-90538714D01*
X235383809Y-90491095D01*
X235479047Y-90443476D01*
X235621904Y-90443476D01*
X235717142Y-90491095D01*
X235764761Y-90538714D01*
X235812380Y-90633952D01*
X235812380Y-91014904D01*
X234812380Y-91014904D01*
X234812380Y-90681571D01*
X234860000Y-90586333D01*
X234907619Y-90538714D01*
X235002857Y-90491095D01*
X235098095Y-90491095D01*
X235193333Y-90538714D01*
X235240952Y-90586333D01*
X235288571Y-90681571D01*
X235288571Y-91014904D01*
X234812380Y-94054904D02*
X234812380Y-93483476D01*
X235812380Y-93769190D02*
X234812380Y-93769190D01*
X234812380Y-93245380D02*
X235812380Y-92578714D01*
X234812380Y-92578714D02*
X235812380Y-93245380D01*
X235812380Y-95999666D02*
X235336190Y-96333000D01*
X235812380Y-96571095D02*
X234812380Y-96571095D01*
X234812380Y-96190142D01*
X234860000Y-96094904D01*
X234907619Y-96047285D01*
X235002857Y-95999666D01*
X235145714Y-95999666D01*
X235240952Y-96047285D01*
X235288571Y-96094904D01*
X235336190Y-96190142D01*
X235336190Y-96571095D01*
X234812380Y-95666333D02*
X235812380Y-94999666D01*
X234812380Y-94999666D02*
X235812380Y-95666333D01*
X235431428Y-98753952D02*
X235431428Y-97992047D01*
X235812380Y-98373000D02*
X235050476Y-98373000D01*
X235431428Y-101293952D02*
X235431428Y-100532047D01*
X199506380Y-98982904D02*
X200315904Y-98982904D01*
X200411142Y-98935285D01*
X200458761Y-98887666D01*
X200506380Y-98792428D01*
X200506380Y-98601952D01*
X200458761Y-98506714D01*
X200411142Y-98459095D01*
X200315904Y-98411476D01*
X199506380Y-98411476D01*
X200506380Y-97411476D02*
X200506380Y-97982904D01*
X200506380Y-97697190D02*
X199506380Y-97697190D01*
X199649238Y-97792428D01*
X199744476Y-97887666D01*
X199792095Y-97982904D01*
X199292095Y-105445380D02*
X199292095Y-106254904D01*
X199339714Y-106350142D01*
X199387333Y-106397761D01*
X199482571Y-106445380D01*
X199673047Y-106445380D01*
X199768285Y-106397761D01*
X199815904Y-106350142D01*
X199863523Y-106254904D01*
X199863523Y-105445380D01*
X200292095Y-105540619D02*
X200339714Y-105493000D01*
X200434952Y-105445380D01*
X200673047Y-105445380D01*
X200768285Y-105493000D01*
X200815904Y-105540619D01*
X200863523Y-105635857D01*
X200863523Y-105731095D01*
X200815904Y-105873952D01*
X200244476Y-106445380D01*
X200863523Y-106445380D01*
X227524380Y-97181904D02*
X228333904Y-97181904D01*
X228429142Y-97134285D01*
X228476761Y-97086666D01*
X228524380Y-96991428D01*
X228524380Y-96800952D01*
X228476761Y-96705714D01*
X228429142Y-96658095D01*
X228333904Y-96610476D01*
X227524380Y-96610476D01*
X227524380Y-96229523D02*
X227524380Y-95610476D01*
X227905333Y-95943809D01*
X227905333Y-95800952D01*
X227952952Y-95705714D01*
X228000571Y-95658095D01*
X228095809Y-95610476D01*
X228333904Y-95610476D01*
X228429142Y-95658095D01*
X228476761Y-95705714D01*
X228524380Y-95800952D01*
X228524380Y-96086666D01*
X228476761Y-96181904D01*
X228429142Y-96229523D01*
M02*
