G04 #@! TF.GenerationSoftware,KiCad,Pcbnew,(5.1.5-0-10_14)*
G04 #@! TF.CreationDate,2020-07-31T02:19:59+02:00*
G04 #@! TF.ProjectId,output.Panel,6f757470-7574-42e5-9061-6e656c2e6b69,rev?*
G04 #@! TF.SameCoordinates,Original*
G04 #@! TF.FileFunction,Soldermask,Top*
G04 #@! TF.FilePolarity,Negative*
%FSLAX46Y46*%
G04 Gerber Fmt 4.6, Leading zero omitted, Abs format (unit mm)*
G04 Created by KiCad (PCBNEW (5.1.5-0-10_14)) date 2020-07-31 02:19:59*
%MOMM*%
%LPD*%
G04 APERTURE LIST*
%ADD10C,0.900000*%
%ADD11C,8.600000*%
%ADD12C,0.100000*%
%ADD13R,10.000000X5.000000*%
%ADD14O,1.700000X1.700000*%
%ADD15R,1.700000X1.700000*%
%ADD16C,1.000000*%
%ADD17C,5.600000*%
%ADD18C,3.200000*%
%ADD19C,1.524000*%
%ADD20C,3.000000*%
%ADD21C,1.600000*%
%ADD22C,2.000000*%
%ADD23R,2.000000X2.000000*%
%ADD24C,2.800000*%
%ADD25R,2.800000X2.800000*%
%ADD26C,1.500000*%
%ADD27O,1.600000X1.600000*%
%ADD28C,4.000000*%
%ADD29C,2.500000*%
%ADD30R,2.000000X0.900000*%
%ADD31R,0.900000X2.000000*%
%ADD32R,5.000000X5.000000*%
%ADD33R,2.000000X1.500000*%
%ADD34R,2.000000X3.800000*%
%ADD35R,3.800000X2.000000*%
%ADD36R,1.500000X2.000000*%
%ADD37C,0.800000*%
G04 APERTURE END LIST*
D10*
X180780419Y-70744581D03*
X178500000Y-69800000D03*
X176219581Y-70744581D03*
X175275000Y-73025000D03*
X176219581Y-75305419D03*
X178500000Y-76250000D03*
X180780419Y-75305419D03*
X181725000Y-73025000D03*
D11*
X178500000Y-73025000D03*
X143500000Y-38025000D03*
D10*
X146725000Y-38025000D03*
X145780419Y-40305419D03*
X143500000Y-41250000D03*
X141219581Y-40305419D03*
X140275000Y-38025000D03*
X141219581Y-35744581D03*
X143500000Y-34800000D03*
X145780419Y-35744581D03*
X145780419Y-70744581D03*
X143500000Y-69800000D03*
X141219581Y-70744581D03*
X140275000Y-73025000D03*
X141219581Y-75305419D03*
X143500000Y-76250000D03*
X145780419Y-75305419D03*
X146725000Y-73025000D03*
D11*
X143500000Y-73025000D03*
D10*
X180780419Y-35744581D03*
X178500000Y-34800000D03*
X176219581Y-35744581D03*
X175275000Y-38025000D03*
X176219581Y-40305419D03*
X178500000Y-41250000D03*
X180780419Y-40305419D03*
X181725000Y-38025000D03*
D11*
X178500000Y-38025000D03*
D12*
G36*
X153249398Y-64775000D02*
G01*
X153249398Y-64799534D01*
X153244588Y-64848365D01*
X153235016Y-64896490D01*
X153220772Y-64943445D01*
X153201995Y-64988778D01*
X153178864Y-65032051D01*
X153151604Y-65072850D01*
X153120476Y-65110779D01*
X153085779Y-65145476D01*
X153047850Y-65176604D01*
X153007051Y-65203864D01*
X152963778Y-65226995D01*
X152918445Y-65245772D01*
X152871490Y-65260016D01*
X152823365Y-65269588D01*
X152774534Y-65274398D01*
X152750000Y-65274398D01*
X152750000Y-65275000D01*
X152250000Y-65275000D01*
X152250000Y-65274398D01*
X152225466Y-65274398D01*
X152176635Y-65269588D01*
X152128510Y-65260016D01*
X152081555Y-65245772D01*
X152036222Y-65226995D01*
X151992949Y-65203864D01*
X151952150Y-65176604D01*
X151914221Y-65145476D01*
X151879524Y-65110779D01*
X151848396Y-65072850D01*
X151821136Y-65032051D01*
X151798005Y-64988778D01*
X151779228Y-64943445D01*
X151764984Y-64896490D01*
X151755412Y-64848365D01*
X151750602Y-64799534D01*
X151750602Y-64775000D01*
X151750000Y-64775000D01*
X151750000Y-64275000D01*
X153250000Y-64275000D01*
X153250000Y-64775000D01*
X153249398Y-64775000D01*
G37*
G36*
X151750000Y-63975000D02*
G01*
X151750000Y-63475000D01*
X151750602Y-63475000D01*
X151750602Y-63450466D01*
X151755412Y-63401635D01*
X151764984Y-63353510D01*
X151779228Y-63306555D01*
X151798005Y-63261222D01*
X151821136Y-63217949D01*
X151848396Y-63177150D01*
X151879524Y-63139221D01*
X151914221Y-63104524D01*
X151952150Y-63073396D01*
X151992949Y-63046136D01*
X152036222Y-63023005D01*
X152081555Y-63004228D01*
X152128510Y-62989984D01*
X152176635Y-62980412D01*
X152225466Y-62975602D01*
X152250000Y-62975602D01*
X152250000Y-62975000D01*
X152750000Y-62975000D01*
X152750000Y-62975602D01*
X152774534Y-62975602D01*
X152823365Y-62980412D01*
X152871490Y-62989984D01*
X152918445Y-63004228D01*
X152963778Y-63023005D01*
X153007051Y-63046136D01*
X153047850Y-63073396D01*
X153085779Y-63104524D01*
X153120476Y-63139221D01*
X153151604Y-63177150D01*
X153178864Y-63217949D01*
X153201995Y-63261222D01*
X153220772Y-63306555D01*
X153235016Y-63353510D01*
X153244588Y-63401635D01*
X153249398Y-63450466D01*
X153249398Y-63475000D01*
X153250000Y-63475000D01*
X153250000Y-63975000D01*
X151750000Y-63975000D01*
G37*
G36*
X148750000Y-60775000D02*
G01*
X148750000Y-60275000D01*
X148750602Y-60275000D01*
X148750602Y-60250466D01*
X148755412Y-60201635D01*
X148764984Y-60153510D01*
X148779228Y-60106555D01*
X148798005Y-60061222D01*
X148821136Y-60017949D01*
X148848396Y-59977150D01*
X148879524Y-59939221D01*
X148914221Y-59904524D01*
X148952150Y-59873396D01*
X148992949Y-59846136D01*
X149036222Y-59823005D01*
X149081555Y-59804228D01*
X149128510Y-59789984D01*
X149176635Y-59780412D01*
X149225466Y-59775602D01*
X149250000Y-59775602D01*
X149250000Y-59775000D01*
X149750000Y-59775000D01*
X149750000Y-59775602D01*
X149774534Y-59775602D01*
X149823365Y-59780412D01*
X149871490Y-59789984D01*
X149918445Y-59804228D01*
X149963778Y-59823005D01*
X150007051Y-59846136D01*
X150047850Y-59873396D01*
X150085779Y-59904524D01*
X150120476Y-59939221D01*
X150151604Y-59977150D01*
X150178864Y-60017949D01*
X150201995Y-60061222D01*
X150220772Y-60106555D01*
X150235016Y-60153510D01*
X150244588Y-60201635D01*
X150249398Y-60250466D01*
X150249398Y-60275000D01*
X150250000Y-60275000D01*
X150250000Y-60775000D01*
X148750000Y-60775000D01*
G37*
G36*
X150249398Y-61575000D02*
G01*
X150249398Y-61599534D01*
X150244588Y-61648365D01*
X150235016Y-61696490D01*
X150220772Y-61743445D01*
X150201995Y-61788778D01*
X150178864Y-61832051D01*
X150151604Y-61872850D01*
X150120476Y-61910779D01*
X150085779Y-61945476D01*
X150047850Y-61976604D01*
X150007051Y-62003864D01*
X149963778Y-62026995D01*
X149918445Y-62045772D01*
X149871490Y-62060016D01*
X149823365Y-62069588D01*
X149774534Y-62074398D01*
X149750000Y-62074398D01*
X149750000Y-62075000D01*
X149250000Y-62075000D01*
X149250000Y-62074398D01*
X149225466Y-62074398D01*
X149176635Y-62069588D01*
X149128510Y-62060016D01*
X149081555Y-62045772D01*
X149036222Y-62026995D01*
X148992949Y-62003864D01*
X148952150Y-61976604D01*
X148914221Y-61945476D01*
X148879524Y-61910779D01*
X148848396Y-61872850D01*
X148821136Y-61832051D01*
X148798005Y-61788778D01*
X148779228Y-61743445D01*
X148764984Y-61696490D01*
X148755412Y-61648365D01*
X148750602Y-61599534D01*
X148750602Y-61575000D01*
X148750000Y-61575000D01*
X148750000Y-61075000D01*
X150250000Y-61075000D01*
X150250000Y-61575000D01*
X150249398Y-61575000D01*
G37*
G36*
X153249398Y-58375000D02*
G01*
X153249398Y-58399534D01*
X153244588Y-58448365D01*
X153235016Y-58496490D01*
X153220772Y-58543445D01*
X153201995Y-58588778D01*
X153178864Y-58632051D01*
X153151604Y-58672850D01*
X153120476Y-58710779D01*
X153085779Y-58745476D01*
X153047850Y-58776604D01*
X153007051Y-58803864D01*
X152963778Y-58826995D01*
X152918445Y-58845772D01*
X152871490Y-58860016D01*
X152823365Y-58869588D01*
X152774534Y-58874398D01*
X152750000Y-58874398D01*
X152750000Y-58875000D01*
X152250000Y-58875000D01*
X152250000Y-58874398D01*
X152225466Y-58874398D01*
X152176635Y-58869588D01*
X152128510Y-58860016D01*
X152081555Y-58845772D01*
X152036222Y-58826995D01*
X151992949Y-58803864D01*
X151952150Y-58776604D01*
X151914221Y-58745476D01*
X151879524Y-58710779D01*
X151848396Y-58672850D01*
X151821136Y-58632051D01*
X151798005Y-58588778D01*
X151779228Y-58543445D01*
X151764984Y-58496490D01*
X151755412Y-58448365D01*
X151750602Y-58399534D01*
X151750602Y-58375000D01*
X151750000Y-58375000D01*
X151750000Y-57875000D01*
X153250000Y-57875000D01*
X153250000Y-58375000D01*
X153249398Y-58375000D01*
G37*
G36*
X151750000Y-57575000D02*
G01*
X151750000Y-57075000D01*
X151750602Y-57075000D01*
X151750602Y-57050466D01*
X151755412Y-57001635D01*
X151764984Y-56953510D01*
X151779228Y-56906555D01*
X151798005Y-56861222D01*
X151821136Y-56817949D01*
X151848396Y-56777150D01*
X151879524Y-56739221D01*
X151914221Y-56704524D01*
X151952150Y-56673396D01*
X151992949Y-56646136D01*
X152036222Y-56623005D01*
X152081555Y-56604228D01*
X152128510Y-56589984D01*
X152176635Y-56580412D01*
X152225466Y-56575602D01*
X152250000Y-56575602D01*
X152250000Y-56575000D01*
X152750000Y-56575000D01*
X152750000Y-56575602D01*
X152774534Y-56575602D01*
X152823365Y-56580412D01*
X152871490Y-56589984D01*
X152918445Y-56604228D01*
X152963778Y-56623005D01*
X153007051Y-56646136D01*
X153047850Y-56673396D01*
X153085779Y-56704524D01*
X153120476Y-56739221D01*
X153151604Y-56777150D01*
X153178864Y-56817949D01*
X153201995Y-56861222D01*
X153220772Y-56906555D01*
X153235016Y-56953510D01*
X153244588Y-57001635D01*
X153249398Y-57050466D01*
X153249398Y-57075000D01*
X153250000Y-57075000D01*
X153250000Y-57575000D01*
X151750000Y-57575000D01*
G37*
G36*
X153249398Y-51975000D02*
G01*
X153249398Y-51999534D01*
X153244588Y-52048365D01*
X153235016Y-52096490D01*
X153220772Y-52143445D01*
X153201995Y-52188778D01*
X153178864Y-52232051D01*
X153151604Y-52272850D01*
X153120476Y-52310779D01*
X153085779Y-52345476D01*
X153047850Y-52376604D01*
X153007051Y-52403864D01*
X152963778Y-52426995D01*
X152918445Y-52445772D01*
X152871490Y-52460016D01*
X152823365Y-52469588D01*
X152774534Y-52474398D01*
X152750000Y-52474398D01*
X152750000Y-52475000D01*
X152250000Y-52475000D01*
X152250000Y-52474398D01*
X152225466Y-52474398D01*
X152176635Y-52469588D01*
X152128510Y-52460016D01*
X152081555Y-52445772D01*
X152036222Y-52426995D01*
X151992949Y-52403864D01*
X151952150Y-52376604D01*
X151914221Y-52345476D01*
X151879524Y-52310779D01*
X151848396Y-52272850D01*
X151821136Y-52232051D01*
X151798005Y-52188778D01*
X151779228Y-52143445D01*
X151764984Y-52096490D01*
X151755412Y-52048365D01*
X151750602Y-51999534D01*
X151750602Y-51975000D01*
X151750000Y-51975000D01*
X151750000Y-51475000D01*
X153250000Y-51475000D01*
X153250000Y-51975000D01*
X153249398Y-51975000D01*
G37*
G36*
X151750000Y-51175000D02*
G01*
X151750000Y-50675000D01*
X151750602Y-50675000D01*
X151750602Y-50650466D01*
X151755412Y-50601635D01*
X151764984Y-50553510D01*
X151779228Y-50506555D01*
X151798005Y-50461222D01*
X151821136Y-50417949D01*
X151848396Y-50377150D01*
X151879524Y-50339221D01*
X151914221Y-50304524D01*
X151952150Y-50273396D01*
X151992949Y-50246136D01*
X152036222Y-50223005D01*
X152081555Y-50204228D01*
X152128510Y-50189984D01*
X152176635Y-50180412D01*
X152225466Y-50175602D01*
X152250000Y-50175602D01*
X152250000Y-50175000D01*
X152750000Y-50175000D01*
X152750000Y-50175602D01*
X152774534Y-50175602D01*
X152823365Y-50180412D01*
X152871490Y-50189984D01*
X152918445Y-50204228D01*
X152963778Y-50223005D01*
X153007051Y-50246136D01*
X153047850Y-50273396D01*
X153085779Y-50304524D01*
X153120476Y-50339221D01*
X153151604Y-50377150D01*
X153178864Y-50417949D01*
X153201995Y-50461222D01*
X153220772Y-50506555D01*
X153235016Y-50553510D01*
X153244588Y-50601635D01*
X153249398Y-50650466D01*
X153249398Y-50675000D01*
X153250000Y-50675000D01*
X153250000Y-51175000D01*
X151750000Y-51175000D01*
G37*
G36*
X148750000Y-47975000D02*
G01*
X148750000Y-47475000D01*
X148750602Y-47475000D01*
X148750602Y-47450466D01*
X148755412Y-47401635D01*
X148764984Y-47353510D01*
X148779228Y-47306555D01*
X148798005Y-47261222D01*
X148821136Y-47217949D01*
X148848396Y-47177150D01*
X148879524Y-47139221D01*
X148914221Y-47104524D01*
X148952150Y-47073396D01*
X148992949Y-47046136D01*
X149036222Y-47023005D01*
X149081555Y-47004228D01*
X149128510Y-46989984D01*
X149176635Y-46980412D01*
X149225466Y-46975602D01*
X149250000Y-46975602D01*
X149250000Y-46975000D01*
X149750000Y-46975000D01*
X149750000Y-46975602D01*
X149774534Y-46975602D01*
X149823365Y-46980412D01*
X149871490Y-46989984D01*
X149918445Y-47004228D01*
X149963778Y-47023005D01*
X150007051Y-47046136D01*
X150047850Y-47073396D01*
X150085779Y-47104524D01*
X150120476Y-47139221D01*
X150151604Y-47177150D01*
X150178864Y-47217949D01*
X150201995Y-47261222D01*
X150220772Y-47306555D01*
X150235016Y-47353510D01*
X150244588Y-47401635D01*
X150249398Y-47450466D01*
X150249398Y-47475000D01*
X150250000Y-47475000D01*
X150250000Y-47975000D01*
X148750000Y-47975000D01*
G37*
G36*
X150249398Y-48775000D02*
G01*
X150249398Y-48799534D01*
X150244588Y-48848365D01*
X150235016Y-48896490D01*
X150220772Y-48943445D01*
X150201995Y-48988778D01*
X150178864Y-49032051D01*
X150151604Y-49072850D01*
X150120476Y-49110779D01*
X150085779Y-49145476D01*
X150047850Y-49176604D01*
X150007051Y-49203864D01*
X149963778Y-49226995D01*
X149918445Y-49245772D01*
X149871490Y-49260016D01*
X149823365Y-49269588D01*
X149774534Y-49274398D01*
X149750000Y-49274398D01*
X149750000Y-49275000D01*
X149250000Y-49275000D01*
X149250000Y-49274398D01*
X149225466Y-49274398D01*
X149176635Y-49269588D01*
X149128510Y-49260016D01*
X149081555Y-49245772D01*
X149036222Y-49226995D01*
X148992949Y-49203864D01*
X148952150Y-49176604D01*
X148914221Y-49145476D01*
X148879524Y-49110779D01*
X148848396Y-49072850D01*
X148821136Y-49032051D01*
X148798005Y-48988778D01*
X148779228Y-48943445D01*
X148764984Y-48896490D01*
X148755412Y-48848365D01*
X148750602Y-48799534D01*
X148750602Y-48775000D01*
X148750000Y-48775000D01*
X148750000Y-48275000D01*
X150250000Y-48275000D01*
X150250000Y-48775000D01*
X150249398Y-48775000D01*
G37*
D13*
X176000000Y-64525000D03*
X165000000Y-60025000D03*
X176000000Y-55525000D03*
X165000000Y-51025000D03*
X176000000Y-46525000D03*
X165000000Y-42025000D03*
D14*
X141200000Y-61855000D03*
X141200000Y-59315000D03*
X141200000Y-56775000D03*
X141200000Y-54235000D03*
X141200000Y-51695000D03*
D15*
X141200000Y-49155000D03*
D12*
G36*
X148750000Y-54375000D02*
G01*
X148750000Y-53875000D01*
X148750602Y-53875000D01*
X148750602Y-53850466D01*
X148755412Y-53801635D01*
X148764984Y-53753510D01*
X148779228Y-53706555D01*
X148798005Y-53661222D01*
X148821136Y-53617949D01*
X148848396Y-53577150D01*
X148879524Y-53539221D01*
X148914221Y-53504524D01*
X148952150Y-53473396D01*
X148992949Y-53446136D01*
X149036222Y-53423005D01*
X149081555Y-53404228D01*
X149128510Y-53389984D01*
X149176635Y-53380412D01*
X149225466Y-53375602D01*
X149250000Y-53375602D01*
X149250000Y-53375000D01*
X149750000Y-53375000D01*
X149750000Y-53375602D01*
X149774534Y-53375602D01*
X149823365Y-53380412D01*
X149871490Y-53389984D01*
X149918445Y-53404228D01*
X149963778Y-53423005D01*
X150007051Y-53446136D01*
X150047850Y-53473396D01*
X150085779Y-53504524D01*
X150120476Y-53539221D01*
X150151604Y-53577150D01*
X150178864Y-53617949D01*
X150201995Y-53661222D01*
X150220772Y-53706555D01*
X150235016Y-53753510D01*
X150244588Y-53801635D01*
X150249398Y-53850466D01*
X150249398Y-53875000D01*
X150250000Y-53875000D01*
X150250000Y-54375000D01*
X148750000Y-54375000D01*
G37*
G36*
X150249398Y-55175000D02*
G01*
X150249398Y-55199534D01*
X150244588Y-55248365D01*
X150235016Y-55296490D01*
X150220772Y-55343445D01*
X150201995Y-55388778D01*
X150178864Y-55432051D01*
X150151604Y-55472850D01*
X150120476Y-55510779D01*
X150085779Y-55545476D01*
X150047850Y-55576604D01*
X150007051Y-55603864D01*
X149963778Y-55626995D01*
X149918445Y-55645772D01*
X149871490Y-55660016D01*
X149823365Y-55669588D01*
X149774534Y-55674398D01*
X149750000Y-55674398D01*
X149750000Y-55675000D01*
X149250000Y-55675000D01*
X149250000Y-55674398D01*
X149225466Y-55674398D01*
X149176635Y-55669588D01*
X149128510Y-55660016D01*
X149081555Y-55645772D01*
X149036222Y-55626995D01*
X148992949Y-55603864D01*
X148952150Y-55576604D01*
X148914221Y-55545476D01*
X148879524Y-55510779D01*
X148848396Y-55472850D01*
X148821136Y-55432051D01*
X148798005Y-55388778D01*
X148779228Y-55343445D01*
X148764984Y-55296490D01*
X148755412Y-55248365D01*
X148750602Y-55199534D01*
X148750602Y-55175000D01*
X148750000Y-55175000D01*
X148750000Y-54675000D01*
X150250000Y-54675000D01*
X150250000Y-55175000D01*
X150249398Y-55175000D01*
G37*
D16*
X105334000Y-48519000D03*
X102794000Y-48519000D03*
X100254000Y-48519000D03*
X97714000Y-48519000D03*
X95174000Y-48519000D03*
D17*
X40945000Y-127005000D03*
X130480000Y-127005000D03*
X130480000Y-37470000D03*
X40945000Y-37470000D03*
D18*
X50470000Y-58425000D03*
D19*
X133020000Y-83825000D03*
X133020000Y-81285000D03*
X133020000Y-78745000D03*
X133020000Y-76205000D03*
D20*
X39929000Y-105161000D03*
X132131000Y-105161000D03*
X132131000Y-54869000D03*
X39929000Y-54869000D03*
D19*
X39040000Y-63505000D03*
X39040000Y-66045000D03*
X39040000Y-68585000D03*
X39040000Y-71125000D03*
X39040000Y-73665000D03*
X39040000Y-76205000D03*
X39040000Y-78745000D03*
X39040000Y-81285000D03*
X39040000Y-83825000D03*
X39040000Y-86365000D03*
X39040000Y-88905000D03*
X39040000Y-91445000D03*
X39040000Y-93985000D03*
X39040000Y-96525000D03*
D21*
X73965000Y-80650000D03*
X73965000Y-75650000D03*
D22*
X65710000Y-90810000D03*
D23*
X70710000Y-90810000D03*
D21*
X71505000Y-84460000D03*
X76505000Y-84460000D03*
X80950000Y-88905000D03*
X75950000Y-88905000D03*
D22*
X80870000Y-95890000D03*
D23*
X75870000Y-95890000D03*
D21*
X114605000Y-99700000D03*
X114605000Y-94700000D03*
X117526000Y-94620000D03*
X122526000Y-94620000D03*
D24*
X68330000Y-67950000D03*
X73330000Y-67950000D03*
D25*
X78330000Y-67950000D03*
D14*
X55550000Y-105415000D03*
X53010000Y-105415000D03*
X50470000Y-105415000D03*
X47930000Y-105415000D03*
D15*
X45390000Y-105415000D03*
D26*
X82220000Y-44865000D03*
X82220000Y-48265000D03*
D27*
X97460000Y-99700000D03*
D21*
X97460000Y-89540000D03*
D27*
X117526000Y-99700000D03*
D21*
X127686000Y-99700000D03*
D27*
X111430000Y-99700000D03*
D21*
X101270000Y-99700000D03*
D27*
X101270000Y-94620000D03*
D21*
X111430000Y-94620000D03*
D22*
X58090000Y-119385000D03*
X58090000Y-123885000D03*
X51590000Y-119385000D03*
X51590000Y-123885000D03*
X119685000Y-119330000D03*
X119685000Y-123830000D03*
X113185000Y-119330000D03*
X113185000Y-123830000D03*
D28*
X94212500Y-122265000D03*
X77212500Y-122265000D03*
D29*
X80712500Y-111765000D03*
X85712500Y-111765000D03*
X90712500Y-111765000D03*
D11*
X178500000Y-87025000D03*
D10*
X181725000Y-87025000D03*
X180780419Y-89305419D03*
X178500000Y-90250000D03*
X176219581Y-89305419D03*
X175275000Y-87025000D03*
X176219581Y-84744581D03*
X178500000Y-83800000D03*
X180780419Y-84744581D03*
D11*
X178500000Y-122025000D03*
D10*
X181725000Y-122025000D03*
X180780419Y-124305419D03*
X178500000Y-125250000D03*
X176219581Y-124305419D03*
X175275000Y-122025000D03*
X176219581Y-119744581D03*
X178500000Y-118800000D03*
X180780419Y-119744581D03*
D11*
X143500000Y-122025000D03*
D10*
X146725000Y-122025000D03*
X145780419Y-124305419D03*
X143500000Y-125250000D03*
X141219581Y-124305419D03*
X140275000Y-122025000D03*
X141219581Y-119744581D03*
X143500000Y-118800000D03*
X145780419Y-119744581D03*
X145780419Y-84744581D03*
X143500000Y-83800000D03*
X141219581Y-84744581D03*
X140275000Y-87025000D03*
X141219581Y-89305419D03*
X143500000Y-90250000D03*
X145780419Y-89305419D03*
X146725000Y-87025000D03*
D11*
X143500000Y-87025000D03*
D15*
X141200000Y-98155000D03*
D14*
X141200000Y-100695000D03*
X141200000Y-103235000D03*
X141200000Y-105775000D03*
X141200000Y-108315000D03*
X141200000Y-110855000D03*
D13*
X165000000Y-91025000D03*
X176000000Y-95525000D03*
X165000000Y-100025000D03*
X176000000Y-104525000D03*
X165000000Y-109025000D03*
X176000000Y-113525000D03*
D12*
G36*
X150249398Y-97775000D02*
G01*
X150249398Y-97799534D01*
X150244588Y-97848365D01*
X150235016Y-97896490D01*
X150220772Y-97943445D01*
X150201995Y-97988778D01*
X150178864Y-98032051D01*
X150151604Y-98072850D01*
X150120476Y-98110779D01*
X150085779Y-98145476D01*
X150047850Y-98176604D01*
X150007051Y-98203864D01*
X149963778Y-98226995D01*
X149918445Y-98245772D01*
X149871490Y-98260016D01*
X149823365Y-98269588D01*
X149774534Y-98274398D01*
X149750000Y-98274398D01*
X149750000Y-98275000D01*
X149250000Y-98275000D01*
X149250000Y-98274398D01*
X149225466Y-98274398D01*
X149176635Y-98269588D01*
X149128510Y-98260016D01*
X149081555Y-98245772D01*
X149036222Y-98226995D01*
X148992949Y-98203864D01*
X148952150Y-98176604D01*
X148914221Y-98145476D01*
X148879524Y-98110779D01*
X148848396Y-98072850D01*
X148821136Y-98032051D01*
X148798005Y-97988778D01*
X148779228Y-97943445D01*
X148764984Y-97896490D01*
X148755412Y-97848365D01*
X148750602Y-97799534D01*
X148750602Y-97775000D01*
X148750000Y-97775000D01*
X148750000Y-97275000D01*
X150250000Y-97275000D01*
X150250000Y-97775000D01*
X150249398Y-97775000D01*
G37*
G36*
X148750000Y-96975000D02*
G01*
X148750000Y-96475000D01*
X148750602Y-96475000D01*
X148750602Y-96450466D01*
X148755412Y-96401635D01*
X148764984Y-96353510D01*
X148779228Y-96306555D01*
X148798005Y-96261222D01*
X148821136Y-96217949D01*
X148848396Y-96177150D01*
X148879524Y-96139221D01*
X148914221Y-96104524D01*
X148952150Y-96073396D01*
X148992949Y-96046136D01*
X149036222Y-96023005D01*
X149081555Y-96004228D01*
X149128510Y-95989984D01*
X149176635Y-95980412D01*
X149225466Y-95975602D01*
X149250000Y-95975602D01*
X149250000Y-95975000D01*
X149750000Y-95975000D01*
X149750000Y-95975602D01*
X149774534Y-95975602D01*
X149823365Y-95980412D01*
X149871490Y-95989984D01*
X149918445Y-96004228D01*
X149963778Y-96023005D01*
X150007051Y-96046136D01*
X150047850Y-96073396D01*
X150085779Y-96104524D01*
X150120476Y-96139221D01*
X150151604Y-96177150D01*
X150178864Y-96217949D01*
X150201995Y-96261222D01*
X150220772Y-96306555D01*
X150235016Y-96353510D01*
X150244588Y-96401635D01*
X150249398Y-96450466D01*
X150249398Y-96475000D01*
X150250000Y-96475000D01*
X150250000Y-96975000D01*
X148750000Y-96975000D01*
G37*
G36*
X151750000Y-100175000D02*
G01*
X151750000Y-99675000D01*
X151750602Y-99675000D01*
X151750602Y-99650466D01*
X151755412Y-99601635D01*
X151764984Y-99553510D01*
X151779228Y-99506555D01*
X151798005Y-99461222D01*
X151821136Y-99417949D01*
X151848396Y-99377150D01*
X151879524Y-99339221D01*
X151914221Y-99304524D01*
X151952150Y-99273396D01*
X151992949Y-99246136D01*
X152036222Y-99223005D01*
X152081555Y-99204228D01*
X152128510Y-99189984D01*
X152176635Y-99180412D01*
X152225466Y-99175602D01*
X152250000Y-99175602D01*
X152250000Y-99175000D01*
X152750000Y-99175000D01*
X152750000Y-99175602D01*
X152774534Y-99175602D01*
X152823365Y-99180412D01*
X152871490Y-99189984D01*
X152918445Y-99204228D01*
X152963778Y-99223005D01*
X153007051Y-99246136D01*
X153047850Y-99273396D01*
X153085779Y-99304524D01*
X153120476Y-99339221D01*
X153151604Y-99377150D01*
X153178864Y-99417949D01*
X153201995Y-99461222D01*
X153220772Y-99506555D01*
X153235016Y-99553510D01*
X153244588Y-99601635D01*
X153249398Y-99650466D01*
X153249398Y-99675000D01*
X153250000Y-99675000D01*
X153250000Y-100175000D01*
X151750000Y-100175000D01*
G37*
G36*
X153249398Y-100975000D02*
G01*
X153249398Y-100999534D01*
X153244588Y-101048365D01*
X153235016Y-101096490D01*
X153220772Y-101143445D01*
X153201995Y-101188778D01*
X153178864Y-101232051D01*
X153151604Y-101272850D01*
X153120476Y-101310779D01*
X153085779Y-101345476D01*
X153047850Y-101376604D01*
X153007051Y-101403864D01*
X152963778Y-101426995D01*
X152918445Y-101445772D01*
X152871490Y-101460016D01*
X152823365Y-101469588D01*
X152774534Y-101474398D01*
X152750000Y-101474398D01*
X152750000Y-101475000D01*
X152250000Y-101475000D01*
X152250000Y-101474398D01*
X152225466Y-101474398D01*
X152176635Y-101469588D01*
X152128510Y-101460016D01*
X152081555Y-101445772D01*
X152036222Y-101426995D01*
X151992949Y-101403864D01*
X151952150Y-101376604D01*
X151914221Y-101345476D01*
X151879524Y-101310779D01*
X151848396Y-101272850D01*
X151821136Y-101232051D01*
X151798005Y-101188778D01*
X151779228Y-101143445D01*
X151764984Y-101096490D01*
X151755412Y-101048365D01*
X151750602Y-100999534D01*
X151750602Y-100975000D01*
X151750000Y-100975000D01*
X151750000Y-100475000D01*
X153250000Y-100475000D01*
X153250000Y-100975000D01*
X153249398Y-100975000D01*
G37*
G36*
X150249398Y-104175000D02*
G01*
X150249398Y-104199534D01*
X150244588Y-104248365D01*
X150235016Y-104296490D01*
X150220772Y-104343445D01*
X150201995Y-104388778D01*
X150178864Y-104432051D01*
X150151604Y-104472850D01*
X150120476Y-104510779D01*
X150085779Y-104545476D01*
X150047850Y-104576604D01*
X150007051Y-104603864D01*
X149963778Y-104626995D01*
X149918445Y-104645772D01*
X149871490Y-104660016D01*
X149823365Y-104669588D01*
X149774534Y-104674398D01*
X149750000Y-104674398D01*
X149750000Y-104675000D01*
X149250000Y-104675000D01*
X149250000Y-104674398D01*
X149225466Y-104674398D01*
X149176635Y-104669588D01*
X149128510Y-104660016D01*
X149081555Y-104645772D01*
X149036222Y-104626995D01*
X148992949Y-104603864D01*
X148952150Y-104576604D01*
X148914221Y-104545476D01*
X148879524Y-104510779D01*
X148848396Y-104472850D01*
X148821136Y-104432051D01*
X148798005Y-104388778D01*
X148779228Y-104343445D01*
X148764984Y-104296490D01*
X148755412Y-104248365D01*
X148750602Y-104199534D01*
X148750602Y-104175000D01*
X148750000Y-104175000D01*
X148750000Y-103675000D01*
X150250000Y-103675000D01*
X150250000Y-104175000D01*
X150249398Y-104175000D01*
G37*
G36*
X148750000Y-103375000D02*
G01*
X148750000Y-102875000D01*
X148750602Y-102875000D01*
X148750602Y-102850466D01*
X148755412Y-102801635D01*
X148764984Y-102753510D01*
X148779228Y-102706555D01*
X148798005Y-102661222D01*
X148821136Y-102617949D01*
X148848396Y-102577150D01*
X148879524Y-102539221D01*
X148914221Y-102504524D01*
X148952150Y-102473396D01*
X148992949Y-102446136D01*
X149036222Y-102423005D01*
X149081555Y-102404228D01*
X149128510Y-102389984D01*
X149176635Y-102380412D01*
X149225466Y-102375602D01*
X149250000Y-102375602D01*
X149250000Y-102375000D01*
X149750000Y-102375000D01*
X149750000Y-102375602D01*
X149774534Y-102375602D01*
X149823365Y-102380412D01*
X149871490Y-102389984D01*
X149918445Y-102404228D01*
X149963778Y-102423005D01*
X150007051Y-102446136D01*
X150047850Y-102473396D01*
X150085779Y-102504524D01*
X150120476Y-102539221D01*
X150151604Y-102577150D01*
X150178864Y-102617949D01*
X150201995Y-102661222D01*
X150220772Y-102706555D01*
X150235016Y-102753510D01*
X150244588Y-102801635D01*
X150249398Y-102850466D01*
X150249398Y-102875000D01*
X150250000Y-102875000D01*
X150250000Y-103375000D01*
X148750000Y-103375000D01*
G37*
G36*
X151750000Y-106575000D02*
G01*
X151750000Y-106075000D01*
X151750602Y-106075000D01*
X151750602Y-106050466D01*
X151755412Y-106001635D01*
X151764984Y-105953510D01*
X151779228Y-105906555D01*
X151798005Y-105861222D01*
X151821136Y-105817949D01*
X151848396Y-105777150D01*
X151879524Y-105739221D01*
X151914221Y-105704524D01*
X151952150Y-105673396D01*
X151992949Y-105646136D01*
X152036222Y-105623005D01*
X152081555Y-105604228D01*
X152128510Y-105589984D01*
X152176635Y-105580412D01*
X152225466Y-105575602D01*
X152250000Y-105575602D01*
X152250000Y-105575000D01*
X152750000Y-105575000D01*
X152750000Y-105575602D01*
X152774534Y-105575602D01*
X152823365Y-105580412D01*
X152871490Y-105589984D01*
X152918445Y-105604228D01*
X152963778Y-105623005D01*
X153007051Y-105646136D01*
X153047850Y-105673396D01*
X153085779Y-105704524D01*
X153120476Y-105739221D01*
X153151604Y-105777150D01*
X153178864Y-105817949D01*
X153201995Y-105861222D01*
X153220772Y-105906555D01*
X153235016Y-105953510D01*
X153244588Y-106001635D01*
X153249398Y-106050466D01*
X153249398Y-106075000D01*
X153250000Y-106075000D01*
X153250000Y-106575000D01*
X151750000Y-106575000D01*
G37*
G36*
X153249398Y-107375000D02*
G01*
X153249398Y-107399534D01*
X153244588Y-107448365D01*
X153235016Y-107496490D01*
X153220772Y-107543445D01*
X153201995Y-107588778D01*
X153178864Y-107632051D01*
X153151604Y-107672850D01*
X153120476Y-107710779D01*
X153085779Y-107745476D01*
X153047850Y-107776604D01*
X153007051Y-107803864D01*
X152963778Y-107826995D01*
X152918445Y-107845772D01*
X152871490Y-107860016D01*
X152823365Y-107869588D01*
X152774534Y-107874398D01*
X152750000Y-107874398D01*
X152750000Y-107875000D01*
X152250000Y-107875000D01*
X152250000Y-107874398D01*
X152225466Y-107874398D01*
X152176635Y-107869588D01*
X152128510Y-107860016D01*
X152081555Y-107845772D01*
X152036222Y-107826995D01*
X151992949Y-107803864D01*
X151952150Y-107776604D01*
X151914221Y-107745476D01*
X151879524Y-107710779D01*
X151848396Y-107672850D01*
X151821136Y-107632051D01*
X151798005Y-107588778D01*
X151779228Y-107543445D01*
X151764984Y-107496490D01*
X151755412Y-107448365D01*
X151750602Y-107399534D01*
X151750602Y-107375000D01*
X151750000Y-107375000D01*
X151750000Y-106875000D01*
X153250000Y-106875000D01*
X153250000Y-107375000D01*
X153249398Y-107375000D01*
G37*
G36*
X150249398Y-110575000D02*
G01*
X150249398Y-110599534D01*
X150244588Y-110648365D01*
X150235016Y-110696490D01*
X150220772Y-110743445D01*
X150201995Y-110788778D01*
X150178864Y-110832051D01*
X150151604Y-110872850D01*
X150120476Y-110910779D01*
X150085779Y-110945476D01*
X150047850Y-110976604D01*
X150007051Y-111003864D01*
X149963778Y-111026995D01*
X149918445Y-111045772D01*
X149871490Y-111060016D01*
X149823365Y-111069588D01*
X149774534Y-111074398D01*
X149750000Y-111074398D01*
X149750000Y-111075000D01*
X149250000Y-111075000D01*
X149250000Y-111074398D01*
X149225466Y-111074398D01*
X149176635Y-111069588D01*
X149128510Y-111060016D01*
X149081555Y-111045772D01*
X149036222Y-111026995D01*
X148992949Y-111003864D01*
X148952150Y-110976604D01*
X148914221Y-110945476D01*
X148879524Y-110910779D01*
X148848396Y-110872850D01*
X148821136Y-110832051D01*
X148798005Y-110788778D01*
X148779228Y-110743445D01*
X148764984Y-110696490D01*
X148755412Y-110648365D01*
X148750602Y-110599534D01*
X148750602Y-110575000D01*
X148750000Y-110575000D01*
X148750000Y-110075000D01*
X150250000Y-110075000D01*
X150250000Y-110575000D01*
X150249398Y-110575000D01*
G37*
G36*
X148750000Y-109775000D02*
G01*
X148750000Y-109275000D01*
X148750602Y-109275000D01*
X148750602Y-109250466D01*
X148755412Y-109201635D01*
X148764984Y-109153510D01*
X148779228Y-109106555D01*
X148798005Y-109061222D01*
X148821136Y-109017949D01*
X148848396Y-108977150D01*
X148879524Y-108939221D01*
X148914221Y-108904524D01*
X148952150Y-108873396D01*
X148992949Y-108846136D01*
X149036222Y-108823005D01*
X149081555Y-108804228D01*
X149128510Y-108789984D01*
X149176635Y-108780412D01*
X149225466Y-108775602D01*
X149250000Y-108775602D01*
X149250000Y-108775000D01*
X149750000Y-108775000D01*
X149750000Y-108775602D01*
X149774534Y-108775602D01*
X149823365Y-108780412D01*
X149871490Y-108789984D01*
X149918445Y-108804228D01*
X149963778Y-108823005D01*
X150007051Y-108846136D01*
X150047850Y-108873396D01*
X150085779Y-108904524D01*
X150120476Y-108939221D01*
X150151604Y-108977150D01*
X150178864Y-109017949D01*
X150201995Y-109061222D01*
X150220772Y-109106555D01*
X150235016Y-109153510D01*
X150244588Y-109201635D01*
X150249398Y-109250466D01*
X150249398Y-109275000D01*
X150250000Y-109275000D01*
X150250000Y-109775000D01*
X148750000Y-109775000D01*
G37*
G36*
X151750000Y-112975000D02*
G01*
X151750000Y-112475000D01*
X151750602Y-112475000D01*
X151750602Y-112450466D01*
X151755412Y-112401635D01*
X151764984Y-112353510D01*
X151779228Y-112306555D01*
X151798005Y-112261222D01*
X151821136Y-112217949D01*
X151848396Y-112177150D01*
X151879524Y-112139221D01*
X151914221Y-112104524D01*
X151952150Y-112073396D01*
X151992949Y-112046136D01*
X152036222Y-112023005D01*
X152081555Y-112004228D01*
X152128510Y-111989984D01*
X152176635Y-111980412D01*
X152225466Y-111975602D01*
X152250000Y-111975602D01*
X152250000Y-111975000D01*
X152750000Y-111975000D01*
X152750000Y-111975602D01*
X152774534Y-111975602D01*
X152823365Y-111980412D01*
X152871490Y-111989984D01*
X152918445Y-112004228D01*
X152963778Y-112023005D01*
X153007051Y-112046136D01*
X153047850Y-112073396D01*
X153085779Y-112104524D01*
X153120476Y-112139221D01*
X153151604Y-112177150D01*
X153178864Y-112217949D01*
X153201995Y-112261222D01*
X153220772Y-112306555D01*
X153235016Y-112353510D01*
X153244588Y-112401635D01*
X153249398Y-112450466D01*
X153249398Y-112475000D01*
X153250000Y-112475000D01*
X153250000Y-112975000D01*
X151750000Y-112975000D01*
G37*
G36*
X153249398Y-113775000D02*
G01*
X153249398Y-113799534D01*
X153244588Y-113848365D01*
X153235016Y-113896490D01*
X153220772Y-113943445D01*
X153201995Y-113988778D01*
X153178864Y-114032051D01*
X153151604Y-114072850D01*
X153120476Y-114110779D01*
X153085779Y-114145476D01*
X153047850Y-114176604D01*
X153007051Y-114203864D01*
X152963778Y-114226995D01*
X152918445Y-114245772D01*
X152871490Y-114260016D01*
X152823365Y-114269588D01*
X152774534Y-114274398D01*
X152750000Y-114274398D01*
X152750000Y-114275000D01*
X152250000Y-114275000D01*
X152250000Y-114274398D01*
X152225466Y-114274398D01*
X152176635Y-114269588D01*
X152128510Y-114260016D01*
X152081555Y-114245772D01*
X152036222Y-114226995D01*
X151992949Y-114203864D01*
X151952150Y-114176604D01*
X151914221Y-114145476D01*
X151879524Y-114110779D01*
X151848396Y-114072850D01*
X151821136Y-114032051D01*
X151798005Y-113988778D01*
X151779228Y-113943445D01*
X151764984Y-113896490D01*
X151755412Y-113848365D01*
X151750602Y-113799534D01*
X151750602Y-113775000D01*
X151750000Y-113775000D01*
X151750000Y-113275000D01*
X153250000Y-113275000D01*
X153250000Y-113775000D01*
X153249398Y-113775000D01*
G37*
D30*
X226000000Y-40270000D03*
X226000000Y-41540000D03*
X226000000Y-42810000D03*
X226000000Y-44080000D03*
X226000000Y-45350000D03*
X226000000Y-46620000D03*
X226000000Y-47890000D03*
X226000000Y-49160000D03*
X226000000Y-50430000D03*
X226000000Y-51700000D03*
X226000000Y-52970000D03*
X226000000Y-54240000D03*
X226000000Y-55510000D03*
X226000000Y-56780000D03*
D31*
X223215000Y-57780000D03*
X221945000Y-57780000D03*
X220675000Y-57780000D03*
X219405000Y-57780000D03*
X218135000Y-57780000D03*
X216865000Y-57780000D03*
X215595000Y-57780000D03*
X214325000Y-57780000D03*
X213055000Y-57780000D03*
X211785000Y-57780000D03*
D30*
X209000000Y-56780000D03*
X209000000Y-55510000D03*
X209000000Y-54240000D03*
X209000000Y-52970000D03*
X209000000Y-51700000D03*
X209000000Y-50430000D03*
X209000000Y-49160000D03*
X209000000Y-47890000D03*
X209000000Y-46620000D03*
X209000000Y-45350000D03*
X209000000Y-44080000D03*
X209000000Y-42810000D03*
X209000000Y-41540000D03*
X209000000Y-40270000D03*
D32*
X216500000Y-47770000D03*
D17*
X242000000Y-73525000D03*
X202750000Y-37025000D03*
D12*
G36*
X206372779Y-46875144D02*
G01*
X206395834Y-46878563D01*
X206418443Y-46884227D01*
X206440387Y-46892079D01*
X206461457Y-46902044D01*
X206481448Y-46914026D01*
X206500168Y-46927910D01*
X206517438Y-46943562D01*
X206533090Y-46960832D01*
X206546974Y-46979552D01*
X206558956Y-46999543D01*
X206568921Y-47020613D01*
X206576773Y-47042557D01*
X206582437Y-47065166D01*
X206585856Y-47088221D01*
X206587000Y-47111500D01*
X206587000Y-47686500D01*
X206585856Y-47709779D01*
X206582437Y-47732834D01*
X206576773Y-47755443D01*
X206568921Y-47777387D01*
X206558956Y-47798457D01*
X206546974Y-47818448D01*
X206533090Y-47837168D01*
X206517438Y-47854438D01*
X206500168Y-47870090D01*
X206481448Y-47883974D01*
X206461457Y-47895956D01*
X206440387Y-47905921D01*
X206418443Y-47913773D01*
X206395834Y-47919437D01*
X206372779Y-47922856D01*
X206349500Y-47924000D01*
X205874500Y-47924000D01*
X205851221Y-47922856D01*
X205828166Y-47919437D01*
X205805557Y-47913773D01*
X205783613Y-47905921D01*
X205762543Y-47895956D01*
X205742552Y-47883974D01*
X205723832Y-47870090D01*
X205706562Y-47854438D01*
X205690910Y-47837168D01*
X205677026Y-47818448D01*
X205665044Y-47798457D01*
X205655079Y-47777387D01*
X205647227Y-47755443D01*
X205641563Y-47732834D01*
X205638144Y-47709779D01*
X205637000Y-47686500D01*
X205637000Y-47111500D01*
X205638144Y-47088221D01*
X205641563Y-47065166D01*
X205647227Y-47042557D01*
X205655079Y-47020613D01*
X205665044Y-46999543D01*
X205677026Y-46979552D01*
X205690910Y-46960832D01*
X205706562Y-46943562D01*
X205723832Y-46927910D01*
X205742552Y-46914026D01*
X205762543Y-46902044D01*
X205783613Y-46892079D01*
X205805557Y-46884227D01*
X205828166Y-46878563D01*
X205851221Y-46875144D01*
X205874500Y-46874000D01*
X206349500Y-46874000D01*
X206372779Y-46875144D01*
G37*
G36*
X206372779Y-48625144D02*
G01*
X206395834Y-48628563D01*
X206418443Y-48634227D01*
X206440387Y-48642079D01*
X206461457Y-48652044D01*
X206481448Y-48664026D01*
X206500168Y-48677910D01*
X206517438Y-48693562D01*
X206533090Y-48710832D01*
X206546974Y-48729552D01*
X206558956Y-48749543D01*
X206568921Y-48770613D01*
X206576773Y-48792557D01*
X206582437Y-48815166D01*
X206585856Y-48838221D01*
X206587000Y-48861500D01*
X206587000Y-49436500D01*
X206585856Y-49459779D01*
X206582437Y-49482834D01*
X206576773Y-49505443D01*
X206568921Y-49527387D01*
X206558956Y-49548457D01*
X206546974Y-49568448D01*
X206533090Y-49587168D01*
X206517438Y-49604438D01*
X206500168Y-49620090D01*
X206481448Y-49633974D01*
X206461457Y-49645956D01*
X206440387Y-49655921D01*
X206418443Y-49663773D01*
X206395834Y-49669437D01*
X206372779Y-49672856D01*
X206349500Y-49674000D01*
X205874500Y-49674000D01*
X205851221Y-49672856D01*
X205828166Y-49669437D01*
X205805557Y-49663773D01*
X205783613Y-49655921D01*
X205762543Y-49645956D01*
X205742552Y-49633974D01*
X205723832Y-49620090D01*
X205706562Y-49604438D01*
X205690910Y-49587168D01*
X205677026Y-49568448D01*
X205665044Y-49548457D01*
X205655079Y-49527387D01*
X205647227Y-49505443D01*
X205641563Y-49482834D01*
X205638144Y-49459779D01*
X205637000Y-49436500D01*
X205637000Y-48861500D01*
X205638144Y-48838221D01*
X205641563Y-48815166D01*
X205647227Y-48792557D01*
X205655079Y-48770613D01*
X205665044Y-48749543D01*
X205677026Y-48729552D01*
X205690910Y-48710832D01*
X205706562Y-48693562D01*
X205723832Y-48677910D01*
X205742552Y-48664026D01*
X205762543Y-48652044D01*
X205783613Y-48642079D01*
X205805557Y-48634227D01*
X205828166Y-48628563D01*
X205851221Y-48625144D01*
X205874500Y-48624000D01*
X206349500Y-48624000D01*
X206372779Y-48625144D01*
G37*
G36*
X206394779Y-55815144D02*
G01*
X206417834Y-55818563D01*
X206440443Y-55824227D01*
X206462387Y-55832079D01*
X206483457Y-55842044D01*
X206503448Y-55854026D01*
X206522168Y-55867910D01*
X206539438Y-55883562D01*
X206555090Y-55900832D01*
X206568974Y-55919552D01*
X206580956Y-55939543D01*
X206590921Y-55960613D01*
X206598773Y-55982557D01*
X206604437Y-56005166D01*
X206607856Y-56028221D01*
X206609000Y-56051500D01*
X206609000Y-56526500D01*
X206607856Y-56549779D01*
X206604437Y-56572834D01*
X206598773Y-56595443D01*
X206590921Y-56617387D01*
X206580956Y-56638457D01*
X206568974Y-56658448D01*
X206555090Y-56677168D01*
X206539438Y-56694438D01*
X206522168Y-56710090D01*
X206503448Y-56723974D01*
X206483457Y-56735956D01*
X206462387Y-56745921D01*
X206440443Y-56753773D01*
X206417834Y-56759437D01*
X206394779Y-56762856D01*
X206371500Y-56764000D01*
X205796500Y-56764000D01*
X205773221Y-56762856D01*
X205750166Y-56759437D01*
X205727557Y-56753773D01*
X205705613Y-56745921D01*
X205684543Y-56735956D01*
X205664552Y-56723974D01*
X205645832Y-56710090D01*
X205628562Y-56694438D01*
X205612910Y-56677168D01*
X205599026Y-56658448D01*
X205587044Y-56638457D01*
X205577079Y-56617387D01*
X205569227Y-56595443D01*
X205563563Y-56572834D01*
X205560144Y-56549779D01*
X205559000Y-56526500D01*
X205559000Y-56051500D01*
X205560144Y-56028221D01*
X205563563Y-56005166D01*
X205569227Y-55982557D01*
X205577079Y-55960613D01*
X205587044Y-55939543D01*
X205599026Y-55919552D01*
X205612910Y-55900832D01*
X205628562Y-55883562D01*
X205645832Y-55867910D01*
X205664552Y-55854026D01*
X205684543Y-55842044D01*
X205705613Y-55832079D01*
X205727557Y-55824227D01*
X205750166Y-55818563D01*
X205773221Y-55815144D01*
X205796500Y-55814000D01*
X206371500Y-55814000D01*
X206394779Y-55815144D01*
G37*
G36*
X204644779Y-55815144D02*
G01*
X204667834Y-55818563D01*
X204690443Y-55824227D01*
X204712387Y-55832079D01*
X204733457Y-55842044D01*
X204753448Y-55854026D01*
X204772168Y-55867910D01*
X204789438Y-55883562D01*
X204805090Y-55900832D01*
X204818974Y-55919552D01*
X204830956Y-55939543D01*
X204840921Y-55960613D01*
X204848773Y-55982557D01*
X204854437Y-56005166D01*
X204857856Y-56028221D01*
X204859000Y-56051500D01*
X204859000Y-56526500D01*
X204857856Y-56549779D01*
X204854437Y-56572834D01*
X204848773Y-56595443D01*
X204840921Y-56617387D01*
X204830956Y-56638457D01*
X204818974Y-56658448D01*
X204805090Y-56677168D01*
X204789438Y-56694438D01*
X204772168Y-56710090D01*
X204753448Y-56723974D01*
X204733457Y-56735956D01*
X204712387Y-56745921D01*
X204690443Y-56753773D01*
X204667834Y-56759437D01*
X204644779Y-56762856D01*
X204621500Y-56764000D01*
X204046500Y-56764000D01*
X204023221Y-56762856D01*
X204000166Y-56759437D01*
X203977557Y-56753773D01*
X203955613Y-56745921D01*
X203934543Y-56735956D01*
X203914552Y-56723974D01*
X203895832Y-56710090D01*
X203878562Y-56694438D01*
X203862910Y-56677168D01*
X203849026Y-56658448D01*
X203837044Y-56638457D01*
X203827079Y-56617387D01*
X203819227Y-56595443D01*
X203813563Y-56572834D01*
X203810144Y-56549779D01*
X203809000Y-56526500D01*
X203809000Y-56051500D01*
X203810144Y-56028221D01*
X203813563Y-56005166D01*
X203819227Y-55982557D01*
X203827079Y-55960613D01*
X203837044Y-55939543D01*
X203849026Y-55919552D01*
X203862910Y-55900832D01*
X203878562Y-55883562D01*
X203895832Y-55867910D01*
X203914552Y-55854026D01*
X203934543Y-55842044D01*
X203955613Y-55832079D01*
X203977557Y-55824227D01*
X204000166Y-55818563D01*
X204023221Y-55815144D01*
X204046500Y-55814000D01*
X204621500Y-55814000D01*
X204644779Y-55815144D01*
G37*
G36*
X204644779Y-53783144D02*
G01*
X204667834Y-53786563D01*
X204690443Y-53792227D01*
X204712387Y-53800079D01*
X204733457Y-53810044D01*
X204753448Y-53822026D01*
X204772168Y-53835910D01*
X204789438Y-53851562D01*
X204805090Y-53868832D01*
X204818974Y-53887552D01*
X204830956Y-53907543D01*
X204840921Y-53928613D01*
X204848773Y-53950557D01*
X204854437Y-53973166D01*
X204857856Y-53996221D01*
X204859000Y-54019500D01*
X204859000Y-54494500D01*
X204857856Y-54517779D01*
X204854437Y-54540834D01*
X204848773Y-54563443D01*
X204840921Y-54585387D01*
X204830956Y-54606457D01*
X204818974Y-54626448D01*
X204805090Y-54645168D01*
X204789438Y-54662438D01*
X204772168Y-54678090D01*
X204753448Y-54691974D01*
X204733457Y-54703956D01*
X204712387Y-54713921D01*
X204690443Y-54721773D01*
X204667834Y-54727437D01*
X204644779Y-54730856D01*
X204621500Y-54732000D01*
X204046500Y-54732000D01*
X204023221Y-54730856D01*
X204000166Y-54727437D01*
X203977557Y-54721773D01*
X203955613Y-54713921D01*
X203934543Y-54703956D01*
X203914552Y-54691974D01*
X203895832Y-54678090D01*
X203878562Y-54662438D01*
X203862910Y-54645168D01*
X203849026Y-54626448D01*
X203837044Y-54606457D01*
X203827079Y-54585387D01*
X203819227Y-54563443D01*
X203813563Y-54540834D01*
X203810144Y-54517779D01*
X203809000Y-54494500D01*
X203809000Y-54019500D01*
X203810144Y-53996221D01*
X203813563Y-53973166D01*
X203819227Y-53950557D01*
X203827079Y-53928613D01*
X203837044Y-53907543D01*
X203849026Y-53887552D01*
X203862910Y-53868832D01*
X203878562Y-53851562D01*
X203895832Y-53835910D01*
X203914552Y-53822026D01*
X203934543Y-53810044D01*
X203955613Y-53800079D01*
X203977557Y-53792227D01*
X204000166Y-53786563D01*
X204023221Y-53783144D01*
X204046500Y-53782000D01*
X204621500Y-53782000D01*
X204644779Y-53783144D01*
G37*
G36*
X206394779Y-53783144D02*
G01*
X206417834Y-53786563D01*
X206440443Y-53792227D01*
X206462387Y-53800079D01*
X206483457Y-53810044D01*
X206503448Y-53822026D01*
X206522168Y-53835910D01*
X206539438Y-53851562D01*
X206555090Y-53868832D01*
X206568974Y-53887552D01*
X206580956Y-53907543D01*
X206590921Y-53928613D01*
X206598773Y-53950557D01*
X206604437Y-53973166D01*
X206607856Y-53996221D01*
X206609000Y-54019500D01*
X206609000Y-54494500D01*
X206607856Y-54517779D01*
X206604437Y-54540834D01*
X206598773Y-54563443D01*
X206590921Y-54585387D01*
X206580956Y-54606457D01*
X206568974Y-54626448D01*
X206555090Y-54645168D01*
X206539438Y-54662438D01*
X206522168Y-54678090D01*
X206503448Y-54691974D01*
X206483457Y-54703956D01*
X206462387Y-54713921D01*
X206440443Y-54721773D01*
X206417834Y-54727437D01*
X206394779Y-54730856D01*
X206371500Y-54732000D01*
X205796500Y-54732000D01*
X205773221Y-54730856D01*
X205750166Y-54727437D01*
X205727557Y-54721773D01*
X205705613Y-54713921D01*
X205684543Y-54703956D01*
X205664552Y-54691974D01*
X205645832Y-54678090D01*
X205628562Y-54662438D01*
X205612910Y-54645168D01*
X205599026Y-54626448D01*
X205587044Y-54606457D01*
X205577079Y-54585387D01*
X205569227Y-54563443D01*
X205563563Y-54540834D01*
X205560144Y-54517779D01*
X205559000Y-54494500D01*
X205559000Y-54019500D01*
X205560144Y-53996221D01*
X205563563Y-53973166D01*
X205569227Y-53950557D01*
X205577079Y-53928613D01*
X205587044Y-53907543D01*
X205599026Y-53887552D01*
X205612910Y-53868832D01*
X205628562Y-53851562D01*
X205645832Y-53835910D01*
X205664552Y-53822026D01*
X205684543Y-53810044D01*
X205705613Y-53800079D01*
X205727557Y-53792227D01*
X205750166Y-53786563D01*
X205773221Y-53783144D01*
X205796500Y-53782000D01*
X206371500Y-53782000D01*
X206394779Y-53783144D01*
G37*
D22*
X195905000Y-50320000D03*
D23*
X200905000Y-50320000D03*
D21*
X202810000Y-58575000D03*
X202810000Y-63575000D03*
X189809000Y-57305000D03*
X194809000Y-57305000D03*
X190110000Y-48415000D03*
X190110000Y-53415000D03*
D22*
X195825000Y-40160000D03*
D23*
X190825000Y-40160000D03*
D21*
X231512000Y-63147000D03*
X226512000Y-63147000D03*
X205858000Y-43335000D03*
X200858000Y-43335000D03*
D24*
X190500000Y-71025000D03*
X195500000Y-71025000D03*
D25*
X200500000Y-71025000D03*
D24*
X238882000Y-62588000D03*
X238882000Y-57588000D03*
D25*
X238882000Y-52588000D03*
D24*
X238882000Y-47588000D03*
X238882000Y-42588000D03*
D25*
X238882000Y-37588000D03*
D24*
X220500000Y-71025000D03*
X225500000Y-71025000D03*
D25*
X230500000Y-71025000D03*
D24*
X205500000Y-71025000D03*
X210500000Y-71025000D03*
D25*
X215500000Y-71025000D03*
D12*
G36*
X198987398Y-62781000D02*
G01*
X198987398Y-62805534D01*
X198982588Y-62854365D01*
X198973016Y-62902490D01*
X198958772Y-62949445D01*
X198939995Y-62994778D01*
X198916864Y-63038051D01*
X198889604Y-63078850D01*
X198858476Y-63116779D01*
X198823779Y-63151476D01*
X198785850Y-63182604D01*
X198745051Y-63209864D01*
X198701778Y-63232995D01*
X198656445Y-63251772D01*
X198609490Y-63266016D01*
X198561365Y-63275588D01*
X198512534Y-63280398D01*
X198488000Y-63280398D01*
X198488000Y-63281000D01*
X197988000Y-63281000D01*
X197988000Y-63280398D01*
X197963466Y-63280398D01*
X197914635Y-63275588D01*
X197866510Y-63266016D01*
X197819555Y-63251772D01*
X197774222Y-63232995D01*
X197730949Y-63209864D01*
X197690150Y-63182604D01*
X197652221Y-63151476D01*
X197617524Y-63116779D01*
X197586396Y-63078850D01*
X197559136Y-63038051D01*
X197536005Y-62994778D01*
X197517228Y-62949445D01*
X197502984Y-62902490D01*
X197493412Y-62854365D01*
X197488602Y-62805534D01*
X197488602Y-62781000D01*
X197488000Y-62781000D01*
X197488000Y-62281000D01*
X198988000Y-62281000D01*
X198988000Y-62781000D01*
X198987398Y-62781000D01*
G37*
G36*
X197488000Y-61981000D02*
G01*
X197488000Y-61481000D01*
X197488602Y-61481000D01*
X197488602Y-61456466D01*
X197493412Y-61407635D01*
X197502984Y-61359510D01*
X197517228Y-61312555D01*
X197536005Y-61267222D01*
X197559136Y-61223949D01*
X197586396Y-61183150D01*
X197617524Y-61145221D01*
X197652221Y-61110524D01*
X197690150Y-61079396D01*
X197730949Y-61052136D01*
X197774222Y-61029005D01*
X197819555Y-61010228D01*
X197866510Y-60995984D01*
X197914635Y-60986412D01*
X197963466Y-60981602D01*
X197988000Y-60981602D01*
X197988000Y-60981000D01*
X198488000Y-60981000D01*
X198488000Y-60981602D01*
X198512534Y-60981602D01*
X198561365Y-60986412D01*
X198609490Y-60995984D01*
X198656445Y-61010228D01*
X198701778Y-61029005D01*
X198745051Y-61052136D01*
X198785850Y-61079396D01*
X198823779Y-61110524D01*
X198858476Y-61145221D01*
X198889604Y-61183150D01*
X198916864Y-61223949D01*
X198939995Y-61267222D01*
X198958772Y-61312555D01*
X198973016Y-61359510D01*
X198982588Y-61407635D01*
X198987398Y-61456466D01*
X198987398Y-61481000D01*
X198988000Y-61481000D01*
X198988000Y-61981000D01*
X197488000Y-61981000D01*
G37*
D33*
X206162000Y-60593000D03*
X206162000Y-65193000D03*
X206162000Y-62893000D03*
D34*
X212462000Y-62893000D03*
D12*
G36*
X190624703Y-63765722D02*
G01*
X190639264Y-63767882D01*
X190653543Y-63771459D01*
X190667403Y-63776418D01*
X190680710Y-63782712D01*
X190693336Y-63790280D01*
X190705159Y-63799048D01*
X190716066Y-63808934D01*
X190725952Y-63819841D01*
X190734720Y-63831664D01*
X190742288Y-63844290D01*
X190748582Y-63857597D01*
X190753541Y-63871457D01*
X190757118Y-63885736D01*
X190759278Y-63900297D01*
X190760000Y-63915000D01*
X190760000Y-64215000D01*
X190759278Y-64229703D01*
X190757118Y-64244264D01*
X190753541Y-64258543D01*
X190748582Y-64272403D01*
X190742288Y-64285710D01*
X190734720Y-64298336D01*
X190725952Y-64310159D01*
X190716066Y-64321066D01*
X190705159Y-64330952D01*
X190693336Y-64339720D01*
X190680710Y-64347288D01*
X190667403Y-64353582D01*
X190653543Y-64358541D01*
X190639264Y-64362118D01*
X190624703Y-64364278D01*
X190610000Y-64365000D01*
X188960000Y-64365000D01*
X188945297Y-64364278D01*
X188930736Y-64362118D01*
X188916457Y-64358541D01*
X188902597Y-64353582D01*
X188889290Y-64347288D01*
X188876664Y-64339720D01*
X188864841Y-64330952D01*
X188853934Y-64321066D01*
X188844048Y-64310159D01*
X188835280Y-64298336D01*
X188827712Y-64285710D01*
X188821418Y-64272403D01*
X188816459Y-64258543D01*
X188812882Y-64244264D01*
X188810722Y-64229703D01*
X188810000Y-64215000D01*
X188810000Y-63915000D01*
X188810722Y-63900297D01*
X188812882Y-63885736D01*
X188816459Y-63871457D01*
X188821418Y-63857597D01*
X188827712Y-63844290D01*
X188835280Y-63831664D01*
X188844048Y-63819841D01*
X188853934Y-63808934D01*
X188864841Y-63799048D01*
X188876664Y-63790280D01*
X188889290Y-63782712D01*
X188902597Y-63776418D01*
X188916457Y-63771459D01*
X188930736Y-63767882D01*
X188945297Y-63765722D01*
X188960000Y-63765000D01*
X190610000Y-63765000D01*
X190624703Y-63765722D01*
G37*
G36*
X190624703Y-62495722D02*
G01*
X190639264Y-62497882D01*
X190653543Y-62501459D01*
X190667403Y-62506418D01*
X190680710Y-62512712D01*
X190693336Y-62520280D01*
X190705159Y-62529048D01*
X190716066Y-62538934D01*
X190725952Y-62549841D01*
X190734720Y-62561664D01*
X190742288Y-62574290D01*
X190748582Y-62587597D01*
X190753541Y-62601457D01*
X190757118Y-62615736D01*
X190759278Y-62630297D01*
X190760000Y-62645000D01*
X190760000Y-62945000D01*
X190759278Y-62959703D01*
X190757118Y-62974264D01*
X190753541Y-62988543D01*
X190748582Y-63002403D01*
X190742288Y-63015710D01*
X190734720Y-63028336D01*
X190725952Y-63040159D01*
X190716066Y-63051066D01*
X190705159Y-63060952D01*
X190693336Y-63069720D01*
X190680710Y-63077288D01*
X190667403Y-63083582D01*
X190653543Y-63088541D01*
X190639264Y-63092118D01*
X190624703Y-63094278D01*
X190610000Y-63095000D01*
X188960000Y-63095000D01*
X188945297Y-63094278D01*
X188930736Y-63092118D01*
X188916457Y-63088541D01*
X188902597Y-63083582D01*
X188889290Y-63077288D01*
X188876664Y-63069720D01*
X188864841Y-63060952D01*
X188853934Y-63051066D01*
X188844048Y-63040159D01*
X188835280Y-63028336D01*
X188827712Y-63015710D01*
X188821418Y-63002403D01*
X188816459Y-62988543D01*
X188812882Y-62974264D01*
X188810722Y-62959703D01*
X188810000Y-62945000D01*
X188810000Y-62645000D01*
X188810722Y-62630297D01*
X188812882Y-62615736D01*
X188816459Y-62601457D01*
X188821418Y-62587597D01*
X188827712Y-62574290D01*
X188835280Y-62561664D01*
X188844048Y-62549841D01*
X188853934Y-62538934D01*
X188864841Y-62529048D01*
X188876664Y-62520280D01*
X188889290Y-62512712D01*
X188902597Y-62506418D01*
X188916457Y-62501459D01*
X188930736Y-62497882D01*
X188945297Y-62495722D01*
X188960000Y-62495000D01*
X190610000Y-62495000D01*
X190624703Y-62495722D01*
G37*
G36*
X190624703Y-61225722D02*
G01*
X190639264Y-61227882D01*
X190653543Y-61231459D01*
X190667403Y-61236418D01*
X190680710Y-61242712D01*
X190693336Y-61250280D01*
X190705159Y-61259048D01*
X190716066Y-61268934D01*
X190725952Y-61279841D01*
X190734720Y-61291664D01*
X190742288Y-61304290D01*
X190748582Y-61317597D01*
X190753541Y-61331457D01*
X190757118Y-61345736D01*
X190759278Y-61360297D01*
X190760000Y-61375000D01*
X190760000Y-61675000D01*
X190759278Y-61689703D01*
X190757118Y-61704264D01*
X190753541Y-61718543D01*
X190748582Y-61732403D01*
X190742288Y-61745710D01*
X190734720Y-61758336D01*
X190725952Y-61770159D01*
X190716066Y-61781066D01*
X190705159Y-61790952D01*
X190693336Y-61799720D01*
X190680710Y-61807288D01*
X190667403Y-61813582D01*
X190653543Y-61818541D01*
X190639264Y-61822118D01*
X190624703Y-61824278D01*
X190610000Y-61825000D01*
X188960000Y-61825000D01*
X188945297Y-61824278D01*
X188930736Y-61822118D01*
X188916457Y-61818541D01*
X188902597Y-61813582D01*
X188889290Y-61807288D01*
X188876664Y-61799720D01*
X188864841Y-61790952D01*
X188853934Y-61781066D01*
X188844048Y-61770159D01*
X188835280Y-61758336D01*
X188827712Y-61745710D01*
X188821418Y-61732403D01*
X188816459Y-61718543D01*
X188812882Y-61704264D01*
X188810722Y-61689703D01*
X188810000Y-61675000D01*
X188810000Y-61375000D01*
X188810722Y-61360297D01*
X188812882Y-61345736D01*
X188816459Y-61331457D01*
X188821418Y-61317597D01*
X188827712Y-61304290D01*
X188835280Y-61291664D01*
X188844048Y-61279841D01*
X188853934Y-61268934D01*
X188864841Y-61259048D01*
X188876664Y-61250280D01*
X188889290Y-61242712D01*
X188902597Y-61236418D01*
X188916457Y-61231459D01*
X188930736Y-61227882D01*
X188945297Y-61225722D01*
X188960000Y-61225000D01*
X190610000Y-61225000D01*
X190624703Y-61225722D01*
G37*
G36*
X190624703Y-59955722D02*
G01*
X190639264Y-59957882D01*
X190653543Y-59961459D01*
X190667403Y-59966418D01*
X190680710Y-59972712D01*
X190693336Y-59980280D01*
X190705159Y-59989048D01*
X190716066Y-59998934D01*
X190725952Y-60009841D01*
X190734720Y-60021664D01*
X190742288Y-60034290D01*
X190748582Y-60047597D01*
X190753541Y-60061457D01*
X190757118Y-60075736D01*
X190759278Y-60090297D01*
X190760000Y-60105000D01*
X190760000Y-60405000D01*
X190759278Y-60419703D01*
X190757118Y-60434264D01*
X190753541Y-60448543D01*
X190748582Y-60462403D01*
X190742288Y-60475710D01*
X190734720Y-60488336D01*
X190725952Y-60500159D01*
X190716066Y-60511066D01*
X190705159Y-60520952D01*
X190693336Y-60529720D01*
X190680710Y-60537288D01*
X190667403Y-60543582D01*
X190653543Y-60548541D01*
X190639264Y-60552118D01*
X190624703Y-60554278D01*
X190610000Y-60555000D01*
X188960000Y-60555000D01*
X188945297Y-60554278D01*
X188930736Y-60552118D01*
X188916457Y-60548541D01*
X188902597Y-60543582D01*
X188889290Y-60537288D01*
X188876664Y-60529720D01*
X188864841Y-60520952D01*
X188853934Y-60511066D01*
X188844048Y-60500159D01*
X188835280Y-60488336D01*
X188827712Y-60475710D01*
X188821418Y-60462403D01*
X188816459Y-60448543D01*
X188812882Y-60434264D01*
X188810722Y-60419703D01*
X188810000Y-60405000D01*
X188810000Y-60105000D01*
X188810722Y-60090297D01*
X188812882Y-60075736D01*
X188816459Y-60061457D01*
X188821418Y-60047597D01*
X188827712Y-60034290D01*
X188835280Y-60021664D01*
X188844048Y-60009841D01*
X188853934Y-59998934D01*
X188864841Y-59989048D01*
X188876664Y-59980280D01*
X188889290Y-59972712D01*
X188902597Y-59966418D01*
X188916457Y-59961459D01*
X188930736Y-59957882D01*
X188945297Y-59955722D01*
X188960000Y-59955000D01*
X190610000Y-59955000D01*
X190624703Y-59955722D01*
G37*
G36*
X195574703Y-59955722D02*
G01*
X195589264Y-59957882D01*
X195603543Y-59961459D01*
X195617403Y-59966418D01*
X195630710Y-59972712D01*
X195643336Y-59980280D01*
X195655159Y-59989048D01*
X195666066Y-59998934D01*
X195675952Y-60009841D01*
X195684720Y-60021664D01*
X195692288Y-60034290D01*
X195698582Y-60047597D01*
X195703541Y-60061457D01*
X195707118Y-60075736D01*
X195709278Y-60090297D01*
X195710000Y-60105000D01*
X195710000Y-60405000D01*
X195709278Y-60419703D01*
X195707118Y-60434264D01*
X195703541Y-60448543D01*
X195698582Y-60462403D01*
X195692288Y-60475710D01*
X195684720Y-60488336D01*
X195675952Y-60500159D01*
X195666066Y-60511066D01*
X195655159Y-60520952D01*
X195643336Y-60529720D01*
X195630710Y-60537288D01*
X195617403Y-60543582D01*
X195603543Y-60548541D01*
X195589264Y-60552118D01*
X195574703Y-60554278D01*
X195560000Y-60555000D01*
X193910000Y-60555000D01*
X193895297Y-60554278D01*
X193880736Y-60552118D01*
X193866457Y-60548541D01*
X193852597Y-60543582D01*
X193839290Y-60537288D01*
X193826664Y-60529720D01*
X193814841Y-60520952D01*
X193803934Y-60511066D01*
X193794048Y-60500159D01*
X193785280Y-60488336D01*
X193777712Y-60475710D01*
X193771418Y-60462403D01*
X193766459Y-60448543D01*
X193762882Y-60434264D01*
X193760722Y-60419703D01*
X193760000Y-60405000D01*
X193760000Y-60105000D01*
X193760722Y-60090297D01*
X193762882Y-60075736D01*
X193766459Y-60061457D01*
X193771418Y-60047597D01*
X193777712Y-60034290D01*
X193785280Y-60021664D01*
X193794048Y-60009841D01*
X193803934Y-59998934D01*
X193814841Y-59989048D01*
X193826664Y-59980280D01*
X193839290Y-59972712D01*
X193852597Y-59966418D01*
X193866457Y-59961459D01*
X193880736Y-59957882D01*
X193895297Y-59955722D01*
X193910000Y-59955000D01*
X195560000Y-59955000D01*
X195574703Y-59955722D01*
G37*
G36*
X195574703Y-61225722D02*
G01*
X195589264Y-61227882D01*
X195603543Y-61231459D01*
X195617403Y-61236418D01*
X195630710Y-61242712D01*
X195643336Y-61250280D01*
X195655159Y-61259048D01*
X195666066Y-61268934D01*
X195675952Y-61279841D01*
X195684720Y-61291664D01*
X195692288Y-61304290D01*
X195698582Y-61317597D01*
X195703541Y-61331457D01*
X195707118Y-61345736D01*
X195709278Y-61360297D01*
X195710000Y-61375000D01*
X195710000Y-61675000D01*
X195709278Y-61689703D01*
X195707118Y-61704264D01*
X195703541Y-61718543D01*
X195698582Y-61732403D01*
X195692288Y-61745710D01*
X195684720Y-61758336D01*
X195675952Y-61770159D01*
X195666066Y-61781066D01*
X195655159Y-61790952D01*
X195643336Y-61799720D01*
X195630710Y-61807288D01*
X195617403Y-61813582D01*
X195603543Y-61818541D01*
X195589264Y-61822118D01*
X195574703Y-61824278D01*
X195560000Y-61825000D01*
X193910000Y-61825000D01*
X193895297Y-61824278D01*
X193880736Y-61822118D01*
X193866457Y-61818541D01*
X193852597Y-61813582D01*
X193839290Y-61807288D01*
X193826664Y-61799720D01*
X193814841Y-61790952D01*
X193803934Y-61781066D01*
X193794048Y-61770159D01*
X193785280Y-61758336D01*
X193777712Y-61745710D01*
X193771418Y-61732403D01*
X193766459Y-61718543D01*
X193762882Y-61704264D01*
X193760722Y-61689703D01*
X193760000Y-61675000D01*
X193760000Y-61375000D01*
X193760722Y-61360297D01*
X193762882Y-61345736D01*
X193766459Y-61331457D01*
X193771418Y-61317597D01*
X193777712Y-61304290D01*
X193785280Y-61291664D01*
X193794048Y-61279841D01*
X193803934Y-61268934D01*
X193814841Y-61259048D01*
X193826664Y-61250280D01*
X193839290Y-61242712D01*
X193852597Y-61236418D01*
X193866457Y-61231459D01*
X193880736Y-61227882D01*
X193895297Y-61225722D01*
X193910000Y-61225000D01*
X195560000Y-61225000D01*
X195574703Y-61225722D01*
G37*
G36*
X195574703Y-62495722D02*
G01*
X195589264Y-62497882D01*
X195603543Y-62501459D01*
X195617403Y-62506418D01*
X195630710Y-62512712D01*
X195643336Y-62520280D01*
X195655159Y-62529048D01*
X195666066Y-62538934D01*
X195675952Y-62549841D01*
X195684720Y-62561664D01*
X195692288Y-62574290D01*
X195698582Y-62587597D01*
X195703541Y-62601457D01*
X195707118Y-62615736D01*
X195709278Y-62630297D01*
X195710000Y-62645000D01*
X195710000Y-62945000D01*
X195709278Y-62959703D01*
X195707118Y-62974264D01*
X195703541Y-62988543D01*
X195698582Y-63002403D01*
X195692288Y-63015710D01*
X195684720Y-63028336D01*
X195675952Y-63040159D01*
X195666066Y-63051066D01*
X195655159Y-63060952D01*
X195643336Y-63069720D01*
X195630710Y-63077288D01*
X195617403Y-63083582D01*
X195603543Y-63088541D01*
X195589264Y-63092118D01*
X195574703Y-63094278D01*
X195560000Y-63095000D01*
X193910000Y-63095000D01*
X193895297Y-63094278D01*
X193880736Y-63092118D01*
X193866457Y-63088541D01*
X193852597Y-63083582D01*
X193839290Y-63077288D01*
X193826664Y-63069720D01*
X193814841Y-63060952D01*
X193803934Y-63051066D01*
X193794048Y-63040159D01*
X193785280Y-63028336D01*
X193777712Y-63015710D01*
X193771418Y-63002403D01*
X193766459Y-62988543D01*
X193762882Y-62974264D01*
X193760722Y-62959703D01*
X193760000Y-62945000D01*
X193760000Y-62645000D01*
X193760722Y-62630297D01*
X193762882Y-62615736D01*
X193766459Y-62601457D01*
X193771418Y-62587597D01*
X193777712Y-62574290D01*
X193785280Y-62561664D01*
X193794048Y-62549841D01*
X193803934Y-62538934D01*
X193814841Y-62529048D01*
X193826664Y-62520280D01*
X193839290Y-62512712D01*
X193852597Y-62506418D01*
X193866457Y-62501459D01*
X193880736Y-62497882D01*
X193895297Y-62495722D01*
X193910000Y-62495000D01*
X195560000Y-62495000D01*
X195574703Y-62495722D01*
G37*
G36*
X195574703Y-63765722D02*
G01*
X195589264Y-63767882D01*
X195603543Y-63771459D01*
X195617403Y-63776418D01*
X195630710Y-63782712D01*
X195643336Y-63790280D01*
X195655159Y-63799048D01*
X195666066Y-63808934D01*
X195675952Y-63819841D01*
X195684720Y-63831664D01*
X195692288Y-63844290D01*
X195698582Y-63857597D01*
X195703541Y-63871457D01*
X195707118Y-63885736D01*
X195709278Y-63900297D01*
X195710000Y-63915000D01*
X195710000Y-64215000D01*
X195709278Y-64229703D01*
X195707118Y-64244264D01*
X195703541Y-64258543D01*
X195698582Y-64272403D01*
X195692288Y-64285710D01*
X195684720Y-64298336D01*
X195675952Y-64310159D01*
X195666066Y-64321066D01*
X195655159Y-64330952D01*
X195643336Y-64339720D01*
X195630710Y-64347288D01*
X195617403Y-64353582D01*
X195603543Y-64358541D01*
X195589264Y-64362118D01*
X195574703Y-64364278D01*
X195560000Y-64365000D01*
X193910000Y-64365000D01*
X193895297Y-64364278D01*
X193880736Y-64362118D01*
X193866457Y-64358541D01*
X193852597Y-64353582D01*
X193839290Y-64347288D01*
X193826664Y-64339720D01*
X193814841Y-64330952D01*
X193803934Y-64321066D01*
X193794048Y-64310159D01*
X193785280Y-64298336D01*
X193777712Y-64285710D01*
X193771418Y-64272403D01*
X193766459Y-64258543D01*
X193762882Y-64244264D01*
X193760722Y-64229703D01*
X193760000Y-64215000D01*
X193760000Y-63915000D01*
X193760722Y-63900297D01*
X193762882Y-63885736D01*
X193766459Y-63871457D01*
X193771418Y-63857597D01*
X193777712Y-63844290D01*
X193785280Y-63831664D01*
X193794048Y-63819841D01*
X193803934Y-63808934D01*
X193814841Y-63799048D01*
X193826664Y-63790280D01*
X193839290Y-63782712D01*
X193852597Y-63776418D01*
X193866457Y-63771459D01*
X193880736Y-63767882D01*
X193895297Y-63765722D01*
X193910000Y-63765000D01*
X195560000Y-63765000D01*
X195574703Y-63765722D01*
G37*
G36*
X231681779Y-39305144D02*
G01*
X231704834Y-39308563D01*
X231727443Y-39314227D01*
X231749387Y-39322079D01*
X231770457Y-39332044D01*
X231790448Y-39344026D01*
X231809168Y-39357910D01*
X231826438Y-39373562D01*
X231842090Y-39390832D01*
X231855974Y-39409552D01*
X231867956Y-39429543D01*
X231877921Y-39450613D01*
X231885773Y-39472557D01*
X231891437Y-39495166D01*
X231894856Y-39518221D01*
X231896000Y-39541500D01*
X231896000Y-40016500D01*
X231894856Y-40039779D01*
X231891437Y-40062834D01*
X231885773Y-40085443D01*
X231877921Y-40107387D01*
X231867956Y-40128457D01*
X231855974Y-40148448D01*
X231842090Y-40167168D01*
X231826438Y-40184438D01*
X231809168Y-40200090D01*
X231790448Y-40213974D01*
X231770457Y-40225956D01*
X231749387Y-40235921D01*
X231727443Y-40243773D01*
X231704834Y-40249437D01*
X231681779Y-40252856D01*
X231658500Y-40254000D01*
X231083500Y-40254000D01*
X231060221Y-40252856D01*
X231037166Y-40249437D01*
X231014557Y-40243773D01*
X230992613Y-40235921D01*
X230971543Y-40225956D01*
X230951552Y-40213974D01*
X230932832Y-40200090D01*
X230915562Y-40184438D01*
X230899910Y-40167168D01*
X230886026Y-40148448D01*
X230874044Y-40128457D01*
X230864079Y-40107387D01*
X230856227Y-40085443D01*
X230850563Y-40062834D01*
X230847144Y-40039779D01*
X230846000Y-40016500D01*
X230846000Y-39541500D01*
X230847144Y-39518221D01*
X230850563Y-39495166D01*
X230856227Y-39472557D01*
X230864079Y-39450613D01*
X230874044Y-39429543D01*
X230886026Y-39409552D01*
X230899910Y-39390832D01*
X230915562Y-39373562D01*
X230932832Y-39357910D01*
X230951552Y-39344026D01*
X230971543Y-39332044D01*
X230992613Y-39322079D01*
X231014557Y-39314227D01*
X231037166Y-39308563D01*
X231060221Y-39305144D01*
X231083500Y-39304000D01*
X231658500Y-39304000D01*
X231681779Y-39305144D01*
G37*
G36*
X229931779Y-39305144D02*
G01*
X229954834Y-39308563D01*
X229977443Y-39314227D01*
X229999387Y-39322079D01*
X230020457Y-39332044D01*
X230040448Y-39344026D01*
X230059168Y-39357910D01*
X230076438Y-39373562D01*
X230092090Y-39390832D01*
X230105974Y-39409552D01*
X230117956Y-39429543D01*
X230127921Y-39450613D01*
X230135773Y-39472557D01*
X230141437Y-39495166D01*
X230144856Y-39518221D01*
X230146000Y-39541500D01*
X230146000Y-40016500D01*
X230144856Y-40039779D01*
X230141437Y-40062834D01*
X230135773Y-40085443D01*
X230127921Y-40107387D01*
X230117956Y-40128457D01*
X230105974Y-40148448D01*
X230092090Y-40167168D01*
X230076438Y-40184438D01*
X230059168Y-40200090D01*
X230040448Y-40213974D01*
X230020457Y-40225956D01*
X229999387Y-40235921D01*
X229977443Y-40243773D01*
X229954834Y-40249437D01*
X229931779Y-40252856D01*
X229908500Y-40254000D01*
X229333500Y-40254000D01*
X229310221Y-40252856D01*
X229287166Y-40249437D01*
X229264557Y-40243773D01*
X229242613Y-40235921D01*
X229221543Y-40225956D01*
X229201552Y-40213974D01*
X229182832Y-40200090D01*
X229165562Y-40184438D01*
X229149910Y-40167168D01*
X229136026Y-40148448D01*
X229124044Y-40128457D01*
X229114079Y-40107387D01*
X229106227Y-40085443D01*
X229100563Y-40062834D01*
X229097144Y-40039779D01*
X229096000Y-40016500D01*
X229096000Y-39541500D01*
X229097144Y-39518221D01*
X229100563Y-39495166D01*
X229106227Y-39472557D01*
X229114079Y-39450613D01*
X229124044Y-39429543D01*
X229136026Y-39409552D01*
X229149910Y-39390832D01*
X229165562Y-39373562D01*
X229182832Y-39357910D01*
X229201552Y-39344026D01*
X229221543Y-39332044D01*
X229242613Y-39322079D01*
X229264557Y-39314227D01*
X229287166Y-39308563D01*
X229310221Y-39305144D01*
X229333500Y-39304000D01*
X229908500Y-39304000D01*
X229931779Y-39305144D01*
G37*
G36*
X231681779Y-41337144D02*
G01*
X231704834Y-41340563D01*
X231727443Y-41346227D01*
X231749387Y-41354079D01*
X231770457Y-41364044D01*
X231790448Y-41376026D01*
X231809168Y-41389910D01*
X231826438Y-41405562D01*
X231842090Y-41422832D01*
X231855974Y-41441552D01*
X231867956Y-41461543D01*
X231877921Y-41482613D01*
X231885773Y-41504557D01*
X231891437Y-41527166D01*
X231894856Y-41550221D01*
X231896000Y-41573500D01*
X231896000Y-42048500D01*
X231894856Y-42071779D01*
X231891437Y-42094834D01*
X231885773Y-42117443D01*
X231877921Y-42139387D01*
X231867956Y-42160457D01*
X231855974Y-42180448D01*
X231842090Y-42199168D01*
X231826438Y-42216438D01*
X231809168Y-42232090D01*
X231790448Y-42245974D01*
X231770457Y-42257956D01*
X231749387Y-42267921D01*
X231727443Y-42275773D01*
X231704834Y-42281437D01*
X231681779Y-42284856D01*
X231658500Y-42286000D01*
X231083500Y-42286000D01*
X231060221Y-42284856D01*
X231037166Y-42281437D01*
X231014557Y-42275773D01*
X230992613Y-42267921D01*
X230971543Y-42257956D01*
X230951552Y-42245974D01*
X230932832Y-42232090D01*
X230915562Y-42216438D01*
X230899910Y-42199168D01*
X230886026Y-42180448D01*
X230874044Y-42160457D01*
X230864079Y-42139387D01*
X230856227Y-42117443D01*
X230850563Y-42094834D01*
X230847144Y-42071779D01*
X230846000Y-42048500D01*
X230846000Y-41573500D01*
X230847144Y-41550221D01*
X230850563Y-41527166D01*
X230856227Y-41504557D01*
X230864079Y-41482613D01*
X230874044Y-41461543D01*
X230886026Y-41441552D01*
X230899910Y-41422832D01*
X230915562Y-41405562D01*
X230932832Y-41389910D01*
X230951552Y-41376026D01*
X230971543Y-41364044D01*
X230992613Y-41354079D01*
X231014557Y-41346227D01*
X231037166Y-41340563D01*
X231060221Y-41337144D01*
X231083500Y-41336000D01*
X231658500Y-41336000D01*
X231681779Y-41337144D01*
G37*
G36*
X229931779Y-41337144D02*
G01*
X229954834Y-41340563D01*
X229977443Y-41346227D01*
X229999387Y-41354079D01*
X230020457Y-41364044D01*
X230040448Y-41376026D01*
X230059168Y-41389910D01*
X230076438Y-41405562D01*
X230092090Y-41422832D01*
X230105974Y-41441552D01*
X230117956Y-41461543D01*
X230127921Y-41482613D01*
X230135773Y-41504557D01*
X230141437Y-41527166D01*
X230144856Y-41550221D01*
X230146000Y-41573500D01*
X230146000Y-42048500D01*
X230144856Y-42071779D01*
X230141437Y-42094834D01*
X230135773Y-42117443D01*
X230127921Y-42139387D01*
X230117956Y-42160457D01*
X230105974Y-42180448D01*
X230092090Y-42199168D01*
X230076438Y-42216438D01*
X230059168Y-42232090D01*
X230040448Y-42245974D01*
X230020457Y-42257956D01*
X229999387Y-42267921D01*
X229977443Y-42275773D01*
X229954834Y-42281437D01*
X229931779Y-42284856D01*
X229908500Y-42286000D01*
X229333500Y-42286000D01*
X229310221Y-42284856D01*
X229287166Y-42281437D01*
X229264557Y-42275773D01*
X229242613Y-42267921D01*
X229221543Y-42257956D01*
X229201552Y-42245974D01*
X229182832Y-42232090D01*
X229165562Y-42216438D01*
X229149910Y-42199168D01*
X229136026Y-42180448D01*
X229124044Y-42160457D01*
X229114079Y-42139387D01*
X229106227Y-42117443D01*
X229100563Y-42094834D01*
X229097144Y-42071779D01*
X229096000Y-42048500D01*
X229096000Y-41573500D01*
X229097144Y-41550221D01*
X229100563Y-41527166D01*
X229106227Y-41504557D01*
X229114079Y-41482613D01*
X229124044Y-41461543D01*
X229136026Y-41441552D01*
X229149910Y-41422832D01*
X229165562Y-41405562D01*
X229182832Y-41389910D01*
X229201552Y-41376026D01*
X229221543Y-41364044D01*
X229242613Y-41354079D01*
X229264557Y-41346227D01*
X229287166Y-41340563D01*
X229310221Y-41337144D01*
X229333500Y-41336000D01*
X229908500Y-41336000D01*
X229931779Y-41337144D01*
G37*
D17*
X229899000Y-117296000D03*
X226089000Y-88086000D03*
X192434000Y-88086000D03*
D23*
X215294000Y-90499000D03*
D22*
X215294000Y-85499000D03*
D21*
X190402000Y-102691000D03*
X190402000Y-107691000D03*
X193958000Y-102691000D03*
X193958000Y-107691000D03*
X193958000Y-100071000D03*
X193958000Y-95071000D03*
D22*
X203610000Y-85499000D03*
D23*
X203610000Y-90499000D03*
D21*
X229518000Y-108025000D03*
X229518000Y-113025000D03*
X229518000Y-100405000D03*
X229518000Y-105405000D03*
D25*
X200435000Y-113740000D03*
D24*
X195435000Y-113740000D03*
X190435000Y-113740000D03*
X250897000Y-113740000D03*
X255897000Y-113740000D03*
D25*
X260897000Y-113740000D03*
X245897000Y-113740000D03*
D24*
X240897000Y-113740000D03*
X235897000Y-113740000D03*
D15*
X253394000Y-88975000D03*
D14*
X250854000Y-88975000D03*
X248314000Y-88975000D03*
X245774000Y-88975000D03*
X243234000Y-88975000D03*
X240694000Y-88975000D03*
D15*
X250854000Y-85165000D03*
D14*
X248314000Y-85165000D03*
X245774000Y-85165000D03*
X243234000Y-85165000D03*
D12*
G36*
X204384000Y-105955000D02*
G01*
X204384000Y-105455000D01*
X204384602Y-105455000D01*
X204384602Y-105430466D01*
X204389412Y-105381635D01*
X204398984Y-105333510D01*
X204413228Y-105286555D01*
X204432005Y-105241222D01*
X204455136Y-105197949D01*
X204482396Y-105157150D01*
X204513524Y-105119221D01*
X204548221Y-105084524D01*
X204586150Y-105053396D01*
X204626949Y-105026136D01*
X204670222Y-105003005D01*
X204715555Y-104984228D01*
X204762510Y-104969984D01*
X204810635Y-104960412D01*
X204859466Y-104955602D01*
X204884000Y-104955602D01*
X204884000Y-104955000D01*
X205384000Y-104955000D01*
X205384000Y-104955602D01*
X205408534Y-104955602D01*
X205457365Y-104960412D01*
X205505490Y-104969984D01*
X205552445Y-104984228D01*
X205597778Y-105003005D01*
X205641051Y-105026136D01*
X205681850Y-105053396D01*
X205719779Y-105084524D01*
X205754476Y-105119221D01*
X205785604Y-105157150D01*
X205812864Y-105197949D01*
X205835995Y-105241222D01*
X205854772Y-105286555D01*
X205869016Y-105333510D01*
X205878588Y-105381635D01*
X205883398Y-105430466D01*
X205883398Y-105455000D01*
X205884000Y-105455000D01*
X205884000Y-105955000D01*
X204384000Y-105955000D01*
G37*
G36*
X205883398Y-106755000D02*
G01*
X205883398Y-106779534D01*
X205878588Y-106828365D01*
X205869016Y-106876490D01*
X205854772Y-106923445D01*
X205835995Y-106968778D01*
X205812864Y-107012051D01*
X205785604Y-107052850D01*
X205754476Y-107090779D01*
X205719779Y-107125476D01*
X205681850Y-107156604D01*
X205641051Y-107183864D01*
X205597778Y-107206995D01*
X205552445Y-107225772D01*
X205505490Y-107240016D01*
X205457365Y-107249588D01*
X205408534Y-107254398D01*
X205384000Y-107254398D01*
X205384000Y-107255000D01*
X204884000Y-107255000D01*
X204884000Y-107254398D01*
X204859466Y-107254398D01*
X204810635Y-107249588D01*
X204762510Y-107240016D01*
X204715555Y-107225772D01*
X204670222Y-107206995D01*
X204626949Y-107183864D01*
X204586150Y-107156604D01*
X204548221Y-107125476D01*
X204513524Y-107090779D01*
X204482396Y-107052850D01*
X204455136Y-107012051D01*
X204432005Y-106968778D01*
X204413228Y-106923445D01*
X204398984Y-106876490D01*
X204389412Y-106828365D01*
X204384602Y-106779534D01*
X204384602Y-106755000D01*
X204384000Y-106755000D01*
X204384000Y-106255000D01*
X205884000Y-106255000D01*
X205884000Y-106755000D01*
X205883398Y-106755000D01*
G37*
G36*
X233080779Y-105469144D02*
G01*
X233103834Y-105472563D01*
X233126443Y-105478227D01*
X233148387Y-105486079D01*
X233169457Y-105496044D01*
X233189448Y-105508026D01*
X233208168Y-105521910D01*
X233225438Y-105537562D01*
X233241090Y-105554832D01*
X233254974Y-105573552D01*
X233266956Y-105593543D01*
X233276921Y-105614613D01*
X233284773Y-105636557D01*
X233290437Y-105659166D01*
X233293856Y-105682221D01*
X233295000Y-105705500D01*
X233295000Y-106280500D01*
X233293856Y-106303779D01*
X233290437Y-106326834D01*
X233284773Y-106349443D01*
X233276921Y-106371387D01*
X233266956Y-106392457D01*
X233254974Y-106412448D01*
X233241090Y-106431168D01*
X233225438Y-106448438D01*
X233208168Y-106464090D01*
X233189448Y-106477974D01*
X233169457Y-106489956D01*
X233148387Y-106499921D01*
X233126443Y-106507773D01*
X233103834Y-106513437D01*
X233080779Y-106516856D01*
X233057500Y-106518000D01*
X232582500Y-106518000D01*
X232559221Y-106516856D01*
X232536166Y-106513437D01*
X232513557Y-106507773D01*
X232491613Y-106499921D01*
X232470543Y-106489956D01*
X232450552Y-106477974D01*
X232431832Y-106464090D01*
X232414562Y-106448438D01*
X232398910Y-106431168D01*
X232385026Y-106412448D01*
X232373044Y-106392457D01*
X232363079Y-106371387D01*
X232355227Y-106349443D01*
X232349563Y-106326834D01*
X232346144Y-106303779D01*
X232345000Y-106280500D01*
X232345000Y-105705500D01*
X232346144Y-105682221D01*
X232349563Y-105659166D01*
X232355227Y-105636557D01*
X232363079Y-105614613D01*
X232373044Y-105593543D01*
X232385026Y-105573552D01*
X232398910Y-105554832D01*
X232414562Y-105537562D01*
X232431832Y-105521910D01*
X232450552Y-105508026D01*
X232470543Y-105496044D01*
X232491613Y-105486079D01*
X232513557Y-105478227D01*
X232536166Y-105472563D01*
X232559221Y-105469144D01*
X232582500Y-105468000D01*
X233057500Y-105468000D01*
X233080779Y-105469144D01*
G37*
G36*
X233080779Y-107219144D02*
G01*
X233103834Y-107222563D01*
X233126443Y-107228227D01*
X233148387Y-107236079D01*
X233169457Y-107246044D01*
X233189448Y-107258026D01*
X233208168Y-107271910D01*
X233225438Y-107287562D01*
X233241090Y-107304832D01*
X233254974Y-107323552D01*
X233266956Y-107343543D01*
X233276921Y-107364613D01*
X233284773Y-107386557D01*
X233290437Y-107409166D01*
X233293856Y-107432221D01*
X233295000Y-107455500D01*
X233295000Y-108030500D01*
X233293856Y-108053779D01*
X233290437Y-108076834D01*
X233284773Y-108099443D01*
X233276921Y-108121387D01*
X233266956Y-108142457D01*
X233254974Y-108162448D01*
X233241090Y-108181168D01*
X233225438Y-108198438D01*
X233208168Y-108214090D01*
X233189448Y-108227974D01*
X233169457Y-108239956D01*
X233148387Y-108249921D01*
X233126443Y-108257773D01*
X233103834Y-108263437D01*
X233080779Y-108266856D01*
X233057500Y-108268000D01*
X232582500Y-108268000D01*
X232559221Y-108266856D01*
X232536166Y-108263437D01*
X232513557Y-108257773D01*
X232491613Y-108249921D01*
X232470543Y-108239956D01*
X232450552Y-108227974D01*
X232431832Y-108214090D01*
X232414562Y-108198438D01*
X232398910Y-108181168D01*
X232385026Y-108162448D01*
X232373044Y-108142457D01*
X232363079Y-108121387D01*
X232355227Y-108099443D01*
X232349563Y-108076834D01*
X232346144Y-108053779D01*
X232345000Y-108030500D01*
X232345000Y-107455500D01*
X232346144Y-107432221D01*
X232349563Y-107409166D01*
X232355227Y-107386557D01*
X232363079Y-107364613D01*
X232373044Y-107343543D01*
X232385026Y-107323552D01*
X232398910Y-107304832D01*
X232414562Y-107287562D01*
X232431832Y-107271910D01*
X232450552Y-107258026D01*
X232470543Y-107246044D01*
X232491613Y-107236079D01*
X232513557Y-107228227D01*
X232536166Y-107222563D01*
X232559221Y-107219144D01*
X232582500Y-107218000D01*
X233057500Y-107218000D01*
X233080779Y-107219144D01*
G37*
G36*
X234858779Y-105497144D02*
G01*
X234881834Y-105500563D01*
X234904443Y-105506227D01*
X234926387Y-105514079D01*
X234947457Y-105524044D01*
X234967448Y-105536026D01*
X234986168Y-105549910D01*
X235003438Y-105565562D01*
X235019090Y-105582832D01*
X235032974Y-105601552D01*
X235044956Y-105621543D01*
X235054921Y-105642613D01*
X235062773Y-105664557D01*
X235068437Y-105687166D01*
X235071856Y-105710221D01*
X235073000Y-105733500D01*
X235073000Y-106308500D01*
X235071856Y-106331779D01*
X235068437Y-106354834D01*
X235062773Y-106377443D01*
X235054921Y-106399387D01*
X235044956Y-106420457D01*
X235032974Y-106440448D01*
X235019090Y-106459168D01*
X235003438Y-106476438D01*
X234986168Y-106492090D01*
X234967448Y-106505974D01*
X234947457Y-106517956D01*
X234926387Y-106527921D01*
X234904443Y-106535773D01*
X234881834Y-106541437D01*
X234858779Y-106544856D01*
X234835500Y-106546000D01*
X234360500Y-106546000D01*
X234337221Y-106544856D01*
X234314166Y-106541437D01*
X234291557Y-106535773D01*
X234269613Y-106527921D01*
X234248543Y-106517956D01*
X234228552Y-106505974D01*
X234209832Y-106492090D01*
X234192562Y-106476438D01*
X234176910Y-106459168D01*
X234163026Y-106440448D01*
X234151044Y-106420457D01*
X234141079Y-106399387D01*
X234133227Y-106377443D01*
X234127563Y-106354834D01*
X234124144Y-106331779D01*
X234123000Y-106308500D01*
X234123000Y-105733500D01*
X234124144Y-105710221D01*
X234127563Y-105687166D01*
X234133227Y-105664557D01*
X234141079Y-105642613D01*
X234151044Y-105621543D01*
X234163026Y-105601552D01*
X234176910Y-105582832D01*
X234192562Y-105565562D01*
X234209832Y-105549910D01*
X234228552Y-105536026D01*
X234248543Y-105524044D01*
X234269613Y-105514079D01*
X234291557Y-105506227D01*
X234314166Y-105500563D01*
X234337221Y-105497144D01*
X234360500Y-105496000D01*
X234835500Y-105496000D01*
X234858779Y-105497144D01*
G37*
G36*
X234858779Y-107247144D02*
G01*
X234881834Y-107250563D01*
X234904443Y-107256227D01*
X234926387Y-107264079D01*
X234947457Y-107274044D01*
X234967448Y-107286026D01*
X234986168Y-107299910D01*
X235003438Y-107315562D01*
X235019090Y-107332832D01*
X235032974Y-107351552D01*
X235044956Y-107371543D01*
X235054921Y-107392613D01*
X235062773Y-107414557D01*
X235068437Y-107437166D01*
X235071856Y-107460221D01*
X235073000Y-107483500D01*
X235073000Y-108058500D01*
X235071856Y-108081779D01*
X235068437Y-108104834D01*
X235062773Y-108127443D01*
X235054921Y-108149387D01*
X235044956Y-108170457D01*
X235032974Y-108190448D01*
X235019090Y-108209168D01*
X235003438Y-108226438D01*
X234986168Y-108242090D01*
X234967448Y-108255974D01*
X234947457Y-108267956D01*
X234926387Y-108277921D01*
X234904443Y-108285773D01*
X234881834Y-108291437D01*
X234858779Y-108294856D01*
X234835500Y-108296000D01*
X234360500Y-108296000D01*
X234337221Y-108294856D01*
X234314166Y-108291437D01*
X234291557Y-108285773D01*
X234269613Y-108277921D01*
X234248543Y-108267956D01*
X234228552Y-108255974D01*
X234209832Y-108242090D01*
X234192562Y-108226438D01*
X234176910Y-108209168D01*
X234163026Y-108190448D01*
X234151044Y-108170457D01*
X234141079Y-108149387D01*
X234133227Y-108127443D01*
X234127563Y-108104834D01*
X234124144Y-108081779D01*
X234123000Y-108058500D01*
X234123000Y-107483500D01*
X234124144Y-107460221D01*
X234127563Y-107437166D01*
X234133227Y-107414557D01*
X234141079Y-107392613D01*
X234151044Y-107371543D01*
X234163026Y-107351552D01*
X234176910Y-107332832D01*
X234192562Y-107315562D01*
X234209832Y-107299910D01*
X234228552Y-107286026D01*
X234248543Y-107274044D01*
X234269613Y-107264079D01*
X234291557Y-107256227D01*
X234314166Y-107250563D01*
X234337221Y-107247144D01*
X234360500Y-107246000D01*
X234835500Y-107246000D01*
X234858779Y-107247144D01*
G37*
G36*
X236636779Y-107219144D02*
G01*
X236659834Y-107222563D01*
X236682443Y-107228227D01*
X236704387Y-107236079D01*
X236725457Y-107246044D01*
X236745448Y-107258026D01*
X236764168Y-107271910D01*
X236781438Y-107287562D01*
X236797090Y-107304832D01*
X236810974Y-107323552D01*
X236822956Y-107343543D01*
X236832921Y-107364613D01*
X236840773Y-107386557D01*
X236846437Y-107409166D01*
X236849856Y-107432221D01*
X236851000Y-107455500D01*
X236851000Y-108030500D01*
X236849856Y-108053779D01*
X236846437Y-108076834D01*
X236840773Y-108099443D01*
X236832921Y-108121387D01*
X236822956Y-108142457D01*
X236810974Y-108162448D01*
X236797090Y-108181168D01*
X236781438Y-108198438D01*
X236764168Y-108214090D01*
X236745448Y-108227974D01*
X236725457Y-108239956D01*
X236704387Y-108249921D01*
X236682443Y-108257773D01*
X236659834Y-108263437D01*
X236636779Y-108266856D01*
X236613500Y-108268000D01*
X236138500Y-108268000D01*
X236115221Y-108266856D01*
X236092166Y-108263437D01*
X236069557Y-108257773D01*
X236047613Y-108249921D01*
X236026543Y-108239956D01*
X236006552Y-108227974D01*
X235987832Y-108214090D01*
X235970562Y-108198438D01*
X235954910Y-108181168D01*
X235941026Y-108162448D01*
X235929044Y-108142457D01*
X235919079Y-108121387D01*
X235911227Y-108099443D01*
X235905563Y-108076834D01*
X235902144Y-108053779D01*
X235901000Y-108030500D01*
X235901000Y-107455500D01*
X235902144Y-107432221D01*
X235905563Y-107409166D01*
X235911227Y-107386557D01*
X235919079Y-107364613D01*
X235929044Y-107343543D01*
X235941026Y-107323552D01*
X235954910Y-107304832D01*
X235970562Y-107287562D01*
X235987832Y-107271910D01*
X236006552Y-107258026D01*
X236026543Y-107246044D01*
X236047613Y-107236079D01*
X236069557Y-107228227D01*
X236092166Y-107222563D01*
X236115221Y-107219144D01*
X236138500Y-107218000D01*
X236613500Y-107218000D01*
X236636779Y-107219144D01*
G37*
G36*
X236636779Y-105469144D02*
G01*
X236659834Y-105472563D01*
X236682443Y-105478227D01*
X236704387Y-105486079D01*
X236725457Y-105496044D01*
X236745448Y-105508026D01*
X236764168Y-105521910D01*
X236781438Y-105537562D01*
X236797090Y-105554832D01*
X236810974Y-105573552D01*
X236822956Y-105593543D01*
X236832921Y-105614613D01*
X236840773Y-105636557D01*
X236846437Y-105659166D01*
X236849856Y-105682221D01*
X236851000Y-105705500D01*
X236851000Y-106280500D01*
X236849856Y-106303779D01*
X236846437Y-106326834D01*
X236840773Y-106349443D01*
X236832921Y-106371387D01*
X236822956Y-106392457D01*
X236810974Y-106412448D01*
X236797090Y-106431168D01*
X236781438Y-106448438D01*
X236764168Y-106464090D01*
X236745448Y-106477974D01*
X236725457Y-106489956D01*
X236704387Y-106499921D01*
X236682443Y-106507773D01*
X236659834Y-106513437D01*
X236636779Y-106516856D01*
X236613500Y-106518000D01*
X236138500Y-106518000D01*
X236115221Y-106516856D01*
X236092166Y-106513437D01*
X236069557Y-106507773D01*
X236047613Y-106499921D01*
X236026543Y-106489956D01*
X236006552Y-106477974D01*
X235987832Y-106464090D01*
X235970562Y-106448438D01*
X235954910Y-106431168D01*
X235941026Y-106412448D01*
X235929044Y-106392457D01*
X235919079Y-106371387D01*
X235911227Y-106349443D01*
X235905563Y-106326834D01*
X235902144Y-106303779D01*
X235901000Y-106280500D01*
X235901000Y-105705500D01*
X235902144Y-105682221D01*
X235905563Y-105659166D01*
X235911227Y-105636557D01*
X235919079Y-105614613D01*
X235929044Y-105593543D01*
X235941026Y-105573552D01*
X235954910Y-105554832D01*
X235970562Y-105537562D01*
X235987832Y-105521910D01*
X236006552Y-105508026D01*
X236026543Y-105496044D01*
X236047613Y-105486079D01*
X236069557Y-105478227D01*
X236092166Y-105472563D01*
X236115221Y-105469144D01*
X236138500Y-105468000D01*
X236613500Y-105468000D01*
X236636779Y-105469144D01*
G37*
D16*
X233582000Y-90753000D03*
X233582000Y-93293000D03*
X233582000Y-95833000D03*
X233582000Y-98373000D03*
X233582000Y-100913000D03*
D35*
X200054000Y-95071000D03*
D36*
X200054000Y-101371000D03*
X202354000Y-101371000D03*
X197754000Y-101371000D03*
D12*
G36*
X203368703Y-107598722D02*
G01*
X203383264Y-107600882D01*
X203397543Y-107604459D01*
X203411403Y-107609418D01*
X203424710Y-107615712D01*
X203437336Y-107623280D01*
X203449159Y-107632048D01*
X203460066Y-107641934D01*
X203469952Y-107652841D01*
X203478720Y-107664664D01*
X203486288Y-107677290D01*
X203492582Y-107690597D01*
X203497541Y-107704457D01*
X203501118Y-107718736D01*
X203503278Y-107733297D01*
X203504000Y-107748000D01*
X203504000Y-108048000D01*
X203503278Y-108062703D01*
X203501118Y-108077264D01*
X203497541Y-108091543D01*
X203492582Y-108105403D01*
X203486288Y-108118710D01*
X203478720Y-108131336D01*
X203469952Y-108143159D01*
X203460066Y-108154066D01*
X203449159Y-108163952D01*
X203437336Y-108172720D01*
X203424710Y-108180288D01*
X203411403Y-108186582D01*
X203397543Y-108191541D01*
X203383264Y-108195118D01*
X203368703Y-108197278D01*
X203354000Y-108198000D01*
X201704000Y-108198000D01*
X201689297Y-108197278D01*
X201674736Y-108195118D01*
X201660457Y-108191541D01*
X201646597Y-108186582D01*
X201633290Y-108180288D01*
X201620664Y-108172720D01*
X201608841Y-108163952D01*
X201597934Y-108154066D01*
X201588048Y-108143159D01*
X201579280Y-108131336D01*
X201571712Y-108118710D01*
X201565418Y-108105403D01*
X201560459Y-108091543D01*
X201556882Y-108077264D01*
X201554722Y-108062703D01*
X201554000Y-108048000D01*
X201554000Y-107748000D01*
X201554722Y-107733297D01*
X201556882Y-107718736D01*
X201560459Y-107704457D01*
X201565418Y-107690597D01*
X201571712Y-107677290D01*
X201579280Y-107664664D01*
X201588048Y-107652841D01*
X201597934Y-107641934D01*
X201608841Y-107632048D01*
X201620664Y-107623280D01*
X201633290Y-107615712D01*
X201646597Y-107609418D01*
X201660457Y-107604459D01*
X201674736Y-107600882D01*
X201689297Y-107598722D01*
X201704000Y-107598000D01*
X203354000Y-107598000D01*
X203368703Y-107598722D01*
G37*
G36*
X203368703Y-106328722D02*
G01*
X203383264Y-106330882D01*
X203397543Y-106334459D01*
X203411403Y-106339418D01*
X203424710Y-106345712D01*
X203437336Y-106353280D01*
X203449159Y-106362048D01*
X203460066Y-106371934D01*
X203469952Y-106382841D01*
X203478720Y-106394664D01*
X203486288Y-106407290D01*
X203492582Y-106420597D01*
X203497541Y-106434457D01*
X203501118Y-106448736D01*
X203503278Y-106463297D01*
X203504000Y-106478000D01*
X203504000Y-106778000D01*
X203503278Y-106792703D01*
X203501118Y-106807264D01*
X203497541Y-106821543D01*
X203492582Y-106835403D01*
X203486288Y-106848710D01*
X203478720Y-106861336D01*
X203469952Y-106873159D01*
X203460066Y-106884066D01*
X203449159Y-106893952D01*
X203437336Y-106902720D01*
X203424710Y-106910288D01*
X203411403Y-106916582D01*
X203397543Y-106921541D01*
X203383264Y-106925118D01*
X203368703Y-106927278D01*
X203354000Y-106928000D01*
X201704000Y-106928000D01*
X201689297Y-106927278D01*
X201674736Y-106925118D01*
X201660457Y-106921541D01*
X201646597Y-106916582D01*
X201633290Y-106910288D01*
X201620664Y-106902720D01*
X201608841Y-106893952D01*
X201597934Y-106884066D01*
X201588048Y-106873159D01*
X201579280Y-106861336D01*
X201571712Y-106848710D01*
X201565418Y-106835403D01*
X201560459Y-106821543D01*
X201556882Y-106807264D01*
X201554722Y-106792703D01*
X201554000Y-106778000D01*
X201554000Y-106478000D01*
X201554722Y-106463297D01*
X201556882Y-106448736D01*
X201560459Y-106434457D01*
X201565418Y-106420597D01*
X201571712Y-106407290D01*
X201579280Y-106394664D01*
X201588048Y-106382841D01*
X201597934Y-106371934D01*
X201608841Y-106362048D01*
X201620664Y-106353280D01*
X201633290Y-106345712D01*
X201646597Y-106339418D01*
X201660457Y-106334459D01*
X201674736Y-106330882D01*
X201689297Y-106328722D01*
X201704000Y-106328000D01*
X203354000Y-106328000D01*
X203368703Y-106328722D01*
G37*
G36*
X203368703Y-105058722D02*
G01*
X203383264Y-105060882D01*
X203397543Y-105064459D01*
X203411403Y-105069418D01*
X203424710Y-105075712D01*
X203437336Y-105083280D01*
X203449159Y-105092048D01*
X203460066Y-105101934D01*
X203469952Y-105112841D01*
X203478720Y-105124664D01*
X203486288Y-105137290D01*
X203492582Y-105150597D01*
X203497541Y-105164457D01*
X203501118Y-105178736D01*
X203503278Y-105193297D01*
X203504000Y-105208000D01*
X203504000Y-105508000D01*
X203503278Y-105522703D01*
X203501118Y-105537264D01*
X203497541Y-105551543D01*
X203492582Y-105565403D01*
X203486288Y-105578710D01*
X203478720Y-105591336D01*
X203469952Y-105603159D01*
X203460066Y-105614066D01*
X203449159Y-105623952D01*
X203437336Y-105632720D01*
X203424710Y-105640288D01*
X203411403Y-105646582D01*
X203397543Y-105651541D01*
X203383264Y-105655118D01*
X203368703Y-105657278D01*
X203354000Y-105658000D01*
X201704000Y-105658000D01*
X201689297Y-105657278D01*
X201674736Y-105655118D01*
X201660457Y-105651541D01*
X201646597Y-105646582D01*
X201633290Y-105640288D01*
X201620664Y-105632720D01*
X201608841Y-105623952D01*
X201597934Y-105614066D01*
X201588048Y-105603159D01*
X201579280Y-105591336D01*
X201571712Y-105578710D01*
X201565418Y-105565403D01*
X201560459Y-105551543D01*
X201556882Y-105537264D01*
X201554722Y-105522703D01*
X201554000Y-105508000D01*
X201554000Y-105208000D01*
X201554722Y-105193297D01*
X201556882Y-105178736D01*
X201560459Y-105164457D01*
X201565418Y-105150597D01*
X201571712Y-105137290D01*
X201579280Y-105124664D01*
X201588048Y-105112841D01*
X201597934Y-105101934D01*
X201608841Y-105092048D01*
X201620664Y-105083280D01*
X201633290Y-105075712D01*
X201646597Y-105069418D01*
X201660457Y-105064459D01*
X201674736Y-105060882D01*
X201689297Y-105058722D01*
X201704000Y-105058000D01*
X203354000Y-105058000D01*
X203368703Y-105058722D01*
G37*
G36*
X203368703Y-103788722D02*
G01*
X203383264Y-103790882D01*
X203397543Y-103794459D01*
X203411403Y-103799418D01*
X203424710Y-103805712D01*
X203437336Y-103813280D01*
X203449159Y-103822048D01*
X203460066Y-103831934D01*
X203469952Y-103842841D01*
X203478720Y-103854664D01*
X203486288Y-103867290D01*
X203492582Y-103880597D01*
X203497541Y-103894457D01*
X203501118Y-103908736D01*
X203503278Y-103923297D01*
X203504000Y-103938000D01*
X203504000Y-104238000D01*
X203503278Y-104252703D01*
X203501118Y-104267264D01*
X203497541Y-104281543D01*
X203492582Y-104295403D01*
X203486288Y-104308710D01*
X203478720Y-104321336D01*
X203469952Y-104333159D01*
X203460066Y-104344066D01*
X203449159Y-104353952D01*
X203437336Y-104362720D01*
X203424710Y-104370288D01*
X203411403Y-104376582D01*
X203397543Y-104381541D01*
X203383264Y-104385118D01*
X203368703Y-104387278D01*
X203354000Y-104388000D01*
X201704000Y-104388000D01*
X201689297Y-104387278D01*
X201674736Y-104385118D01*
X201660457Y-104381541D01*
X201646597Y-104376582D01*
X201633290Y-104370288D01*
X201620664Y-104362720D01*
X201608841Y-104353952D01*
X201597934Y-104344066D01*
X201588048Y-104333159D01*
X201579280Y-104321336D01*
X201571712Y-104308710D01*
X201565418Y-104295403D01*
X201560459Y-104281543D01*
X201556882Y-104267264D01*
X201554722Y-104252703D01*
X201554000Y-104238000D01*
X201554000Y-103938000D01*
X201554722Y-103923297D01*
X201556882Y-103908736D01*
X201560459Y-103894457D01*
X201565418Y-103880597D01*
X201571712Y-103867290D01*
X201579280Y-103854664D01*
X201588048Y-103842841D01*
X201597934Y-103831934D01*
X201608841Y-103822048D01*
X201620664Y-103813280D01*
X201633290Y-103805712D01*
X201646597Y-103799418D01*
X201660457Y-103794459D01*
X201674736Y-103790882D01*
X201689297Y-103788722D01*
X201704000Y-103788000D01*
X203354000Y-103788000D01*
X203368703Y-103788722D01*
G37*
G36*
X198418703Y-103788722D02*
G01*
X198433264Y-103790882D01*
X198447543Y-103794459D01*
X198461403Y-103799418D01*
X198474710Y-103805712D01*
X198487336Y-103813280D01*
X198499159Y-103822048D01*
X198510066Y-103831934D01*
X198519952Y-103842841D01*
X198528720Y-103854664D01*
X198536288Y-103867290D01*
X198542582Y-103880597D01*
X198547541Y-103894457D01*
X198551118Y-103908736D01*
X198553278Y-103923297D01*
X198554000Y-103938000D01*
X198554000Y-104238000D01*
X198553278Y-104252703D01*
X198551118Y-104267264D01*
X198547541Y-104281543D01*
X198542582Y-104295403D01*
X198536288Y-104308710D01*
X198528720Y-104321336D01*
X198519952Y-104333159D01*
X198510066Y-104344066D01*
X198499159Y-104353952D01*
X198487336Y-104362720D01*
X198474710Y-104370288D01*
X198461403Y-104376582D01*
X198447543Y-104381541D01*
X198433264Y-104385118D01*
X198418703Y-104387278D01*
X198404000Y-104388000D01*
X196754000Y-104388000D01*
X196739297Y-104387278D01*
X196724736Y-104385118D01*
X196710457Y-104381541D01*
X196696597Y-104376582D01*
X196683290Y-104370288D01*
X196670664Y-104362720D01*
X196658841Y-104353952D01*
X196647934Y-104344066D01*
X196638048Y-104333159D01*
X196629280Y-104321336D01*
X196621712Y-104308710D01*
X196615418Y-104295403D01*
X196610459Y-104281543D01*
X196606882Y-104267264D01*
X196604722Y-104252703D01*
X196604000Y-104238000D01*
X196604000Y-103938000D01*
X196604722Y-103923297D01*
X196606882Y-103908736D01*
X196610459Y-103894457D01*
X196615418Y-103880597D01*
X196621712Y-103867290D01*
X196629280Y-103854664D01*
X196638048Y-103842841D01*
X196647934Y-103831934D01*
X196658841Y-103822048D01*
X196670664Y-103813280D01*
X196683290Y-103805712D01*
X196696597Y-103799418D01*
X196710457Y-103794459D01*
X196724736Y-103790882D01*
X196739297Y-103788722D01*
X196754000Y-103788000D01*
X198404000Y-103788000D01*
X198418703Y-103788722D01*
G37*
G36*
X198418703Y-105058722D02*
G01*
X198433264Y-105060882D01*
X198447543Y-105064459D01*
X198461403Y-105069418D01*
X198474710Y-105075712D01*
X198487336Y-105083280D01*
X198499159Y-105092048D01*
X198510066Y-105101934D01*
X198519952Y-105112841D01*
X198528720Y-105124664D01*
X198536288Y-105137290D01*
X198542582Y-105150597D01*
X198547541Y-105164457D01*
X198551118Y-105178736D01*
X198553278Y-105193297D01*
X198554000Y-105208000D01*
X198554000Y-105508000D01*
X198553278Y-105522703D01*
X198551118Y-105537264D01*
X198547541Y-105551543D01*
X198542582Y-105565403D01*
X198536288Y-105578710D01*
X198528720Y-105591336D01*
X198519952Y-105603159D01*
X198510066Y-105614066D01*
X198499159Y-105623952D01*
X198487336Y-105632720D01*
X198474710Y-105640288D01*
X198461403Y-105646582D01*
X198447543Y-105651541D01*
X198433264Y-105655118D01*
X198418703Y-105657278D01*
X198404000Y-105658000D01*
X196754000Y-105658000D01*
X196739297Y-105657278D01*
X196724736Y-105655118D01*
X196710457Y-105651541D01*
X196696597Y-105646582D01*
X196683290Y-105640288D01*
X196670664Y-105632720D01*
X196658841Y-105623952D01*
X196647934Y-105614066D01*
X196638048Y-105603159D01*
X196629280Y-105591336D01*
X196621712Y-105578710D01*
X196615418Y-105565403D01*
X196610459Y-105551543D01*
X196606882Y-105537264D01*
X196604722Y-105522703D01*
X196604000Y-105508000D01*
X196604000Y-105208000D01*
X196604722Y-105193297D01*
X196606882Y-105178736D01*
X196610459Y-105164457D01*
X196615418Y-105150597D01*
X196621712Y-105137290D01*
X196629280Y-105124664D01*
X196638048Y-105112841D01*
X196647934Y-105101934D01*
X196658841Y-105092048D01*
X196670664Y-105083280D01*
X196683290Y-105075712D01*
X196696597Y-105069418D01*
X196710457Y-105064459D01*
X196724736Y-105060882D01*
X196739297Y-105058722D01*
X196754000Y-105058000D01*
X198404000Y-105058000D01*
X198418703Y-105058722D01*
G37*
G36*
X198418703Y-106328722D02*
G01*
X198433264Y-106330882D01*
X198447543Y-106334459D01*
X198461403Y-106339418D01*
X198474710Y-106345712D01*
X198487336Y-106353280D01*
X198499159Y-106362048D01*
X198510066Y-106371934D01*
X198519952Y-106382841D01*
X198528720Y-106394664D01*
X198536288Y-106407290D01*
X198542582Y-106420597D01*
X198547541Y-106434457D01*
X198551118Y-106448736D01*
X198553278Y-106463297D01*
X198554000Y-106478000D01*
X198554000Y-106778000D01*
X198553278Y-106792703D01*
X198551118Y-106807264D01*
X198547541Y-106821543D01*
X198542582Y-106835403D01*
X198536288Y-106848710D01*
X198528720Y-106861336D01*
X198519952Y-106873159D01*
X198510066Y-106884066D01*
X198499159Y-106893952D01*
X198487336Y-106902720D01*
X198474710Y-106910288D01*
X198461403Y-106916582D01*
X198447543Y-106921541D01*
X198433264Y-106925118D01*
X198418703Y-106927278D01*
X198404000Y-106928000D01*
X196754000Y-106928000D01*
X196739297Y-106927278D01*
X196724736Y-106925118D01*
X196710457Y-106921541D01*
X196696597Y-106916582D01*
X196683290Y-106910288D01*
X196670664Y-106902720D01*
X196658841Y-106893952D01*
X196647934Y-106884066D01*
X196638048Y-106873159D01*
X196629280Y-106861336D01*
X196621712Y-106848710D01*
X196615418Y-106835403D01*
X196610459Y-106821543D01*
X196606882Y-106807264D01*
X196604722Y-106792703D01*
X196604000Y-106778000D01*
X196604000Y-106478000D01*
X196604722Y-106463297D01*
X196606882Y-106448736D01*
X196610459Y-106434457D01*
X196615418Y-106420597D01*
X196621712Y-106407290D01*
X196629280Y-106394664D01*
X196638048Y-106382841D01*
X196647934Y-106371934D01*
X196658841Y-106362048D01*
X196670664Y-106353280D01*
X196683290Y-106345712D01*
X196696597Y-106339418D01*
X196710457Y-106334459D01*
X196724736Y-106330882D01*
X196739297Y-106328722D01*
X196754000Y-106328000D01*
X198404000Y-106328000D01*
X198418703Y-106328722D01*
G37*
G36*
X198418703Y-107598722D02*
G01*
X198433264Y-107600882D01*
X198447543Y-107604459D01*
X198461403Y-107609418D01*
X198474710Y-107615712D01*
X198487336Y-107623280D01*
X198499159Y-107632048D01*
X198510066Y-107641934D01*
X198519952Y-107652841D01*
X198528720Y-107664664D01*
X198536288Y-107677290D01*
X198542582Y-107690597D01*
X198547541Y-107704457D01*
X198551118Y-107718736D01*
X198553278Y-107733297D01*
X198554000Y-107748000D01*
X198554000Y-108048000D01*
X198553278Y-108062703D01*
X198551118Y-108077264D01*
X198547541Y-108091543D01*
X198542582Y-108105403D01*
X198536288Y-108118710D01*
X198528720Y-108131336D01*
X198519952Y-108143159D01*
X198510066Y-108154066D01*
X198499159Y-108163952D01*
X198487336Y-108172720D01*
X198474710Y-108180288D01*
X198461403Y-108186582D01*
X198447543Y-108191541D01*
X198433264Y-108195118D01*
X198418703Y-108197278D01*
X198404000Y-108198000D01*
X196754000Y-108198000D01*
X196739297Y-108197278D01*
X196724736Y-108195118D01*
X196710457Y-108191541D01*
X196696597Y-108186582D01*
X196683290Y-108180288D01*
X196670664Y-108172720D01*
X196658841Y-108163952D01*
X196647934Y-108154066D01*
X196638048Y-108143159D01*
X196629280Y-108131336D01*
X196621712Y-108118710D01*
X196615418Y-108105403D01*
X196610459Y-108091543D01*
X196606882Y-108077264D01*
X196604722Y-108062703D01*
X196604000Y-108048000D01*
X196604000Y-107748000D01*
X196604722Y-107733297D01*
X196606882Y-107718736D01*
X196610459Y-107704457D01*
X196615418Y-107690597D01*
X196621712Y-107677290D01*
X196629280Y-107664664D01*
X196638048Y-107652841D01*
X196647934Y-107641934D01*
X196658841Y-107632048D01*
X196670664Y-107623280D01*
X196683290Y-107615712D01*
X196696597Y-107609418D01*
X196710457Y-107604459D01*
X196724736Y-107600882D01*
X196739297Y-107598722D01*
X196754000Y-107598000D01*
X198404000Y-107598000D01*
X198418703Y-107598722D01*
G37*
D32*
X218462000Y-105605000D03*
D30*
X225962000Y-113105000D03*
X225962000Y-111835000D03*
X225962000Y-110565000D03*
X225962000Y-109295000D03*
X225962000Y-108025000D03*
X225962000Y-106755000D03*
X225962000Y-105485000D03*
X225962000Y-104215000D03*
X225962000Y-102945000D03*
X225962000Y-101675000D03*
X225962000Y-100405000D03*
X225962000Y-99135000D03*
X225962000Y-97865000D03*
X225962000Y-96595000D03*
D31*
X223177000Y-95595000D03*
X221907000Y-95595000D03*
X220637000Y-95595000D03*
X219367000Y-95595000D03*
X218097000Y-95595000D03*
X216827000Y-95595000D03*
X215557000Y-95595000D03*
X214287000Y-95595000D03*
X213017000Y-95595000D03*
X211747000Y-95595000D03*
D30*
X208962000Y-96595000D03*
X208962000Y-97865000D03*
X208962000Y-99135000D03*
X208962000Y-100405000D03*
X208962000Y-101675000D03*
X208962000Y-102945000D03*
X208962000Y-104215000D03*
X208962000Y-105485000D03*
X208962000Y-106755000D03*
X208962000Y-108025000D03*
X208962000Y-109295000D03*
X208962000Y-110565000D03*
X208962000Y-111835000D03*
X208962000Y-113105000D03*
D37*
X194687816Y-33275000D03*
X193229293Y-33275000D03*
X191770770Y-33275000D03*
X190312247Y-33275000D03*
X234687765Y-33275000D03*
X233229251Y-33275000D03*
X231770737Y-33275000D03*
X230312223Y-33275000D03*
X246250000Y-40212750D03*
X246250000Y-38754251D03*
X246250000Y-37295752D03*
X246250000Y-35837253D03*
X246250000Y-66212765D03*
X246250000Y-64754263D03*
X246250000Y-63295761D03*
X246250000Y-61837259D03*
X263685000Y-93212748D03*
X263685000Y-91754246D03*
X263685000Y-90295744D03*
X263685000Y-88837242D03*
X263685000Y-110212746D03*
X263685000Y-108754238D03*
X263685000Y-107295730D03*
X263685000Y-105837222D03*
X253312230Y-120475000D03*
X254770740Y-120475000D03*
X256229250Y-120475000D03*
X257687760Y-120475000D03*
X191312249Y-120475000D03*
X192770762Y-120475000D03*
X194229275Y-120475000D03*
X195687788Y-120475000D03*
X170312230Y-126775000D03*
X171770733Y-126775000D03*
X173229236Y-126775000D03*
X174687739Y-126775000D03*
X149312252Y-126775000D03*
X150770751Y-126775000D03*
X152229250Y-126775000D03*
X153687749Y-126775000D03*
X121312306Y-131199999D03*
X122770785Y-131199999D03*
X124229264Y-131199999D03*
X125687743Y-131199999D03*
X46312260Y-131200000D03*
X47770752Y-131200000D03*
X49229244Y-131200000D03*
X50687736Y-131200000D03*
X36750000Y-119837239D03*
X36750000Y-121295742D03*
X36750000Y-122754245D03*
X36750000Y-124212748D03*
X36750000Y-41837251D03*
X36750000Y-43295750D03*
X36750000Y-44754249D03*
X36750000Y-46212748D03*
X47687850Y-33275000D03*
X46229318Y-33275000D03*
X44770786Y-33275000D03*
X43312254Y-33275000D03*
X126687742Y-33275001D03*
X125229238Y-33275001D03*
X123770734Y-33275001D03*
X122312230Y-33275001D03*
X173687741Y-33275000D03*
X172229243Y-33275000D03*
X170770745Y-33275000D03*
X169312247Y-33275000D03*
X152687749Y-33275000D03*
X151229251Y-33275000D03*
X149770753Y-33275000D03*
X148312255Y-33275000D03*
X183250000Y-47212749D03*
X183250000Y-45754251D03*
X183250000Y-44295753D03*
X183250000Y-42837255D03*
X187750000Y-42837259D03*
X187750000Y-44295757D03*
X187750000Y-45754255D03*
X187750000Y-47212753D03*
X183250000Y-67212748D03*
X183250000Y-65754246D03*
X183250000Y-64295744D03*
X183250000Y-62837242D03*
X187750000Y-62837242D03*
X187750000Y-64295744D03*
X187750000Y-65754246D03*
X187750000Y-67212748D03*
X232312201Y-77775000D03*
X233770713Y-77775000D03*
X235229225Y-77775000D03*
X236687737Y-77775000D03*
X236687737Y-82875001D03*
X235229244Y-82875001D03*
X233770751Y-82875001D03*
X232312258Y-82875001D03*
X199312235Y-77775000D03*
X200770741Y-77775000D03*
X202229247Y-77775000D03*
X203687753Y-77775000D03*
X203687760Y-82875000D03*
X202229259Y-82875000D03*
X200770758Y-82875000D03*
X199312257Y-82875000D03*
X183250000Y-116212748D03*
X183250000Y-114754252D03*
X183250000Y-113295756D03*
X183250000Y-111837260D03*
X187350000Y-111837260D03*
X187350000Y-113295761D03*
X187350000Y-114754262D03*
X187350000Y-116212763D03*
X183250000Y-99212768D03*
X183250000Y-97754257D03*
X183250000Y-96295746D03*
X183250000Y-94837235D03*
X187350000Y-94837265D03*
X187350000Y-96295754D03*
X187350000Y-97754243D03*
X187350000Y-99212732D03*
X172687748Y-82275000D03*
X171229252Y-82275000D03*
X169770756Y-82275000D03*
X168312260Y-82275000D03*
X168312250Y-77775000D03*
X169770746Y-77775000D03*
X171229242Y-77775000D03*
X172687738Y-77775000D03*
X147312252Y-77775000D03*
X148770754Y-77775000D03*
X150229256Y-77775000D03*
X151687758Y-77775000D03*
X151687748Y-82275000D03*
X150229246Y-82275000D03*
X148770744Y-82275000D03*
X147312242Y-82275000D03*
X134674999Y-117212757D03*
X134674999Y-115754264D03*
X134674999Y-114295771D03*
X134674999Y-112837278D03*
X138750000Y-112837251D03*
X138750000Y-114295749D03*
X138750000Y-115754247D03*
X138750000Y-117212745D03*
X134674999Y-96212749D03*
X134674999Y-94754272D03*
X134674999Y-93295795D03*
X134674999Y-91837318D03*
X138750000Y-91837259D03*
X138750000Y-93295757D03*
X138750000Y-94754255D03*
X138750000Y-96212753D03*
X138750000Y-63837251D03*
X138750000Y-65295749D03*
X138750000Y-66754247D03*
X138750000Y-68212745D03*
X134675000Y-68212778D03*
X134675000Y-66754269D03*
X134675000Y-65295760D03*
X134675000Y-63837251D03*
X134675000Y-47212749D03*
X134675000Y-45754251D03*
X134675000Y-44295753D03*
X134675000Y-42837255D03*
X138750000Y-42837259D03*
X138750000Y-44295757D03*
X138750000Y-45754255D03*
X138750000Y-47212753D03*
M02*
