G04 #@! TF.GenerationSoftware,KiCad,Pcbnew,(5.1.5-0-10_14)*
G04 #@! TF.CreationDate,2020-07-31T02:19:59+02:00*
G04 #@! TF.ProjectId,output.Panel,6f757470-7574-42e5-9061-6e656c2e6b69,rev?*
G04 #@! TF.SameCoordinates,Original*
G04 #@! TF.FileFunction,Profile,NP*
%FSLAX46Y46*%
G04 Gerber Fmt 4.6, Leading zero omitted, Abs format (unit mm)*
G04 Created by KiCad (PCBNEW (5.1.5-0-10_14)) date 2020-07-31 02:19:59*
%MOMM*%
%LPD*%
G04 APERTURE LIST*
%ADD10C,0.100000*%
G04 APERTURE END LIST*
D10*
X271500000Y-25025000D02*
X28500000Y-25025000D01*
X271500000Y-139025000D02*
X271500000Y-25025000D01*
X28500000Y-139025000D02*
X271500000Y-139025000D01*
X28500000Y-25025000D02*
X28500000Y-139025000D01*
X267500000Y-80025000D02*
X249500000Y-80025000D01*
X186500000Y-130025000D02*
X186500000Y-124025000D01*
X137500000Y-135025000D02*
X137500000Y-130025000D01*
X190000000Y-33025000D02*
X187500000Y-33025000D01*
X190000122Y-30025000D02*
X190099826Y-30032687D01*
X190000000Y-33025000D02*
X190099704Y-33017313D01*
X190099826Y-30032687D02*
X190198644Y-30048015D01*
X190099704Y-33017313D02*
X190198522Y-33001985D01*
X190198644Y-30048015D02*
X190295991Y-30070893D01*
X190198522Y-33001985D02*
X190295869Y-32979107D01*
X190295991Y-30070893D02*
X190391291Y-30101186D01*
X190295869Y-32979107D02*
X190391169Y-32948814D01*
X190391291Y-30101186D02*
X190483981Y-30138715D01*
X190391169Y-32948814D02*
X190483859Y-32911285D01*
X190483981Y-30138715D02*
X190573512Y-30183258D01*
X190483859Y-32911285D02*
X190573390Y-32866742D01*
X190573512Y-30183258D02*
X190659354Y-30234551D01*
X190573390Y-32866742D02*
X190659232Y-32815449D01*
X190659354Y-30234551D02*
X190740999Y-30292291D01*
X190659232Y-32815449D02*
X190740877Y-32757709D01*
X190740999Y-30292291D02*
X190817964Y-30356136D01*
X190740877Y-32757709D02*
X190817842Y-32693864D01*
X190817964Y-30356136D02*
X190889794Y-30425708D01*
X190817842Y-32693864D02*
X190889672Y-32624292D01*
X190889794Y-30425708D02*
X190956064Y-30500595D01*
X190889672Y-32624292D02*
X190955942Y-32549405D01*
X190956064Y-30500595D02*
X191016382Y-30580354D01*
X190955942Y-32549405D02*
X191016260Y-32469646D01*
X191016382Y-30580354D02*
X191070391Y-30664513D01*
X191016260Y-32469646D02*
X191070269Y-32385487D01*
X191070391Y-30664513D02*
X191117771Y-30752574D01*
X191070269Y-32385487D02*
X191117649Y-32297426D01*
X191117771Y-30752574D02*
X191158242Y-30844016D01*
X191117649Y-32297426D02*
X191158120Y-32205984D01*
X191158242Y-30844016D02*
X191191564Y-30938298D01*
X191158120Y-32205984D02*
X191191442Y-32111702D01*
X191191564Y-30938298D02*
X191217540Y-31034862D01*
X191191442Y-32111702D02*
X191217418Y-32015138D01*
X191217540Y-31034862D02*
X191236017Y-31133137D01*
X191217418Y-32015138D02*
X191235895Y-31916863D01*
X191236017Y-31133137D02*
X191246885Y-31232542D01*
X191235895Y-31916863D02*
X191246763Y-31817458D01*
X191246885Y-31232542D02*
X191250080Y-31332488D01*
X191246763Y-31817458D02*
X191249958Y-31717512D01*
X191250080Y-31332488D02*
X191249958Y-31717512D01*
X195000020Y-30025000D02*
X194900316Y-30032687D01*
X195000065Y-33025000D02*
X194900361Y-33017313D01*
X194900316Y-30032687D02*
X194801498Y-30048015D01*
X194900361Y-33017313D02*
X194801543Y-33001985D01*
X194801498Y-30048015D02*
X194704151Y-30070893D01*
X194801543Y-33001985D02*
X194704196Y-32979107D01*
X194704151Y-30070893D02*
X194608851Y-30101186D01*
X194704196Y-32979107D02*
X194608896Y-32948814D01*
X194608851Y-30101186D02*
X194516161Y-30138715D01*
X194608896Y-32948814D02*
X194516206Y-32911285D01*
X194516161Y-30138715D02*
X194426630Y-30183258D01*
X194516206Y-32911285D02*
X194426675Y-32866742D01*
X194426630Y-30183258D02*
X194340788Y-30234551D01*
X194426675Y-32866742D02*
X194340833Y-32815449D01*
X194340788Y-30234551D02*
X194259143Y-30292291D01*
X194340833Y-32815449D02*
X194259188Y-32757709D01*
X194259143Y-30292291D02*
X194182178Y-30356136D01*
X194259188Y-32757709D02*
X194182223Y-32693864D01*
X194182178Y-30356136D02*
X194110348Y-30425708D01*
X194182223Y-32693864D02*
X194110393Y-32624292D01*
X194110348Y-30425708D02*
X194044078Y-30500595D01*
X194110393Y-32624292D02*
X194044123Y-32549405D01*
X194044078Y-30500595D02*
X193983760Y-30580354D01*
X194044123Y-32549405D02*
X193983805Y-32469646D01*
X193983760Y-30580354D02*
X193929751Y-30664513D01*
X193983805Y-32469646D02*
X193929796Y-32385487D01*
X193929751Y-30664513D02*
X193882371Y-30752574D01*
X193929796Y-32385487D02*
X193882416Y-32297426D01*
X193882371Y-30752574D02*
X193841900Y-30844016D01*
X193882416Y-32297426D02*
X193841945Y-32205984D01*
X193841900Y-30844016D02*
X193808578Y-30938298D01*
X193841945Y-32205984D02*
X193808623Y-32111702D01*
X193808578Y-30938298D02*
X193782602Y-31034862D01*
X193808623Y-32111702D02*
X193782647Y-32015138D01*
X193782602Y-31034862D02*
X193764125Y-31133137D01*
X193782647Y-32015138D02*
X193764170Y-31916863D01*
X193764125Y-31133137D02*
X193753257Y-31232542D01*
X193764170Y-31916863D02*
X193753302Y-31817458D01*
X193753257Y-31232542D02*
X193750062Y-31332488D01*
X193753302Y-31817458D02*
X193750107Y-31717512D01*
X193750062Y-31332488D02*
X193750107Y-31717512D01*
X229999972Y-33025000D02*
X195000065Y-33025000D01*
X235000015Y-33025000D02*
X246500000Y-33025000D01*
X229999970Y-30025000D02*
X195000020Y-30025000D01*
X235000020Y-30025000D02*
X249500000Y-30025000D01*
X235000015Y-33025000D02*
X234900311Y-33017313D01*
X235000020Y-30025000D02*
X234900316Y-30032687D01*
X234900311Y-33017313D02*
X234801493Y-33001985D01*
X234900316Y-30032687D02*
X234801498Y-30048015D01*
X234801493Y-33001985D02*
X234704146Y-32979107D01*
X234801498Y-30048015D02*
X234704151Y-30070893D01*
X234704146Y-32979107D02*
X234608846Y-32948814D01*
X234704151Y-30070893D02*
X234608851Y-30101186D01*
X234608846Y-32948814D02*
X234516156Y-32911285D01*
X234608851Y-30101186D02*
X234516161Y-30138715D01*
X234516156Y-32911285D02*
X234426625Y-32866742D01*
X234516161Y-30138715D02*
X234426630Y-30183258D01*
X234426625Y-32866742D02*
X234340783Y-32815449D01*
X234426630Y-30183258D02*
X234340788Y-30234551D01*
X234340783Y-32815449D02*
X234259138Y-32757709D01*
X234340788Y-30234551D02*
X234259143Y-30292291D01*
X234259138Y-32757709D02*
X234182173Y-32693864D01*
X234259143Y-30292291D02*
X234182178Y-30356136D01*
X234182173Y-32693864D02*
X234110343Y-32624292D01*
X234182178Y-30356136D02*
X234110348Y-30425708D01*
X234110343Y-32624292D02*
X234044073Y-32549405D01*
X234110348Y-30425708D02*
X234044078Y-30500595D01*
X234044073Y-32549405D02*
X233983755Y-32469646D01*
X234044078Y-30500595D02*
X233983760Y-30580354D01*
X233983755Y-32469646D02*
X233929746Y-32385487D01*
X233983760Y-30580354D02*
X233929751Y-30664513D01*
X233929746Y-32385487D02*
X233882366Y-32297426D01*
X233929751Y-30664513D02*
X233882371Y-30752574D01*
X233882366Y-32297426D02*
X233841895Y-32205984D01*
X233882371Y-30752574D02*
X233841900Y-30844016D01*
X233841895Y-32205984D02*
X233808573Y-32111702D01*
X233841900Y-30844016D02*
X233808578Y-30938298D01*
X233808573Y-32111702D02*
X233782597Y-32015138D01*
X233808578Y-30938298D02*
X233782602Y-31034862D01*
X233782597Y-32015138D02*
X233764120Y-31916863D01*
X233782602Y-31034862D02*
X233764125Y-31133137D01*
X233764120Y-31916863D02*
X233753252Y-31817458D01*
X233764125Y-31133137D02*
X233753257Y-31232542D01*
X233753252Y-31817458D02*
X233750057Y-31717512D01*
X233753257Y-31232542D02*
X233750062Y-31332488D01*
X233750057Y-31717512D02*
X233750062Y-31332488D01*
X229999972Y-33025000D02*
X230099676Y-33017313D01*
X229999970Y-30025000D02*
X230099674Y-30032687D01*
X230099676Y-33017313D02*
X230198494Y-33001985D01*
X230099674Y-30032687D02*
X230198492Y-30048015D01*
X230198494Y-33001985D02*
X230295841Y-32979107D01*
X230198492Y-30048015D02*
X230295839Y-30070893D01*
X230295841Y-32979107D02*
X230391141Y-32948814D01*
X230295839Y-30070893D02*
X230391139Y-30101186D01*
X230391141Y-32948814D02*
X230483831Y-32911285D01*
X230391139Y-30101186D02*
X230483829Y-30138715D01*
X230483831Y-32911285D02*
X230573362Y-32866742D01*
X230483829Y-30138715D02*
X230573360Y-30183258D01*
X230573362Y-32866742D02*
X230659204Y-32815449D01*
X230573360Y-30183258D02*
X230659202Y-30234551D01*
X230659204Y-32815449D02*
X230740849Y-32757709D01*
X230659202Y-30234551D02*
X230740847Y-30292291D01*
X230740849Y-32757709D02*
X230817814Y-32693864D01*
X230740847Y-30292291D02*
X230817812Y-30356136D01*
X230817814Y-32693864D02*
X230889644Y-32624292D01*
X230817812Y-30356136D02*
X230889642Y-30425708D01*
X230889644Y-32624292D02*
X230955914Y-32549405D01*
X230889642Y-30425708D02*
X230955912Y-30500595D01*
X230955914Y-32549405D02*
X231016232Y-32469646D01*
X230955912Y-30500595D02*
X231016230Y-30580354D01*
X231016232Y-32469646D02*
X231070241Y-32385487D01*
X231016230Y-30580354D02*
X231070239Y-30664513D01*
X231070241Y-32385487D02*
X231117621Y-32297426D01*
X231070239Y-30664513D02*
X231117619Y-30752574D01*
X231117621Y-32297426D02*
X231158092Y-32205984D01*
X231117619Y-30752574D02*
X231158090Y-30844016D01*
X231158092Y-32205984D02*
X231191414Y-32111702D01*
X231158090Y-30844016D02*
X231191412Y-30938298D01*
X231191414Y-32111702D02*
X231217390Y-32015138D01*
X231191412Y-30938298D02*
X231217388Y-31034862D01*
X231217390Y-32015138D02*
X231235867Y-31916863D01*
X231217388Y-31034862D02*
X231235865Y-31133137D01*
X231235867Y-31916863D02*
X231246735Y-31817458D01*
X231235865Y-31133137D02*
X231246733Y-31232542D01*
X231246735Y-31817458D02*
X231249930Y-31717512D01*
X231246733Y-31232542D02*
X231249928Y-31332488D01*
X231249930Y-31717512D02*
X231249928Y-31332488D01*
X249500000Y-35525000D02*
X249500000Y-30025000D01*
X246500000Y-35525000D02*
X246500000Y-33025000D01*
X246500000Y-35525000D02*
X246507687Y-35624704D01*
X249500000Y-35525000D02*
X249492313Y-35624704D01*
X246507687Y-35624704D02*
X246523015Y-35723522D01*
X249492313Y-35624704D02*
X249476985Y-35723522D01*
X246523015Y-35723522D02*
X246545893Y-35820869D01*
X249476985Y-35723522D02*
X249454107Y-35820869D01*
X246545893Y-35820869D02*
X246576186Y-35916169D01*
X249454107Y-35820869D02*
X249423814Y-35916169D01*
X246576186Y-35916169D02*
X246613715Y-36008859D01*
X249423814Y-35916169D02*
X249386285Y-36008859D01*
X246613715Y-36008859D02*
X246658258Y-36098390D01*
X249386285Y-36008859D02*
X249341742Y-36098390D01*
X246658258Y-36098390D02*
X246709551Y-36184232D01*
X249341742Y-36098390D02*
X249290449Y-36184232D01*
X246709551Y-36184232D02*
X246767291Y-36265877D01*
X249290449Y-36184232D02*
X249232709Y-36265877D01*
X246767291Y-36265877D02*
X246831136Y-36342842D01*
X249232709Y-36265877D02*
X249168864Y-36342842D01*
X246831136Y-36342842D02*
X246900708Y-36414672D01*
X249168864Y-36342842D02*
X249099292Y-36414672D01*
X246900708Y-36414672D02*
X246975595Y-36480942D01*
X249099292Y-36414672D02*
X249024405Y-36480942D01*
X246975595Y-36480942D02*
X247055354Y-36541260D01*
X249024405Y-36480942D02*
X248944646Y-36541260D01*
X247055354Y-36541260D02*
X247139513Y-36595269D01*
X248944646Y-36541260D02*
X248860487Y-36595269D01*
X247139513Y-36595269D02*
X247227574Y-36642649D01*
X248860487Y-36595269D02*
X248772426Y-36642649D01*
X247227574Y-36642649D02*
X247319016Y-36683120D01*
X248772426Y-36642649D02*
X248680984Y-36683120D01*
X247319016Y-36683120D02*
X247413298Y-36716442D01*
X248680984Y-36683120D02*
X248586702Y-36716442D01*
X247413298Y-36716442D02*
X247509862Y-36742418D01*
X248586702Y-36716442D02*
X248490138Y-36742418D01*
X247509862Y-36742418D02*
X247608137Y-36760895D01*
X248490138Y-36742418D02*
X248391863Y-36760895D01*
X247608137Y-36760895D02*
X247707542Y-36771763D01*
X248391863Y-36760895D02*
X248292458Y-36771763D01*
X247707542Y-36771763D02*
X247807488Y-36774958D01*
X248292458Y-36771763D02*
X248192512Y-36774958D01*
X248192512Y-36774958D02*
X247807488Y-36774958D01*
X246500000Y-40525000D02*
X246507687Y-40425296D01*
X249500000Y-40525050D02*
X249492313Y-40425346D01*
X246507687Y-40425296D02*
X246523015Y-40326478D01*
X249492313Y-40425346D02*
X249476985Y-40326528D01*
X246523015Y-40326478D02*
X246545893Y-40229131D01*
X249476985Y-40326528D02*
X249454107Y-40229181D01*
X246545893Y-40229131D02*
X246576186Y-40133831D01*
X249454107Y-40229181D02*
X249423814Y-40133881D01*
X246576186Y-40133831D02*
X246613715Y-40041141D01*
X249423814Y-40133881D02*
X249386285Y-40041191D01*
X246613715Y-40041141D02*
X246658258Y-39951610D01*
X249386285Y-40041191D02*
X249341742Y-39951660D01*
X246658258Y-39951610D02*
X246709551Y-39865768D01*
X249341742Y-39951660D02*
X249290449Y-39865818D01*
X246709551Y-39865768D02*
X246767291Y-39784123D01*
X249290449Y-39865818D02*
X249232709Y-39784173D01*
X246767291Y-39784123D02*
X246831136Y-39707158D01*
X249232709Y-39784173D02*
X249168864Y-39707208D01*
X246831136Y-39707158D02*
X246900708Y-39635328D01*
X249168864Y-39707208D02*
X249099292Y-39635378D01*
X246900708Y-39635328D02*
X246975595Y-39569058D01*
X249099292Y-39635378D02*
X249024405Y-39569108D01*
X246975595Y-39569058D02*
X247055354Y-39508740D01*
X249024405Y-39569108D02*
X248944646Y-39508790D01*
X247055354Y-39508740D02*
X247139513Y-39454731D01*
X248944646Y-39508790D02*
X248860487Y-39454781D01*
X247139513Y-39454731D02*
X247227574Y-39407351D01*
X248860487Y-39454781D02*
X248772426Y-39407401D01*
X247227574Y-39407351D02*
X247319016Y-39366880D01*
X248772426Y-39407401D02*
X248680984Y-39366930D01*
X247319016Y-39366880D02*
X247413298Y-39333558D01*
X248680984Y-39366930D02*
X248586702Y-39333608D01*
X247413298Y-39333558D02*
X247509862Y-39307582D01*
X248586702Y-39333608D02*
X248490138Y-39307632D01*
X247509862Y-39307582D02*
X247608137Y-39289105D01*
X248490138Y-39307632D02*
X248391863Y-39289155D01*
X247608137Y-39289105D02*
X247707542Y-39278237D01*
X248391863Y-39289155D02*
X248292458Y-39278287D01*
X247707542Y-39278237D02*
X247807488Y-39275042D01*
X248292458Y-39278287D02*
X248192512Y-39275092D01*
X248192512Y-39275092D02*
X247807488Y-39275042D01*
X249500000Y-61525017D02*
X249500000Y-40525050D01*
X249500000Y-66525000D02*
X249500000Y-80025000D01*
X246500000Y-61525010D02*
X246500000Y-40525000D01*
X246500000Y-66525015D02*
X246500000Y-78025000D01*
X249500000Y-61525017D02*
X249492313Y-61624721D01*
X246500000Y-61525010D02*
X246507687Y-61624714D01*
X249492313Y-61624721D02*
X249476985Y-61723539D01*
X246507687Y-61624714D02*
X246523015Y-61723532D01*
X249476985Y-61723539D02*
X249454107Y-61820886D01*
X246523015Y-61723532D02*
X246545893Y-61820879D01*
X249454107Y-61820886D02*
X249423814Y-61916186D01*
X246545893Y-61820879D02*
X246576186Y-61916179D01*
X249423814Y-61916186D02*
X249386285Y-62008876D01*
X246576186Y-61916179D02*
X246613715Y-62008869D01*
X249386285Y-62008876D02*
X249341742Y-62098407D01*
X246613715Y-62008869D02*
X246658258Y-62098400D01*
X249341742Y-62098407D02*
X249290449Y-62184249D01*
X246658258Y-62098400D02*
X246709551Y-62184242D01*
X249290449Y-62184249D02*
X249232709Y-62265894D01*
X246709551Y-62184242D02*
X246767291Y-62265887D01*
X249232709Y-62265894D02*
X249168864Y-62342859D01*
X246767291Y-62265887D02*
X246831136Y-62342852D01*
X249168864Y-62342859D02*
X249099292Y-62414689D01*
X246831136Y-62342852D02*
X246900708Y-62414682D01*
X249099292Y-62414689D02*
X249024405Y-62480959D01*
X246900708Y-62414682D02*
X246975595Y-62480952D01*
X249024405Y-62480959D02*
X248944646Y-62541277D01*
X246975595Y-62480952D02*
X247055354Y-62541270D01*
X248944646Y-62541277D02*
X248860487Y-62595286D01*
X247055354Y-62541270D02*
X247139513Y-62595279D01*
X248860487Y-62595286D02*
X248772426Y-62642666D01*
X247139513Y-62595279D02*
X247227574Y-62642659D01*
X248772426Y-62642666D02*
X248680984Y-62683137D01*
X247227574Y-62642659D02*
X247319016Y-62683130D01*
X248680984Y-62683137D02*
X248586702Y-62716459D01*
X247319016Y-62683130D02*
X247413298Y-62716452D01*
X248586702Y-62716459D02*
X248490138Y-62742435D01*
X247413298Y-62716452D02*
X247509862Y-62742428D01*
X248490138Y-62742435D02*
X248391863Y-62760912D01*
X247509862Y-62742428D02*
X247608137Y-62760905D01*
X248391863Y-62760912D02*
X248292458Y-62771780D01*
X247608137Y-62760905D02*
X247707542Y-62771773D01*
X248292458Y-62771780D02*
X248192512Y-62774975D01*
X247707542Y-62771773D02*
X247807488Y-62774968D01*
X248192512Y-62774975D02*
X247807488Y-62774968D01*
X249500000Y-66525000D02*
X249492313Y-66425296D01*
X246500000Y-66525015D02*
X246507687Y-66425311D01*
X249492313Y-66425296D02*
X249476985Y-66326478D01*
X246507687Y-66425311D02*
X246523015Y-66326493D01*
X249476985Y-66326478D02*
X249454107Y-66229131D01*
X246523015Y-66326493D02*
X246545893Y-66229146D01*
X249454107Y-66229131D02*
X249423814Y-66133831D01*
X246545893Y-66229146D02*
X246576186Y-66133846D01*
X249423814Y-66133831D02*
X249386285Y-66041141D01*
X246576186Y-66133846D02*
X246613715Y-66041156D01*
X249386285Y-66041141D02*
X249341742Y-65951610D01*
X246613715Y-66041156D02*
X246658258Y-65951625D01*
X249341742Y-65951610D02*
X249290449Y-65865768D01*
X246658258Y-65951625D02*
X246709551Y-65865783D01*
X249290449Y-65865768D02*
X249232709Y-65784123D01*
X246709551Y-65865783D02*
X246767291Y-65784138D01*
X249232709Y-65784123D02*
X249168864Y-65707158D01*
X246767291Y-65784138D02*
X246831136Y-65707173D01*
X249168864Y-65707158D02*
X249099292Y-65635328D01*
X246831136Y-65707173D02*
X246900708Y-65635343D01*
X249099292Y-65635328D02*
X249024405Y-65569058D01*
X246900708Y-65635343D02*
X246975595Y-65569073D01*
X249024405Y-65569058D02*
X248944646Y-65508740D01*
X246975595Y-65569073D02*
X247055354Y-65508755D01*
X248944646Y-65508740D02*
X248860487Y-65454731D01*
X247055354Y-65508755D02*
X247139513Y-65454746D01*
X248860487Y-65454731D02*
X248772426Y-65407351D01*
X247139513Y-65454746D02*
X247227574Y-65407366D01*
X248772426Y-65407351D02*
X248680984Y-65366880D01*
X247227574Y-65407366D02*
X247319016Y-65366895D01*
X248680984Y-65366880D02*
X248586702Y-65333558D01*
X247319016Y-65366895D02*
X247413298Y-65333573D01*
X248586702Y-65333558D02*
X248490138Y-65307582D01*
X247413298Y-65333573D02*
X247509862Y-65307597D01*
X248490138Y-65307582D02*
X248391863Y-65289105D01*
X247509862Y-65307597D02*
X247608137Y-65289120D01*
X248391863Y-65289105D02*
X248292458Y-65278237D01*
X247608137Y-65289120D02*
X247707542Y-65278252D01*
X248292458Y-65278237D02*
X248192512Y-65275042D01*
X247707542Y-65278252D02*
X247807488Y-65275057D01*
X248192512Y-65275042D02*
X247807488Y-65275057D01*
X267500000Y-88525002D02*
X267500000Y-80025000D01*
X263935000Y-88524992D02*
X263935000Y-82625000D01*
X267500000Y-88525002D02*
X267492313Y-88624706D01*
X263935000Y-88524992D02*
X263942687Y-88624696D01*
X267492313Y-88624706D02*
X267476985Y-88723524D01*
X263942687Y-88624696D02*
X263958015Y-88723514D01*
X267476985Y-88723524D02*
X267454107Y-88820871D01*
X263958015Y-88723514D02*
X263980893Y-88820861D01*
X267454107Y-88820871D02*
X267423814Y-88916171D01*
X263980893Y-88820861D02*
X264011186Y-88916161D01*
X267423814Y-88916171D02*
X267386285Y-89008861D01*
X264011186Y-88916161D02*
X264048715Y-89008851D01*
X267386285Y-89008861D02*
X267341742Y-89098392D01*
X264048715Y-89008851D02*
X264093258Y-89098382D01*
X267341742Y-89098392D02*
X267290449Y-89184234D01*
X264093258Y-89098382D02*
X264144551Y-89184224D01*
X267290449Y-89184234D02*
X267232709Y-89265879D01*
X264144551Y-89184224D02*
X264202291Y-89265869D01*
X267232709Y-89265879D02*
X267168864Y-89342844D01*
X264202291Y-89265869D02*
X264266136Y-89342834D01*
X267168864Y-89342844D02*
X267099292Y-89414674D01*
X264266136Y-89342834D02*
X264335708Y-89414664D01*
X267099292Y-89414674D02*
X267024405Y-89480944D01*
X264335708Y-89414664D02*
X264410595Y-89480934D01*
X267024405Y-89480944D02*
X266944646Y-89541262D01*
X264410595Y-89480934D02*
X264490354Y-89541252D01*
X266944646Y-89541262D02*
X266860487Y-89595271D01*
X264490354Y-89541252D02*
X264574513Y-89595261D01*
X266860487Y-89595271D02*
X266772426Y-89642651D01*
X264574513Y-89595261D02*
X264662574Y-89642641D01*
X266772426Y-89642651D02*
X266680984Y-89683122D01*
X264662574Y-89642641D02*
X264754016Y-89683112D01*
X266680984Y-89683122D02*
X266586702Y-89716444D01*
X264754016Y-89683112D02*
X264848298Y-89716434D01*
X266586702Y-89716444D02*
X266490138Y-89742420D01*
X264848298Y-89716434D02*
X264944862Y-89742410D01*
X266490138Y-89742420D02*
X266391863Y-89760897D01*
X264944862Y-89742410D02*
X265043137Y-89760887D01*
X266391863Y-89760897D02*
X266292458Y-89771765D01*
X265043137Y-89760887D02*
X265142542Y-89771755D01*
X266292458Y-89771765D02*
X266192512Y-89774960D01*
X265142542Y-89771755D02*
X265242488Y-89774950D01*
X266192512Y-89774960D02*
X265242488Y-89774950D01*
X263935000Y-93524998D02*
X263942687Y-93425294D01*
X267500000Y-93524998D02*
X267492313Y-93425294D01*
X263942687Y-93425294D02*
X263958015Y-93326476D01*
X267492313Y-93425294D02*
X267476985Y-93326476D01*
X263958015Y-93326476D02*
X263980893Y-93229129D01*
X267476985Y-93326476D02*
X267454107Y-93229129D01*
X263980893Y-93229129D02*
X264011186Y-93133829D01*
X267454107Y-93229129D02*
X267423814Y-93133829D01*
X264011186Y-93133829D02*
X264048715Y-93041139D01*
X267423814Y-93133829D02*
X267386285Y-93041139D01*
X264048715Y-93041139D02*
X264093258Y-92951608D01*
X267386285Y-93041139D02*
X267341742Y-92951608D01*
X264093258Y-92951608D02*
X264144551Y-92865766D01*
X267341742Y-92951608D02*
X267290449Y-92865766D01*
X264144551Y-92865766D02*
X264202291Y-92784121D01*
X267290449Y-92865766D02*
X267232709Y-92784121D01*
X264202291Y-92784121D02*
X264266136Y-92707156D01*
X267232709Y-92784121D02*
X267168864Y-92707156D01*
X264266136Y-92707156D02*
X264335708Y-92635326D01*
X267168864Y-92707156D02*
X267099292Y-92635326D01*
X264335708Y-92635326D02*
X264410595Y-92569056D01*
X267099292Y-92635326D02*
X267024405Y-92569056D01*
X264410595Y-92569056D02*
X264490354Y-92508738D01*
X267024405Y-92569056D02*
X266944646Y-92508738D01*
X264490354Y-92508738D02*
X264574513Y-92454729D01*
X266944646Y-92508738D02*
X266860487Y-92454729D01*
X264574513Y-92454729D02*
X264662574Y-92407349D01*
X266860487Y-92454729D02*
X266772426Y-92407349D01*
X264662574Y-92407349D02*
X264754016Y-92366878D01*
X266772426Y-92407349D02*
X266680984Y-92366878D01*
X264754016Y-92366878D02*
X264848298Y-92333556D01*
X266680984Y-92366878D02*
X266586702Y-92333556D01*
X264848298Y-92333556D02*
X264944862Y-92307580D01*
X266586702Y-92333556D02*
X266490138Y-92307580D01*
X264944862Y-92307580D02*
X265043137Y-92289103D01*
X266490138Y-92307580D02*
X266391863Y-92289103D01*
X265043137Y-92289103D02*
X265142542Y-92278235D01*
X266391863Y-92289103D02*
X266292458Y-92278235D01*
X265142542Y-92278235D02*
X265242488Y-92275040D01*
X266292458Y-92278235D02*
X266192512Y-92275040D01*
X266192512Y-92275040D02*
X265242488Y-92275040D01*
X267500000Y-105524982D02*
X267500000Y-93524998D01*
X267500000Y-110525000D02*
X267500000Y-124025000D01*
X263935000Y-105524982D02*
X263935000Y-93524998D01*
X263935000Y-110524995D02*
X263935000Y-120725000D01*
X263935000Y-105524982D02*
X263942687Y-105624686D01*
X267500000Y-105524982D02*
X267492313Y-105624686D01*
X263942687Y-105624686D02*
X263958015Y-105723504D01*
X267492313Y-105624686D02*
X267476985Y-105723504D01*
X263958015Y-105723504D02*
X263980893Y-105820851D01*
X267476985Y-105723504D02*
X267454107Y-105820851D01*
X263980893Y-105820851D02*
X264011186Y-105916151D01*
X267454107Y-105820851D02*
X267423814Y-105916151D01*
X264011186Y-105916151D02*
X264048715Y-106008841D01*
X267423814Y-105916151D02*
X267386285Y-106008841D01*
X264048715Y-106008841D02*
X264093258Y-106098372D01*
X267386285Y-106008841D02*
X267341742Y-106098372D01*
X264093258Y-106098372D02*
X264144551Y-106184214D01*
X267341742Y-106098372D02*
X267290449Y-106184214D01*
X264144551Y-106184214D02*
X264202291Y-106265859D01*
X267290449Y-106184214D02*
X267232709Y-106265859D01*
X264202291Y-106265859D02*
X264266136Y-106342824D01*
X267232709Y-106265859D02*
X267168864Y-106342824D01*
X264266136Y-106342824D02*
X264335708Y-106414654D01*
X267168864Y-106342824D02*
X267099292Y-106414654D01*
X264335708Y-106414654D02*
X264410595Y-106480924D01*
X267099292Y-106414654D02*
X267024405Y-106480924D01*
X264410595Y-106480924D02*
X264490354Y-106541242D01*
X267024405Y-106480924D02*
X266944646Y-106541242D01*
X264490354Y-106541242D02*
X264574513Y-106595251D01*
X266944646Y-106541242D02*
X266860487Y-106595251D01*
X264574513Y-106595251D02*
X264662574Y-106642631D01*
X266860487Y-106595251D02*
X266772426Y-106642631D01*
X264662574Y-106642631D02*
X264754016Y-106683102D01*
X266772426Y-106642631D02*
X266680984Y-106683102D01*
X264754016Y-106683102D02*
X264848298Y-106716424D01*
X266680984Y-106683102D02*
X266586702Y-106716424D01*
X264848298Y-106716424D02*
X264944862Y-106742400D01*
X266586702Y-106716424D02*
X266490138Y-106742400D01*
X264944862Y-106742400D02*
X265043137Y-106760877D01*
X266490138Y-106742400D02*
X266391863Y-106760877D01*
X265043137Y-106760877D02*
X265142542Y-106771745D01*
X266391863Y-106760877D02*
X266292458Y-106771745D01*
X265142542Y-106771745D02*
X265242488Y-106774940D01*
X266292458Y-106771745D02*
X266192512Y-106774940D01*
X266192512Y-106774940D02*
X265242488Y-106774940D01*
X263935000Y-110524995D02*
X263942687Y-110425291D01*
X267500000Y-110525000D02*
X267492313Y-110425296D01*
X263942687Y-110425291D02*
X263958015Y-110326473D01*
X267492313Y-110425296D02*
X267476985Y-110326478D01*
X263958015Y-110326473D02*
X263980893Y-110229126D01*
X267476985Y-110326478D02*
X267454107Y-110229131D01*
X263980893Y-110229126D02*
X264011186Y-110133826D01*
X267454107Y-110229131D02*
X267423814Y-110133831D01*
X264011186Y-110133826D02*
X264048715Y-110041136D01*
X267423814Y-110133831D02*
X267386285Y-110041141D01*
X264048715Y-110041136D02*
X264093258Y-109951605D01*
X267386285Y-110041141D02*
X267341742Y-109951610D01*
X264093258Y-109951605D02*
X264144551Y-109865763D01*
X267341742Y-109951610D02*
X267290449Y-109865768D01*
X264144551Y-109865763D02*
X264202291Y-109784118D01*
X267290449Y-109865768D02*
X267232709Y-109784123D01*
X264202291Y-109784118D02*
X264266136Y-109707153D01*
X267232709Y-109784123D02*
X267168864Y-109707158D01*
X264266136Y-109707153D02*
X264335708Y-109635323D01*
X267168864Y-109707158D02*
X267099292Y-109635328D01*
X264335708Y-109635323D02*
X264410595Y-109569053D01*
X267099292Y-109635328D02*
X267024405Y-109569058D01*
X264410595Y-109569053D02*
X264490354Y-109508735D01*
X267024405Y-109569058D02*
X266944646Y-109508740D01*
X264490354Y-109508735D02*
X264574513Y-109454726D01*
X266944646Y-109508740D02*
X266860487Y-109454731D01*
X264574513Y-109454726D02*
X264662574Y-109407346D01*
X266860487Y-109454731D02*
X266772426Y-109407351D01*
X264662574Y-109407346D02*
X264754016Y-109366875D01*
X266772426Y-109407351D02*
X266680984Y-109366880D01*
X264754016Y-109366875D02*
X264848298Y-109333553D01*
X266680984Y-109366880D02*
X266586702Y-109333558D01*
X264848298Y-109333553D02*
X264944862Y-109307577D01*
X266586702Y-109333558D02*
X266490138Y-109307582D01*
X264944862Y-109307577D02*
X265043137Y-109289100D01*
X266490138Y-109307582D02*
X266391863Y-109289105D01*
X265043137Y-109289100D02*
X265142542Y-109278232D01*
X266391863Y-109289105D02*
X266292458Y-109278237D01*
X265142542Y-109278232D02*
X265242488Y-109275037D01*
X266292458Y-109278237D02*
X266192512Y-109275042D01*
X266192512Y-109275042D02*
X265242488Y-109275037D01*
X257999990Y-124025000D02*
X267500000Y-124025000D01*
X258000008Y-120725000D02*
X263935000Y-120725000D01*
X257999990Y-124025000D02*
X257900286Y-124017313D01*
X258000008Y-120725000D02*
X257900304Y-120732687D01*
X257900286Y-124017313D02*
X257801468Y-124001985D01*
X257900304Y-120732687D02*
X257801486Y-120748015D01*
X257801468Y-124001985D02*
X257704121Y-123979107D01*
X257801486Y-120748015D02*
X257704139Y-120770893D01*
X257704121Y-123979107D02*
X257608821Y-123948814D01*
X257704139Y-120770893D02*
X257608839Y-120801186D01*
X257608821Y-123948814D02*
X257516131Y-123911285D01*
X257608839Y-120801186D02*
X257516149Y-120838715D01*
X257516131Y-123911285D02*
X257426600Y-123866742D01*
X257516149Y-120838715D02*
X257426618Y-120883258D01*
X257426600Y-123866742D02*
X257340758Y-123815449D01*
X257426618Y-120883258D02*
X257340776Y-120934551D01*
X257340758Y-123815449D02*
X257259113Y-123757709D01*
X257340776Y-120934551D02*
X257259131Y-120992291D01*
X257259113Y-123757709D02*
X257182148Y-123693864D01*
X257259131Y-120992291D02*
X257182166Y-121056136D01*
X257182148Y-123693864D02*
X257110318Y-123624292D01*
X257182166Y-121056136D02*
X257110336Y-121125708D01*
X257110318Y-123624292D02*
X257044048Y-123549405D01*
X257110336Y-121125708D02*
X257044066Y-121200595D01*
X257044048Y-123549405D02*
X256983730Y-123469646D01*
X257044066Y-121200595D02*
X256983748Y-121280354D01*
X256983730Y-123469646D02*
X256929721Y-123385487D01*
X256983748Y-121280354D02*
X256929739Y-121364513D01*
X256929721Y-123385487D02*
X256882341Y-123297426D01*
X256929739Y-121364513D02*
X256882359Y-121452574D01*
X256882341Y-123297426D02*
X256841870Y-123205984D01*
X256882359Y-121452574D02*
X256841888Y-121544016D01*
X256841870Y-123205984D02*
X256808548Y-123111702D01*
X256841888Y-121544016D02*
X256808566Y-121638298D01*
X256808548Y-123111702D02*
X256782572Y-123015138D01*
X256808566Y-121638298D02*
X256782590Y-121734862D01*
X256782572Y-123015138D02*
X256764095Y-122916863D01*
X256782590Y-121734862D02*
X256764113Y-121833137D01*
X256764095Y-122916863D02*
X256753227Y-122817458D01*
X256764113Y-121833137D02*
X256753245Y-121932542D01*
X256753227Y-122817458D02*
X256750032Y-122717512D01*
X256753245Y-121932542D02*
X256750050Y-122032488D01*
X256750032Y-122717512D02*
X256750050Y-122032488D01*
X252999980Y-120725000D02*
X253099684Y-120732687D01*
X252999957Y-124025000D02*
X253099661Y-124017313D01*
X253099684Y-120732687D02*
X253198502Y-120748015D01*
X253099661Y-124017313D02*
X253198479Y-124001985D01*
X253198502Y-120748015D02*
X253295849Y-120770893D01*
X253198479Y-124001985D02*
X253295826Y-123979107D01*
X253295849Y-120770893D02*
X253391149Y-120801186D01*
X253295826Y-123979107D02*
X253391126Y-123948814D01*
X253391149Y-120801186D02*
X253483839Y-120838715D01*
X253391126Y-123948814D02*
X253483816Y-123911285D01*
X253483839Y-120838715D02*
X253573370Y-120883258D01*
X253483816Y-123911285D02*
X253573347Y-123866742D01*
X253573370Y-120883258D02*
X253659212Y-120934551D01*
X253573347Y-123866742D02*
X253659189Y-123815449D01*
X253659212Y-120934551D02*
X253740857Y-120992291D01*
X253659189Y-123815449D02*
X253740834Y-123757709D01*
X253740857Y-120992291D02*
X253817822Y-121056136D01*
X253740834Y-123757709D02*
X253817799Y-123693864D01*
X253817822Y-121056136D02*
X253889652Y-121125708D01*
X253817799Y-123693864D02*
X253889629Y-123624292D01*
X253889652Y-121125708D02*
X253955922Y-121200595D01*
X253889629Y-123624292D02*
X253955899Y-123549405D01*
X253955922Y-121200595D02*
X254016240Y-121280354D01*
X253955899Y-123549405D02*
X254016217Y-123469646D01*
X254016240Y-121280354D02*
X254070249Y-121364513D01*
X254016217Y-123469646D02*
X254070226Y-123385487D01*
X254070249Y-121364513D02*
X254117629Y-121452574D01*
X254070226Y-123385487D02*
X254117606Y-123297426D01*
X254117629Y-121452574D02*
X254158100Y-121544016D01*
X254117606Y-123297426D02*
X254158077Y-123205984D01*
X254158100Y-121544016D02*
X254191422Y-121638298D01*
X254158077Y-123205984D02*
X254191399Y-123111702D01*
X254191422Y-121638298D02*
X254217398Y-121734862D01*
X254191399Y-123111702D02*
X254217375Y-123015138D01*
X254217398Y-121734862D02*
X254235875Y-121833137D01*
X254217375Y-123015138D02*
X254235852Y-122916863D01*
X254235875Y-121833137D02*
X254246743Y-121932542D01*
X254235852Y-122916863D02*
X254246720Y-122817458D01*
X254246743Y-121932542D02*
X254249938Y-122032488D01*
X254246720Y-122817458D02*
X254249915Y-122717512D01*
X254249915Y-122717512D02*
X254249938Y-122032488D01*
X196000040Y-124025000D02*
X252999957Y-124025000D01*
X191000002Y-124025000D02*
X186500000Y-124025000D01*
X196000040Y-120725000D02*
X252999980Y-120725000D01*
X191000000Y-120725000D02*
X187100000Y-120725000D01*
X196000040Y-120725000D02*
X195900336Y-120732687D01*
X196000040Y-124025000D02*
X195900336Y-124017313D01*
X195900336Y-120732687D02*
X195801518Y-120748015D01*
X195900336Y-124017313D02*
X195801518Y-124001985D01*
X195801518Y-120748015D02*
X195704171Y-120770893D01*
X195801518Y-124001985D02*
X195704171Y-123979107D01*
X195704171Y-120770893D02*
X195608871Y-120801186D01*
X195704171Y-123979107D02*
X195608871Y-123948814D01*
X195608871Y-120801186D02*
X195516181Y-120838715D01*
X195608871Y-123948814D02*
X195516181Y-123911285D01*
X195516181Y-120838715D02*
X195426650Y-120883258D01*
X195516181Y-123911285D02*
X195426650Y-123866742D01*
X195426650Y-120883258D02*
X195340808Y-120934551D01*
X195426650Y-123866742D02*
X195340808Y-123815449D01*
X195340808Y-120934551D02*
X195259163Y-120992291D01*
X195340808Y-123815449D02*
X195259163Y-123757709D01*
X195259163Y-120992291D02*
X195182198Y-121056136D01*
X195259163Y-123757709D02*
X195182198Y-123693864D01*
X195182198Y-121056136D02*
X195110368Y-121125708D01*
X195182198Y-123693864D02*
X195110368Y-123624292D01*
X195110368Y-121125708D02*
X195044098Y-121200595D01*
X195110368Y-123624292D02*
X195044098Y-123549405D01*
X195044098Y-121200595D02*
X194983780Y-121280354D01*
X195044098Y-123549405D02*
X194983780Y-123469646D01*
X194983780Y-121280354D02*
X194929771Y-121364513D01*
X194983780Y-123469646D02*
X194929771Y-123385487D01*
X194929771Y-121364513D02*
X194882391Y-121452574D01*
X194929771Y-123385487D02*
X194882391Y-123297426D01*
X194882391Y-121452574D02*
X194841920Y-121544016D01*
X194882391Y-123297426D02*
X194841920Y-123205984D01*
X194841920Y-121544016D02*
X194808598Y-121638298D01*
X194841920Y-123205984D02*
X194808598Y-123111702D01*
X194808598Y-121638298D02*
X194782622Y-121734862D01*
X194808598Y-123111702D02*
X194782622Y-123015138D01*
X194782622Y-121734862D02*
X194764145Y-121833137D01*
X194782622Y-123015138D02*
X194764145Y-122916863D01*
X194764145Y-121833137D02*
X194753277Y-121932542D01*
X194764145Y-122916863D02*
X194753277Y-122817458D01*
X194753277Y-121932542D02*
X194750082Y-122032488D01*
X194753277Y-122817458D02*
X194750082Y-122717512D01*
X194750082Y-122717512D02*
X194750082Y-122032488D01*
X191000002Y-124025000D02*
X191099706Y-124017313D01*
X191000000Y-120725000D02*
X191099704Y-120732687D01*
X191099706Y-124017313D02*
X191198524Y-124001985D01*
X191099704Y-120732687D02*
X191198522Y-120748015D01*
X191198524Y-124001985D02*
X191295871Y-123979107D01*
X191198522Y-120748015D02*
X191295869Y-120770893D01*
X191295871Y-123979107D02*
X191391171Y-123948814D01*
X191295869Y-120770893D02*
X191391169Y-120801186D01*
X191391171Y-123948814D02*
X191483861Y-123911285D01*
X191391169Y-120801186D02*
X191483859Y-120838715D01*
X191483861Y-123911285D02*
X191573392Y-123866742D01*
X191483859Y-120838715D02*
X191573390Y-120883258D01*
X191573392Y-123866742D02*
X191659234Y-123815449D01*
X191573390Y-120883258D02*
X191659232Y-120934551D01*
X191659234Y-123815449D02*
X191740879Y-123757709D01*
X191659232Y-120934551D02*
X191740877Y-120992291D01*
X191740879Y-123757709D02*
X191817844Y-123693864D01*
X191740877Y-120992291D02*
X191817842Y-121056136D01*
X191817844Y-123693864D02*
X191889674Y-123624292D01*
X191817842Y-121056136D02*
X191889672Y-121125708D01*
X191889674Y-123624292D02*
X191955944Y-123549405D01*
X191889672Y-121125708D02*
X191955942Y-121200595D01*
X191955944Y-123549405D02*
X192016262Y-123469646D01*
X191955942Y-121200595D02*
X192016260Y-121280354D01*
X192016262Y-123469646D02*
X192070271Y-123385487D01*
X192016260Y-121280354D02*
X192070269Y-121364513D01*
X192070271Y-123385487D02*
X192117651Y-123297426D01*
X192070269Y-121364513D02*
X192117649Y-121452574D01*
X192117651Y-123297426D02*
X192158122Y-123205984D01*
X192117649Y-121452574D02*
X192158120Y-121544016D01*
X192158122Y-123205984D02*
X192191444Y-123111702D01*
X192158120Y-121544016D02*
X192191442Y-121638298D01*
X192191444Y-123111702D02*
X192217420Y-123015138D01*
X192191442Y-121638298D02*
X192217418Y-121734862D01*
X192217420Y-123015138D02*
X192235897Y-122916863D01*
X192217418Y-121734862D02*
X192235895Y-121833137D01*
X192235897Y-122916863D02*
X192246765Y-122817458D01*
X192235895Y-121833137D02*
X192246763Y-121932542D01*
X192246765Y-122817458D02*
X192249960Y-122717512D01*
X192246763Y-121932542D02*
X192249958Y-122032488D01*
X192249960Y-122717512D02*
X192249958Y-122032488D01*
X175000015Y-130025000D02*
X186500000Y-130025000D01*
X174999998Y-127025000D02*
X183500000Y-127025000D01*
X174999998Y-127025000D02*
X174900294Y-127032687D01*
X175000015Y-130025000D02*
X174900311Y-130017313D01*
X174900294Y-127032687D02*
X174801476Y-127048015D01*
X174900311Y-130017313D02*
X174801493Y-130001985D01*
X174801476Y-127048015D02*
X174704129Y-127070893D01*
X174801493Y-130001985D02*
X174704146Y-129979107D01*
X174704129Y-127070893D02*
X174608829Y-127101186D01*
X174704146Y-129979107D02*
X174608846Y-129948814D01*
X174608829Y-127101186D02*
X174516139Y-127138715D01*
X174608846Y-129948814D02*
X174516156Y-129911285D01*
X174516139Y-127138715D02*
X174426608Y-127183258D01*
X174516156Y-129911285D02*
X174426625Y-129866742D01*
X174426608Y-127183258D02*
X174340766Y-127234551D01*
X174426625Y-129866742D02*
X174340783Y-129815449D01*
X174340766Y-127234551D02*
X174259121Y-127292291D01*
X174340783Y-129815449D02*
X174259138Y-129757709D01*
X174259121Y-127292291D02*
X174182156Y-127356136D01*
X174259138Y-129757709D02*
X174182173Y-129693864D01*
X174182156Y-127356136D02*
X174110326Y-127425708D01*
X174182173Y-129693864D02*
X174110343Y-129624292D01*
X174110326Y-127425708D02*
X174044056Y-127500595D01*
X174110343Y-129624292D02*
X174044073Y-129549405D01*
X174044056Y-127500595D02*
X173983738Y-127580354D01*
X174044073Y-129549405D02*
X173983755Y-129469646D01*
X173983738Y-127580354D02*
X173929729Y-127664513D01*
X173983755Y-129469646D02*
X173929746Y-129385487D01*
X173929729Y-127664513D02*
X173882349Y-127752574D01*
X173929746Y-129385487D02*
X173882366Y-129297426D01*
X173882349Y-127752574D02*
X173841878Y-127844016D01*
X173882366Y-129297426D02*
X173841895Y-129205984D01*
X173841878Y-127844016D02*
X173808556Y-127938298D01*
X173841895Y-129205984D02*
X173808573Y-129111702D01*
X173808556Y-127938298D02*
X173782580Y-128034862D01*
X173808573Y-129111702D02*
X173782597Y-129015138D01*
X173782580Y-128034862D02*
X173764103Y-128133137D01*
X173782597Y-129015138D02*
X173764120Y-128916863D01*
X173764103Y-128133137D02*
X173753235Y-128232542D01*
X173764120Y-128916863D02*
X173753252Y-128817458D01*
X173753235Y-128232542D02*
X173750040Y-128332488D01*
X173753252Y-128817458D02*
X173750057Y-128717512D01*
X173750057Y-128717512D02*
X173750040Y-128332488D01*
X170000037Y-130025000D02*
X170099741Y-130017313D01*
X169999980Y-127025000D02*
X170099684Y-127032687D01*
X170099741Y-130017313D02*
X170198559Y-130001985D01*
X170099684Y-127032687D02*
X170198502Y-127048015D01*
X170198559Y-130001985D02*
X170295906Y-129979107D01*
X170198502Y-127048015D02*
X170295849Y-127070893D01*
X170295906Y-129979107D02*
X170391206Y-129948814D01*
X170295849Y-127070893D02*
X170391149Y-127101186D01*
X170391206Y-129948814D02*
X170483896Y-129911285D01*
X170391149Y-127101186D02*
X170483839Y-127138715D01*
X170483896Y-129911285D02*
X170573427Y-129866742D01*
X170483839Y-127138715D02*
X170573370Y-127183258D01*
X170573427Y-129866742D02*
X170659269Y-129815449D01*
X170573370Y-127183258D02*
X170659212Y-127234551D01*
X170659269Y-129815449D02*
X170740914Y-129757709D01*
X170659212Y-127234551D02*
X170740857Y-127292291D01*
X170740914Y-129757709D02*
X170817879Y-129693864D01*
X170740857Y-127292291D02*
X170817822Y-127356136D01*
X170817879Y-129693864D02*
X170889709Y-129624292D01*
X170817822Y-127356136D02*
X170889652Y-127425708D01*
X170889709Y-129624292D02*
X170955979Y-129549405D01*
X170889652Y-127425708D02*
X170955922Y-127500595D01*
X170955979Y-129549405D02*
X171016297Y-129469646D01*
X170955922Y-127500595D02*
X171016240Y-127580354D01*
X171016297Y-129469646D02*
X171070306Y-129385487D01*
X171016240Y-127580354D02*
X171070249Y-127664513D01*
X171070306Y-129385487D02*
X171117686Y-129297426D01*
X171070249Y-127664513D02*
X171117629Y-127752574D01*
X171117686Y-129297426D02*
X171158157Y-129205984D01*
X171117629Y-127752574D02*
X171158100Y-127844016D01*
X171158157Y-129205984D02*
X171191479Y-129111702D01*
X171158100Y-127844016D02*
X171191422Y-127938298D01*
X171191479Y-129111702D02*
X171217455Y-129015138D01*
X171191422Y-127938298D02*
X171217398Y-128034862D01*
X171217455Y-129015138D02*
X171235932Y-128916863D01*
X171217398Y-128034862D02*
X171235875Y-128133137D01*
X171235932Y-128916863D02*
X171246800Y-128817458D01*
X171235875Y-128133137D02*
X171246743Y-128232542D01*
X171246800Y-128817458D02*
X171249995Y-128717512D01*
X171246743Y-128232542D02*
X171249938Y-128332488D01*
X171249995Y-128717512D02*
X171249938Y-128332488D01*
X154000003Y-130025000D02*
X170000037Y-130025000D01*
X148999985Y-130025000D02*
X137500000Y-130025000D01*
X153999995Y-127025000D02*
X169999980Y-127025000D01*
X149000002Y-127025000D02*
X138500000Y-127025000D01*
X153999995Y-127025000D02*
X153900291Y-127032687D01*
X154000003Y-130025000D02*
X153900299Y-130017313D01*
X153900291Y-127032687D02*
X153801473Y-127048015D01*
X153900299Y-130017313D02*
X153801481Y-130001985D01*
X153801473Y-127048015D02*
X153704126Y-127070893D01*
X153801481Y-130001985D02*
X153704134Y-129979107D01*
X153704126Y-127070893D02*
X153608826Y-127101186D01*
X153704134Y-129979107D02*
X153608834Y-129948814D01*
X153608826Y-127101186D02*
X153516136Y-127138715D01*
X153608834Y-129948814D02*
X153516144Y-129911285D01*
X153516136Y-127138715D02*
X153426605Y-127183258D01*
X153516144Y-129911285D02*
X153426613Y-129866742D01*
X153426605Y-127183258D02*
X153340763Y-127234551D01*
X153426613Y-129866742D02*
X153340771Y-129815449D01*
X153340763Y-127234551D02*
X153259118Y-127292291D01*
X153340771Y-129815449D02*
X153259126Y-129757709D01*
X153259118Y-127292291D02*
X153182153Y-127356136D01*
X153259126Y-129757709D02*
X153182161Y-129693864D01*
X153182153Y-127356136D02*
X153110323Y-127425708D01*
X153182161Y-129693864D02*
X153110331Y-129624292D01*
X153110323Y-127425708D02*
X153044053Y-127500595D01*
X153110331Y-129624292D02*
X153044061Y-129549405D01*
X153044053Y-127500595D02*
X152983735Y-127580354D01*
X153044061Y-129549405D02*
X152983743Y-129469646D01*
X152983735Y-127580354D02*
X152929726Y-127664513D01*
X152983743Y-129469646D02*
X152929734Y-129385487D01*
X152929726Y-127664513D02*
X152882346Y-127752574D01*
X152929734Y-129385487D02*
X152882354Y-129297426D01*
X152882346Y-127752574D02*
X152841875Y-127844016D01*
X152882354Y-129297426D02*
X152841883Y-129205984D01*
X152841875Y-127844016D02*
X152808553Y-127938298D01*
X152841883Y-129205984D02*
X152808561Y-129111702D01*
X152808553Y-127938298D02*
X152782577Y-128034862D01*
X152808561Y-129111702D02*
X152782585Y-129015138D01*
X152782577Y-128034862D02*
X152764100Y-128133137D01*
X152782585Y-129015138D02*
X152764108Y-128916863D01*
X152764100Y-128133137D02*
X152753232Y-128232542D01*
X152764108Y-128916863D02*
X152753240Y-128817458D01*
X152753232Y-128232542D02*
X152750037Y-128332488D01*
X152753240Y-128817458D02*
X152750045Y-128717512D01*
X152750045Y-128717512D02*
X152750037Y-128332488D01*
X149000002Y-127025000D02*
X149099706Y-127032687D01*
X148999985Y-130025000D02*
X149099689Y-130017313D01*
X149099706Y-127032687D02*
X149198524Y-127048015D01*
X149099689Y-130017313D02*
X149198507Y-130001985D01*
X149198524Y-127048015D02*
X149295871Y-127070893D01*
X149198507Y-130001985D02*
X149295854Y-129979107D01*
X149295871Y-127070893D02*
X149391171Y-127101186D01*
X149295854Y-129979107D02*
X149391154Y-129948814D01*
X149391171Y-127101186D02*
X149483861Y-127138715D01*
X149391154Y-129948814D02*
X149483844Y-129911285D01*
X149483861Y-127138715D02*
X149573392Y-127183258D01*
X149483844Y-129911285D02*
X149573375Y-129866742D01*
X149573392Y-127183258D02*
X149659234Y-127234551D01*
X149573375Y-129866742D02*
X149659217Y-129815449D01*
X149659234Y-127234551D02*
X149740879Y-127292291D01*
X149659217Y-129815449D02*
X149740862Y-129757709D01*
X149740879Y-127292291D02*
X149817844Y-127356136D01*
X149740862Y-129757709D02*
X149817827Y-129693864D01*
X149817844Y-127356136D02*
X149889674Y-127425708D01*
X149817827Y-129693864D02*
X149889657Y-129624292D01*
X149889674Y-127425708D02*
X149955944Y-127500595D01*
X149889657Y-129624292D02*
X149955927Y-129549405D01*
X149955944Y-127500595D02*
X150016262Y-127580354D01*
X149955927Y-129549405D02*
X150016245Y-129469646D01*
X150016262Y-127580354D02*
X150070271Y-127664513D01*
X150016245Y-129469646D02*
X150070254Y-129385487D01*
X150070271Y-127664513D02*
X150117651Y-127752574D01*
X150070254Y-129385487D02*
X150117634Y-129297426D01*
X150117651Y-127752574D02*
X150158122Y-127844016D01*
X150117634Y-129297426D02*
X150158105Y-129205984D01*
X150158122Y-127844016D02*
X150191444Y-127938298D01*
X150158105Y-129205984D02*
X150191427Y-129111702D01*
X150191444Y-127938298D02*
X150217420Y-128034862D01*
X150191427Y-129111702D02*
X150217403Y-129015138D01*
X150217420Y-128034862D02*
X150235897Y-128133137D01*
X150217403Y-129015138D02*
X150235880Y-128916863D01*
X150235897Y-128133137D02*
X150246765Y-128232542D01*
X150235880Y-128916863D02*
X150246748Y-128817458D01*
X150246765Y-128232542D02*
X150249960Y-128332488D01*
X150246748Y-128817458D02*
X150249943Y-128717512D01*
X150249943Y-128717512D02*
X150249960Y-128332488D01*
X126000015Y-135025000D02*
X137500000Y-135025000D01*
X125999990Y-131450000D02*
X134925000Y-131450000D01*
X125999990Y-131450000D02*
X125900286Y-131457687D01*
X126000015Y-135025000D02*
X125900311Y-135017313D01*
X125900286Y-131457687D02*
X125801468Y-131473015D01*
X125900311Y-135017313D02*
X125801493Y-135001985D01*
X125801468Y-131473015D02*
X125704121Y-131495893D01*
X125801493Y-135001985D02*
X125704146Y-134979107D01*
X125704121Y-131495893D02*
X125608821Y-131526186D01*
X125704146Y-134979107D02*
X125608846Y-134948814D01*
X125608821Y-131526186D02*
X125516131Y-131563715D01*
X125608846Y-134948814D02*
X125516156Y-134911285D01*
X125516131Y-131563715D02*
X125426600Y-131608258D01*
X125516156Y-134911285D02*
X125426625Y-134866742D01*
X125426600Y-131608258D02*
X125340758Y-131659551D01*
X125426625Y-134866742D02*
X125340783Y-134815449D01*
X125340758Y-131659551D02*
X125259113Y-131717291D01*
X125340783Y-134815449D02*
X125259138Y-134757709D01*
X125259113Y-131717291D02*
X125182148Y-131781136D01*
X125259138Y-134757709D02*
X125182173Y-134693864D01*
X125182148Y-131781136D02*
X125110318Y-131850708D01*
X125182173Y-134693864D02*
X125110343Y-134624292D01*
X125110318Y-131850708D02*
X125044048Y-131925595D01*
X125110343Y-134624292D02*
X125044073Y-134549405D01*
X125044048Y-131925595D02*
X124983730Y-132005354D01*
X125044073Y-134549405D02*
X124983755Y-134469646D01*
X124983730Y-132005354D02*
X124929721Y-132089513D01*
X124983755Y-134469646D02*
X124929746Y-134385487D01*
X124929721Y-132089513D02*
X124882341Y-132177574D01*
X124929746Y-134385487D02*
X124882366Y-134297426D01*
X124882341Y-132177574D02*
X124841870Y-132269016D01*
X124882366Y-134297426D02*
X124841895Y-134205984D01*
X124841870Y-132269016D02*
X124808548Y-132363298D01*
X124841895Y-134205984D02*
X124808573Y-134111702D01*
X124808548Y-132363298D02*
X124782572Y-132459862D01*
X124808573Y-134111702D02*
X124782597Y-134015138D01*
X124782572Y-132459862D02*
X124764095Y-132558137D01*
X124782597Y-134015138D02*
X124764120Y-133916863D01*
X124764095Y-132558137D02*
X124753227Y-132657542D01*
X124764120Y-133916863D02*
X124753252Y-133817458D01*
X124753227Y-132657542D02*
X124750032Y-132757488D01*
X124753252Y-133817458D02*
X124750057Y-133717512D01*
X124750057Y-133717512D02*
X124750032Y-132757488D01*
X121000055Y-131450000D02*
X121099759Y-131457687D01*
X121000025Y-135025000D02*
X121099729Y-135017313D01*
X121099759Y-131457687D02*
X121198577Y-131473015D01*
X121099729Y-135017313D02*
X121198547Y-135001985D01*
X121198577Y-131473015D02*
X121295924Y-131495893D01*
X121198547Y-135001985D02*
X121295894Y-134979107D01*
X121295924Y-131495893D02*
X121391224Y-131526186D01*
X121295894Y-134979107D02*
X121391194Y-134948814D01*
X121391224Y-131526186D02*
X121483914Y-131563715D01*
X121391194Y-134948814D02*
X121483884Y-134911285D01*
X121483914Y-131563715D02*
X121573445Y-131608258D01*
X121483884Y-134911285D02*
X121573415Y-134866742D01*
X121573445Y-131608258D02*
X121659287Y-131659551D01*
X121573415Y-134866742D02*
X121659257Y-134815449D01*
X121659287Y-131659551D02*
X121740932Y-131717291D01*
X121659257Y-134815449D02*
X121740902Y-134757709D01*
X121740932Y-131717291D02*
X121817897Y-131781136D01*
X121740902Y-134757709D02*
X121817867Y-134693864D01*
X121817897Y-131781136D02*
X121889727Y-131850708D01*
X121817867Y-134693864D02*
X121889697Y-134624292D01*
X121889727Y-131850708D02*
X121955997Y-131925595D01*
X121889697Y-134624292D02*
X121955967Y-134549405D01*
X121955997Y-131925595D02*
X122016315Y-132005354D01*
X121955967Y-134549405D02*
X122016285Y-134469646D01*
X122016315Y-132005354D02*
X122070324Y-132089513D01*
X122016285Y-134469646D02*
X122070294Y-134385487D01*
X122070324Y-132089513D02*
X122117704Y-132177574D01*
X122070294Y-134385487D02*
X122117674Y-134297426D01*
X122117704Y-132177574D02*
X122158175Y-132269016D01*
X122117674Y-134297426D02*
X122158145Y-134205984D01*
X122158175Y-132269016D02*
X122191497Y-132363298D01*
X122158145Y-134205984D02*
X122191467Y-134111702D01*
X122191497Y-132363298D02*
X122217473Y-132459862D01*
X122191467Y-134111702D02*
X122217443Y-134015138D01*
X122217473Y-132459862D02*
X122235950Y-132558137D01*
X122217443Y-134015138D02*
X122235920Y-133916863D01*
X122235950Y-132558137D02*
X122246818Y-132657542D01*
X122235920Y-133916863D02*
X122246788Y-133817458D01*
X122246818Y-132657542D02*
X122250013Y-132757488D01*
X122246788Y-133817458D02*
X122249983Y-133717512D01*
X122249983Y-133717512D02*
X122250013Y-132757488D01*
X50999983Y-131450000D02*
X121000055Y-131450000D01*
X46000010Y-131450000D02*
X36500000Y-131450000D01*
X50999983Y-135025000D02*
X121000025Y-135025000D01*
X45999987Y-135025000D02*
X33500000Y-135025000D01*
X46000010Y-131450000D02*
X46099714Y-131457687D01*
X45999987Y-135025000D02*
X46099691Y-135017313D01*
X46099714Y-131457687D02*
X46198532Y-131473015D01*
X46099691Y-135017313D02*
X46198509Y-135001985D01*
X46198532Y-131473015D02*
X46295879Y-131495893D01*
X46198509Y-135001985D02*
X46295856Y-134979107D01*
X46295879Y-131495893D02*
X46391179Y-131526186D01*
X46295856Y-134979107D02*
X46391156Y-134948814D01*
X46391179Y-131526186D02*
X46483869Y-131563715D01*
X46391156Y-134948814D02*
X46483846Y-134911285D01*
X46483869Y-131563715D02*
X46573400Y-131608258D01*
X46483846Y-134911285D02*
X46573377Y-134866742D01*
X46573400Y-131608258D02*
X46659242Y-131659551D01*
X46573377Y-134866742D02*
X46659219Y-134815449D01*
X46659242Y-131659551D02*
X46740887Y-131717291D01*
X46659219Y-134815449D02*
X46740864Y-134757709D01*
X46740887Y-131717291D02*
X46817852Y-131781136D01*
X46740864Y-134757709D02*
X46817829Y-134693864D01*
X46817852Y-131781136D02*
X46889682Y-131850708D01*
X46817829Y-134693864D02*
X46889659Y-134624292D01*
X46889682Y-131850708D02*
X46955952Y-131925595D01*
X46889659Y-134624292D02*
X46955929Y-134549405D01*
X46955952Y-131925595D02*
X47016270Y-132005354D01*
X46955929Y-134549405D02*
X47016247Y-134469646D01*
X47016270Y-132005354D02*
X47070279Y-132089513D01*
X47016247Y-134469646D02*
X47070256Y-134385487D01*
X47070279Y-132089513D02*
X47117659Y-132177574D01*
X47070256Y-134385487D02*
X47117636Y-134297426D01*
X47117659Y-132177574D02*
X47158130Y-132269016D01*
X47117636Y-134297426D02*
X47158107Y-134205984D01*
X47158130Y-132269016D02*
X47191452Y-132363298D01*
X47158107Y-134205984D02*
X47191429Y-134111702D01*
X47191452Y-132363298D02*
X47217428Y-132459862D01*
X47191429Y-134111702D02*
X47217405Y-134015138D01*
X47217428Y-132459862D02*
X47235905Y-132558137D01*
X47217405Y-134015138D02*
X47235882Y-133916863D01*
X47235905Y-132558137D02*
X47246773Y-132657542D01*
X47235882Y-133916863D02*
X47246750Y-133817458D01*
X47246773Y-132657542D02*
X47249968Y-132757488D01*
X47246750Y-133817458D02*
X47249945Y-133717512D01*
X47249968Y-132757488D02*
X47249945Y-133717512D01*
X50999983Y-135025000D02*
X50900279Y-135017313D01*
X50999983Y-131450000D02*
X50900279Y-131457687D01*
X50900279Y-135017313D02*
X50801461Y-135001985D01*
X50900279Y-131457687D02*
X50801461Y-131473015D01*
X50801461Y-135001985D02*
X50704114Y-134979107D01*
X50801461Y-131473015D02*
X50704114Y-131495893D01*
X50704114Y-134979107D02*
X50608814Y-134948814D01*
X50704114Y-131495893D02*
X50608814Y-131526186D01*
X50608814Y-134948814D02*
X50516124Y-134911285D01*
X50608814Y-131526186D02*
X50516124Y-131563715D01*
X50516124Y-134911285D02*
X50426593Y-134866742D01*
X50516124Y-131563715D02*
X50426593Y-131608258D01*
X50426593Y-134866742D02*
X50340751Y-134815449D01*
X50426593Y-131608258D02*
X50340751Y-131659551D01*
X50340751Y-134815449D02*
X50259106Y-134757709D01*
X50340751Y-131659551D02*
X50259106Y-131717291D01*
X50259106Y-134757709D02*
X50182141Y-134693864D01*
X50259106Y-131717291D02*
X50182141Y-131781136D01*
X50182141Y-134693864D02*
X50110311Y-134624292D01*
X50182141Y-131781136D02*
X50110311Y-131850708D01*
X50110311Y-134624292D02*
X50044041Y-134549405D01*
X50110311Y-131850708D02*
X50044041Y-131925595D01*
X50044041Y-134549405D02*
X49983723Y-134469646D01*
X50044041Y-131925595D02*
X49983723Y-132005354D01*
X49983723Y-134469646D02*
X49929714Y-134385487D01*
X49983723Y-132005354D02*
X49929714Y-132089513D01*
X49929714Y-134385487D02*
X49882334Y-134297426D01*
X49929714Y-132089513D02*
X49882334Y-132177574D01*
X49882334Y-134297426D02*
X49841863Y-134205984D01*
X49882334Y-132177574D02*
X49841863Y-132269016D01*
X49841863Y-134205984D02*
X49808541Y-134111702D01*
X49841863Y-132269016D02*
X49808541Y-132363298D01*
X49808541Y-134111702D02*
X49782565Y-134015138D01*
X49808541Y-132363298D02*
X49782565Y-132459862D01*
X49782565Y-134015138D02*
X49764088Y-133916863D01*
X49782565Y-132459862D02*
X49764088Y-132558137D01*
X49764088Y-133916863D02*
X49753220Y-133817458D01*
X49764088Y-132558137D02*
X49753220Y-132657542D01*
X49753220Y-133817458D02*
X49750025Y-133717512D01*
X49753220Y-132657542D02*
X49750025Y-132757488D01*
X49750025Y-132757488D02*
X49750025Y-133717512D01*
X33500000Y-124524998D02*
X33500000Y-135025000D01*
X36500000Y-124525005D02*
X36500000Y-131450000D01*
X33500000Y-124524998D02*
X33507687Y-124425294D01*
X36500000Y-124525005D02*
X36492313Y-124425301D01*
X33507687Y-124425294D02*
X33523015Y-124326476D01*
X36492313Y-124425301D02*
X36476985Y-124326483D01*
X33523015Y-124326476D02*
X33545893Y-124229129D01*
X36476985Y-124326483D02*
X36454107Y-124229136D01*
X33545893Y-124229129D02*
X33576186Y-124133829D01*
X36454107Y-124229136D02*
X36423814Y-124133836D01*
X33576186Y-124133829D02*
X33613715Y-124041139D01*
X36423814Y-124133836D02*
X36386285Y-124041146D01*
X33613715Y-124041139D02*
X33658258Y-123951608D01*
X36386285Y-124041146D02*
X36341742Y-123951615D01*
X33658258Y-123951608D02*
X33709551Y-123865766D01*
X36341742Y-123951615D02*
X36290449Y-123865773D01*
X33709551Y-123865766D02*
X33767291Y-123784121D01*
X36290449Y-123865773D02*
X36232709Y-123784128D01*
X33767291Y-123784121D02*
X33831136Y-123707156D01*
X36232709Y-123784128D02*
X36168864Y-123707163D01*
X33831136Y-123707156D02*
X33900708Y-123635326D01*
X36168864Y-123707163D02*
X36099292Y-123635333D01*
X33900708Y-123635326D02*
X33975595Y-123569056D01*
X36099292Y-123635333D02*
X36024405Y-123569063D01*
X33975595Y-123569056D02*
X34055354Y-123508738D01*
X36024405Y-123569063D02*
X35944646Y-123508745D01*
X34055354Y-123508738D02*
X34139513Y-123454729D01*
X35944646Y-123508745D02*
X35860487Y-123454736D01*
X34139513Y-123454729D02*
X34227574Y-123407349D01*
X35860487Y-123454736D02*
X35772426Y-123407356D01*
X34227574Y-123407349D02*
X34319016Y-123366878D01*
X35772426Y-123407356D02*
X35680984Y-123366885D01*
X34319016Y-123366878D02*
X34413298Y-123333556D01*
X35680984Y-123366885D02*
X35586702Y-123333563D01*
X34413298Y-123333556D02*
X34509862Y-123307580D01*
X35586702Y-123333563D02*
X35490138Y-123307587D01*
X34509862Y-123307580D02*
X34608137Y-123289103D01*
X35490138Y-123307587D02*
X35391863Y-123289110D01*
X34608137Y-123289103D02*
X34707542Y-123278235D01*
X35391863Y-123289110D02*
X35292458Y-123278242D01*
X34707542Y-123278235D02*
X34807488Y-123275040D01*
X35292458Y-123278242D02*
X35192512Y-123275047D01*
X34807488Y-123275040D02*
X35192512Y-123275047D01*
X36500000Y-119524990D02*
X36492313Y-119624694D01*
X33500000Y-119524900D02*
X33507687Y-119624604D01*
X36492313Y-119624694D02*
X36476985Y-119723512D01*
X33507687Y-119624604D02*
X33523015Y-119723422D01*
X36476985Y-119723512D02*
X36454107Y-119820859D01*
X33523015Y-119723422D02*
X33545893Y-119820769D01*
X36454107Y-119820859D02*
X36423814Y-119916159D01*
X33545893Y-119820769D02*
X33576186Y-119916069D01*
X36423814Y-119916159D02*
X36386285Y-120008849D01*
X33576186Y-119916069D02*
X33613715Y-120008759D01*
X36386285Y-120008849D02*
X36341742Y-120098380D01*
X33613715Y-120008759D02*
X33658258Y-120098290D01*
X36341742Y-120098380D02*
X36290449Y-120184222D01*
X33658258Y-120098290D02*
X33709551Y-120184132D01*
X36290449Y-120184222D02*
X36232709Y-120265867D01*
X33709551Y-120184132D02*
X33767291Y-120265777D01*
X36232709Y-120265867D02*
X36168864Y-120342832D01*
X33767291Y-120265777D02*
X33831136Y-120342742D01*
X36168864Y-120342832D02*
X36099292Y-120414662D01*
X33831136Y-120342742D02*
X33900708Y-120414572D01*
X36099292Y-120414662D02*
X36024405Y-120480932D01*
X33900708Y-120414572D02*
X33975595Y-120480842D01*
X36024405Y-120480932D02*
X35944646Y-120541250D01*
X33975595Y-120480842D02*
X34055354Y-120541160D01*
X35944646Y-120541250D02*
X35860487Y-120595259D01*
X34055354Y-120541160D02*
X34139513Y-120595169D01*
X35860487Y-120595259D02*
X35772426Y-120642639D01*
X34139513Y-120595169D02*
X34227574Y-120642549D01*
X35772426Y-120642639D02*
X35680984Y-120683110D01*
X34227574Y-120642549D02*
X34319016Y-120683020D01*
X35680984Y-120683110D02*
X35586702Y-120716432D01*
X34319016Y-120683020D02*
X34413298Y-120716342D01*
X35586702Y-120716432D02*
X35490138Y-120742408D01*
X34413298Y-120716342D02*
X34509862Y-120742318D01*
X35490138Y-120742408D02*
X35391863Y-120760885D01*
X34509862Y-120742318D02*
X34608137Y-120760795D01*
X35391863Y-120760885D02*
X35292458Y-120771753D01*
X34608137Y-120760795D02*
X34707542Y-120771663D01*
X35292458Y-120771753D02*
X35192512Y-120774948D01*
X34707542Y-120771663D02*
X34807488Y-120774858D01*
X34807488Y-120774858D02*
X35192512Y-120774948D01*
X33500000Y-46524990D02*
X33500000Y-119524900D01*
X33500000Y-41524985D02*
X33500000Y-30025000D01*
X36500000Y-46524993D02*
X36500000Y-119524990D01*
X36500000Y-41525002D02*
X36500000Y-33025000D01*
X33500000Y-46524990D02*
X33507687Y-46425286D01*
X36500000Y-46524993D02*
X36492313Y-46425289D01*
X33507687Y-46425286D02*
X33523015Y-46326468D01*
X36492313Y-46425289D02*
X36476985Y-46326471D01*
X33523015Y-46326468D02*
X33545893Y-46229121D01*
X36476985Y-46326471D02*
X36454107Y-46229124D01*
X33545893Y-46229121D02*
X33576186Y-46133821D01*
X36454107Y-46229124D02*
X36423814Y-46133824D01*
X33576186Y-46133821D02*
X33613715Y-46041131D01*
X36423814Y-46133824D02*
X36386285Y-46041134D01*
X33613715Y-46041131D02*
X33658258Y-45951600D01*
X36386285Y-46041134D02*
X36341742Y-45951603D01*
X33658258Y-45951600D02*
X33709551Y-45865758D01*
X36341742Y-45951603D02*
X36290449Y-45865761D01*
X33709551Y-45865758D02*
X33767291Y-45784113D01*
X36290449Y-45865761D02*
X36232709Y-45784116D01*
X33767291Y-45784113D02*
X33831136Y-45707148D01*
X36232709Y-45784116D02*
X36168864Y-45707151D01*
X33831136Y-45707148D02*
X33900708Y-45635318D01*
X36168864Y-45707151D02*
X36099292Y-45635321D01*
X33900708Y-45635318D02*
X33975595Y-45569048D01*
X36099292Y-45635321D02*
X36024405Y-45569051D01*
X33975595Y-45569048D02*
X34055354Y-45508730D01*
X36024405Y-45569051D02*
X35944646Y-45508733D01*
X34055354Y-45508730D02*
X34139513Y-45454721D01*
X35944646Y-45508733D02*
X35860487Y-45454724D01*
X34139513Y-45454721D02*
X34227574Y-45407341D01*
X35860487Y-45454724D02*
X35772426Y-45407344D01*
X34227574Y-45407341D02*
X34319016Y-45366870D01*
X35772426Y-45407344D02*
X35680984Y-45366873D01*
X34319016Y-45366870D02*
X34413298Y-45333548D01*
X35680984Y-45366873D02*
X35586702Y-45333551D01*
X34413298Y-45333548D02*
X34509862Y-45307572D01*
X35586702Y-45333551D02*
X35490138Y-45307575D01*
X34509862Y-45307572D02*
X34608137Y-45289095D01*
X35490138Y-45307575D02*
X35391863Y-45289098D01*
X34608137Y-45289095D02*
X34707542Y-45278227D01*
X35391863Y-45289098D02*
X35292458Y-45278230D01*
X34707542Y-45278227D02*
X34807488Y-45275032D01*
X35292458Y-45278230D02*
X35192512Y-45275035D01*
X34807488Y-45275032D02*
X35192512Y-45275035D01*
X36500000Y-41525002D02*
X36492313Y-41624706D01*
X33500000Y-41524985D02*
X33507687Y-41624689D01*
X36492313Y-41624706D02*
X36476985Y-41723524D01*
X33507687Y-41624689D02*
X33523015Y-41723507D01*
X36476985Y-41723524D02*
X36454107Y-41820871D01*
X33523015Y-41723507D02*
X33545893Y-41820854D01*
X36454107Y-41820871D02*
X36423814Y-41916171D01*
X33545893Y-41820854D02*
X33576186Y-41916154D01*
X36423814Y-41916171D02*
X36386285Y-42008861D01*
X33576186Y-41916154D02*
X33613715Y-42008844D01*
X36386285Y-42008861D02*
X36341742Y-42098392D01*
X33613715Y-42008844D02*
X33658258Y-42098375D01*
X36341742Y-42098392D02*
X36290449Y-42184234D01*
X33658258Y-42098375D02*
X33709551Y-42184217D01*
X36290449Y-42184234D02*
X36232709Y-42265879D01*
X33709551Y-42184217D02*
X33767291Y-42265862D01*
X36232709Y-42265879D02*
X36168864Y-42342844D01*
X33767291Y-42265862D02*
X33831136Y-42342827D01*
X36168864Y-42342844D02*
X36099292Y-42414674D01*
X33831136Y-42342827D02*
X33900708Y-42414657D01*
X36099292Y-42414674D02*
X36024405Y-42480944D01*
X33900708Y-42414657D02*
X33975595Y-42480927D01*
X36024405Y-42480944D02*
X35944646Y-42541262D01*
X33975595Y-42480927D02*
X34055354Y-42541245D01*
X35944646Y-42541262D02*
X35860487Y-42595271D01*
X34055354Y-42541245D02*
X34139513Y-42595254D01*
X35860487Y-42595271D02*
X35772426Y-42642651D01*
X34139513Y-42595254D02*
X34227574Y-42642634D01*
X35772426Y-42642651D02*
X35680984Y-42683122D01*
X34227574Y-42642634D02*
X34319016Y-42683105D01*
X35680984Y-42683122D02*
X35586702Y-42716444D01*
X34319016Y-42683105D02*
X34413298Y-42716427D01*
X35586702Y-42716444D02*
X35490138Y-42742420D01*
X34413298Y-42716427D02*
X34509862Y-42742403D01*
X35490138Y-42742420D02*
X35391863Y-42760897D01*
X34509862Y-42742403D02*
X34608137Y-42760880D01*
X35391863Y-42760897D02*
X35292458Y-42771765D01*
X34608137Y-42760880D02*
X34707542Y-42771748D01*
X35292458Y-42771765D02*
X35192512Y-42774960D01*
X34707542Y-42771748D02*
X34807488Y-42774943D01*
X34807488Y-42774943D02*
X35192512Y-42774960D01*
X43000010Y-30025000D02*
X33500000Y-30025000D01*
X43000002Y-33025000D02*
X36500000Y-33025000D01*
X43000010Y-30025000D02*
X43099714Y-30032687D01*
X43000002Y-33025000D02*
X43099706Y-33017313D01*
X43099714Y-30032687D02*
X43198532Y-30048015D01*
X43099706Y-33017313D02*
X43198524Y-33001985D01*
X43198532Y-30048015D02*
X43295879Y-30070893D01*
X43198524Y-33001985D02*
X43295871Y-32979107D01*
X43295879Y-30070893D02*
X43391179Y-30101186D01*
X43295871Y-32979107D02*
X43391171Y-32948814D01*
X43391179Y-30101186D02*
X43483869Y-30138715D01*
X43391171Y-32948814D02*
X43483861Y-32911285D01*
X43483869Y-30138715D02*
X43573400Y-30183258D01*
X43483861Y-32911285D02*
X43573392Y-32866742D01*
X43573400Y-30183258D02*
X43659242Y-30234551D01*
X43573392Y-32866742D02*
X43659234Y-32815449D01*
X43659242Y-30234551D02*
X43740887Y-30292291D01*
X43659234Y-32815449D02*
X43740879Y-32757709D01*
X43740887Y-30292291D02*
X43817852Y-30356136D01*
X43740879Y-32757709D02*
X43817844Y-32693864D01*
X43817852Y-30356136D02*
X43889682Y-30425708D01*
X43817844Y-32693864D02*
X43889674Y-32624292D01*
X43889682Y-30425708D02*
X43955952Y-30500595D01*
X43889674Y-32624292D02*
X43955944Y-32549405D01*
X43955952Y-30500595D02*
X44016270Y-30580354D01*
X43955944Y-32549405D02*
X44016262Y-32469646D01*
X44016270Y-30580354D02*
X44070279Y-30664513D01*
X44016262Y-32469646D02*
X44070271Y-32385487D01*
X44070279Y-30664513D02*
X44117659Y-30752574D01*
X44070271Y-32385487D02*
X44117651Y-32297426D01*
X44117659Y-30752574D02*
X44158130Y-30844016D01*
X44117651Y-32297426D02*
X44158122Y-32205984D01*
X44158130Y-30844016D02*
X44191452Y-30938298D01*
X44158122Y-32205984D02*
X44191444Y-32111702D01*
X44191452Y-30938298D02*
X44217428Y-31034862D01*
X44191444Y-32111702D02*
X44217420Y-32015138D01*
X44217428Y-31034862D02*
X44235905Y-31133137D01*
X44217420Y-32015138D02*
X44235897Y-31916863D01*
X44235905Y-31133137D02*
X44246773Y-31232542D01*
X44235897Y-31916863D02*
X44246765Y-31817458D01*
X44246773Y-31232542D02*
X44249968Y-31332488D01*
X44246765Y-31817458D02*
X44249960Y-31717512D01*
X44249968Y-31332488D02*
X44249960Y-31717512D01*
X47999853Y-30025000D02*
X47900149Y-30032687D01*
X48000100Y-33025000D02*
X47900396Y-33017313D01*
X47900149Y-30032687D02*
X47801331Y-30048015D01*
X47900396Y-33017313D02*
X47801578Y-33001985D01*
X47801331Y-30048015D02*
X47703984Y-30070893D01*
X47801578Y-33001985D02*
X47704231Y-32979107D01*
X47703984Y-30070893D02*
X47608684Y-30101186D01*
X47704231Y-32979107D02*
X47608931Y-32948814D01*
X47608684Y-30101186D02*
X47515994Y-30138715D01*
X47608931Y-32948814D02*
X47516241Y-32911285D01*
X47515994Y-30138715D02*
X47426463Y-30183258D01*
X47516241Y-32911285D02*
X47426710Y-32866742D01*
X47426463Y-30183258D02*
X47340621Y-30234551D01*
X47426710Y-32866742D02*
X47340868Y-32815449D01*
X47340621Y-30234551D02*
X47258976Y-30292291D01*
X47340868Y-32815449D02*
X47259223Y-32757709D01*
X47258976Y-30292291D02*
X47182011Y-30356136D01*
X47259223Y-32757709D02*
X47182258Y-32693864D01*
X47182011Y-30356136D02*
X47110181Y-30425708D01*
X47182258Y-32693864D02*
X47110428Y-32624292D01*
X47110181Y-30425708D02*
X47043911Y-30500595D01*
X47110428Y-32624292D02*
X47044158Y-32549405D01*
X47043911Y-30500595D02*
X46983593Y-30580354D01*
X47044158Y-32549405D02*
X46983840Y-32469646D01*
X46983593Y-30580354D02*
X46929584Y-30664513D01*
X46983840Y-32469646D02*
X46929831Y-32385487D01*
X46929584Y-30664513D02*
X46882204Y-30752574D01*
X46929831Y-32385487D02*
X46882451Y-32297426D01*
X46882204Y-30752574D02*
X46841733Y-30844016D01*
X46882451Y-32297426D02*
X46841980Y-32205984D01*
X46841733Y-30844016D02*
X46808411Y-30938298D01*
X46841980Y-32205984D02*
X46808658Y-32111702D01*
X46808411Y-30938298D02*
X46782435Y-31034862D01*
X46808658Y-32111702D02*
X46782682Y-32015138D01*
X46782435Y-31034862D02*
X46763958Y-31133137D01*
X46782682Y-32015138D02*
X46764205Y-31916863D01*
X46763958Y-31133137D02*
X46753090Y-31232542D01*
X46764205Y-31916863D02*
X46753337Y-31817458D01*
X46753090Y-31232542D02*
X46749895Y-31332488D01*
X46753337Y-31817458D02*
X46750142Y-31717512D01*
X46749895Y-31332488D02*
X46750142Y-31717512D01*
X121999982Y-33025000D02*
X48000100Y-33025000D01*
X126999993Y-33025000D02*
X134925000Y-33025000D01*
X121999975Y-30025000D02*
X47999853Y-30025000D01*
X126999975Y-30025000D02*
X126900271Y-30032687D01*
X126999993Y-33025000D02*
X126900289Y-33017313D01*
X126900271Y-30032687D02*
X126801453Y-30048015D01*
X126900289Y-33017313D02*
X126801471Y-33001985D01*
X126801453Y-30048015D02*
X126704106Y-30070893D01*
X126801471Y-33001985D02*
X126704124Y-32979107D01*
X126704106Y-30070893D02*
X126608806Y-30101186D01*
X126704124Y-32979107D02*
X126608824Y-32948814D01*
X126608806Y-30101186D02*
X126516116Y-30138715D01*
X126608824Y-32948814D02*
X126516134Y-32911285D01*
X126516116Y-30138715D02*
X126426585Y-30183258D01*
X126516134Y-32911285D02*
X126426603Y-32866742D01*
X126426585Y-30183258D02*
X126340743Y-30234551D01*
X126426603Y-32866742D02*
X126340761Y-32815449D01*
X126340743Y-30234551D02*
X126259098Y-30292291D01*
X126340761Y-32815449D02*
X126259116Y-32757709D01*
X126259098Y-30292291D02*
X126182133Y-30356136D01*
X126259116Y-32757709D02*
X126182151Y-32693864D01*
X126182133Y-30356136D02*
X126110303Y-30425708D01*
X126182151Y-32693864D02*
X126110321Y-32624292D01*
X126110303Y-30425708D02*
X126044033Y-30500595D01*
X126110321Y-32624292D02*
X126044051Y-32549405D01*
X126044033Y-30500595D02*
X125983715Y-30580354D01*
X126044051Y-32549405D02*
X125983733Y-32469646D01*
X125983715Y-30580354D02*
X125929706Y-30664513D01*
X125983733Y-32469646D02*
X125929724Y-32385487D01*
X125929706Y-30664513D02*
X125882326Y-30752574D01*
X125929724Y-32385487D02*
X125882344Y-32297426D01*
X125882326Y-30752574D02*
X125841855Y-30844016D01*
X125882344Y-32297426D02*
X125841873Y-32205984D01*
X125841855Y-30844016D02*
X125808533Y-30938298D01*
X125841873Y-32205984D02*
X125808551Y-32111702D01*
X125808533Y-30938298D02*
X125782557Y-31034862D01*
X125808551Y-32111702D02*
X125782575Y-32015138D01*
X125782557Y-31034862D02*
X125764080Y-31133137D01*
X125782575Y-32015138D02*
X125764098Y-31916863D01*
X125764080Y-31133137D02*
X125753212Y-31232542D01*
X125764098Y-31916863D02*
X125753230Y-31817458D01*
X125753212Y-31232542D02*
X125750017Y-31332488D01*
X125753230Y-31817458D02*
X125750035Y-31717512D01*
X125750035Y-31717512D02*
X125750017Y-31332488D01*
X121999982Y-33025000D02*
X122099686Y-33017313D01*
X121999975Y-30025000D02*
X122099679Y-30032687D01*
X122099686Y-33017313D02*
X122198504Y-33001985D01*
X122099679Y-30032687D02*
X122198497Y-30048015D01*
X122198504Y-33001985D02*
X122295851Y-32979107D01*
X122198497Y-30048015D02*
X122295844Y-30070893D01*
X122295851Y-32979107D02*
X122391151Y-32948814D01*
X122295844Y-30070893D02*
X122391144Y-30101186D01*
X122391151Y-32948814D02*
X122483841Y-32911285D01*
X122391144Y-30101186D02*
X122483834Y-30138715D01*
X122483841Y-32911285D02*
X122573372Y-32866742D01*
X122483834Y-30138715D02*
X122573365Y-30183258D01*
X122573372Y-32866742D02*
X122659214Y-32815449D01*
X122573365Y-30183258D02*
X122659207Y-30234551D01*
X122659214Y-32815449D02*
X122740859Y-32757709D01*
X122659207Y-30234551D02*
X122740852Y-30292291D01*
X122740859Y-32757709D02*
X122817824Y-32693864D01*
X122740852Y-30292291D02*
X122817817Y-30356136D01*
X122817824Y-32693864D02*
X122889654Y-32624292D01*
X122817817Y-30356136D02*
X122889647Y-30425708D01*
X122889654Y-32624292D02*
X122955924Y-32549405D01*
X122889647Y-30425708D02*
X122955917Y-30500595D01*
X122955924Y-32549405D02*
X123016242Y-32469646D01*
X122955917Y-30500595D02*
X123016235Y-30580354D01*
X123016242Y-32469646D02*
X123070251Y-32385487D01*
X123016235Y-30580354D02*
X123070244Y-30664513D01*
X123070251Y-32385487D02*
X123117631Y-32297426D01*
X123070244Y-30664513D02*
X123117624Y-30752574D01*
X123117631Y-32297426D02*
X123158102Y-32205984D01*
X123117624Y-30752574D02*
X123158095Y-30844016D01*
X123158102Y-32205984D02*
X123191424Y-32111702D01*
X123158095Y-30844016D02*
X123191417Y-30938298D01*
X123191424Y-32111702D02*
X123217400Y-32015138D01*
X123191417Y-30938298D02*
X123217393Y-31034862D01*
X123217400Y-32015138D02*
X123235877Y-31916863D01*
X123217393Y-31034862D02*
X123235870Y-31133137D01*
X123235877Y-31916863D02*
X123246745Y-31817458D01*
X123235870Y-31133137D02*
X123246738Y-31232542D01*
X123246745Y-31817458D02*
X123249940Y-31717512D01*
X123246738Y-31232542D02*
X123249933Y-31332488D01*
X123249940Y-31717512D02*
X123249933Y-31332488D01*
X174000015Y-30025000D02*
X190000122Y-30025000D01*
X173999990Y-33025000D02*
X183500000Y-33025000D01*
X169000002Y-33025000D02*
X169099706Y-33017313D01*
X168999987Y-30025000D02*
X169099691Y-30032687D01*
X169099706Y-33017313D02*
X169198524Y-33001985D01*
X169099691Y-30032687D02*
X169198509Y-30048015D01*
X169198524Y-33001985D02*
X169295871Y-32979107D01*
X169198509Y-30048015D02*
X169295856Y-30070893D01*
X169295871Y-32979107D02*
X169391171Y-32948814D01*
X169295856Y-30070893D02*
X169391156Y-30101186D01*
X169391171Y-32948814D02*
X169483861Y-32911285D01*
X169391156Y-30101186D02*
X169483846Y-30138715D01*
X169483861Y-32911285D02*
X169573392Y-32866742D01*
X169483846Y-30138715D02*
X169573377Y-30183258D01*
X169573392Y-32866742D02*
X169659234Y-32815449D01*
X169573377Y-30183258D02*
X169659219Y-30234551D01*
X169659234Y-32815449D02*
X169740879Y-32757709D01*
X169659219Y-30234551D02*
X169740864Y-30292291D01*
X169740879Y-32757709D02*
X169817844Y-32693864D01*
X169740864Y-30292291D02*
X169817829Y-30356136D01*
X169817844Y-32693864D02*
X169889674Y-32624292D01*
X169817829Y-30356136D02*
X169889659Y-30425708D01*
X169889674Y-32624292D02*
X169955944Y-32549405D01*
X169889659Y-30425708D02*
X169955929Y-30500595D01*
X169955944Y-32549405D02*
X170016262Y-32469646D01*
X169955929Y-30500595D02*
X170016247Y-30580354D01*
X170016262Y-32469646D02*
X170070271Y-32385487D01*
X170016247Y-30580354D02*
X170070256Y-30664513D01*
X170070271Y-32385487D02*
X170117651Y-32297426D01*
X170070256Y-30664513D02*
X170117636Y-30752574D01*
X170117651Y-32297426D02*
X170158122Y-32205984D01*
X170117636Y-30752574D02*
X170158107Y-30844016D01*
X170158122Y-32205984D02*
X170191444Y-32111702D01*
X170158107Y-30844016D02*
X170191429Y-30938298D01*
X170191444Y-32111702D02*
X170217420Y-32015138D01*
X170191429Y-30938298D02*
X170217405Y-31034862D01*
X170217420Y-32015138D02*
X170235897Y-31916863D01*
X170217405Y-31034862D02*
X170235882Y-31133137D01*
X170235897Y-31916863D02*
X170246765Y-31817458D01*
X170235882Y-31133137D02*
X170246750Y-31232542D01*
X170246765Y-31817458D02*
X170249960Y-31717512D01*
X170246750Y-31232542D02*
X170249945Y-31332488D01*
X170249945Y-31332488D02*
X170249960Y-31717512D01*
X173999990Y-33025000D02*
X173900286Y-33017313D01*
X174000015Y-30025000D02*
X173900311Y-30032687D01*
X173900286Y-33017313D02*
X173801468Y-33001985D01*
X173900311Y-30032687D02*
X173801493Y-30048015D01*
X173801468Y-33001985D02*
X173704121Y-32979107D01*
X173801493Y-30048015D02*
X173704146Y-30070893D01*
X173704121Y-32979107D02*
X173608821Y-32948814D01*
X173704146Y-30070893D02*
X173608846Y-30101186D01*
X173608821Y-32948814D02*
X173516131Y-32911285D01*
X173608846Y-30101186D02*
X173516156Y-30138715D01*
X173516131Y-32911285D02*
X173426600Y-32866742D01*
X173516156Y-30138715D02*
X173426625Y-30183258D01*
X173426600Y-32866742D02*
X173340758Y-32815449D01*
X173426625Y-30183258D02*
X173340783Y-30234551D01*
X173340758Y-32815449D02*
X173259113Y-32757709D01*
X173340783Y-30234551D02*
X173259138Y-30292291D01*
X173259113Y-32757709D02*
X173182148Y-32693864D01*
X173259138Y-30292291D02*
X173182173Y-30356136D01*
X173182148Y-32693864D02*
X173110318Y-32624292D01*
X173182173Y-30356136D02*
X173110343Y-30425708D01*
X173110318Y-32624292D02*
X173044048Y-32549405D01*
X173110343Y-30425708D02*
X173044073Y-30500595D01*
X173044048Y-32549405D02*
X172983730Y-32469646D01*
X173044073Y-30500595D02*
X172983755Y-30580354D01*
X172983730Y-32469646D02*
X172929721Y-32385487D01*
X172983755Y-30580354D02*
X172929746Y-30664513D01*
X172929721Y-32385487D02*
X172882341Y-32297426D01*
X172929746Y-30664513D02*
X172882366Y-30752574D01*
X172882341Y-32297426D02*
X172841870Y-32205984D01*
X172882366Y-30752574D02*
X172841895Y-30844016D01*
X172841870Y-32205984D02*
X172808548Y-32111702D01*
X172841895Y-30844016D02*
X172808573Y-30938298D01*
X172808548Y-32111702D02*
X172782572Y-32015138D01*
X172808573Y-30938298D02*
X172782597Y-31034862D01*
X172782572Y-32015138D02*
X172764095Y-31916863D01*
X172782597Y-31034862D02*
X172764120Y-31133137D01*
X172764095Y-31916863D02*
X172753227Y-31817458D01*
X172764120Y-31133137D02*
X172753252Y-31232542D01*
X172753227Y-31817458D02*
X172750032Y-31717512D01*
X172753252Y-31232542D02*
X172750057Y-31332488D01*
X172750057Y-31332488D02*
X172750032Y-31717512D01*
X152999998Y-33025000D02*
X169000002Y-33025000D01*
X148000010Y-33025000D02*
X138500000Y-33025000D01*
X152999995Y-30025000D02*
X168999987Y-30025000D01*
X148000007Y-30025000D02*
X126999975Y-30025000D01*
X152999995Y-30025000D02*
X152900291Y-30032687D01*
X152999998Y-33025000D02*
X152900294Y-33017313D01*
X152900291Y-30032687D02*
X152801473Y-30048015D01*
X152900294Y-33017313D02*
X152801476Y-33001985D01*
X152801473Y-30048015D02*
X152704126Y-30070893D01*
X152801476Y-33001985D02*
X152704129Y-32979107D01*
X152704126Y-30070893D02*
X152608826Y-30101186D01*
X152704129Y-32979107D02*
X152608829Y-32948814D01*
X152608826Y-30101186D02*
X152516136Y-30138715D01*
X152608829Y-32948814D02*
X152516139Y-32911285D01*
X152516136Y-30138715D02*
X152426605Y-30183258D01*
X152516139Y-32911285D02*
X152426608Y-32866742D01*
X152426605Y-30183258D02*
X152340763Y-30234551D01*
X152426608Y-32866742D02*
X152340766Y-32815449D01*
X152340763Y-30234551D02*
X152259118Y-30292291D01*
X152340766Y-32815449D02*
X152259121Y-32757709D01*
X152259118Y-30292291D02*
X152182153Y-30356136D01*
X152259121Y-32757709D02*
X152182156Y-32693864D01*
X152182153Y-30356136D02*
X152110323Y-30425708D01*
X152182156Y-32693864D02*
X152110326Y-32624292D01*
X152110323Y-30425708D02*
X152044053Y-30500595D01*
X152110326Y-32624292D02*
X152044056Y-32549405D01*
X152044053Y-30500595D02*
X151983735Y-30580354D01*
X152044056Y-32549405D02*
X151983738Y-32469646D01*
X151983735Y-30580354D02*
X151929726Y-30664513D01*
X151983738Y-32469646D02*
X151929729Y-32385487D01*
X151929726Y-30664513D02*
X151882346Y-30752574D01*
X151929729Y-32385487D02*
X151882349Y-32297426D01*
X151882346Y-30752574D02*
X151841875Y-30844016D01*
X151882349Y-32297426D02*
X151841878Y-32205984D01*
X151841875Y-30844016D02*
X151808553Y-30938298D01*
X151841878Y-32205984D02*
X151808556Y-32111702D01*
X151808553Y-30938298D02*
X151782577Y-31034862D01*
X151808556Y-32111702D02*
X151782580Y-32015138D01*
X151782577Y-31034862D02*
X151764100Y-31133137D01*
X151782580Y-32015138D02*
X151764103Y-31916863D01*
X151764100Y-31133137D02*
X151753232Y-31232542D01*
X151764103Y-31916863D02*
X151753235Y-31817458D01*
X151753232Y-31232542D02*
X151750037Y-31332488D01*
X151753235Y-31817458D02*
X151750040Y-31717512D01*
X151750040Y-31717512D02*
X151750037Y-31332488D01*
X148000010Y-33025000D02*
X148099714Y-33017313D01*
X148000007Y-30025000D02*
X148099711Y-30032687D01*
X148099714Y-33017313D02*
X148198532Y-33001985D01*
X148099711Y-30032687D02*
X148198529Y-30048015D01*
X148198532Y-33001985D02*
X148295879Y-32979107D01*
X148198529Y-30048015D02*
X148295876Y-30070893D01*
X148295879Y-32979107D02*
X148391179Y-32948814D01*
X148295876Y-30070893D02*
X148391176Y-30101186D01*
X148391179Y-32948814D02*
X148483869Y-32911285D01*
X148391176Y-30101186D02*
X148483866Y-30138715D01*
X148483869Y-32911285D02*
X148573400Y-32866742D01*
X148483866Y-30138715D02*
X148573397Y-30183258D01*
X148573400Y-32866742D02*
X148659242Y-32815449D01*
X148573397Y-30183258D02*
X148659239Y-30234551D01*
X148659242Y-32815449D02*
X148740887Y-32757709D01*
X148659239Y-30234551D02*
X148740884Y-30292291D01*
X148740887Y-32757709D02*
X148817852Y-32693864D01*
X148740884Y-30292291D02*
X148817849Y-30356136D01*
X148817852Y-32693864D02*
X148889682Y-32624292D01*
X148817849Y-30356136D02*
X148889679Y-30425708D01*
X148889682Y-32624292D02*
X148955952Y-32549405D01*
X148889679Y-30425708D02*
X148955949Y-30500595D01*
X148955952Y-32549405D02*
X149016270Y-32469646D01*
X148955949Y-30500595D02*
X149016267Y-30580354D01*
X149016270Y-32469646D02*
X149070279Y-32385487D01*
X149016267Y-30580354D02*
X149070276Y-30664513D01*
X149070279Y-32385487D02*
X149117659Y-32297426D01*
X149070276Y-30664513D02*
X149117656Y-30752574D01*
X149117659Y-32297426D02*
X149158130Y-32205984D01*
X149117656Y-30752574D02*
X149158127Y-30844016D01*
X149158130Y-32205984D02*
X149191452Y-32111702D01*
X149158127Y-30844016D02*
X149191449Y-30938298D01*
X149191452Y-32111702D02*
X149217428Y-32015138D01*
X149191449Y-30938298D02*
X149217425Y-31034862D01*
X149217428Y-32015138D02*
X149235905Y-31916863D01*
X149217425Y-31034862D02*
X149235902Y-31133137D01*
X149235905Y-31916863D02*
X149246773Y-31817458D01*
X149235902Y-31133137D02*
X149246770Y-31232542D01*
X149246773Y-31817458D02*
X149249968Y-31717512D01*
X149246770Y-31232542D02*
X149249965Y-31332488D01*
X149249968Y-31717512D02*
X149249965Y-31332488D01*
X183500000Y-42525010D02*
X183500000Y-33025000D01*
X187500000Y-42525010D02*
X187500000Y-33025000D01*
X187500000Y-47524998D02*
X187492313Y-47425294D01*
X183500000Y-47524998D02*
X183507687Y-47425294D01*
X187492313Y-47425294D02*
X187476985Y-47326476D01*
X183507687Y-47425294D02*
X183523015Y-47326476D01*
X187476985Y-47326476D02*
X187454107Y-47229129D01*
X183523015Y-47326476D02*
X183545893Y-47229129D01*
X187454107Y-47229129D02*
X187423814Y-47133829D01*
X183545893Y-47229129D02*
X183576186Y-47133829D01*
X187423814Y-47133829D02*
X187386285Y-47041139D01*
X183576186Y-47133829D02*
X183613715Y-47041139D01*
X187386285Y-47041139D02*
X187341742Y-46951608D01*
X183613715Y-47041139D02*
X183658258Y-46951608D01*
X187341742Y-46951608D02*
X187290449Y-46865766D01*
X183658258Y-46951608D02*
X183709551Y-46865766D01*
X187290449Y-46865766D02*
X187232709Y-46784121D01*
X183709551Y-46865766D02*
X183767291Y-46784121D01*
X187232709Y-46784121D02*
X187168864Y-46707156D01*
X183767291Y-46784121D02*
X183831136Y-46707156D01*
X187168864Y-46707156D02*
X187099292Y-46635326D01*
X183831136Y-46707156D02*
X183900708Y-46635326D01*
X187099292Y-46635326D02*
X187024405Y-46569056D01*
X183900708Y-46635326D02*
X183975595Y-46569056D01*
X187024405Y-46569056D02*
X186944646Y-46508738D01*
X183975595Y-46569056D02*
X184055354Y-46508738D01*
X186944646Y-46508738D02*
X186860487Y-46454729D01*
X184055354Y-46508738D02*
X184139513Y-46454729D01*
X186860487Y-46454729D02*
X186772426Y-46407349D01*
X184139513Y-46454729D02*
X184227574Y-46407349D01*
X186772426Y-46407349D02*
X186680984Y-46366878D01*
X184227574Y-46407349D02*
X184319016Y-46366878D01*
X186680984Y-46366878D02*
X186586702Y-46333556D01*
X184319016Y-46366878D02*
X184413298Y-46333556D01*
X186586702Y-46333556D02*
X186490138Y-46307580D01*
X184413298Y-46333556D02*
X184509862Y-46307580D01*
X186490138Y-46307580D02*
X186391863Y-46289103D01*
X184509862Y-46307580D02*
X184608137Y-46289103D01*
X186391863Y-46289103D02*
X186292458Y-46278235D01*
X184608137Y-46289103D02*
X184707542Y-46278235D01*
X186292458Y-46278235D02*
X186192512Y-46275040D01*
X184707542Y-46278235D02*
X184807488Y-46275040D01*
X184807488Y-46275040D02*
X186192512Y-46275040D01*
X187500000Y-42525010D02*
X187492313Y-42624714D01*
X183500000Y-42525010D02*
X183507687Y-42624714D01*
X187492313Y-42624714D02*
X187476985Y-42723532D01*
X183507687Y-42624714D02*
X183523015Y-42723532D01*
X187476985Y-42723532D02*
X187454107Y-42820879D01*
X183523015Y-42723532D02*
X183545893Y-42820879D01*
X187454107Y-42820879D02*
X187423814Y-42916179D01*
X183545893Y-42820879D02*
X183576186Y-42916179D01*
X187423814Y-42916179D02*
X187386285Y-43008869D01*
X183576186Y-42916179D02*
X183613715Y-43008869D01*
X187386285Y-43008869D02*
X187341742Y-43098400D01*
X183613715Y-43008869D02*
X183658258Y-43098400D01*
X187341742Y-43098400D02*
X187290449Y-43184242D01*
X183658258Y-43098400D02*
X183709551Y-43184242D01*
X187290449Y-43184242D02*
X187232709Y-43265887D01*
X183709551Y-43184242D02*
X183767291Y-43265887D01*
X187232709Y-43265887D02*
X187168864Y-43342852D01*
X183767291Y-43265887D02*
X183831136Y-43342852D01*
X187168864Y-43342852D02*
X187099292Y-43414682D01*
X183831136Y-43342852D02*
X183900708Y-43414682D01*
X187099292Y-43414682D02*
X187024405Y-43480952D01*
X183900708Y-43414682D02*
X183975595Y-43480952D01*
X187024405Y-43480952D02*
X186944646Y-43541270D01*
X183975595Y-43480952D02*
X184055354Y-43541270D01*
X186944646Y-43541270D02*
X186860487Y-43595279D01*
X184055354Y-43541270D02*
X184139513Y-43595279D01*
X186860487Y-43595279D02*
X186772426Y-43642659D01*
X184139513Y-43595279D02*
X184227574Y-43642659D01*
X186772426Y-43642659D02*
X186680984Y-43683130D01*
X184227574Y-43642659D02*
X184319016Y-43683130D01*
X186680984Y-43683130D02*
X186586702Y-43716452D01*
X184319016Y-43683130D02*
X184413298Y-43716452D01*
X186586702Y-43716452D02*
X186490138Y-43742428D01*
X184413298Y-43716452D02*
X184509862Y-43742428D01*
X186490138Y-43742428D02*
X186391863Y-43760905D01*
X184509862Y-43742428D02*
X184608137Y-43760905D01*
X186391863Y-43760905D02*
X186292458Y-43771773D01*
X184608137Y-43760905D02*
X184707542Y-43771773D01*
X186292458Y-43771773D02*
X186192512Y-43774968D01*
X184707542Y-43771773D02*
X184807488Y-43774968D01*
X184807488Y-43774968D02*
X186192512Y-43774968D01*
X183500000Y-62524992D02*
X183500000Y-47524998D01*
X183500000Y-67524998D02*
X183500000Y-78025000D01*
X187500000Y-62524992D02*
X187500000Y-47524998D01*
X187500000Y-67524998D02*
X187500000Y-78025000D01*
X187500000Y-67524998D02*
X187492313Y-67425294D01*
X183500000Y-67524998D02*
X183507687Y-67425294D01*
X187492313Y-67425294D02*
X187476985Y-67326476D01*
X183507687Y-67425294D02*
X183523015Y-67326476D01*
X187476985Y-67326476D02*
X187454107Y-67229129D01*
X183523015Y-67326476D02*
X183545893Y-67229129D01*
X187454107Y-67229129D02*
X187423814Y-67133829D01*
X183545893Y-67229129D02*
X183576186Y-67133829D01*
X187423814Y-67133829D02*
X187386285Y-67041139D01*
X183576186Y-67133829D02*
X183613715Y-67041139D01*
X187386285Y-67041139D02*
X187341742Y-66951608D01*
X183613715Y-67041139D02*
X183658258Y-66951608D01*
X187341742Y-66951608D02*
X187290449Y-66865766D01*
X183658258Y-66951608D02*
X183709551Y-66865766D01*
X187290449Y-66865766D02*
X187232709Y-66784121D01*
X183709551Y-66865766D02*
X183767291Y-66784121D01*
X187232709Y-66784121D02*
X187168864Y-66707156D01*
X183767291Y-66784121D02*
X183831136Y-66707156D01*
X187168864Y-66707156D02*
X187099292Y-66635326D01*
X183831136Y-66707156D02*
X183900708Y-66635326D01*
X187099292Y-66635326D02*
X187024405Y-66569056D01*
X183900708Y-66635326D02*
X183975595Y-66569056D01*
X187024405Y-66569056D02*
X186944646Y-66508738D01*
X183975595Y-66569056D02*
X184055354Y-66508738D01*
X186944646Y-66508738D02*
X186860487Y-66454729D01*
X184055354Y-66508738D02*
X184139513Y-66454729D01*
X186860487Y-66454729D02*
X186772426Y-66407349D01*
X184139513Y-66454729D02*
X184227574Y-66407349D01*
X186772426Y-66407349D02*
X186680984Y-66366878D01*
X184227574Y-66407349D02*
X184319016Y-66366878D01*
X186680984Y-66366878D02*
X186586702Y-66333556D01*
X184319016Y-66366878D02*
X184413298Y-66333556D01*
X186586702Y-66333556D02*
X186490138Y-66307580D01*
X184413298Y-66333556D02*
X184509862Y-66307580D01*
X186490138Y-66307580D02*
X186391863Y-66289103D01*
X184509862Y-66307580D02*
X184608137Y-66289103D01*
X186391863Y-66289103D02*
X186292458Y-66278235D01*
X184608137Y-66289103D02*
X184707542Y-66278235D01*
X186292458Y-66278235D02*
X186192512Y-66275040D01*
X184707542Y-66278235D02*
X184807488Y-66275040D01*
X184807488Y-66275040D02*
X186192512Y-66275040D01*
X187500000Y-62524992D02*
X187492313Y-62624696D01*
X183500000Y-62524992D02*
X183507687Y-62624696D01*
X187492313Y-62624696D02*
X187476985Y-62723514D01*
X183507687Y-62624696D02*
X183523015Y-62723514D01*
X187476985Y-62723514D02*
X187454107Y-62820861D01*
X183523015Y-62723514D02*
X183545893Y-62820861D01*
X187454107Y-62820861D02*
X187423814Y-62916161D01*
X183545893Y-62820861D02*
X183576186Y-62916161D01*
X187423814Y-62916161D02*
X187386285Y-63008851D01*
X183576186Y-62916161D02*
X183613715Y-63008851D01*
X187386285Y-63008851D02*
X187341742Y-63098382D01*
X183613715Y-63008851D02*
X183658258Y-63098382D01*
X187341742Y-63098382D02*
X187290449Y-63184224D01*
X183658258Y-63098382D02*
X183709551Y-63184224D01*
X187290449Y-63184224D02*
X187232709Y-63265869D01*
X183709551Y-63184224D02*
X183767291Y-63265869D01*
X187232709Y-63265869D02*
X187168864Y-63342834D01*
X183767291Y-63265869D02*
X183831136Y-63342834D01*
X187168864Y-63342834D02*
X187099292Y-63414664D01*
X183831136Y-63342834D02*
X183900708Y-63414664D01*
X187099292Y-63414664D02*
X187024405Y-63480934D01*
X183900708Y-63414664D02*
X183975595Y-63480934D01*
X187024405Y-63480934D02*
X186944646Y-63541252D01*
X183975595Y-63480934D02*
X184055354Y-63541252D01*
X186944646Y-63541252D02*
X186860487Y-63595261D01*
X184055354Y-63541252D02*
X184139513Y-63595261D01*
X186860487Y-63595261D02*
X186772426Y-63642641D01*
X184139513Y-63595261D02*
X184227574Y-63642641D01*
X186772426Y-63642641D02*
X186680984Y-63683112D01*
X184227574Y-63642641D02*
X184319016Y-63683112D01*
X186680984Y-63683112D02*
X186586702Y-63716434D01*
X184319016Y-63683112D02*
X184413298Y-63716434D01*
X186586702Y-63716434D02*
X186490138Y-63742410D01*
X184413298Y-63716434D02*
X184509862Y-63742410D01*
X186490138Y-63742410D02*
X186391863Y-63760887D01*
X184509862Y-63742410D02*
X184608137Y-63760887D01*
X186391863Y-63760887D02*
X186292458Y-63771755D01*
X184608137Y-63760887D02*
X184707542Y-63771755D01*
X186292458Y-63771755D02*
X186192512Y-63774950D01*
X184707542Y-63771755D02*
X184807488Y-63774950D01*
X184807488Y-63774950D02*
X186192512Y-63774950D01*
X236999990Y-78025000D02*
X246500000Y-78025000D01*
X236999988Y-82625000D02*
X263935000Y-82625000D01*
X232000005Y-82625000D02*
X232099709Y-82617313D01*
X231999952Y-78025000D02*
X232099656Y-78032687D01*
X232099709Y-82617313D02*
X232198527Y-82601985D01*
X232099656Y-78032687D02*
X232198474Y-78048015D01*
X232198527Y-82601985D02*
X232295874Y-82579107D01*
X232198474Y-78048015D02*
X232295821Y-78070893D01*
X232295874Y-82579107D02*
X232391174Y-82548814D01*
X232295821Y-78070893D02*
X232391121Y-78101186D01*
X232391174Y-82548814D02*
X232483864Y-82511285D01*
X232391121Y-78101186D02*
X232483811Y-78138715D01*
X232483864Y-82511285D02*
X232573395Y-82466742D01*
X232483811Y-78138715D02*
X232573342Y-78183258D01*
X232573395Y-82466742D02*
X232659237Y-82415449D01*
X232573342Y-78183258D02*
X232659184Y-78234551D01*
X232659237Y-82415449D02*
X232740882Y-82357709D01*
X232659184Y-78234551D02*
X232740829Y-78292291D01*
X232740882Y-82357709D02*
X232817847Y-82293864D01*
X232740829Y-78292291D02*
X232817794Y-78356136D01*
X232817847Y-82293864D02*
X232889677Y-82224292D01*
X232817794Y-78356136D02*
X232889624Y-78425708D01*
X232889677Y-82224292D02*
X232955947Y-82149405D01*
X232889624Y-78425708D02*
X232955894Y-78500595D01*
X232955947Y-82149405D02*
X233016265Y-82069646D01*
X232955894Y-78500595D02*
X233016212Y-78580354D01*
X233016265Y-82069646D02*
X233070274Y-81985487D01*
X233016212Y-78580354D02*
X233070221Y-78664513D01*
X233070274Y-81985487D02*
X233117654Y-81897426D01*
X233070221Y-78664513D02*
X233117601Y-78752574D01*
X233117654Y-81897426D02*
X233158125Y-81805984D01*
X233117601Y-78752574D02*
X233158072Y-78844016D01*
X233158125Y-81805984D02*
X233191447Y-81711702D01*
X233158072Y-78844016D02*
X233191394Y-78938298D01*
X233191447Y-81711702D02*
X233217423Y-81615138D01*
X233191394Y-78938298D02*
X233217370Y-79034862D01*
X233217423Y-81615138D02*
X233235900Y-81516863D01*
X233217370Y-79034862D02*
X233235847Y-79133137D01*
X233235900Y-81516863D02*
X233246768Y-81417458D01*
X233235847Y-79133137D02*
X233246715Y-79232542D01*
X233246768Y-81417458D02*
X233249963Y-81317512D01*
X233246715Y-79232542D02*
X233249910Y-79332488D01*
X233249910Y-79332488D02*
X233249963Y-81317512D01*
X236999988Y-82625000D02*
X236900284Y-82617313D01*
X236999990Y-78025000D02*
X236900286Y-78032687D01*
X236900284Y-82617313D02*
X236801466Y-82601985D01*
X236900286Y-78032687D02*
X236801468Y-78048015D01*
X236801466Y-82601985D02*
X236704119Y-82579107D01*
X236801468Y-78048015D02*
X236704121Y-78070893D01*
X236704119Y-82579107D02*
X236608819Y-82548814D01*
X236704121Y-78070893D02*
X236608821Y-78101186D01*
X236608819Y-82548814D02*
X236516129Y-82511285D01*
X236608821Y-78101186D02*
X236516131Y-78138715D01*
X236516129Y-82511285D02*
X236426598Y-82466742D01*
X236516131Y-78138715D02*
X236426600Y-78183258D01*
X236426598Y-82466742D02*
X236340756Y-82415449D01*
X236426600Y-78183258D02*
X236340758Y-78234551D01*
X236340756Y-82415449D02*
X236259111Y-82357709D01*
X236340758Y-78234551D02*
X236259113Y-78292291D01*
X236259111Y-82357709D02*
X236182146Y-82293864D01*
X236259113Y-78292291D02*
X236182148Y-78356136D01*
X236182146Y-82293864D02*
X236110316Y-82224292D01*
X236182148Y-78356136D02*
X236110318Y-78425708D01*
X236110316Y-82224292D02*
X236044046Y-82149405D01*
X236110318Y-78425708D02*
X236044048Y-78500595D01*
X236044046Y-82149405D02*
X235983728Y-82069646D01*
X236044048Y-78500595D02*
X235983730Y-78580354D01*
X235983728Y-82069646D02*
X235929719Y-81985487D01*
X235983730Y-78580354D02*
X235929721Y-78664513D01*
X235929719Y-81985487D02*
X235882339Y-81897426D01*
X235929721Y-78664513D02*
X235882341Y-78752574D01*
X235882339Y-81897426D02*
X235841868Y-81805984D01*
X235882341Y-78752574D02*
X235841870Y-78844016D01*
X235841868Y-81805984D02*
X235808546Y-81711702D01*
X235841870Y-78844016D02*
X235808548Y-78938298D01*
X235808546Y-81711702D02*
X235782570Y-81615138D01*
X235808548Y-78938298D02*
X235782572Y-79034862D01*
X235782570Y-81615138D02*
X235764093Y-81516863D01*
X235782572Y-79034862D02*
X235764095Y-79133137D01*
X235764093Y-81516863D02*
X235753225Y-81417458D01*
X235764095Y-79133137D02*
X235753227Y-79232542D01*
X235753225Y-81417458D02*
X235750030Y-81317512D01*
X235753227Y-79232542D02*
X235750032Y-79332488D01*
X235750032Y-79332488D02*
X235750030Y-81317512D01*
X204000005Y-78025000D02*
X231999952Y-78025000D01*
X198999985Y-78025000D02*
X187500000Y-78025000D01*
X204000010Y-82625000D02*
X232000005Y-82625000D01*
X199000015Y-82625000D02*
X187100000Y-82625000D01*
X199000015Y-82625000D02*
X199099719Y-82617313D01*
X198999985Y-78025000D02*
X199099689Y-78032687D01*
X199099719Y-82617313D02*
X199198537Y-82601985D01*
X199099689Y-78032687D02*
X199198507Y-78048015D01*
X199198537Y-82601985D02*
X199295884Y-82579107D01*
X199198507Y-78048015D02*
X199295854Y-78070893D01*
X199295884Y-82579107D02*
X199391184Y-82548814D01*
X199295854Y-78070893D02*
X199391154Y-78101186D01*
X199391184Y-82548814D02*
X199483874Y-82511285D01*
X199391154Y-78101186D02*
X199483844Y-78138715D01*
X199483874Y-82511285D02*
X199573405Y-82466742D01*
X199483844Y-78138715D02*
X199573375Y-78183258D01*
X199573405Y-82466742D02*
X199659247Y-82415449D01*
X199573375Y-78183258D02*
X199659217Y-78234551D01*
X199659247Y-82415449D02*
X199740892Y-82357709D01*
X199659217Y-78234551D02*
X199740862Y-78292291D01*
X199740892Y-82357709D02*
X199817857Y-82293864D01*
X199740862Y-78292291D02*
X199817827Y-78356136D01*
X199817857Y-82293864D02*
X199889687Y-82224292D01*
X199817827Y-78356136D02*
X199889657Y-78425708D01*
X199889687Y-82224292D02*
X199955957Y-82149405D01*
X199889657Y-78425708D02*
X199955927Y-78500595D01*
X199955957Y-82149405D02*
X200016275Y-82069646D01*
X199955927Y-78500595D02*
X200016245Y-78580354D01*
X200016275Y-82069646D02*
X200070284Y-81985487D01*
X200016245Y-78580354D02*
X200070254Y-78664513D01*
X200070284Y-81985487D02*
X200117664Y-81897426D01*
X200070254Y-78664513D02*
X200117634Y-78752574D01*
X200117664Y-81897426D02*
X200158135Y-81805984D01*
X200117634Y-78752574D02*
X200158105Y-78844016D01*
X200158135Y-81805984D02*
X200191457Y-81711702D01*
X200158105Y-78844016D02*
X200191427Y-78938298D01*
X200191457Y-81711702D02*
X200217433Y-81615138D01*
X200191427Y-78938298D02*
X200217403Y-79034862D01*
X200217433Y-81615138D02*
X200235910Y-81516863D01*
X200217403Y-79034862D02*
X200235880Y-79133137D01*
X200235910Y-81516863D02*
X200246778Y-81417458D01*
X200235880Y-79133137D02*
X200246748Y-79232542D01*
X200246778Y-81417458D02*
X200249973Y-81317512D01*
X200246748Y-79232542D02*
X200249943Y-79332488D01*
X200249943Y-79332488D02*
X200249973Y-81317512D01*
X204000005Y-78025000D02*
X203900301Y-78032687D01*
X204000010Y-82625000D02*
X203900306Y-82617313D01*
X203900301Y-78032687D02*
X203801483Y-78048015D01*
X203900306Y-82617313D02*
X203801488Y-82601985D01*
X203801483Y-78048015D02*
X203704136Y-78070893D01*
X203801488Y-82601985D02*
X203704141Y-82579107D01*
X203704136Y-78070893D02*
X203608836Y-78101186D01*
X203704141Y-82579107D02*
X203608841Y-82548814D01*
X203608836Y-78101186D02*
X203516146Y-78138715D01*
X203608841Y-82548814D02*
X203516151Y-82511285D01*
X203516146Y-78138715D02*
X203426615Y-78183258D01*
X203516151Y-82511285D02*
X203426620Y-82466742D01*
X203426615Y-78183258D02*
X203340773Y-78234551D01*
X203426620Y-82466742D02*
X203340778Y-82415449D01*
X203340773Y-78234551D02*
X203259128Y-78292291D01*
X203340778Y-82415449D02*
X203259133Y-82357709D01*
X203259128Y-78292291D02*
X203182163Y-78356136D01*
X203259133Y-82357709D02*
X203182168Y-82293864D01*
X203182163Y-78356136D02*
X203110333Y-78425708D01*
X203182168Y-82293864D02*
X203110338Y-82224292D01*
X203110333Y-78425708D02*
X203044063Y-78500595D01*
X203110338Y-82224292D02*
X203044068Y-82149405D01*
X203044063Y-78500595D02*
X202983745Y-78580354D01*
X203044068Y-82149405D02*
X202983750Y-82069646D01*
X202983745Y-78580354D02*
X202929736Y-78664513D01*
X202983750Y-82069646D02*
X202929741Y-81985487D01*
X202929736Y-78664513D02*
X202882356Y-78752574D01*
X202929741Y-81985487D02*
X202882361Y-81897426D01*
X202882356Y-78752574D02*
X202841885Y-78844016D01*
X202882361Y-81897426D02*
X202841890Y-81805984D01*
X202841885Y-78844016D02*
X202808563Y-78938298D01*
X202841890Y-81805984D02*
X202808568Y-81711702D01*
X202808563Y-78938298D02*
X202782587Y-79034862D01*
X202808568Y-81711702D02*
X202782592Y-81615138D01*
X202782587Y-79034862D02*
X202764110Y-79133137D01*
X202782592Y-81615138D02*
X202764115Y-81516863D01*
X202764110Y-79133137D02*
X202753242Y-79232542D01*
X202764115Y-81516863D02*
X202753247Y-81417458D01*
X202753242Y-79232542D02*
X202750047Y-79332488D01*
X202753247Y-81417458D02*
X202750052Y-81317512D01*
X202750047Y-79332488D02*
X202750052Y-81317512D01*
X183500000Y-116524998D02*
X183500000Y-127025000D01*
X187100000Y-116525005D02*
X187100000Y-120725000D01*
X183500000Y-116524998D02*
X183507687Y-116425294D01*
X187100000Y-116525005D02*
X187092313Y-116425301D01*
X183507687Y-116425294D02*
X183523015Y-116326476D01*
X187092313Y-116425301D02*
X187076985Y-116326483D01*
X183523015Y-116326476D02*
X183545893Y-116229129D01*
X187076985Y-116326483D02*
X187054107Y-116229136D01*
X183545893Y-116229129D02*
X183576186Y-116133829D01*
X187054107Y-116229136D02*
X187023814Y-116133836D01*
X183576186Y-116133829D02*
X183613715Y-116041139D01*
X187023814Y-116133836D02*
X186986285Y-116041146D01*
X183613715Y-116041139D02*
X183658258Y-115951608D01*
X186986285Y-116041146D02*
X186941742Y-115951615D01*
X183658258Y-115951608D02*
X183709551Y-115865766D01*
X186941742Y-115951615D02*
X186890449Y-115865773D01*
X183709551Y-115865766D02*
X183767291Y-115784121D01*
X186890449Y-115865773D02*
X186832709Y-115784128D01*
X183767291Y-115784121D02*
X183831136Y-115707156D01*
X186832709Y-115784128D02*
X186768864Y-115707163D01*
X183831136Y-115707156D02*
X183900708Y-115635326D01*
X186768864Y-115707163D02*
X186699292Y-115635333D01*
X183900708Y-115635326D02*
X183975595Y-115569056D01*
X186699292Y-115635333D02*
X186624405Y-115569063D01*
X183975595Y-115569056D02*
X184055354Y-115508738D01*
X186624405Y-115569063D02*
X186544646Y-115508745D01*
X184055354Y-115508738D02*
X184139513Y-115454729D01*
X186544646Y-115508745D02*
X186460487Y-115454736D01*
X184139513Y-115454729D02*
X184227574Y-115407349D01*
X186460487Y-115454736D02*
X186372426Y-115407356D01*
X184227574Y-115407349D02*
X184319016Y-115366878D01*
X186372426Y-115407356D02*
X186280984Y-115366885D01*
X184319016Y-115366878D02*
X184413298Y-115333556D01*
X186280984Y-115366885D02*
X186186702Y-115333563D01*
X184413298Y-115333556D02*
X184509862Y-115307580D01*
X186186702Y-115333563D02*
X186090138Y-115307587D01*
X184509862Y-115307580D02*
X184608137Y-115289103D01*
X186090138Y-115307587D02*
X185991863Y-115289110D01*
X184608137Y-115289103D02*
X184707542Y-115278235D01*
X185991863Y-115289110D02*
X185892458Y-115278242D01*
X184707542Y-115278235D02*
X184807488Y-115275040D01*
X185892458Y-115278242D02*
X185792512Y-115275047D01*
X184807488Y-115275040D02*
X185792512Y-115275047D01*
X187100000Y-111525010D02*
X187092313Y-111624714D01*
X183500000Y-111525000D02*
X183507687Y-111624704D01*
X187092313Y-111624714D02*
X187076985Y-111723532D01*
X183507687Y-111624704D02*
X183523015Y-111723522D01*
X187076985Y-111723532D02*
X187054107Y-111820879D01*
X183523015Y-111723522D02*
X183545893Y-111820869D01*
X187054107Y-111820879D02*
X187023814Y-111916179D01*
X183545893Y-111820869D02*
X183576186Y-111916169D01*
X187023814Y-111916179D02*
X186986285Y-112008869D01*
X183576186Y-111916169D02*
X183613715Y-112008859D01*
X186986285Y-112008869D02*
X186941742Y-112098400D01*
X183613715Y-112008859D02*
X183658258Y-112098390D01*
X186941742Y-112098400D02*
X186890449Y-112184242D01*
X183658258Y-112098390D02*
X183709551Y-112184232D01*
X186890449Y-112184242D02*
X186832709Y-112265887D01*
X183709551Y-112184232D02*
X183767291Y-112265877D01*
X186832709Y-112265887D02*
X186768864Y-112342852D01*
X183767291Y-112265877D02*
X183831136Y-112342842D01*
X186768864Y-112342852D02*
X186699292Y-112414682D01*
X183831136Y-112342842D02*
X183900708Y-112414672D01*
X186699292Y-112414682D02*
X186624405Y-112480952D01*
X183900708Y-112414672D02*
X183975595Y-112480942D01*
X186624405Y-112480952D02*
X186544646Y-112541270D01*
X183975595Y-112480942D02*
X184055354Y-112541260D01*
X186544646Y-112541270D02*
X186460487Y-112595279D01*
X184055354Y-112541260D02*
X184139513Y-112595269D01*
X186460487Y-112595279D02*
X186372426Y-112642659D01*
X184139513Y-112595269D02*
X184227574Y-112642649D01*
X186372426Y-112642659D02*
X186280984Y-112683130D01*
X184227574Y-112642649D02*
X184319016Y-112683120D01*
X186280984Y-112683130D02*
X186186702Y-112716452D01*
X184319016Y-112683120D02*
X184413298Y-112716442D01*
X186186702Y-112716452D02*
X186090138Y-112742428D01*
X184413298Y-112716442D02*
X184509862Y-112742418D01*
X186090138Y-112742428D02*
X185991863Y-112760905D01*
X184509862Y-112742418D02*
X184608137Y-112760895D01*
X185991863Y-112760905D02*
X185892458Y-112771773D01*
X184608137Y-112760895D02*
X184707542Y-112771763D01*
X185892458Y-112771773D02*
X185792512Y-112774968D01*
X184707542Y-112771763D02*
X184807488Y-112774958D01*
X184807488Y-112774958D02*
X185792512Y-112774968D01*
X183500000Y-99525018D02*
X183500000Y-111525000D01*
X183500000Y-94524987D02*
X183500000Y-82025000D01*
X187100000Y-99524983D02*
X187100000Y-111525010D01*
X187100000Y-94525015D02*
X187100000Y-82625000D01*
X187100000Y-99524983D02*
X187092313Y-99425279D01*
X183500000Y-99525018D02*
X183507687Y-99425314D01*
X187092313Y-99425279D02*
X187076985Y-99326461D01*
X183507687Y-99425314D02*
X183523015Y-99326496D01*
X187076985Y-99326461D02*
X187054107Y-99229114D01*
X183523015Y-99326496D02*
X183545893Y-99229149D01*
X187054107Y-99229114D02*
X187023814Y-99133814D01*
X183545893Y-99229149D02*
X183576186Y-99133849D01*
X187023814Y-99133814D02*
X186986285Y-99041124D01*
X183576186Y-99133849D02*
X183613715Y-99041159D01*
X186986285Y-99041124D02*
X186941742Y-98951593D01*
X183613715Y-99041159D02*
X183658258Y-98951628D01*
X186941742Y-98951593D02*
X186890449Y-98865751D01*
X183658258Y-98951628D02*
X183709551Y-98865786D01*
X186890449Y-98865751D02*
X186832709Y-98784106D01*
X183709551Y-98865786D02*
X183767291Y-98784141D01*
X186832709Y-98784106D02*
X186768864Y-98707141D01*
X183767291Y-98784141D02*
X183831136Y-98707176D01*
X186768864Y-98707141D02*
X186699292Y-98635311D01*
X183831136Y-98707176D02*
X183900708Y-98635346D01*
X186699292Y-98635311D02*
X186624405Y-98569041D01*
X183900708Y-98635346D02*
X183975595Y-98569076D01*
X186624405Y-98569041D02*
X186544646Y-98508723D01*
X183975595Y-98569076D02*
X184055354Y-98508758D01*
X186544646Y-98508723D02*
X186460487Y-98454714D01*
X184055354Y-98508758D02*
X184139513Y-98454749D01*
X186460487Y-98454714D02*
X186372426Y-98407334D01*
X184139513Y-98454749D02*
X184227574Y-98407369D01*
X186372426Y-98407334D02*
X186280984Y-98366863D01*
X184227574Y-98407369D02*
X184319016Y-98366898D01*
X186280984Y-98366863D02*
X186186702Y-98333541D01*
X184319016Y-98366898D02*
X184413298Y-98333576D01*
X186186702Y-98333541D02*
X186090138Y-98307565D01*
X184413298Y-98333576D02*
X184509862Y-98307600D01*
X186090138Y-98307565D02*
X185991863Y-98289088D01*
X184509862Y-98307600D02*
X184608137Y-98289123D01*
X185991863Y-98289088D02*
X185892458Y-98278220D01*
X184608137Y-98289123D02*
X184707542Y-98278255D01*
X185892458Y-98278220D02*
X185792512Y-98275025D01*
X184707542Y-98278255D02*
X184807488Y-98275060D01*
X184807488Y-98275060D02*
X185792512Y-98275025D01*
X187100000Y-94525015D02*
X187092313Y-94624719D01*
X183500000Y-94524987D02*
X183507687Y-94624691D01*
X187092313Y-94624719D02*
X187076985Y-94723537D01*
X183507687Y-94624691D02*
X183523015Y-94723509D01*
X187076985Y-94723537D02*
X187054107Y-94820884D01*
X183523015Y-94723509D02*
X183545893Y-94820856D01*
X187054107Y-94820884D02*
X187023814Y-94916184D01*
X183545893Y-94820856D02*
X183576186Y-94916156D01*
X187023814Y-94916184D02*
X186986285Y-95008874D01*
X183576186Y-94916156D02*
X183613715Y-95008846D01*
X186986285Y-95008874D02*
X186941742Y-95098405D01*
X183613715Y-95008846D02*
X183658258Y-95098377D01*
X186941742Y-95098405D02*
X186890449Y-95184247D01*
X183658258Y-95098377D02*
X183709551Y-95184219D01*
X186890449Y-95184247D02*
X186832709Y-95265892D01*
X183709551Y-95184219D02*
X183767291Y-95265864D01*
X186832709Y-95265892D02*
X186768864Y-95342857D01*
X183767291Y-95265864D02*
X183831136Y-95342829D01*
X186768864Y-95342857D02*
X186699292Y-95414687D01*
X183831136Y-95342829D02*
X183900708Y-95414659D01*
X186699292Y-95414687D02*
X186624405Y-95480957D01*
X183900708Y-95414659D02*
X183975595Y-95480929D01*
X186624405Y-95480957D02*
X186544646Y-95541275D01*
X183975595Y-95480929D02*
X184055354Y-95541247D01*
X186544646Y-95541275D02*
X186460487Y-95595284D01*
X184055354Y-95541247D02*
X184139513Y-95595256D01*
X186460487Y-95595284D02*
X186372426Y-95642664D01*
X184139513Y-95595256D02*
X184227574Y-95642636D01*
X186372426Y-95642664D02*
X186280984Y-95683135D01*
X184227574Y-95642636D02*
X184319016Y-95683107D01*
X186280984Y-95683135D02*
X186186702Y-95716457D01*
X184319016Y-95683107D02*
X184413298Y-95716429D01*
X186186702Y-95716457D02*
X186090138Y-95742433D01*
X184413298Y-95716429D02*
X184509862Y-95742405D01*
X186090138Y-95742433D02*
X185991863Y-95760910D01*
X184509862Y-95742405D02*
X184608137Y-95760882D01*
X185991863Y-95760910D02*
X185892458Y-95771778D01*
X184608137Y-95760882D02*
X184707542Y-95771750D01*
X185892458Y-95771778D02*
X185792512Y-95774973D01*
X184707542Y-95771750D02*
X184807488Y-95774945D01*
X184807488Y-95774945D02*
X185792512Y-95774973D01*
X172999998Y-82025000D02*
X183500000Y-82025000D01*
X172999998Y-78025000D02*
X183500000Y-78025000D01*
X172999998Y-78025000D02*
X172900294Y-78032687D01*
X172999998Y-82025000D02*
X172900294Y-82017313D01*
X172900294Y-78032687D02*
X172801476Y-78048015D01*
X172900294Y-82017313D02*
X172801476Y-82001985D01*
X172801476Y-78048015D02*
X172704129Y-78070893D01*
X172801476Y-82001985D02*
X172704129Y-81979107D01*
X172704129Y-78070893D02*
X172608829Y-78101186D01*
X172704129Y-81979107D02*
X172608829Y-81948814D01*
X172608829Y-78101186D02*
X172516139Y-78138715D01*
X172608829Y-81948814D02*
X172516139Y-81911285D01*
X172516139Y-78138715D02*
X172426608Y-78183258D01*
X172516139Y-81911285D02*
X172426608Y-81866742D01*
X172426608Y-78183258D02*
X172340766Y-78234551D01*
X172426608Y-81866742D02*
X172340766Y-81815449D01*
X172340766Y-78234551D02*
X172259121Y-78292291D01*
X172340766Y-81815449D02*
X172259121Y-81757709D01*
X172259121Y-78292291D02*
X172182156Y-78356136D01*
X172259121Y-81757709D02*
X172182156Y-81693864D01*
X172182156Y-78356136D02*
X172110326Y-78425708D01*
X172182156Y-81693864D02*
X172110326Y-81624292D01*
X172110326Y-78425708D02*
X172044056Y-78500595D01*
X172110326Y-81624292D02*
X172044056Y-81549405D01*
X172044056Y-78500595D02*
X171983738Y-78580354D01*
X172044056Y-81549405D02*
X171983738Y-81469646D01*
X171983738Y-78580354D02*
X171929729Y-78664513D01*
X171983738Y-81469646D02*
X171929729Y-81385487D01*
X171929729Y-78664513D02*
X171882349Y-78752574D01*
X171929729Y-81385487D02*
X171882349Y-81297426D01*
X171882349Y-78752574D02*
X171841878Y-78844016D01*
X171882349Y-81297426D02*
X171841878Y-81205984D01*
X171841878Y-78844016D02*
X171808556Y-78938298D01*
X171841878Y-81205984D02*
X171808556Y-81111702D01*
X171808556Y-78938298D02*
X171782580Y-79034862D01*
X171808556Y-81111702D02*
X171782580Y-81015138D01*
X171782580Y-79034862D02*
X171764103Y-79133137D01*
X171782580Y-81015138D02*
X171764103Y-80916863D01*
X171764103Y-79133137D02*
X171753235Y-79232542D01*
X171764103Y-80916863D02*
X171753235Y-80817458D01*
X171753235Y-79232542D02*
X171750040Y-79332488D01*
X171753235Y-80817458D02*
X171750040Y-80717512D01*
X171750040Y-80717512D02*
X171750040Y-79332488D01*
X168000000Y-78025000D02*
X168099704Y-78032687D01*
X168000000Y-82025000D02*
X168099704Y-82017313D01*
X168099704Y-78032687D02*
X168198522Y-78048015D01*
X168099704Y-82017313D02*
X168198522Y-82001985D01*
X168198522Y-78048015D02*
X168295869Y-78070893D01*
X168198522Y-82001985D02*
X168295869Y-81979107D01*
X168295869Y-78070893D02*
X168391169Y-78101186D01*
X168295869Y-81979107D02*
X168391169Y-81948814D01*
X168391169Y-78101186D02*
X168483859Y-78138715D01*
X168391169Y-81948814D02*
X168483859Y-81911285D01*
X168483859Y-78138715D02*
X168573390Y-78183258D01*
X168483859Y-81911285D02*
X168573390Y-81866742D01*
X168573390Y-78183258D02*
X168659232Y-78234551D01*
X168573390Y-81866742D02*
X168659232Y-81815449D01*
X168659232Y-78234551D02*
X168740877Y-78292291D01*
X168659232Y-81815449D02*
X168740877Y-81757709D01*
X168740877Y-78292291D02*
X168817842Y-78356136D01*
X168740877Y-81757709D02*
X168817842Y-81693864D01*
X168817842Y-78356136D02*
X168889672Y-78425708D01*
X168817842Y-81693864D02*
X168889672Y-81624292D01*
X168889672Y-78425708D02*
X168955942Y-78500595D01*
X168889672Y-81624292D02*
X168955942Y-81549405D01*
X168955942Y-78500595D02*
X169016260Y-78580354D01*
X168955942Y-81549405D02*
X169016260Y-81469646D01*
X169016260Y-78580354D02*
X169070269Y-78664513D01*
X169016260Y-81469646D02*
X169070269Y-81385487D01*
X169070269Y-78664513D02*
X169117649Y-78752574D01*
X169070269Y-81385487D02*
X169117649Y-81297426D01*
X169117649Y-78752574D02*
X169158120Y-78844016D01*
X169117649Y-81297426D02*
X169158120Y-81205984D01*
X169158120Y-78844016D02*
X169191442Y-78938298D01*
X169158120Y-81205984D02*
X169191442Y-81111702D01*
X169191442Y-78938298D02*
X169217418Y-79034862D01*
X169191442Y-81111702D02*
X169217418Y-81015138D01*
X169217418Y-79034862D02*
X169235895Y-79133137D01*
X169217418Y-81015138D02*
X169235895Y-80916863D01*
X169235895Y-79133137D02*
X169246763Y-79232542D01*
X169235895Y-80916863D02*
X169246763Y-80817458D01*
X169246763Y-79232542D02*
X169249958Y-79332488D01*
X169246763Y-80817458D02*
X169249958Y-80717512D01*
X169249958Y-80717512D02*
X169249958Y-79332488D01*
X151999998Y-78025000D02*
X168000000Y-78025000D01*
X147000002Y-78025000D02*
X138500000Y-78025000D01*
X151999998Y-82025000D02*
X168000000Y-82025000D01*
X147000002Y-82025000D02*
X138500000Y-82025000D01*
X147000002Y-82025000D02*
X147099706Y-82017313D01*
X147000002Y-78025000D02*
X147099706Y-78032687D01*
X147099706Y-82017313D02*
X147198524Y-82001985D01*
X147099706Y-78032687D02*
X147198524Y-78048015D01*
X147198524Y-82001985D02*
X147295871Y-81979107D01*
X147198524Y-78048015D02*
X147295871Y-78070893D01*
X147295871Y-81979107D02*
X147391171Y-81948814D01*
X147295871Y-78070893D02*
X147391171Y-78101186D01*
X147391171Y-81948814D02*
X147483861Y-81911285D01*
X147391171Y-78101186D02*
X147483861Y-78138715D01*
X147483861Y-81911285D02*
X147573392Y-81866742D01*
X147483861Y-78138715D02*
X147573392Y-78183258D01*
X147573392Y-81866742D02*
X147659234Y-81815449D01*
X147573392Y-78183258D02*
X147659234Y-78234551D01*
X147659234Y-81815449D02*
X147740879Y-81757709D01*
X147659234Y-78234551D02*
X147740879Y-78292291D01*
X147740879Y-81757709D02*
X147817844Y-81693864D01*
X147740879Y-78292291D02*
X147817844Y-78356136D01*
X147817844Y-81693864D02*
X147889674Y-81624292D01*
X147817844Y-78356136D02*
X147889674Y-78425708D01*
X147889674Y-81624292D02*
X147955944Y-81549405D01*
X147889674Y-78425708D02*
X147955944Y-78500595D01*
X147955944Y-81549405D02*
X148016262Y-81469646D01*
X147955944Y-78500595D02*
X148016262Y-78580354D01*
X148016262Y-81469646D02*
X148070271Y-81385487D01*
X148016262Y-78580354D02*
X148070271Y-78664513D01*
X148070271Y-81385487D02*
X148117651Y-81297426D01*
X148070271Y-78664513D02*
X148117651Y-78752574D01*
X148117651Y-81297426D02*
X148158122Y-81205984D01*
X148117651Y-78752574D02*
X148158122Y-78844016D01*
X148158122Y-81205984D02*
X148191444Y-81111702D01*
X148158122Y-78844016D02*
X148191444Y-78938298D01*
X148191444Y-81111702D02*
X148217420Y-81015138D01*
X148191444Y-78938298D02*
X148217420Y-79034862D01*
X148217420Y-81015138D02*
X148235897Y-80916863D01*
X148217420Y-79034862D02*
X148235897Y-79133137D01*
X148235897Y-80916863D02*
X148246765Y-80817458D01*
X148235897Y-79133137D02*
X148246765Y-79232542D01*
X148246765Y-80817458D02*
X148249960Y-80717512D01*
X148246765Y-79232542D02*
X148249960Y-79332488D01*
X148249960Y-79332488D02*
X148249960Y-80717512D01*
X151999998Y-82025000D02*
X151900294Y-82017313D01*
X151999998Y-78025000D02*
X151900294Y-78032687D01*
X151900294Y-82017313D02*
X151801476Y-82001985D01*
X151900294Y-78032687D02*
X151801476Y-78048015D01*
X151801476Y-82001985D02*
X151704129Y-81979107D01*
X151801476Y-78048015D02*
X151704129Y-78070893D01*
X151704129Y-81979107D02*
X151608829Y-81948814D01*
X151704129Y-78070893D02*
X151608829Y-78101186D01*
X151608829Y-81948814D02*
X151516139Y-81911285D01*
X151608829Y-78101186D02*
X151516139Y-78138715D01*
X151516139Y-81911285D02*
X151426608Y-81866742D01*
X151516139Y-78138715D02*
X151426608Y-78183258D01*
X151426608Y-81866742D02*
X151340766Y-81815449D01*
X151426608Y-78183258D02*
X151340766Y-78234551D01*
X151340766Y-81815449D02*
X151259121Y-81757709D01*
X151340766Y-78234551D02*
X151259121Y-78292291D01*
X151259121Y-81757709D02*
X151182156Y-81693864D01*
X151259121Y-78292291D02*
X151182156Y-78356136D01*
X151182156Y-81693864D02*
X151110326Y-81624292D01*
X151182156Y-78356136D02*
X151110326Y-78425708D01*
X151110326Y-81624292D02*
X151044056Y-81549405D01*
X151110326Y-78425708D02*
X151044056Y-78500595D01*
X151044056Y-81549405D02*
X150983738Y-81469646D01*
X151044056Y-78500595D02*
X150983738Y-78580354D01*
X150983738Y-81469646D02*
X150929729Y-81385487D01*
X150983738Y-78580354D02*
X150929729Y-78664513D01*
X150929729Y-81385487D02*
X150882349Y-81297426D01*
X150929729Y-78664513D02*
X150882349Y-78752574D01*
X150882349Y-81297426D02*
X150841878Y-81205984D01*
X150882349Y-78752574D02*
X150841878Y-78844016D01*
X150841878Y-81205984D02*
X150808556Y-81111702D01*
X150841878Y-78844016D02*
X150808556Y-78938298D01*
X150808556Y-81111702D02*
X150782580Y-81015138D01*
X150808556Y-78938298D02*
X150782580Y-79034862D01*
X150782580Y-81015138D02*
X150764103Y-80916863D01*
X150782580Y-79034862D02*
X150764103Y-79133137D01*
X150764103Y-80916863D02*
X150753235Y-80817458D01*
X150764103Y-79133137D02*
X150753235Y-79232542D01*
X150753235Y-80817458D02*
X150750040Y-80717512D01*
X150753235Y-79232542D02*
X150750040Y-79332488D01*
X150750040Y-79332488D02*
X150750040Y-80717512D01*
X134925000Y-117525008D02*
X134925000Y-131450000D01*
X138500000Y-117524990D02*
X138500000Y-127025000D01*
X138500000Y-117524990D02*
X138492313Y-117425286D01*
X134925000Y-117525008D02*
X134932687Y-117425304D01*
X138492313Y-117425286D02*
X138476985Y-117326468D01*
X134932687Y-117425304D02*
X134948015Y-117326486D01*
X138476985Y-117326468D02*
X138454107Y-117229121D01*
X134948015Y-117326486D02*
X134970893Y-117229139D01*
X138454107Y-117229121D02*
X138423814Y-117133821D01*
X134970893Y-117229139D02*
X135001186Y-117133839D01*
X138423814Y-117133821D02*
X138386285Y-117041131D01*
X135001186Y-117133839D02*
X135038715Y-117041149D01*
X138386285Y-117041131D02*
X138341742Y-116951600D01*
X135038715Y-117041149D02*
X135083258Y-116951618D01*
X138341742Y-116951600D02*
X138290449Y-116865758D01*
X135083258Y-116951618D02*
X135134551Y-116865776D01*
X138290449Y-116865758D02*
X138232709Y-116784113D01*
X135134551Y-116865776D02*
X135192291Y-116784131D01*
X138232709Y-116784113D02*
X138168864Y-116707148D01*
X135192291Y-116784131D02*
X135256136Y-116707166D01*
X138168864Y-116707148D02*
X138099292Y-116635318D01*
X135256136Y-116707166D02*
X135325708Y-116635336D01*
X138099292Y-116635318D02*
X138024405Y-116569048D01*
X135325708Y-116635336D02*
X135400595Y-116569066D01*
X138024405Y-116569048D02*
X137944646Y-116508730D01*
X135400595Y-116569066D02*
X135480354Y-116508748D01*
X137944646Y-116508730D02*
X137860487Y-116454721D01*
X135480354Y-116508748D02*
X135564513Y-116454739D01*
X137860487Y-116454721D02*
X137772426Y-116407341D01*
X135564513Y-116454739D02*
X135652574Y-116407359D01*
X137772426Y-116407341D02*
X137680984Y-116366870D01*
X135652574Y-116407359D02*
X135744016Y-116366888D01*
X137680984Y-116366870D02*
X137586702Y-116333548D01*
X135744016Y-116366888D02*
X135838298Y-116333566D01*
X137586702Y-116333548D02*
X137490138Y-116307572D01*
X135838298Y-116333566D02*
X135934862Y-116307590D01*
X137490138Y-116307572D02*
X137391863Y-116289095D01*
X135934862Y-116307590D02*
X136033137Y-116289113D01*
X137391863Y-116289095D02*
X137292458Y-116278227D01*
X136033137Y-116289113D02*
X136132542Y-116278245D01*
X137292458Y-116278227D02*
X137192512Y-116275032D01*
X136132542Y-116278245D02*
X136232488Y-116275050D01*
X136232488Y-116275050D02*
X137192512Y-116275032D01*
X134925000Y-112525025D02*
X134932687Y-112624729D01*
X138500000Y-112525002D02*
X138492313Y-112624706D01*
X134932687Y-112624729D02*
X134948015Y-112723547D01*
X138492313Y-112624706D02*
X138476985Y-112723524D01*
X134948015Y-112723547D02*
X134970893Y-112820894D01*
X138476985Y-112723524D02*
X138454107Y-112820871D01*
X134970893Y-112820894D02*
X135001186Y-112916194D01*
X138454107Y-112820871D02*
X138423814Y-112916171D01*
X135001186Y-112916194D02*
X135038715Y-113008884D01*
X138423814Y-112916171D02*
X138386285Y-113008861D01*
X135038715Y-113008884D02*
X135083258Y-113098415D01*
X138386285Y-113008861D02*
X138341742Y-113098392D01*
X135083258Y-113098415D02*
X135134551Y-113184257D01*
X138341742Y-113098392D02*
X138290449Y-113184234D01*
X135134551Y-113184257D02*
X135192291Y-113265902D01*
X138290449Y-113184234D02*
X138232709Y-113265879D01*
X135192291Y-113265902D02*
X135256136Y-113342867D01*
X138232709Y-113265879D02*
X138168864Y-113342844D01*
X135256136Y-113342867D02*
X135325708Y-113414697D01*
X138168864Y-113342844D02*
X138099292Y-113414674D01*
X135325708Y-113414697D02*
X135400595Y-113480967D01*
X138099292Y-113414674D02*
X138024405Y-113480944D01*
X135400595Y-113480967D02*
X135480354Y-113541285D01*
X138024405Y-113480944D02*
X137944646Y-113541262D01*
X135480354Y-113541285D02*
X135564513Y-113595294D01*
X137944646Y-113541262D02*
X137860487Y-113595271D01*
X135564513Y-113595294D02*
X135652574Y-113642674D01*
X137860487Y-113595271D02*
X137772426Y-113642651D01*
X135652574Y-113642674D02*
X135744016Y-113683145D01*
X137772426Y-113642651D02*
X137680984Y-113683122D01*
X135744016Y-113683145D02*
X135838298Y-113716467D01*
X137680984Y-113683122D02*
X137586702Y-113716444D01*
X135838298Y-113716467D02*
X135934862Y-113742443D01*
X137586702Y-113716444D02*
X137490138Y-113742420D01*
X135934862Y-113742443D02*
X136033137Y-113760920D01*
X137490138Y-113742420D02*
X137391863Y-113760897D01*
X136033137Y-113760920D02*
X136132542Y-113771788D01*
X137391863Y-113760897D02*
X137292458Y-113771765D01*
X136132542Y-113771788D02*
X136232488Y-113774983D01*
X137292458Y-113771765D02*
X137192512Y-113774960D01*
X136232488Y-113774983D02*
X137192512Y-113774960D01*
X134925000Y-96525000D02*
X134925000Y-112525025D01*
X138500000Y-96524998D02*
X138500000Y-112525002D01*
X138500000Y-91525010D02*
X138500000Y-82025000D01*
X138500000Y-96524998D02*
X138492313Y-96425294D01*
X134925000Y-96525000D02*
X134932687Y-96425296D01*
X138492313Y-96425294D02*
X138476985Y-96326476D01*
X134932687Y-96425296D02*
X134948015Y-96326478D01*
X138476985Y-96326476D02*
X138454107Y-96229129D01*
X134948015Y-96326478D02*
X134970893Y-96229131D01*
X138454107Y-96229129D02*
X138423814Y-96133829D01*
X134970893Y-96229131D02*
X135001186Y-96133831D01*
X138423814Y-96133829D02*
X138386285Y-96041139D01*
X135001186Y-96133831D02*
X135038715Y-96041141D01*
X138386285Y-96041139D02*
X138341742Y-95951608D01*
X135038715Y-96041141D02*
X135083258Y-95951610D01*
X138341742Y-95951608D02*
X138290449Y-95865766D01*
X135083258Y-95951610D02*
X135134551Y-95865768D01*
X138290449Y-95865766D02*
X138232709Y-95784121D01*
X135134551Y-95865768D02*
X135192291Y-95784123D01*
X138232709Y-95784121D02*
X138168864Y-95707156D01*
X135192291Y-95784123D02*
X135256136Y-95707158D01*
X138168864Y-95707156D02*
X138099292Y-95635326D01*
X135256136Y-95707158D02*
X135325708Y-95635328D01*
X138099292Y-95635326D02*
X138024405Y-95569056D01*
X135325708Y-95635328D02*
X135400595Y-95569058D01*
X138024405Y-95569056D02*
X137944646Y-95508738D01*
X135400595Y-95569058D02*
X135480354Y-95508740D01*
X137944646Y-95508738D02*
X137860487Y-95454729D01*
X135480354Y-95508740D02*
X135564513Y-95454731D01*
X137860487Y-95454729D02*
X137772426Y-95407349D01*
X135564513Y-95454731D02*
X135652574Y-95407351D01*
X137772426Y-95407349D02*
X137680984Y-95366878D01*
X135652574Y-95407351D02*
X135744016Y-95366880D01*
X137680984Y-95366878D02*
X137586702Y-95333556D01*
X135744016Y-95366880D02*
X135838298Y-95333558D01*
X137586702Y-95333556D02*
X137490138Y-95307580D01*
X135838298Y-95333558D02*
X135934862Y-95307582D01*
X137490138Y-95307580D02*
X137391863Y-95289103D01*
X135934862Y-95307582D02*
X136033137Y-95289105D01*
X137391863Y-95289103D02*
X137292458Y-95278235D01*
X136033137Y-95289105D02*
X136132542Y-95278237D01*
X137292458Y-95278235D02*
X137192512Y-95275040D01*
X136132542Y-95278237D02*
X136232488Y-95275042D01*
X136232488Y-95275042D02*
X137192512Y-95275040D01*
X134925000Y-91525067D02*
X134932687Y-91624771D01*
X138500000Y-91525010D02*
X138492313Y-91624714D01*
X134932687Y-91624771D02*
X134948015Y-91723589D01*
X138492313Y-91624714D02*
X138476985Y-91723532D01*
X134948015Y-91723589D02*
X134970893Y-91820936D01*
X138476985Y-91723532D02*
X138454107Y-91820879D01*
X134970893Y-91820936D02*
X135001186Y-91916236D01*
X138454107Y-91820879D02*
X138423814Y-91916179D01*
X135001186Y-91916236D02*
X135038715Y-92008926D01*
X138423814Y-91916179D02*
X138386285Y-92008869D01*
X135038715Y-92008926D02*
X135083258Y-92098457D01*
X138386285Y-92008869D02*
X138341742Y-92098400D01*
X135083258Y-92098457D02*
X135134551Y-92184299D01*
X138341742Y-92098400D02*
X138290449Y-92184242D01*
X135134551Y-92184299D02*
X135192291Y-92265944D01*
X138290449Y-92184242D02*
X138232709Y-92265887D01*
X135192291Y-92265944D02*
X135256136Y-92342909D01*
X138232709Y-92265887D02*
X138168864Y-92342852D01*
X135256136Y-92342909D02*
X135325708Y-92414739D01*
X138168864Y-92342852D02*
X138099292Y-92414682D01*
X135325708Y-92414739D02*
X135400595Y-92481009D01*
X138099292Y-92414682D02*
X138024405Y-92480952D01*
X135400595Y-92481009D02*
X135480354Y-92541327D01*
X138024405Y-92480952D02*
X137944646Y-92541270D01*
X135480354Y-92541327D02*
X135564513Y-92595336D01*
X137944646Y-92541270D02*
X137860487Y-92595279D01*
X135564513Y-92595336D02*
X135652574Y-92642716D01*
X137860487Y-92595279D02*
X137772426Y-92642659D01*
X135652574Y-92642716D02*
X135744016Y-92683187D01*
X137772426Y-92642659D02*
X137680984Y-92683130D01*
X135744016Y-92683187D02*
X135838298Y-92716509D01*
X137680984Y-92683130D02*
X137586702Y-92716452D01*
X135838298Y-92716509D02*
X135934862Y-92742485D01*
X137586702Y-92716452D02*
X137490138Y-92742428D01*
X135934862Y-92742485D02*
X136033137Y-92760962D01*
X137490138Y-92742428D02*
X137391863Y-92760905D01*
X136033137Y-92760962D02*
X136132542Y-92771830D01*
X137391863Y-92760905D02*
X137292458Y-92771773D01*
X136132542Y-92771830D02*
X136232488Y-92775025D01*
X137292458Y-92771773D02*
X137192512Y-92774968D01*
X136232488Y-92775025D02*
X137192512Y-92774968D01*
X138500000Y-68524990D02*
X138500000Y-78025000D01*
X134925000Y-68525028D02*
X134925000Y-91525067D01*
X134925000Y-63525002D02*
X134932687Y-63624706D01*
X138500000Y-63525002D02*
X138492313Y-63624706D01*
X134932687Y-63624706D02*
X134948015Y-63723524D01*
X138492313Y-63624706D02*
X138476985Y-63723524D01*
X134948015Y-63723524D02*
X134970893Y-63820871D01*
X138476985Y-63723524D02*
X138454107Y-63820871D01*
X134970893Y-63820871D02*
X135001186Y-63916171D01*
X138454107Y-63820871D02*
X138423814Y-63916171D01*
X135001186Y-63916171D02*
X135038715Y-64008861D01*
X138423814Y-63916171D02*
X138386285Y-64008861D01*
X135038715Y-64008861D02*
X135083258Y-64098392D01*
X138386285Y-64008861D02*
X138341742Y-64098392D01*
X135083258Y-64098392D02*
X135134551Y-64184234D01*
X138341742Y-64098392D02*
X138290449Y-64184234D01*
X135134551Y-64184234D02*
X135192291Y-64265879D01*
X138290449Y-64184234D02*
X138232709Y-64265879D01*
X135192291Y-64265879D02*
X135256136Y-64342844D01*
X138232709Y-64265879D02*
X138168864Y-64342844D01*
X135256136Y-64342844D02*
X135325708Y-64414674D01*
X138168864Y-64342844D02*
X138099292Y-64414674D01*
X135325708Y-64414674D02*
X135400595Y-64480944D01*
X138099292Y-64414674D02*
X138024405Y-64480944D01*
X135400595Y-64480944D02*
X135480354Y-64541262D01*
X138024405Y-64480944D02*
X137944646Y-64541262D01*
X135480354Y-64541262D02*
X135564513Y-64595271D01*
X137944646Y-64541262D02*
X137860487Y-64595271D01*
X135564513Y-64595271D02*
X135652574Y-64642651D01*
X137860487Y-64595271D02*
X137772426Y-64642651D01*
X135652574Y-64642651D02*
X135744016Y-64683122D01*
X137772426Y-64642651D02*
X137680984Y-64683122D01*
X135744016Y-64683122D02*
X135838298Y-64716444D01*
X137680984Y-64683122D02*
X137586702Y-64716444D01*
X135838298Y-64716444D02*
X135934862Y-64742420D01*
X137586702Y-64716444D02*
X137490138Y-64742420D01*
X135934862Y-64742420D02*
X136033137Y-64760897D01*
X137490138Y-64742420D02*
X137391863Y-64760897D01*
X136033137Y-64760897D02*
X136132542Y-64771765D01*
X137391863Y-64760897D02*
X137292458Y-64771765D01*
X136132542Y-64771765D02*
X136232488Y-64774960D01*
X137292458Y-64771765D02*
X137192512Y-64774960D01*
X137192512Y-64774960D02*
X136232488Y-64774960D01*
X138500000Y-68524990D02*
X138492313Y-68425286D01*
X134925000Y-68525028D02*
X134932687Y-68425324D01*
X138492313Y-68425286D02*
X138476985Y-68326468D01*
X134932687Y-68425324D02*
X134948015Y-68326506D01*
X138476985Y-68326468D02*
X138454107Y-68229121D01*
X134948015Y-68326506D02*
X134970893Y-68229159D01*
X138454107Y-68229121D02*
X138423814Y-68133821D01*
X134970893Y-68229159D02*
X135001186Y-68133859D01*
X138423814Y-68133821D02*
X138386285Y-68041131D01*
X135001186Y-68133859D02*
X135038715Y-68041169D01*
X138386285Y-68041131D02*
X138341742Y-67951600D01*
X135038715Y-68041169D02*
X135083258Y-67951638D01*
X138341742Y-67951600D02*
X138290449Y-67865758D01*
X135083258Y-67951638D02*
X135134551Y-67865796D01*
X138290449Y-67865758D02*
X138232709Y-67784113D01*
X135134551Y-67865796D02*
X135192291Y-67784151D01*
X138232709Y-67784113D02*
X138168864Y-67707148D01*
X135192291Y-67784151D02*
X135256136Y-67707186D01*
X138168864Y-67707148D02*
X138099292Y-67635318D01*
X135256136Y-67707186D02*
X135325708Y-67635356D01*
X138099292Y-67635318D02*
X138024405Y-67569048D01*
X135325708Y-67635356D02*
X135400595Y-67569086D01*
X138024405Y-67569048D02*
X137944646Y-67508730D01*
X135400595Y-67569086D02*
X135480354Y-67508768D01*
X137944646Y-67508730D02*
X137860487Y-67454721D01*
X135480354Y-67508768D02*
X135564513Y-67454759D01*
X137860487Y-67454721D02*
X137772426Y-67407341D01*
X135564513Y-67454759D02*
X135652574Y-67407379D01*
X137772426Y-67407341D02*
X137680984Y-67366870D01*
X135652574Y-67407379D02*
X135744016Y-67366908D01*
X137680984Y-67366870D02*
X137586702Y-67333548D01*
X135744016Y-67366908D02*
X135838298Y-67333586D01*
X137586702Y-67333548D02*
X137490138Y-67307572D01*
X135838298Y-67333586D02*
X135934862Y-67307610D01*
X137490138Y-67307572D02*
X137391863Y-67289095D01*
X135934862Y-67307610D02*
X136033137Y-67289133D01*
X137391863Y-67289095D02*
X137292458Y-67278227D01*
X136033137Y-67289133D02*
X136132542Y-67278265D01*
X137292458Y-67278227D02*
X137192512Y-67275032D01*
X136132542Y-67278265D02*
X136232488Y-67275070D01*
X137192512Y-67275032D02*
X136232488Y-67275070D01*
X134925000Y-47524998D02*
X134925000Y-63525002D01*
X134925000Y-42525010D02*
X134925000Y-33025000D01*
X138500000Y-47524998D02*
X138500000Y-63525002D01*
X138500000Y-42525010D02*
X138500000Y-33025000D01*
X138500000Y-47524998D02*
X138492313Y-47425294D01*
X134925000Y-47524998D02*
X134932687Y-47425294D01*
X138492313Y-47425294D02*
X138476985Y-47326476D01*
X134932687Y-47425294D02*
X134948015Y-47326476D01*
X138476985Y-47326476D02*
X138454107Y-47229129D01*
X134948015Y-47326476D02*
X134970893Y-47229129D01*
X138454107Y-47229129D02*
X138423814Y-47133829D01*
X134970893Y-47229129D02*
X135001186Y-47133829D01*
X138423814Y-47133829D02*
X138386285Y-47041139D01*
X135001186Y-47133829D02*
X135038715Y-47041139D01*
X138386285Y-47041139D02*
X138341742Y-46951608D01*
X135038715Y-47041139D02*
X135083258Y-46951608D01*
X138341742Y-46951608D02*
X138290449Y-46865766D01*
X135083258Y-46951608D02*
X135134551Y-46865766D01*
X138290449Y-46865766D02*
X138232709Y-46784121D01*
X135134551Y-46865766D02*
X135192291Y-46784121D01*
X138232709Y-46784121D02*
X138168864Y-46707156D01*
X135192291Y-46784121D02*
X135256136Y-46707156D01*
X138168864Y-46707156D02*
X138099292Y-46635326D01*
X135256136Y-46707156D02*
X135325708Y-46635326D01*
X138099292Y-46635326D02*
X138024405Y-46569056D01*
X135325708Y-46635326D02*
X135400595Y-46569056D01*
X138024405Y-46569056D02*
X137944646Y-46508738D01*
X135400595Y-46569056D02*
X135480354Y-46508738D01*
X137944646Y-46508738D02*
X137860487Y-46454729D01*
X135480354Y-46508738D02*
X135564513Y-46454729D01*
X137860487Y-46454729D02*
X137772426Y-46407349D01*
X135564513Y-46454729D02*
X135652574Y-46407349D01*
X137772426Y-46407349D02*
X137680984Y-46366878D01*
X135652574Y-46407349D02*
X135744016Y-46366878D01*
X137680984Y-46366878D02*
X137586702Y-46333556D01*
X135744016Y-46366878D02*
X135838298Y-46333556D01*
X137586702Y-46333556D02*
X137490138Y-46307580D01*
X135838298Y-46333556D02*
X135934862Y-46307580D01*
X137490138Y-46307580D02*
X137391863Y-46289103D01*
X135934862Y-46307580D02*
X136033137Y-46289103D01*
X137391863Y-46289103D02*
X137292458Y-46278235D01*
X136033137Y-46289103D02*
X136132542Y-46278235D01*
X137292458Y-46278235D02*
X137192512Y-46275040D01*
X136132542Y-46278235D02*
X136232488Y-46275040D01*
X136232488Y-46275040D02*
X137192512Y-46275040D01*
X138500000Y-42525010D02*
X138492313Y-42624714D01*
X134925000Y-42525010D02*
X134932687Y-42624714D01*
X138492313Y-42624714D02*
X138476985Y-42723532D01*
X134932687Y-42624714D02*
X134948015Y-42723532D01*
X138476985Y-42723532D02*
X138454107Y-42820879D01*
X134948015Y-42723532D02*
X134970893Y-42820879D01*
X138454107Y-42820879D02*
X138423814Y-42916179D01*
X134970893Y-42820879D02*
X135001186Y-42916179D01*
X138423814Y-42916179D02*
X138386285Y-43008869D01*
X135001186Y-42916179D02*
X135038715Y-43008869D01*
X138386285Y-43008869D02*
X138341742Y-43098400D01*
X135038715Y-43008869D02*
X135083258Y-43098400D01*
X138341742Y-43098400D02*
X138290449Y-43184242D01*
X135083258Y-43098400D02*
X135134551Y-43184242D01*
X138290449Y-43184242D02*
X138232709Y-43265887D01*
X135134551Y-43184242D02*
X135192291Y-43265887D01*
X138232709Y-43265887D02*
X138168864Y-43342852D01*
X135192291Y-43265887D02*
X135256136Y-43342852D01*
X138168864Y-43342852D02*
X138099292Y-43414682D01*
X135256136Y-43342852D02*
X135325708Y-43414682D01*
X138099292Y-43414682D02*
X138024405Y-43480952D01*
X135325708Y-43414682D02*
X135400595Y-43480952D01*
X138024405Y-43480952D02*
X137944646Y-43541270D01*
X135400595Y-43480952D02*
X135480354Y-43541270D01*
X137944646Y-43541270D02*
X137860487Y-43595279D01*
X135480354Y-43541270D02*
X135564513Y-43595279D01*
X137860487Y-43595279D02*
X137772426Y-43642659D01*
X135564513Y-43595279D02*
X135652574Y-43642659D01*
X137772426Y-43642659D02*
X137680984Y-43683130D01*
X135652574Y-43642659D02*
X135744016Y-43683130D01*
X137680984Y-43683130D02*
X137586702Y-43716452D01*
X135744016Y-43683130D02*
X135838298Y-43716452D01*
X137586702Y-43716452D02*
X137490138Y-43742428D01*
X135838298Y-43716452D02*
X135934862Y-43742428D01*
X137490138Y-43742428D02*
X137391863Y-43760905D01*
X135934862Y-43742428D02*
X136033137Y-43760905D01*
X137391863Y-43760905D02*
X137292458Y-43771773D01*
X136033137Y-43760905D02*
X136132542Y-43771773D01*
X137292458Y-43771773D02*
X137192512Y-43774968D01*
X136132542Y-43771773D02*
X136232488Y-43774968D01*
X136232488Y-43774968D02*
X137192512Y-43774968D01*
M02*
