G04 #@! TF.GenerationSoftware,KiCad,Pcbnew,(5.1.5-0-10_14)*
G04 #@! TF.CreationDate,2020-07-31T02:19:59+02:00*
G04 #@! TF.ProjectId,output.Panel,6f757470-7574-42e5-9061-6e656c2e6b69,rev?*
G04 #@! TF.SameCoordinates,Original*
G04 #@! TF.FileFunction,Soldermask,Bot*
G04 #@! TF.FilePolarity,Negative*
%FSLAX46Y46*%
G04 Gerber Fmt 4.6, Leading zero omitted, Abs format (unit mm)*
G04 Created by KiCad (PCBNEW (5.1.5-0-10_14)) date 2020-07-31 02:19:59*
%MOMM*%
%LPD*%
G04 APERTURE LIST*
%ADD10C,0.900000*%
%ADD11C,8.600000*%
%ADD12O,1.700000X1.700000*%
%ADD13R,1.700000X1.700000*%
%ADD14C,5.600000*%
%ADD15C,3.200000*%
%ADD16C,1.524000*%
%ADD17C,3.000000*%
%ADD18R,0.900000X2.000000*%
%ADD19R,2.000000X0.900000*%
%ADD20R,5.000000X5.000000*%
%ADD21C,1.600000*%
%ADD22R,1.500000X2.000000*%
%ADD23R,3.800000X2.000000*%
%ADD24C,0.100000*%
%ADD25C,2.000000*%
%ADD26R,2.000000X2.000000*%
%ADD27C,2.800000*%
%ADD28R,2.800000X2.800000*%
%ADD29C,1.500000*%
%ADD30O,1.600000X1.600000*%
%ADD31C,4.000000*%
%ADD32C,2.500000*%
%ADD33C,1.000000*%
%ADD34C,0.800000*%
G04 APERTURE END LIST*
D10*
X180780419Y-70744581D03*
X178500000Y-69800000D03*
X176219581Y-70744581D03*
X175275000Y-73025000D03*
X176219581Y-75305419D03*
X178500000Y-76250000D03*
X180780419Y-75305419D03*
X181725000Y-73025000D03*
D11*
X178500000Y-73025000D03*
X143500000Y-38025000D03*
D10*
X146725000Y-38025000D03*
X145780419Y-40305419D03*
X143500000Y-41250000D03*
X141219581Y-40305419D03*
X140275000Y-38025000D03*
X141219581Y-35744581D03*
X143500000Y-34800000D03*
X145780419Y-35744581D03*
X145780419Y-70744581D03*
X143500000Y-69800000D03*
X141219581Y-70744581D03*
X140275000Y-73025000D03*
X141219581Y-75305419D03*
X143500000Y-76250000D03*
X145780419Y-75305419D03*
X146725000Y-73025000D03*
D11*
X143500000Y-73025000D03*
D10*
X180780419Y-35744581D03*
X178500000Y-34800000D03*
X176219581Y-35744581D03*
X175275000Y-38025000D03*
X176219581Y-40305419D03*
X178500000Y-41250000D03*
X180780419Y-40305419D03*
X181725000Y-38025000D03*
D11*
X178500000Y-38025000D03*
D12*
X141200000Y-61855000D03*
X141200000Y-59315000D03*
X141200000Y-56775000D03*
X141200000Y-54235000D03*
X141200000Y-51695000D03*
D13*
X141200000Y-49155000D03*
D14*
X40945000Y-127005000D03*
X130480000Y-127005000D03*
X130480000Y-37470000D03*
X40945000Y-37470000D03*
D15*
X50470000Y-58425000D03*
D16*
X133020000Y-83825000D03*
X133020000Y-81285000D03*
X133020000Y-78745000D03*
X133020000Y-76205000D03*
D17*
X39929000Y-105161000D03*
X132131000Y-105161000D03*
X132131000Y-54869000D03*
X39929000Y-54869000D03*
D16*
X39040000Y-63505000D03*
X39040000Y-66045000D03*
X39040000Y-68585000D03*
X39040000Y-71125000D03*
X39040000Y-73665000D03*
X39040000Y-76205000D03*
X39040000Y-78745000D03*
X39040000Y-81285000D03*
X39040000Y-83825000D03*
X39040000Y-86365000D03*
X39040000Y-88905000D03*
X39040000Y-91445000D03*
X39040000Y-93985000D03*
X39040000Y-96525000D03*
D18*
X122225000Y-73175000D03*
X120955000Y-73175000D03*
X119685000Y-73175000D03*
X118415000Y-73175000D03*
X117145000Y-73175000D03*
X115875000Y-73175000D03*
X114605000Y-73175000D03*
X113335000Y-73175000D03*
X112065000Y-73175000D03*
X110795000Y-73175000D03*
X109525000Y-73175000D03*
X108255000Y-73175000D03*
X106985000Y-73175000D03*
X105715000Y-73175000D03*
D19*
X104715000Y-75960000D03*
X104715000Y-77230000D03*
X104715000Y-78500000D03*
X104715000Y-79770000D03*
X104715000Y-81040000D03*
X104715000Y-82310000D03*
X104715000Y-83580000D03*
X104715000Y-84850000D03*
X104715000Y-86120000D03*
X104715000Y-87390000D03*
D18*
X105715000Y-90175000D03*
X106985000Y-90175000D03*
X108255000Y-90175000D03*
X109525000Y-90175000D03*
X110795000Y-90175000D03*
X112065000Y-90175000D03*
X113335000Y-90175000D03*
X114605000Y-90175000D03*
X115875000Y-90175000D03*
X117145000Y-90175000D03*
X118415000Y-90175000D03*
X119685000Y-90175000D03*
X120955000Y-90175000D03*
X122225000Y-90175000D03*
D20*
X114725000Y-82675000D03*
D21*
X73965000Y-80650000D03*
X73965000Y-75650000D03*
D22*
X65950000Y-74960000D03*
X70550000Y-74960000D03*
X68250000Y-74960000D03*
D23*
X68250000Y-81260000D03*
D24*
G36*
X78044703Y-75905722D02*
G01*
X78059264Y-75907882D01*
X78073543Y-75911459D01*
X78087403Y-75916418D01*
X78100710Y-75922712D01*
X78113336Y-75930280D01*
X78125159Y-75939048D01*
X78136066Y-75948934D01*
X78145952Y-75959841D01*
X78154720Y-75971664D01*
X78162288Y-75984290D01*
X78168582Y-75997597D01*
X78173541Y-76011457D01*
X78177118Y-76025736D01*
X78179278Y-76040297D01*
X78180000Y-76055000D01*
X78180000Y-76355000D01*
X78179278Y-76369703D01*
X78177118Y-76384264D01*
X78173541Y-76398543D01*
X78168582Y-76412403D01*
X78162288Y-76425710D01*
X78154720Y-76438336D01*
X78145952Y-76450159D01*
X78136066Y-76461066D01*
X78125159Y-76470952D01*
X78113336Y-76479720D01*
X78100710Y-76487288D01*
X78087403Y-76493582D01*
X78073543Y-76498541D01*
X78059264Y-76502118D01*
X78044703Y-76504278D01*
X78030000Y-76505000D01*
X76380000Y-76505000D01*
X76365297Y-76504278D01*
X76350736Y-76502118D01*
X76336457Y-76498541D01*
X76322597Y-76493582D01*
X76309290Y-76487288D01*
X76296664Y-76479720D01*
X76284841Y-76470952D01*
X76273934Y-76461066D01*
X76264048Y-76450159D01*
X76255280Y-76438336D01*
X76247712Y-76425710D01*
X76241418Y-76412403D01*
X76236459Y-76398543D01*
X76232882Y-76384264D01*
X76230722Y-76369703D01*
X76230000Y-76355000D01*
X76230000Y-76055000D01*
X76230722Y-76040297D01*
X76232882Y-76025736D01*
X76236459Y-76011457D01*
X76241418Y-75997597D01*
X76247712Y-75984290D01*
X76255280Y-75971664D01*
X76264048Y-75959841D01*
X76273934Y-75948934D01*
X76284841Y-75939048D01*
X76296664Y-75930280D01*
X76309290Y-75922712D01*
X76322597Y-75916418D01*
X76336457Y-75911459D01*
X76350736Y-75907882D01*
X76365297Y-75905722D01*
X76380000Y-75905000D01*
X78030000Y-75905000D01*
X78044703Y-75905722D01*
G37*
G36*
X78044703Y-77175722D02*
G01*
X78059264Y-77177882D01*
X78073543Y-77181459D01*
X78087403Y-77186418D01*
X78100710Y-77192712D01*
X78113336Y-77200280D01*
X78125159Y-77209048D01*
X78136066Y-77218934D01*
X78145952Y-77229841D01*
X78154720Y-77241664D01*
X78162288Y-77254290D01*
X78168582Y-77267597D01*
X78173541Y-77281457D01*
X78177118Y-77295736D01*
X78179278Y-77310297D01*
X78180000Y-77325000D01*
X78180000Y-77625000D01*
X78179278Y-77639703D01*
X78177118Y-77654264D01*
X78173541Y-77668543D01*
X78168582Y-77682403D01*
X78162288Y-77695710D01*
X78154720Y-77708336D01*
X78145952Y-77720159D01*
X78136066Y-77731066D01*
X78125159Y-77740952D01*
X78113336Y-77749720D01*
X78100710Y-77757288D01*
X78087403Y-77763582D01*
X78073543Y-77768541D01*
X78059264Y-77772118D01*
X78044703Y-77774278D01*
X78030000Y-77775000D01*
X76380000Y-77775000D01*
X76365297Y-77774278D01*
X76350736Y-77772118D01*
X76336457Y-77768541D01*
X76322597Y-77763582D01*
X76309290Y-77757288D01*
X76296664Y-77749720D01*
X76284841Y-77740952D01*
X76273934Y-77731066D01*
X76264048Y-77720159D01*
X76255280Y-77708336D01*
X76247712Y-77695710D01*
X76241418Y-77682403D01*
X76236459Y-77668543D01*
X76232882Y-77654264D01*
X76230722Y-77639703D01*
X76230000Y-77625000D01*
X76230000Y-77325000D01*
X76230722Y-77310297D01*
X76232882Y-77295736D01*
X76236459Y-77281457D01*
X76241418Y-77267597D01*
X76247712Y-77254290D01*
X76255280Y-77241664D01*
X76264048Y-77229841D01*
X76273934Y-77218934D01*
X76284841Y-77209048D01*
X76296664Y-77200280D01*
X76309290Y-77192712D01*
X76322597Y-77186418D01*
X76336457Y-77181459D01*
X76350736Y-77177882D01*
X76365297Y-77175722D01*
X76380000Y-77175000D01*
X78030000Y-77175000D01*
X78044703Y-77175722D01*
G37*
G36*
X78044703Y-78445722D02*
G01*
X78059264Y-78447882D01*
X78073543Y-78451459D01*
X78087403Y-78456418D01*
X78100710Y-78462712D01*
X78113336Y-78470280D01*
X78125159Y-78479048D01*
X78136066Y-78488934D01*
X78145952Y-78499841D01*
X78154720Y-78511664D01*
X78162288Y-78524290D01*
X78168582Y-78537597D01*
X78173541Y-78551457D01*
X78177118Y-78565736D01*
X78179278Y-78580297D01*
X78180000Y-78595000D01*
X78180000Y-78895000D01*
X78179278Y-78909703D01*
X78177118Y-78924264D01*
X78173541Y-78938543D01*
X78168582Y-78952403D01*
X78162288Y-78965710D01*
X78154720Y-78978336D01*
X78145952Y-78990159D01*
X78136066Y-79001066D01*
X78125159Y-79010952D01*
X78113336Y-79019720D01*
X78100710Y-79027288D01*
X78087403Y-79033582D01*
X78073543Y-79038541D01*
X78059264Y-79042118D01*
X78044703Y-79044278D01*
X78030000Y-79045000D01*
X76380000Y-79045000D01*
X76365297Y-79044278D01*
X76350736Y-79042118D01*
X76336457Y-79038541D01*
X76322597Y-79033582D01*
X76309290Y-79027288D01*
X76296664Y-79019720D01*
X76284841Y-79010952D01*
X76273934Y-79001066D01*
X76264048Y-78990159D01*
X76255280Y-78978336D01*
X76247712Y-78965710D01*
X76241418Y-78952403D01*
X76236459Y-78938543D01*
X76232882Y-78924264D01*
X76230722Y-78909703D01*
X76230000Y-78895000D01*
X76230000Y-78595000D01*
X76230722Y-78580297D01*
X76232882Y-78565736D01*
X76236459Y-78551457D01*
X76241418Y-78537597D01*
X76247712Y-78524290D01*
X76255280Y-78511664D01*
X76264048Y-78499841D01*
X76273934Y-78488934D01*
X76284841Y-78479048D01*
X76296664Y-78470280D01*
X76309290Y-78462712D01*
X76322597Y-78456418D01*
X76336457Y-78451459D01*
X76350736Y-78447882D01*
X76365297Y-78445722D01*
X76380000Y-78445000D01*
X78030000Y-78445000D01*
X78044703Y-78445722D01*
G37*
G36*
X78044703Y-79715722D02*
G01*
X78059264Y-79717882D01*
X78073543Y-79721459D01*
X78087403Y-79726418D01*
X78100710Y-79732712D01*
X78113336Y-79740280D01*
X78125159Y-79749048D01*
X78136066Y-79758934D01*
X78145952Y-79769841D01*
X78154720Y-79781664D01*
X78162288Y-79794290D01*
X78168582Y-79807597D01*
X78173541Y-79821457D01*
X78177118Y-79835736D01*
X78179278Y-79850297D01*
X78180000Y-79865000D01*
X78180000Y-80165000D01*
X78179278Y-80179703D01*
X78177118Y-80194264D01*
X78173541Y-80208543D01*
X78168582Y-80222403D01*
X78162288Y-80235710D01*
X78154720Y-80248336D01*
X78145952Y-80260159D01*
X78136066Y-80271066D01*
X78125159Y-80280952D01*
X78113336Y-80289720D01*
X78100710Y-80297288D01*
X78087403Y-80303582D01*
X78073543Y-80308541D01*
X78059264Y-80312118D01*
X78044703Y-80314278D01*
X78030000Y-80315000D01*
X76380000Y-80315000D01*
X76365297Y-80314278D01*
X76350736Y-80312118D01*
X76336457Y-80308541D01*
X76322597Y-80303582D01*
X76309290Y-80297288D01*
X76296664Y-80289720D01*
X76284841Y-80280952D01*
X76273934Y-80271066D01*
X76264048Y-80260159D01*
X76255280Y-80248336D01*
X76247712Y-80235710D01*
X76241418Y-80222403D01*
X76236459Y-80208543D01*
X76232882Y-80194264D01*
X76230722Y-80179703D01*
X76230000Y-80165000D01*
X76230000Y-79865000D01*
X76230722Y-79850297D01*
X76232882Y-79835736D01*
X76236459Y-79821457D01*
X76241418Y-79807597D01*
X76247712Y-79794290D01*
X76255280Y-79781664D01*
X76264048Y-79769841D01*
X76273934Y-79758934D01*
X76284841Y-79749048D01*
X76296664Y-79740280D01*
X76309290Y-79732712D01*
X76322597Y-79726418D01*
X76336457Y-79721459D01*
X76350736Y-79717882D01*
X76365297Y-79715722D01*
X76380000Y-79715000D01*
X78030000Y-79715000D01*
X78044703Y-79715722D01*
G37*
G36*
X82994703Y-79715722D02*
G01*
X83009264Y-79717882D01*
X83023543Y-79721459D01*
X83037403Y-79726418D01*
X83050710Y-79732712D01*
X83063336Y-79740280D01*
X83075159Y-79749048D01*
X83086066Y-79758934D01*
X83095952Y-79769841D01*
X83104720Y-79781664D01*
X83112288Y-79794290D01*
X83118582Y-79807597D01*
X83123541Y-79821457D01*
X83127118Y-79835736D01*
X83129278Y-79850297D01*
X83130000Y-79865000D01*
X83130000Y-80165000D01*
X83129278Y-80179703D01*
X83127118Y-80194264D01*
X83123541Y-80208543D01*
X83118582Y-80222403D01*
X83112288Y-80235710D01*
X83104720Y-80248336D01*
X83095952Y-80260159D01*
X83086066Y-80271066D01*
X83075159Y-80280952D01*
X83063336Y-80289720D01*
X83050710Y-80297288D01*
X83037403Y-80303582D01*
X83023543Y-80308541D01*
X83009264Y-80312118D01*
X82994703Y-80314278D01*
X82980000Y-80315000D01*
X81330000Y-80315000D01*
X81315297Y-80314278D01*
X81300736Y-80312118D01*
X81286457Y-80308541D01*
X81272597Y-80303582D01*
X81259290Y-80297288D01*
X81246664Y-80289720D01*
X81234841Y-80280952D01*
X81223934Y-80271066D01*
X81214048Y-80260159D01*
X81205280Y-80248336D01*
X81197712Y-80235710D01*
X81191418Y-80222403D01*
X81186459Y-80208543D01*
X81182882Y-80194264D01*
X81180722Y-80179703D01*
X81180000Y-80165000D01*
X81180000Y-79865000D01*
X81180722Y-79850297D01*
X81182882Y-79835736D01*
X81186459Y-79821457D01*
X81191418Y-79807597D01*
X81197712Y-79794290D01*
X81205280Y-79781664D01*
X81214048Y-79769841D01*
X81223934Y-79758934D01*
X81234841Y-79749048D01*
X81246664Y-79740280D01*
X81259290Y-79732712D01*
X81272597Y-79726418D01*
X81286457Y-79721459D01*
X81300736Y-79717882D01*
X81315297Y-79715722D01*
X81330000Y-79715000D01*
X82980000Y-79715000D01*
X82994703Y-79715722D01*
G37*
G36*
X82994703Y-78445722D02*
G01*
X83009264Y-78447882D01*
X83023543Y-78451459D01*
X83037403Y-78456418D01*
X83050710Y-78462712D01*
X83063336Y-78470280D01*
X83075159Y-78479048D01*
X83086066Y-78488934D01*
X83095952Y-78499841D01*
X83104720Y-78511664D01*
X83112288Y-78524290D01*
X83118582Y-78537597D01*
X83123541Y-78551457D01*
X83127118Y-78565736D01*
X83129278Y-78580297D01*
X83130000Y-78595000D01*
X83130000Y-78895000D01*
X83129278Y-78909703D01*
X83127118Y-78924264D01*
X83123541Y-78938543D01*
X83118582Y-78952403D01*
X83112288Y-78965710D01*
X83104720Y-78978336D01*
X83095952Y-78990159D01*
X83086066Y-79001066D01*
X83075159Y-79010952D01*
X83063336Y-79019720D01*
X83050710Y-79027288D01*
X83037403Y-79033582D01*
X83023543Y-79038541D01*
X83009264Y-79042118D01*
X82994703Y-79044278D01*
X82980000Y-79045000D01*
X81330000Y-79045000D01*
X81315297Y-79044278D01*
X81300736Y-79042118D01*
X81286457Y-79038541D01*
X81272597Y-79033582D01*
X81259290Y-79027288D01*
X81246664Y-79019720D01*
X81234841Y-79010952D01*
X81223934Y-79001066D01*
X81214048Y-78990159D01*
X81205280Y-78978336D01*
X81197712Y-78965710D01*
X81191418Y-78952403D01*
X81186459Y-78938543D01*
X81182882Y-78924264D01*
X81180722Y-78909703D01*
X81180000Y-78895000D01*
X81180000Y-78595000D01*
X81180722Y-78580297D01*
X81182882Y-78565736D01*
X81186459Y-78551457D01*
X81191418Y-78537597D01*
X81197712Y-78524290D01*
X81205280Y-78511664D01*
X81214048Y-78499841D01*
X81223934Y-78488934D01*
X81234841Y-78479048D01*
X81246664Y-78470280D01*
X81259290Y-78462712D01*
X81272597Y-78456418D01*
X81286457Y-78451459D01*
X81300736Y-78447882D01*
X81315297Y-78445722D01*
X81330000Y-78445000D01*
X82980000Y-78445000D01*
X82994703Y-78445722D01*
G37*
G36*
X82994703Y-77175722D02*
G01*
X83009264Y-77177882D01*
X83023543Y-77181459D01*
X83037403Y-77186418D01*
X83050710Y-77192712D01*
X83063336Y-77200280D01*
X83075159Y-77209048D01*
X83086066Y-77218934D01*
X83095952Y-77229841D01*
X83104720Y-77241664D01*
X83112288Y-77254290D01*
X83118582Y-77267597D01*
X83123541Y-77281457D01*
X83127118Y-77295736D01*
X83129278Y-77310297D01*
X83130000Y-77325000D01*
X83130000Y-77625000D01*
X83129278Y-77639703D01*
X83127118Y-77654264D01*
X83123541Y-77668543D01*
X83118582Y-77682403D01*
X83112288Y-77695710D01*
X83104720Y-77708336D01*
X83095952Y-77720159D01*
X83086066Y-77731066D01*
X83075159Y-77740952D01*
X83063336Y-77749720D01*
X83050710Y-77757288D01*
X83037403Y-77763582D01*
X83023543Y-77768541D01*
X83009264Y-77772118D01*
X82994703Y-77774278D01*
X82980000Y-77775000D01*
X81330000Y-77775000D01*
X81315297Y-77774278D01*
X81300736Y-77772118D01*
X81286457Y-77768541D01*
X81272597Y-77763582D01*
X81259290Y-77757288D01*
X81246664Y-77749720D01*
X81234841Y-77740952D01*
X81223934Y-77731066D01*
X81214048Y-77720159D01*
X81205280Y-77708336D01*
X81197712Y-77695710D01*
X81191418Y-77682403D01*
X81186459Y-77668543D01*
X81182882Y-77654264D01*
X81180722Y-77639703D01*
X81180000Y-77625000D01*
X81180000Y-77325000D01*
X81180722Y-77310297D01*
X81182882Y-77295736D01*
X81186459Y-77281457D01*
X81191418Y-77267597D01*
X81197712Y-77254290D01*
X81205280Y-77241664D01*
X81214048Y-77229841D01*
X81223934Y-77218934D01*
X81234841Y-77209048D01*
X81246664Y-77200280D01*
X81259290Y-77192712D01*
X81272597Y-77186418D01*
X81286457Y-77181459D01*
X81300736Y-77177882D01*
X81315297Y-77175722D01*
X81330000Y-77175000D01*
X82980000Y-77175000D01*
X82994703Y-77175722D01*
G37*
G36*
X82994703Y-75905722D02*
G01*
X83009264Y-75907882D01*
X83023543Y-75911459D01*
X83037403Y-75916418D01*
X83050710Y-75922712D01*
X83063336Y-75930280D01*
X83075159Y-75939048D01*
X83086066Y-75948934D01*
X83095952Y-75959841D01*
X83104720Y-75971664D01*
X83112288Y-75984290D01*
X83118582Y-75997597D01*
X83123541Y-76011457D01*
X83127118Y-76025736D01*
X83129278Y-76040297D01*
X83130000Y-76055000D01*
X83130000Y-76355000D01*
X83129278Y-76369703D01*
X83127118Y-76384264D01*
X83123541Y-76398543D01*
X83118582Y-76412403D01*
X83112288Y-76425710D01*
X83104720Y-76438336D01*
X83095952Y-76450159D01*
X83086066Y-76461066D01*
X83075159Y-76470952D01*
X83063336Y-76479720D01*
X83050710Y-76487288D01*
X83037403Y-76493582D01*
X83023543Y-76498541D01*
X83009264Y-76502118D01*
X82994703Y-76504278D01*
X82980000Y-76505000D01*
X81330000Y-76505000D01*
X81315297Y-76504278D01*
X81300736Y-76502118D01*
X81286457Y-76498541D01*
X81272597Y-76493582D01*
X81259290Y-76487288D01*
X81246664Y-76479720D01*
X81234841Y-76470952D01*
X81223934Y-76461066D01*
X81214048Y-76450159D01*
X81205280Y-76438336D01*
X81197712Y-76425710D01*
X81191418Y-76412403D01*
X81186459Y-76398543D01*
X81182882Y-76384264D01*
X81180722Y-76369703D01*
X81180000Y-76355000D01*
X81180000Y-76055000D01*
X81180722Y-76040297D01*
X81182882Y-76025736D01*
X81186459Y-76011457D01*
X81191418Y-75997597D01*
X81197712Y-75984290D01*
X81205280Y-75971664D01*
X81214048Y-75959841D01*
X81223934Y-75948934D01*
X81234841Y-75939048D01*
X81246664Y-75930280D01*
X81259290Y-75922712D01*
X81272597Y-75916418D01*
X81286457Y-75911459D01*
X81300736Y-75907882D01*
X81315297Y-75905722D01*
X81330000Y-75905000D01*
X82980000Y-75905000D01*
X82994703Y-75905722D01*
G37*
D25*
X65710000Y-90810000D03*
D26*
X70710000Y-90810000D03*
D21*
X71505000Y-84460000D03*
X76505000Y-84460000D03*
X80950000Y-88905000D03*
X75950000Y-88905000D03*
D25*
X80870000Y-95890000D03*
D26*
X75870000Y-95890000D03*
D21*
X114605000Y-99700000D03*
X114605000Y-94700000D03*
X117526000Y-94620000D03*
X122526000Y-94620000D03*
D27*
X68330000Y-67950000D03*
X73330000Y-67950000D03*
D28*
X78330000Y-67950000D03*
D12*
X55550000Y-105415000D03*
X53010000Y-105415000D03*
X50470000Y-105415000D03*
X47930000Y-105415000D03*
D13*
X45390000Y-105415000D03*
D24*
G36*
X81699398Y-84490000D02*
G01*
X81699398Y-84514534D01*
X81694588Y-84563365D01*
X81685016Y-84611490D01*
X81670772Y-84658445D01*
X81651995Y-84703778D01*
X81628864Y-84747051D01*
X81601604Y-84787850D01*
X81570476Y-84825779D01*
X81535779Y-84860476D01*
X81497850Y-84891604D01*
X81457051Y-84918864D01*
X81413778Y-84941995D01*
X81368445Y-84960772D01*
X81321490Y-84975016D01*
X81273365Y-84984588D01*
X81224534Y-84989398D01*
X81200000Y-84989398D01*
X81200000Y-84990000D01*
X80700000Y-84990000D01*
X80700000Y-84989398D01*
X80675466Y-84989398D01*
X80626635Y-84984588D01*
X80578510Y-84975016D01*
X80531555Y-84960772D01*
X80486222Y-84941995D01*
X80442949Y-84918864D01*
X80402150Y-84891604D01*
X80364221Y-84860476D01*
X80329524Y-84825779D01*
X80298396Y-84787850D01*
X80271136Y-84747051D01*
X80248005Y-84703778D01*
X80229228Y-84658445D01*
X80214984Y-84611490D01*
X80205412Y-84563365D01*
X80200602Y-84514534D01*
X80200602Y-84490000D01*
X80200000Y-84490000D01*
X80200000Y-83990000D01*
X81700000Y-83990000D01*
X81700000Y-84490000D01*
X81699398Y-84490000D01*
G37*
G36*
X80200000Y-83690000D02*
G01*
X80200000Y-83190000D01*
X80200602Y-83190000D01*
X80200602Y-83165466D01*
X80205412Y-83116635D01*
X80214984Y-83068510D01*
X80229228Y-83021555D01*
X80248005Y-82976222D01*
X80271136Y-82932949D01*
X80298396Y-82892150D01*
X80329524Y-82854221D01*
X80364221Y-82819524D01*
X80402150Y-82788396D01*
X80442949Y-82761136D01*
X80486222Y-82738005D01*
X80531555Y-82719228D01*
X80578510Y-82704984D01*
X80626635Y-82695412D01*
X80675466Y-82690602D01*
X80700000Y-82690602D01*
X80700000Y-82690000D01*
X81200000Y-82690000D01*
X81200000Y-82690602D01*
X81224534Y-82690602D01*
X81273365Y-82695412D01*
X81321490Y-82704984D01*
X81368445Y-82719228D01*
X81413778Y-82738005D01*
X81457051Y-82761136D01*
X81497850Y-82788396D01*
X81535779Y-82819524D01*
X81570476Y-82854221D01*
X81601604Y-82892150D01*
X81628864Y-82932949D01*
X81651995Y-82976222D01*
X81670772Y-83021555D01*
X81685016Y-83068510D01*
X81694588Y-83116635D01*
X81699398Y-83165466D01*
X81699398Y-83190000D01*
X81700000Y-83190000D01*
X81700000Y-83690000D01*
X80200000Y-83690000D01*
G37*
D29*
X82220000Y-44865000D03*
X82220000Y-48265000D03*
D30*
X97460000Y-99700000D03*
D21*
X97460000Y-89540000D03*
D30*
X117526000Y-99700000D03*
D21*
X127686000Y-99700000D03*
D30*
X111430000Y-99700000D03*
D21*
X101270000Y-99700000D03*
D30*
X101270000Y-94620000D03*
D21*
X111430000Y-94620000D03*
D25*
X58090000Y-119385000D03*
X58090000Y-123885000D03*
X51590000Y-119385000D03*
X51590000Y-123885000D03*
X119685000Y-119330000D03*
X119685000Y-123830000D03*
X113185000Y-119330000D03*
X113185000Y-123830000D03*
D31*
X94212500Y-122265000D03*
X77212500Y-122265000D03*
D32*
X80712500Y-111765000D03*
X85712500Y-111765000D03*
X90712500Y-111765000D03*
D11*
X178500000Y-87025000D03*
D10*
X181725000Y-87025000D03*
X180780419Y-89305419D03*
X178500000Y-90250000D03*
X176219581Y-89305419D03*
X175275000Y-87025000D03*
X176219581Y-84744581D03*
X178500000Y-83800000D03*
X180780419Y-84744581D03*
D11*
X178500000Y-122025000D03*
D10*
X181725000Y-122025000D03*
X180780419Y-124305419D03*
X178500000Y-125250000D03*
X176219581Y-124305419D03*
X175275000Y-122025000D03*
X176219581Y-119744581D03*
X178500000Y-118800000D03*
X180780419Y-119744581D03*
D11*
X143500000Y-122025000D03*
D10*
X146725000Y-122025000D03*
X145780419Y-124305419D03*
X143500000Y-125250000D03*
X141219581Y-124305419D03*
X140275000Y-122025000D03*
X141219581Y-119744581D03*
X143500000Y-118800000D03*
X145780419Y-119744581D03*
X145780419Y-84744581D03*
X143500000Y-83800000D03*
X141219581Y-84744581D03*
X140275000Y-87025000D03*
X141219581Y-89305419D03*
X143500000Y-90250000D03*
X145780419Y-89305419D03*
X146725000Y-87025000D03*
D11*
X143500000Y-87025000D03*
D13*
X141200000Y-98155000D03*
D12*
X141200000Y-100695000D03*
X141200000Y-103235000D03*
X141200000Y-105775000D03*
X141200000Y-108315000D03*
X141200000Y-110855000D03*
D14*
X242000000Y-73525000D03*
X202750000Y-37025000D03*
D33*
X225162000Y-57305000D03*
X222622000Y-57305000D03*
X220082000Y-57305000D03*
X217542000Y-57305000D03*
X215002000Y-57305000D03*
D24*
G36*
X219644779Y-52005144D02*
G01*
X219667834Y-52008563D01*
X219690443Y-52014227D01*
X219712387Y-52022079D01*
X219733457Y-52032044D01*
X219753448Y-52044026D01*
X219772168Y-52057910D01*
X219789438Y-52073562D01*
X219805090Y-52090832D01*
X219818974Y-52109552D01*
X219830956Y-52129543D01*
X219840921Y-52150613D01*
X219848773Y-52172557D01*
X219854437Y-52195166D01*
X219857856Y-52218221D01*
X219859000Y-52241500D01*
X219859000Y-52716500D01*
X219857856Y-52739779D01*
X219854437Y-52762834D01*
X219848773Y-52785443D01*
X219840921Y-52807387D01*
X219830956Y-52828457D01*
X219818974Y-52848448D01*
X219805090Y-52867168D01*
X219789438Y-52884438D01*
X219772168Y-52900090D01*
X219753448Y-52913974D01*
X219733457Y-52925956D01*
X219712387Y-52935921D01*
X219690443Y-52943773D01*
X219667834Y-52949437D01*
X219644779Y-52952856D01*
X219621500Y-52954000D01*
X219046500Y-52954000D01*
X219023221Y-52952856D01*
X219000166Y-52949437D01*
X218977557Y-52943773D01*
X218955613Y-52935921D01*
X218934543Y-52925956D01*
X218914552Y-52913974D01*
X218895832Y-52900090D01*
X218878562Y-52884438D01*
X218862910Y-52867168D01*
X218849026Y-52848448D01*
X218837044Y-52828457D01*
X218827079Y-52807387D01*
X218819227Y-52785443D01*
X218813563Y-52762834D01*
X218810144Y-52739779D01*
X218809000Y-52716500D01*
X218809000Y-52241500D01*
X218810144Y-52218221D01*
X218813563Y-52195166D01*
X218819227Y-52172557D01*
X218827079Y-52150613D01*
X218837044Y-52129543D01*
X218849026Y-52109552D01*
X218862910Y-52090832D01*
X218878562Y-52073562D01*
X218895832Y-52057910D01*
X218914552Y-52044026D01*
X218934543Y-52032044D01*
X218955613Y-52022079D01*
X218977557Y-52014227D01*
X219000166Y-52008563D01*
X219023221Y-52005144D01*
X219046500Y-52004000D01*
X219621500Y-52004000D01*
X219644779Y-52005144D01*
G37*
G36*
X221394779Y-52005144D02*
G01*
X221417834Y-52008563D01*
X221440443Y-52014227D01*
X221462387Y-52022079D01*
X221483457Y-52032044D01*
X221503448Y-52044026D01*
X221522168Y-52057910D01*
X221539438Y-52073562D01*
X221555090Y-52090832D01*
X221568974Y-52109552D01*
X221580956Y-52129543D01*
X221590921Y-52150613D01*
X221598773Y-52172557D01*
X221604437Y-52195166D01*
X221607856Y-52218221D01*
X221609000Y-52241500D01*
X221609000Y-52716500D01*
X221607856Y-52739779D01*
X221604437Y-52762834D01*
X221598773Y-52785443D01*
X221590921Y-52807387D01*
X221580956Y-52828457D01*
X221568974Y-52848448D01*
X221555090Y-52867168D01*
X221539438Y-52884438D01*
X221522168Y-52900090D01*
X221503448Y-52913974D01*
X221483457Y-52925956D01*
X221462387Y-52935921D01*
X221440443Y-52943773D01*
X221417834Y-52949437D01*
X221394779Y-52952856D01*
X221371500Y-52954000D01*
X220796500Y-52954000D01*
X220773221Y-52952856D01*
X220750166Y-52949437D01*
X220727557Y-52943773D01*
X220705613Y-52935921D01*
X220684543Y-52925956D01*
X220664552Y-52913974D01*
X220645832Y-52900090D01*
X220628562Y-52884438D01*
X220612910Y-52867168D01*
X220599026Y-52848448D01*
X220587044Y-52828457D01*
X220577079Y-52807387D01*
X220569227Y-52785443D01*
X220563563Y-52762834D01*
X220560144Y-52739779D01*
X220559000Y-52716500D01*
X220559000Y-52241500D01*
X220560144Y-52218221D01*
X220563563Y-52195166D01*
X220569227Y-52172557D01*
X220577079Y-52150613D01*
X220587044Y-52129543D01*
X220599026Y-52109552D01*
X220612910Y-52090832D01*
X220628562Y-52073562D01*
X220645832Y-52057910D01*
X220664552Y-52044026D01*
X220684543Y-52032044D01*
X220705613Y-52022079D01*
X220727557Y-52014227D01*
X220750166Y-52008563D01*
X220773221Y-52005144D01*
X220796500Y-52004000D01*
X221371500Y-52004000D01*
X221394779Y-52005144D01*
G37*
G36*
X219644779Y-50227144D02*
G01*
X219667834Y-50230563D01*
X219690443Y-50236227D01*
X219712387Y-50244079D01*
X219733457Y-50254044D01*
X219753448Y-50266026D01*
X219772168Y-50279910D01*
X219789438Y-50295562D01*
X219805090Y-50312832D01*
X219818974Y-50331552D01*
X219830956Y-50351543D01*
X219840921Y-50372613D01*
X219848773Y-50394557D01*
X219854437Y-50417166D01*
X219857856Y-50440221D01*
X219859000Y-50463500D01*
X219859000Y-50938500D01*
X219857856Y-50961779D01*
X219854437Y-50984834D01*
X219848773Y-51007443D01*
X219840921Y-51029387D01*
X219830956Y-51050457D01*
X219818974Y-51070448D01*
X219805090Y-51089168D01*
X219789438Y-51106438D01*
X219772168Y-51122090D01*
X219753448Y-51135974D01*
X219733457Y-51147956D01*
X219712387Y-51157921D01*
X219690443Y-51165773D01*
X219667834Y-51171437D01*
X219644779Y-51174856D01*
X219621500Y-51176000D01*
X219046500Y-51176000D01*
X219023221Y-51174856D01*
X219000166Y-51171437D01*
X218977557Y-51165773D01*
X218955613Y-51157921D01*
X218934543Y-51147956D01*
X218914552Y-51135974D01*
X218895832Y-51122090D01*
X218878562Y-51106438D01*
X218862910Y-51089168D01*
X218849026Y-51070448D01*
X218837044Y-51050457D01*
X218827079Y-51029387D01*
X218819227Y-51007443D01*
X218813563Y-50984834D01*
X218810144Y-50961779D01*
X218809000Y-50938500D01*
X218809000Y-50463500D01*
X218810144Y-50440221D01*
X218813563Y-50417166D01*
X218819227Y-50394557D01*
X218827079Y-50372613D01*
X218837044Y-50351543D01*
X218849026Y-50331552D01*
X218862910Y-50312832D01*
X218878562Y-50295562D01*
X218895832Y-50279910D01*
X218914552Y-50266026D01*
X218934543Y-50254044D01*
X218955613Y-50244079D01*
X218977557Y-50236227D01*
X219000166Y-50230563D01*
X219023221Y-50227144D01*
X219046500Y-50226000D01*
X219621500Y-50226000D01*
X219644779Y-50227144D01*
G37*
G36*
X221394779Y-50227144D02*
G01*
X221417834Y-50230563D01*
X221440443Y-50236227D01*
X221462387Y-50244079D01*
X221483457Y-50254044D01*
X221503448Y-50266026D01*
X221522168Y-50279910D01*
X221539438Y-50295562D01*
X221555090Y-50312832D01*
X221568974Y-50331552D01*
X221580956Y-50351543D01*
X221590921Y-50372613D01*
X221598773Y-50394557D01*
X221604437Y-50417166D01*
X221607856Y-50440221D01*
X221609000Y-50463500D01*
X221609000Y-50938500D01*
X221607856Y-50961779D01*
X221604437Y-50984834D01*
X221598773Y-51007443D01*
X221590921Y-51029387D01*
X221580956Y-51050457D01*
X221568974Y-51070448D01*
X221555090Y-51089168D01*
X221539438Y-51106438D01*
X221522168Y-51122090D01*
X221503448Y-51135974D01*
X221483457Y-51147956D01*
X221462387Y-51157921D01*
X221440443Y-51165773D01*
X221417834Y-51171437D01*
X221394779Y-51174856D01*
X221371500Y-51176000D01*
X220796500Y-51176000D01*
X220773221Y-51174856D01*
X220750166Y-51171437D01*
X220727557Y-51165773D01*
X220705613Y-51157921D01*
X220684543Y-51147956D01*
X220664552Y-51135974D01*
X220645832Y-51122090D01*
X220628562Y-51106438D01*
X220612910Y-51089168D01*
X220599026Y-51070448D01*
X220587044Y-51050457D01*
X220577079Y-51029387D01*
X220569227Y-51007443D01*
X220563563Y-50984834D01*
X220560144Y-50961779D01*
X220559000Y-50938500D01*
X220559000Y-50463500D01*
X220560144Y-50440221D01*
X220563563Y-50417166D01*
X220569227Y-50394557D01*
X220577079Y-50372613D01*
X220587044Y-50351543D01*
X220599026Y-50331552D01*
X220612910Y-50312832D01*
X220628562Y-50295562D01*
X220645832Y-50279910D01*
X220664552Y-50266026D01*
X220684543Y-50254044D01*
X220705613Y-50244079D01*
X220727557Y-50236227D01*
X220750166Y-50230563D01*
X220773221Y-50227144D01*
X220796500Y-50226000D01*
X221371500Y-50226000D01*
X221394779Y-50227144D01*
G37*
G36*
X219658779Y-48449144D02*
G01*
X219681834Y-48452563D01*
X219704443Y-48458227D01*
X219726387Y-48466079D01*
X219747457Y-48476044D01*
X219767448Y-48488026D01*
X219786168Y-48501910D01*
X219803438Y-48517562D01*
X219819090Y-48534832D01*
X219832974Y-48553552D01*
X219844956Y-48573543D01*
X219854921Y-48594613D01*
X219862773Y-48616557D01*
X219868437Y-48639166D01*
X219871856Y-48662221D01*
X219873000Y-48685500D01*
X219873000Y-49160500D01*
X219871856Y-49183779D01*
X219868437Y-49206834D01*
X219862773Y-49229443D01*
X219854921Y-49251387D01*
X219844956Y-49272457D01*
X219832974Y-49292448D01*
X219819090Y-49311168D01*
X219803438Y-49328438D01*
X219786168Y-49344090D01*
X219767448Y-49357974D01*
X219747457Y-49369956D01*
X219726387Y-49379921D01*
X219704443Y-49387773D01*
X219681834Y-49393437D01*
X219658779Y-49396856D01*
X219635500Y-49398000D01*
X219060500Y-49398000D01*
X219037221Y-49396856D01*
X219014166Y-49393437D01*
X218991557Y-49387773D01*
X218969613Y-49379921D01*
X218948543Y-49369956D01*
X218928552Y-49357974D01*
X218909832Y-49344090D01*
X218892562Y-49328438D01*
X218876910Y-49311168D01*
X218863026Y-49292448D01*
X218851044Y-49272457D01*
X218841079Y-49251387D01*
X218833227Y-49229443D01*
X218827563Y-49206834D01*
X218824144Y-49183779D01*
X218823000Y-49160500D01*
X218823000Y-48685500D01*
X218824144Y-48662221D01*
X218827563Y-48639166D01*
X218833227Y-48616557D01*
X218841079Y-48594613D01*
X218851044Y-48573543D01*
X218863026Y-48553552D01*
X218876910Y-48534832D01*
X218892562Y-48517562D01*
X218909832Y-48501910D01*
X218928552Y-48488026D01*
X218948543Y-48476044D01*
X218969613Y-48466079D01*
X218991557Y-48458227D01*
X219014166Y-48452563D01*
X219037221Y-48449144D01*
X219060500Y-48448000D01*
X219635500Y-48448000D01*
X219658779Y-48449144D01*
G37*
G36*
X221408779Y-48449144D02*
G01*
X221431834Y-48452563D01*
X221454443Y-48458227D01*
X221476387Y-48466079D01*
X221497457Y-48476044D01*
X221517448Y-48488026D01*
X221536168Y-48501910D01*
X221553438Y-48517562D01*
X221569090Y-48534832D01*
X221582974Y-48553552D01*
X221594956Y-48573543D01*
X221604921Y-48594613D01*
X221612773Y-48616557D01*
X221618437Y-48639166D01*
X221621856Y-48662221D01*
X221623000Y-48685500D01*
X221623000Y-49160500D01*
X221621856Y-49183779D01*
X221618437Y-49206834D01*
X221612773Y-49229443D01*
X221604921Y-49251387D01*
X221594956Y-49272457D01*
X221582974Y-49292448D01*
X221569090Y-49311168D01*
X221553438Y-49328438D01*
X221536168Y-49344090D01*
X221517448Y-49357974D01*
X221497457Y-49369956D01*
X221476387Y-49379921D01*
X221454443Y-49387773D01*
X221431834Y-49393437D01*
X221408779Y-49396856D01*
X221385500Y-49398000D01*
X220810500Y-49398000D01*
X220787221Y-49396856D01*
X220764166Y-49393437D01*
X220741557Y-49387773D01*
X220719613Y-49379921D01*
X220698543Y-49369956D01*
X220678552Y-49357974D01*
X220659832Y-49344090D01*
X220642562Y-49328438D01*
X220626910Y-49311168D01*
X220613026Y-49292448D01*
X220601044Y-49272457D01*
X220591079Y-49251387D01*
X220583227Y-49229443D01*
X220577563Y-49206834D01*
X220574144Y-49183779D01*
X220573000Y-49160500D01*
X220573000Y-48685500D01*
X220574144Y-48662221D01*
X220577563Y-48639166D01*
X220583227Y-48616557D01*
X220591079Y-48594613D01*
X220601044Y-48573543D01*
X220613026Y-48553552D01*
X220626910Y-48534832D01*
X220642562Y-48517562D01*
X220659832Y-48501910D01*
X220678552Y-48488026D01*
X220698543Y-48476044D01*
X220719613Y-48466079D01*
X220741557Y-48458227D01*
X220764166Y-48452563D01*
X220787221Y-48449144D01*
X220810500Y-48448000D01*
X221385500Y-48448000D01*
X221408779Y-48449144D01*
G37*
G36*
X219644779Y-46671144D02*
G01*
X219667834Y-46674563D01*
X219690443Y-46680227D01*
X219712387Y-46688079D01*
X219733457Y-46698044D01*
X219753448Y-46710026D01*
X219772168Y-46723910D01*
X219789438Y-46739562D01*
X219805090Y-46756832D01*
X219818974Y-46775552D01*
X219830956Y-46795543D01*
X219840921Y-46816613D01*
X219848773Y-46838557D01*
X219854437Y-46861166D01*
X219857856Y-46884221D01*
X219859000Y-46907500D01*
X219859000Y-47382500D01*
X219857856Y-47405779D01*
X219854437Y-47428834D01*
X219848773Y-47451443D01*
X219840921Y-47473387D01*
X219830956Y-47494457D01*
X219818974Y-47514448D01*
X219805090Y-47533168D01*
X219789438Y-47550438D01*
X219772168Y-47566090D01*
X219753448Y-47579974D01*
X219733457Y-47591956D01*
X219712387Y-47601921D01*
X219690443Y-47609773D01*
X219667834Y-47615437D01*
X219644779Y-47618856D01*
X219621500Y-47620000D01*
X219046500Y-47620000D01*
X219023221Y-47618856D01*
X219000166Y-47615437D01*
X218977557Y-47609773D01*
X218955613Y-47601921D01*
X218934543Y-47591956D01*
X218914552Y-47579974D01*
X218895832Y-47566090D01*
X218878562Y-47550438D01*
X218862910Y-47533168D01*
X218849026Y-47514448D01*
X218837044Y-47494457D01*
X218827079Y-47473387D01*
X218819227Y-47451443D01*
X218813563Y-47428834D01*
X218810144Y-47405779D01*
X218809000Y-47382500D01*
X218809000Y-46907500D01*
X218810144Y-46884221D01*
X218813563Y-46861166D01*
X218819227Y-46838557D01*
X218827079Y-46816613D01*
X218837044Y-46795543D01*
X218849026Y-46775552D01*
X218862910Y-46756832D01*
X218878562Y-46739562D01*
X218895832Y-46723910D01*
X218914552Y-46710026D01*
X218934543Y-46698044D01*
X218955613Y-46688079D01*
X218977557Y-46680227D01*
X219000166Y-46674563D01*
X219023221Y-46671144D01*
X219046500Y-46670000D01*
X219621500Y-46670000D01*
X219644779Y-46671144D01*
G37*
G36*
X221394779Y-46671144D02*
G01*
X221417834Y-46674563D01*
X221440443Y-46680227D01*
X221462387Y-46688079D01*
X221483457Y-46698044D01*
X221503448Y-46710026D01*
X221522168Y-46723910D01*
X221539438Y-46739562D01*
X221555090Y-46756832D01*
X221568974Y-46775552D01*
X221580956Y-46795543D01*
X221590921Y-46816613D01*
X221598773Y-46838557D01*
X221604437Y-46861166D01*
X221607856Y-46884221D01*
X221609000Y-46907500D01*
X221609000Y-47382500D01*
X221607856Y-47405779D01*
X221604437Y-47428834D01*
X221598773Y-47451443D01*
X221590921Y-47473387D01*
X221580956Y-47494457D01*
X221568974Y-47514448D01*
X221555090Y-47533168D01*
X221539438Y-47550438D01*
X221522168Y-47566090D01*
X221503448Y-47579974D01*
X221483457Y-47591956D01*
X221462387Y-47601921D01*
X221440443Y-47609773D01*
X221417834Y-47615437D01*
X221394779Y-47618856D01*
X221371500Y-47620000D01*
X220796500Y-47620000D01*
X220773221Y-47618856D01*
X220750166Y-47615437D01*
X220727557Y-47609773D01*
X220705613Y-47601921D01*
X220684543Y-47591956D01*
X220664552Y-47579974D01*
X220645832Y-47566090D01*
X220628562Y-47550438D01*
X220612910Y-47533168D01*
X220599026Y-47514448D01*
X220587044Y-47494457D01*
X220577079Y-47473387D01*
X220569227Y-47451443D01*
X220563563Y-47428834D01*
X220560144Y-47405779D01*
X220559000Y-47382500D01*
X220559000Y-46907500D01*
X220560144Y-46884221D01*
X220563563Y-46861166D01*
X220569227Y-46838557D01*
X220577079Y-46816613D01*
X220587044Y-46795543D01*
X220599026Y-46775552D01*
X220612910Y-46756832D01*
X220628562Y-46739562D01*
X220645832Y-46723910D01*
X220664552Y-46710026D01*
X220684543Y-46698044D01*
X220705613Y-46688079D01*
X220727557Y-46680227D01*
X220750166Y-46674563D01*
X220773221Y-46671144D01*
X220796500Y-46670000D01*
X221371500Y-46670000D01*
X221394779Y-46671144D01*
G37*
G36*
X224216779Y-52005144D02*
G01*
X224239834Y-52008563D01*
X224262443Y-52014227D01*
X224284387Y-52022079D01*
X224305457Y-52032044D01*
X224325448Y-52044026D01*
X224344168Y-52057910D01*
X224361438Y-52073562D01*
X224377090Y-52090832D01*
X224390974Y-52109552D01*
X224402956Y-52129543D01*
X224412921Y-52150613D01*
X224420773Y-52172557D01*
X224426437Y-52195166D01*
X224429856Y-52218221D01*
X224431000Y-52241500D01*
X224431000Y-52716500D01*
X224429856Y-52739779D01*
X224426437Y-52762834D01*
X224420773Y-52785443D01*
X224412921Y-52807387D01*
X224402956Y-52828457D01*
X224390974Y-52848448D01*
X224377090Y-52867168D01*
X224361438Y-52884438D01*
X224344168Y-52900090D01*
X224325448Y-52913974D01*
X224305457Y-52925956D01*
X224284387Y-52935921D01*
X224262443Y-52943773D01*
X224239834Y-52949437D01*
X224216779Y-52952856D01*
X224193500Y-52954000D01*
X223618500Y-52954000D01*
X223595221Y-52952856D01*
X223572166Y-52949437D01*
X223549557Y-52943773D01*
X223527613Y-52935921D01*
X223506543Y-52925956D01*
X223486552Y-52913974D01*
X223467832Y-52900090D01*
X223450562Y-52884438D01*
X223434910Y-52867168D01*
X223421026Y-52848448D01*
X223409044Y-52828457D01*
X223399079Y-52807387D01*
X223391227Y-52785443D01*
X223385563Y-52762834D01*
X223382144Y-52739779D01*
X223381000Y-52716500D01*
X223381000Y-52241500D01*
X223382144Y-52218221D01*
X223385563Y-52195166D01*
X223391227Y-52172557D01*
X223399079Y-52150613D01*
X223409044Y-52129543D01*
X223421026Y-52109552D01*
X223434910Y-52090832D01*
X223450562Y-52073562D01*
X223467832Y-52057910D01*
X223486552Y-52044026D01*
X223506543Y-52032044D01*
X223527613Y-52022079D01*
X223549557Y-52014227D01*
X223572166Y-52008563D01*
X223595221Y-52005144D01*
X223618500Y-52004000D01*
X224193500Y-52004000D01*
X224216779Y-52005144D01*
G37*
G36*
X225966779Y-52005144D02*
G01*
X225989834Y-52008563D01*
X226012443Y-52014227D01*
X226034387Y-52022079D01*
X226055457Y-52032044D01*
X226075448Y-52044026D01*
X226094168Y-52057910D01*
X226111438Y-52073562D01*
X226127090Y-52090832D01*
X226140974Y-52109552D01*
X226152956Y-52129543D01*
X226162921Y-52150613D01*
X226170773Y-52172557D01*
X226176437Y-52195166D01*
X226179856Y-52218221D01*
X226181000Y-52241500D01*
X226181000Y-52716500D01*
X226179856Y-52739779D01*
X226176437Y-52762834D01*
X226170773Y-52785443D01*
X226162921Y-52807387D01*
X226152956Y-52828457D01*
X226140974Y-52848448D01*
X226127090Y-52867168D01*
X226111438Y-52884438D01*
X226094168Y-52900090D01*
X226075448Y-52913974D01*
X226055457Y-52925956D01*
X226034387Y-52935921D01*
X226012443Y-52943773D01*
X225989834Y-52949437D01*
X225966779Y-52952856D01*
X225943500Y-52954000D01*
X225368500Y-52954000D01*
X225345221Y-52952856D01*
X225322166Y-52949437D01*
X225299557Y-52943773D01*
X225277613Y-52935921D01*
X225256543Y-52925956D01*
X225236552Y-52913974D01*
X225217832Y-52900090D01*
X225200562Y-52884438D01*
X225184910Y-52867168D01*
X225171026Y-52848448D01*
X225159044Y-52828457D01*
X225149079Y-52807387D01*
X225141227Y-52785443D01*
X225135563Y-52762834D01*
X225132144Y-52739779D01*
X225131000Y-52716500D01*
X225131000Y-52241500D01*
X225132144Y-52218221D01*
X225135563Y-52195166D01*
X225141227Y-52172557D01*
X225149079Y-52150613D01*
X225159044Y-52129543D01*
X225171026Y-52109552D01*
X225184910Y-52090832D01*
X225200562Y-52073562D01*
X225217832Y-52057910D01*
X225236552Y-52044026D01*
X225256543Y-52032044D01*
X225277613Y-52022079D01*
X225299557Y-52014227D01*
X225322166Y-52008563D01*
X225345221Y-52005144D01*
X225368500Y-52004000D01*
X225943500Y-52004000D01*
X225966779Y-52005144D01*
G37*
G36*
X224202779Y-50227144D02*
G01*
X224225834Y-50230563D01*
X224248443Y-50236227D01*
X224270387Y-50244079D01*
X224291457Y-50254044D01*
X224311448Y-50266026D01*
X224330168Y-50279910D01*
X224347438Y-50295562D01*
X224363090Y-50312832D01*
X224376974Y-50331552D01*
X224388956Y-50351543D01*
X224398921Y-50372613D01*
X224406773Y-50394557D01*
X224412437Y-50417166D01*
X224415856Y-50440221D01*
X224417000Y-50463500D01*
X224417000Y-50938500D01*
X224415856Y-50961779D01*
X224412437Y-50984834D01*
X224406773Y-51007443D01*
X224398921Y-51029387D01*
X224388956Y-51050457D01*
X224376974Y-51070448D01*
X224363090Y-51089168D01*
X224347438Y-51106438D01*
X224330168Y-51122090D01*
X224311448Y-51135974D01*
X224291457Y-51147956D01*
X224270387Y-51157921D01*
X224248443Y-51165773D01*
X224225834Y-51171437D01*
X224202779Y-51174856D01*
X224179500Y-51176000D01*
X223604500Y-51176000D01*
X223581221Y-51174856D01*
X223558166Y-51171437D01*
X223535557Y-51165773D01*
X223513613Y-51157921D01*
X223492543Y-51147956D01*
X223472552Y-51135974D01*
X223453832Y-51122090D01*
X223436562Y-51106438D01*
X223420910Y-51089168D01*
X223407026Y-51070448D01*
X223395044Y-51050457D01*
X223385079Y-51029387D01*
X223377227Y-51007443D01*
X223371563Y-50984834D01*
X223368144Y-50961779D01*
X223367000Y-50938500D01*
X223367000Y-50463500D01*
X223368144Y-50440221D01*
X223371563Y-50417166D01*
X223377227Y-50394557D01*
X223385079Y-50372613D01*
X223395044Y-50351543D01*
X223407026Y-50331552D01*
X223420910Y-50312832D01*
X223436562Y-50295562D01*
X223453832Y-50279910D01*
X223472552Y-50266026D01*
X223492543Y-50254044D01*
X223513613Y-50244079D01*
X223535557Y-50236227D01*
X223558166Y-50230563D01*
X223581221Y-50227144D01*
X223604500Y-50226000D01*
X224179500Y-50226000D01*
X224202779Y-50227144D01*
G37*
G36*
X225952779Y-50227144D02*
G01*
X225975834Y-50230563D01*
X225998443Y-50236227D01*
X226020387Y-50244079D01*
X226041457Y-50254044D01*
X226061448Y-50266026D01*
X226080168Y-50279910D01*
X226097438Y-50295562D01*
X226113090Y-50312832D01*
X226126974Y-50331552D01*
X226138956Y-50351543D01*
X226148921Y-50372613D01*
X226156773Y-50394557D01*
X226162437Y-50417166D01*
X226165856Y-50440221D01*
X226167000Y-50463500D01*
X226167000Y-50938500D01*
X226165856Y-50961779D01*
X226162437Y-50984834D01*
X226156773Y-51007443D01*
X226148921Y-51029387D01*
X226138956Y-51050457D01*
X226126974Y-51070448D01*
X226113090Y-51089168D01*
X226097438Y-51106438D01*
X226080168Y-51122090D01*
X226061448Y-51135974D01*
X226041457Y-51147956D01*
X226020387Y-51157921D01*
X225998443Y-51165773D01*
X225975834Y-51171437D01*
X225952779Y-51174856D01*
X225929500Y-51176000D01*
X225354500Y-51176000D01*
X225331221Y-51174856D01*
X225308166Y-51171437D01*
X225285557Y-51165773D01*
X225263613Y-51157921D01*
X225242543Y-51147956D01*
X225222552Y-51135974D01*
X225203832Y-51122090D01*
X225186562Y-51106438D01*
X225170910Y-51089168D01*
X225157026Y-51070448D01*
X225145044Y-51050457D01*
X225135079Y-51029387D01*
X225127227Y-51007443D01*
X225121563Y-50984834D01*
X225118144Y-50961779D01*
X225117000Y-50938500D01*
X225117000Y-50463500D01*
X225118144Y-50440221D01*
X225121563Y-50417166D01*
X225127227Y-50394557D01*
X225135079Y-50372613D01*
X225145044Y-50351543D01*
X225157026Y-50331552D01*
X225170910Y-50312832D01*
X225186562Y-50295562D01*
X225203832Y-50279910D01*
X225222552Y-50266026D01*
X225242543Y-50254044D01*
X225263613Y-50244079D01*
X225285557Y-50236227D01*
X225308166Y-50230563D01*
X225331221Y-50227144D01*
X225354500Y-50226000D01*
X225929500Y-50226000D01*
X225952779Y-50227144D01*
G37*
G36*
X224202779Y-48449144D02*
G01*
X224225834Y-48452563D01*
X224248443Y-48458227D01*
X224270387Y-48466079D01*
X224291457Y-48476044D01*
X224311448Y-48488026D01*
X224330168Y-48501910D01*
X224347438Y-48517562D01*
X224363090Y-48534832D01*
X224376974Y-48553552D01*
X224388956Y-48573543D01*
X224398921Y-48594613D01*
X224406773Y-48616557D01*
X224412437Y-48639166D01*
X224415856Y-48662221D01*
X224417000Y-48685500D01*
X224417000Y-49160500D01*
X224415856Y-49183779D01*
X224412437Y-49206834D01*
X224406773Y-49229443D01*
X224398921Y-49251387D01*
X224388956Y-49272457D01*
X224376974Y-49292448D01*
X224363090Y-49311168D01*
X224347438Y-49328438D01*
X224330168Y-49344090D01*
X224311448Y-49357974D01*
X224291457Y-49369956D01*
X224270387Y-49379921D01*
X224248443Y-49387773D01*
X224225834Y-49393437D01*
X224202779Y-49396856D01*
X224179500Y-49398000D01*
X223604500Y-49398000D01*
X223581221Y-49396856D01*
X223558166Y-49393437D01*
X223535557Y-49387773D01*
X223513613Y-49379921D01*
X223492543Y-49369956D01*
X223472552Y-49357974D01*
X223453832Y-49344090D01*
X223436562Y-49328438D01*
X223420910Y-49311168D01*
X223407026Y-49292448D01*
X223395044Y-49272457D01*
X223385079Y-49251387D01*
X223377227Y-49229443D01*
X223371563Y-49206834D01*
X223368144Y-49183779D01*
X223367000Y-49160500D01*
X223367000Y-48685500D01*
X223368144Y-48662221D01*
X223371563Y-48639166D01*
X223377227Y-48616557D01*
X223385079Y-48594613D01*
X223395044Y-48573543D01*
X223407026Y-48553552D01*
X223420910Y-48534832D01*
X223436562Y-48517562D01*
X223453832Y-48501910D01*
X223472552Y-48488026D01*
X223492543Y-48476044D01*
X223513613Y-48466079D01*
X223535557Y-48458227D01*
X223558166Y-48452563D01*
X223581221Y-48449144D01*
X223604500Y-48448000D01*
X224179500Y-48448000D01*
X224202779Y-48449144D01*
G37*
G36*
X225952779Y-48449144D02*
G01*
X225975834Y-48452563D01*
X225998443Y-48458227D01*
X226020387Y-48466079D01*
X226041457Y-48476044D01*
X226061448Y-48488026D01*
X226080168Y-48501910D01*
X226097438Y-48517562D01*
X226113090Y-48534832D01*
X226126974Y-48553552D01*
X226138956Y-48573543D01*
X226148921Y-48594613D01*
X226156773Y-48616557D01*
X226162437Y-48639166D01*
X226165856Y-48662221D01*
X226167000Y-48685500D01*
X226167000Y-49160500D01*
X226165856Y-49183779D01*
X226162437Y-49206834D01*
X226156773Y-49229443D01*
X226148921Y-49251387D01*
X226138956Y-49272457D01*
X226126974Y-49292448D01*
X226113090Y-49311168D01*
X226097438Y-49328438D01*
X226080168Y-49344090D01*
X226061448Y-49357974D01*
X226041457Y-49369956D01*
X226020387Y-49379921D01*
X225998443Y-49387773D01*
X225975834Y-49393437D01*
X225952779Y-49396856D01*
X225929500Y-49398000D01*
X225354500Y-49398000D01*
X225331221Y-49396856D01*
X225308166Y-49393437D01*
X225285557Y-49387773D01*
X225263613Y-49379921D01*
X225242543Y-49369956D01*
X225222552Y-49357974D01*
X225203832Y-49344090D01*
X225186562Y-49328438D01*
X225170910Y-49311168D01*
X225157026Y-49292448D01*
X225145044Y-49272457D01*
X225135079Y-49251387D01*
X225127227Y-49229443D01*
X225121563Y-49206834D01*
X225118144Y-49183779D01*
X225117000Y-49160500D01*
X225117000Y-48685500D01*
X225118144Y-48662221D01*
X225121563Y-48639166D01*
X225127227Y-48616557D01*
X225135079Y-48594613D01*
X225145044Y-48573543D01*
X225157026Y-48553552D01*
X225170910Y-48534832D01*
X225186562Y-48517562D01*
X225203832Y-48501910D01*
X225222552Y-48488026D01*
X225242543Y-48476044D01*
X225263613Y-48466079D01*
X225285557Y-48458227D01*
X225308166Y-48452563D01*
X225331221Y-48449144D01*
X225354500Y-48448000D01*
X225929500Y-48448000D01*
X225952779Y-48449144D01*
G37*
G36*
X224202779Y-46671144D02*
G01*
X224225834Y-46674563D01*
X224248443Y-46680227D01*
X224270387Y-46688079D01*
X224291457Y-46698044D01*
X224311448Y-46710026D01*
X224330168Y-46723910D01*
X224347438Y-46739562D01*
X224363090Y-46756832D01*
X224376974Y-46775552D01*
X224388956Y-46795543D01*
X224398921Y-46816613D01*
X224406773Y-46838557D01*
X224412437Y-46861166D01*
X224415856Y-46884221D01*
X224417000Y-46907500D01*
X224417000Y-47382500D01*
X224415856Y-47405779D01*
X224412437Y-47428834D01*
X224406773Y-47451443D01*
X224398921Y-47473387D01*
X224388956Y-47494457D01*
X224376974Y-47514448D01*
X224363090Y-47533168D01*
X224347438Y-47550438D01*
X224330168Y-47566090D01*
X224311448Y-47579974D01*
X224291457Y-47591956D01*
X224270387Y-47601921D01*
X224248443Y-47609773D01*
X224225834Y-47615437D01*
X224202779Y-47618856D01*
X224179500Y-47620000D01*
X223604500Y-47620000D01*
X223581221Y-47618856D01*
X223558166Y-47615437D01*
X223535557Y-47609773D01*
X223513613Y-47601921D01*
X223492543Y-47591956D01*
X223472552Y-47579974D01*
X223453832Y-47566090D01*
X223436562Y-47550438D01*
X223420910Y-47533168D01*
X223407026Y-47514448D01*
X223395044Y-47494457D01*
X223385079Y-47473387D01*
X223377227Y-47451443D01*
X223371563Y-47428834D01*
X223368144Y-47405779D01*
X223367000Y-47382500D01*
X223367000Y-46907500D01*
X223368144Y-46884221D01*
X223371563Y-46861166D01*
X223377227Y-46838557D01*
X223385079Y-46816613D01*
X223395044Y-46795543D01*
X223407026Y-46775552D01*
X223420910Y-46756832D01*
X223436562Y-46739562D01*
X223453832Y-46723910D01*
X223472552Y-46710026D01*
X223492543Y-46698044D01*
X223513613Y-46688079D01*
X223535557Y-46680227D01*
X223558166Y-46674563D01*
X223581221Y-46671144D01*
X223604500Y-46670000D01*
X224179500Y-46670000D01*
X224202779Y-46671144D01*
G37*
G36*
X225952779Y-46671144D02*
G01*
X225975834Y-46674563D01*
X225998443Y-46680227D01*
X226020387Y-46688079D01*
X226041457Y-46698044D01*
X226061448Y-46710026D01*
X226080168Y-46723910D01*
X226097438Y-46739562D01*
X226113090Y-46756832D01*
X226126974Y-46775552D01*
X226138956Y-46795543D01*
X226148921Y-46816613D01*
X226156773Y-46838557D01*
X226162437Y-46861166D01*
X226165856Y-46884221D01*
X226167000Y-46907500D01*
X226167000Y-47382500D01*
X226165856Y-47405779D01*
X226162437Y-47428834D01*
X226156773Y-47451443D01*
X226148921Y-47473387D01*
X226138956Y-47494457D01*
X226126974Y-47514448D01*
X226113090Y-47533168D01*
X226097438Y-47550438D01*
X226080168Y-47566090D01*
X226061448Y-47579974D01*
X226041457Y-47591956D01*
X226020387Y-47601921D01*
X225998443Y-47609773D01*
X225975834Y-47615437D01*
X225952779Y-47618856D01*
X225929500Y-47620000D01*
X225354500Y-47620000D01*
X225331221Y-47618856D01*
X225308166Y-47615437D01*
X225285557Y-47609773D01*
X225263613Y-47601921D01*
X225242543Y-47591956D01*
X225222552Y-47579974D01*
X225203832Y-47566090D01*
X225186562Y-47550438D01*
X225170910Y-47533168D01*
X225157026Y-47514448D01*
X225145044Y-47494457D01*
X225135079Y-47473387D01*
X225127227Y-47451443D01*
X225121563Y-47428834D01*
X225118144Y-47405779D01*
X225117000Y-47382500D01*
X225117000Y-46907500D01*
X225118144Y-46884221D01*
X225121563Y-46861166D01*
X225127227Y-46838557D01*
X225135079Y-46816613D01*
X225145044Y-46795543D01*
X225157026Y-46775552D01*
X225170910Y-46756832D01*
X225186562Y-46739562D01*
X225203832Y-46723910D01*
X225222552Y-46710026D01*
X225242543Y-46698044D01*
X225263613Y-46688079D01*
X225285557Y-46680227D01*
X225308166Y-46674563D01*
X225331221Y-46671144D01*
X225354500Y-46670000D01*
X225929500Y-46670000D01*
X225952779Y-46671144D01*
G37*
D25*
X195905000Y-50320000D03*
D26*
X200905000Y-50320000D03*
D21*
X202810000Y-58575000D03*
X202810000Y-63575000D03*
X189809000Y-57305000D03*
X194809000Y-57305000D03*
X190110000Y-48415000D03*
X190110000Y-53415000D03*
D25*
X195825000Y-40160000D03*
D26*
X190825000Y-40160000D03*
D21*
X231512000Y-63147000D03*
X226512000Y-63147000D03*
X205858000Y-43335000D03*
X200858000Y-43335000D03*
D27*
X190500000Y-71025000D03*
X195500000Y-71025000D03*
D28*
X200500000Y-71025000D03*
D27*
X238882000Y-62588000D03*
X238882000Y-57588000D03*
D28*
X238882000Y-52588000D03*
D27*
X238882000Y-47588000D03*
X238882000Y-42588000D03*
D28*
X238882000Y-37588000D03*
D27*
X220500000Y-71025000D03*
X225500000Y-71025000D03*
D28*
X230500000Y-71025000D03*
D27*
X205500000Y-71025000D03*
X210500000Y-71025000D03*
D28*
X215500000Y-71025000D03*
D14*
X229899000Y-117296000D03*
X226089000Y-88086000D03*
X192434000Y-88086000D03*
D26*
X215294000Y-90499000D03*
D25*
X215294000Y-85499000D03*
D21*
X190402000Y-102691000D03*
X190402000Y-107691000D03*
X193958000Y-102691000D03*
X193958000Y-107691000D03*
X193958000Y-100071000D03*
X193958000Y-95071000D03*
D25*
X203610000Y-85499000D03*
D26*
X203610000Y-90499000D03*
D21*
X229518000Y-108025000D03*
X229518000Y-113025000D03*
X229518000Y-100405000D03*
X229518000Y-105405000D03*
D24*
G36*
X230322779Y-96375144D02*
G01*
X230345834Y-96378563D01*
X230368443Y-96384227D01*
X230390387Y-96392079D01*
X230411457Y-96402044D01*
X230431448Y-96414026D01*
X230450168Y-96427910D01*
X230467438Y-96443562D01*
X230483090Y-96460832D01*
X230496974Y-96479552D01*
X230508956Y-96499543D01*
X230518921Y-96520613D01*
X230526773Y-96542557D01*
X230532437Y-96565166D01*
X230535856Y-96588221D01*
X230537000Y-96611500D01*
X230537000Y-97086500D01*
X230535856Y-97109779D01*
X230532437Y-97132834D01*
X230526773Y-97155443D01*
X230518921Y-97177387D01*
X230508956Y-97198457D01*
X230496974Y-97218448D01*
X230483090Y-97237168D01*
X230467438Y-97254438D01*
X230450168Y-97270090D01*
X230431448Y-97283974D01*
X230411457Y-97295956D01*
X230390387Y-97305921D01*
X230368443Y-97313773D01*
X230345834Y-97319437D01*
X230322779Y-97322856D01*
X230299500Y-97324000D01*
X229724500Y-97324000D01*
X229701221Y-97322856D01*
X229678166Y-97319437D01*
X229655557Y-97313773D01*
X229633613Y-97305921D01*
X229612543Y-97295956D01*
X229592552Y-97283974D01*
X229573832Y-97270090D01*
X229556562Y-97254438D01*
X229540910Y-97237168D01*
X229527026Y-97218448D01*
X229515044Y-97198457D01*
X229505079Y-97177387D01*
X229497227Y-97155443D01*
X229491563Y-97132834D01*
X229488144Y-97109779D01*
X229487000Y-97086500D01*
X229487000Y-96611500D01*
X229488144Y-96588221D01*
X229491563Y-96565166D01*
X229497227Y-96542557D01*
X229505079Y-96520613D01*
X229515044Y-96499543D01*
X229527026Y-96479552D01*
X229540910Y-96460832D01*
X229556562Y-96443562D01*
X229573832Y-96427910D01*
X229592552Y-96414026D01*
X229612543Y-96402044D01*
X229633613Y-96392079D01*
X229655557Y-96384227D01*
X229678166Y-96378563D01*
X229701221Y-96375144D01*
X229724500Y-96374000D01*
X230299500Y-96374000D01*
X230322779Y-96375144D01*
G37*
G36*
X228572779Y-96375144D02*
G01*
X228595834Y-96378563D01*
X228618443Y-96384227D01*
X228640387Y-96392079D01*
X228661457Y-96402044D01*
X228681448Y-96414026D01*
X228700168Y-96427910D01*
X228717438Y-96443562D01*
X228733090Y-96460832D01*
X228746974Y-96479552D01*
X228758956Y-96499543D01*
X228768921Y-96520613D01*
X228776773Y-96542557D01*
X228782437Y-96565166D01*
X228785856Y-96588221D01*
X228787000Y-96611500D01*
X228787000Y-97086500D01*
X228785856Y-97109779D01*
X228782437Y-97132834D01*
X228776773Y-97155443D01*
X228768921Y-97177387D01*
X228758956Y-97198457D01*
X228746974Y-97218448D01*
X228733090Y-97237168D01*
X228717438Y-97254438D01*
X228700168Y-97270090D01*
X228681448Y-97283974D01*
X228661457Y-97295956D01*
X228640387Y-97305921D01*
X228618443Y-97313773D01*
X228595834Y-97319437D01*
X228572779Y-97322856D01*
X228549500Y-97324000D01*
X227974500Y-97324000D01*
X227951221Y-97322856D01*
X227928166Y-97319437D01*
X227905557Y-97313773D01*
X227883613Y-97305921D01*
X227862543Y-97295956D01*
X227842552Y-97283974D01*
X227823832Y-97270090D01*
X227806562Y-97254438D01*
X227790910Y-97237168D01*
X227777026Y-97218448D01*
X227765044Y-97198457D01*
X227755079Y-97177387D01*
X227747227Y-97155443D01*
X227741563Y-97132834D01*
X227738144Y-97109779D01*
X227737000Y-97086500D01*
X227737000Y-96611500D01*
X227738144Y-96588221D01*
X227741563Y-96565166D01*
X227747227Y-96542557D01*
X227755079Y-96520613D01*
X227765044Y-96499543D01*
X227777026Y-96479552D01*
X227790910Y-96460832D01*
X227806562Y-96443562D01*
X227823832Y-96427910D01*
X227842552Y-96414026D01*
X227862543Y-96402044D01*
X227883613Y-96392079D01*
X227905557Y-96384227D01*
X227928166Y-96378563D01*
X227951221Y-96375144D01*
X227974500Y-96374000D01*
X228549500Y-96374000D01*
X228572779Y-96375144D01*
G37*
D28*
X200435000Y-113740000D03*
D27*
X195435000Y-113740000D03*
X190435000Y-113740000D03*
X250897000Y-113740000D03*
X255897000Y-113740000D03*
D28*
X260897000Y-113740000D03*
X245897000Y-113740000D03*
D27*
X240897000Y-113740000D03*
X235897000Y-113740000D03*
D13*
X253394000Y-88975000D03*
D12*
X250854000Y-88975000D03*
X248314000Y-88975000D03*
X245774000Y-88975000D03*
X243234000Y-88975000D03*
X240694000Y-88975000D03*
D13*
X250854000Y-85165000D03*
D12*
X248314000Y-85165000D03*
X245774000Y-85165000D03*
X243234000Y-85165000D03*
D24*
G36*
X228572779Y-94597144D02*
G01*
X228595834Y-94600563D01*
X228618443Y-94606227D01*
X228640387Y-94614079D01*
X228661457Y-94624044D01*
X228681448Y-94636026D01*
X228700168Y-94649910D01*
X228717438Y-94665562D01*
X228733090Y-94682832D01*
X228746974Y-94701552D01*
X228758956Y-94721543D01*
X228768921Y-94742613D01*
X228776773Y-94764557D01*
X228782437Y-94787166D01*
X228785856Y-94810221D01*
X228787000Y-94833500D01*
X228787000Y-95308500D01*
X228785856Y-95331779D01*
X228782437Y-95354834D01*
X228776773Y-95377443D01*
X228768921Y-95399387D01*
X228758956Y-95420457D01*
X228746974Y-95440448D01*
X228733090Y-95459168D01*
X228717438Y-95476438D01*
X228700168Y-95492090D01*
X228681448Y-95505974D01*
X228661457Y-95517956D01*
X228640387Y-95527921D01*
X228618443Y-95535773D01*
X228595834Y-95541437D01*
X228572779Y-95544856D01*
X228549500Y-95546000D01*
X227974500Y-95546000D01*
X227951221Y-95544856D01*
X227928166Y-95541437D01*
X227905557Y-95535773D01*
X227883613Y-95527921D01*
X227862543Y-95517956D01*
X227842552Y-95505974D01*
X227823832Y-95492090D01*
X227806562Y-95476438D01*
X227790910Y-95459168D01*
X227777026Y-95440448D01*
X227765044Y-95420457D01*
X227755079Y-95399387D01*
X227747227Y-95377443D01*
X227741563Y-95354834D01*
X227738144Y-95331779D01*
X227737000Y-95308500D01*
X227737000Y-94833500D01*
X227738144Y-94810221D01*
X227741563Y-94787166D01*
X227747227Y-94764557D01*
X227755079Y-94742613D01*
X227765044Y-94721543D01*
X227777026Y-94701552D01*
X227790910Y-94682832D01*
X227806562Y-94665562D01*
X227823832Y-94649910D01*
X227842552Y-94636026D01*
X227862543Y-94624044D01*
X227883613Y-94614079D01*
X227905557Y-94606227D01*
X227928166Y-94600563D01*
X227951221Y-94597144D01*
X227974500Y-94596000D01*
X228549500Y-94596000D01*
X228572779Y-94597144D01*
G37*
G36*
X230322779Y-94597144D02*
G01*
X230345834Y-94600563D01*
X230368443Y-94606227D01*
X230390387Y-94614079D01*
X230411457Y-94624044D01*
X230431448Y-94636026D01*
X230450168Y-94649910D01*
X230467438Y-94665562D01*
X230483090Y-94682832D01*
X230496974Y-94701552D01*
X230508956Y-94721543D01*
X230518921Y-94742613D01*
X230526773Y-94764557D01*
X230532437Y-94787166D01*
X230535856Y-94810221D01*
X230537000Y-94833500D01*
X230537000Y-95308500D01*
X230535856Y-95331779D01*
X230532437Y-95354834D01*
X230526773Y-95377443D01*
X230518921Y-95399387D01*
X230508956Y-95420457D01*
X230496974Y-95440448D01*
X230483090Y-95459168D01*
X230467438Y-95476438D01*
X230450168Y-95492090D01*
X230431448Y-95505974D01*
X230411457Y-95517956D01*
X230390387Y-95527921D01*
X230368443Y-95535773D01*
X230345834Y-95541437D01*
X230322779Y-95544856D01*
X230299500Y-95546000D01*
X229724500Y-95546000D01*
X229701221Y-95544856D01*
X229678166Y-95541437D01*
X229655557Y-95535773D01*
X229633613Y-95527921D01*
X229612543Y-95517956D01*
X229592552Y-95505974D01*
X229573832Y-95492090D01*
X229556562Y-95476438D01*
X229540910Y-95459168D01*
X229527026Y-95440448D01*
X229515044Y-95420457D01*
X229505079Y-95399387D01*
X229497227Y-95377443D01*
X229491563Y-95354834D01*
X229488144Y-95331779D01*
X229487000Y-95308500D01*
X229487000Y-94833500D01*
X229488144Y-94810221D01*
X229491563Y-94787166D01*
X229497227Y-94764557D01*
X229505079Y-94742613D01*
X229515044Y-94721543D01*
X229527026Y-94701552D01*
X229540910Y-94682832D01*
X229556562Y-94665562D01*
X229573832Y-94649910D01*
X229592552Y-94636026D01*
X229612543Y-94624044D01*
X229633613Y-94614079D01*
X229655557Y-94606227D01*
X229678166Y-94600563D01*
X229701221Y-94597144D01*
X229724500Y-94596000D01*
X230299500Y-94596000D01*
X230322779Y-94597144D01*
G37*
D34*
X194687816Y-33275000D03*
X193229293Y-33275000D03*
X191770770Y-33275000D03*
X190312247Y-33275000D03*
X234687765Y-33275000D03*
X233229251Y-33275000D03*
X231770737Y-33275000D03*
X230312223Y-33275000D03*
X246250000Y-40212750D03*
X246250000Y-38754251D03*
X246250000Y-37295752D03*
X246250000Y-35837253D03*
X246250000Y-66212765D03*
X246250000Y-64754263D03*
X246250000Y-63295761D03*
X246250000Y-61837259D03*
X263685000Y-93212748D03*
X263685000Y-91754246D03*
X263685000Y-90295744D03*
X263685000Y-88837242D03*
X263685000Y-110212746D03*
X263685000Y-108754238D03*
X263685000Y-107295730D03*
X263685000Y-105837222D03*
X253312230Y-120475000D03*
X254770740Y-120475000D03*
X256229250Y-120475000D03*
X257687760Y-120475000D03*
X191312249Y-120475000D03*
X192770762Y-120475000D03*
X194229275Y-120475000D03*
X195687788Y-120475000D03*
X170312230Y-126775000D03*
X171770733Y-126775000D03*
X173229236Y-126775000D03*
X174687739Y-126775000D03*
X149312252Y-126775000D03*
X150770751Y-126775000D03*
X152229250Y-126775000D03*
X153687749Y-126775000D03*
X121312306Y-131199999D03*
X122770785Y-131199999D03*
X124229264Y-131199999D03*
X125687743Y-131199999D03*
X46312260Y-131200000D03*
X47770752Y-131200000D03*
X49229244Y-131200000D03*
X50687736Y-131200000D03*
X36750000Y-119837239D03*
X36750000Y-121295742D03*
X36750000Y-122754245D03*
X36750000Y-124212748D03*
X36750000Y-41837251D03*
X36750000Y-43295750D03*
X36750000Y-44754249D03*
X36750000Y-46212748D03*
X47687850Y-33275000D03*
X46229318Y-33275000D03*
X44770786Y-33275000D03*
X43312254Y-33275000D03*
X126687742Y-33275001D03*
X125229238Y-33275001D03*
X123770734Y-33275001D03*
X122312230Y-33275001D03*
X173687741Y-33275000D03*
X172229243Y-33275000D03*
X170770745Y-33275000D03*
X169312247Y-33275000D03*
X152687749Y-33275000D03*
X151229251Y-33275000D03*
X149770753Y-33275000D03*
X148312255Y-33275000D03*
X183250000Y-47212749D03*
X183250000Y-45754251D03*
X183250000Y-44295753D03*
X183250000Y-42837255D03*
X187750000Y-42837259D03*
X187750000Y-44295757D03*
X187750000Y-45754255D03*
X187750000Y-47212753D03*
X183250000Y-67212748D03*
X183250000Y-65754246D03*
X183250000Y-64295744D03*
X183250000Y-62837242D03*
X187750000Y-62837242D03*
X187750000Y-64295744D03*
X187750000Y-65754246D03*
X187750000Y-67212748D03*
X232312201Y-77775000D03*
X233770713Y-77775000D03*
X235229225Y-77775000D03*
X236687737Y-77775000D03*
X236687737Y-82875001D03*
X235229244Y-82875001D03*
X233770751Y-82875001D03*
X232312258Y-82875001D03*
X199312235Y-77775000D03*
X200770741Y-77775000D03*
X202229247Y-77775000D03*
X203687753Y-77775000D03*
X203687760Y-82875000D03*
X202229259Y-82875000D03*
X200770758Y-82875000D03*
X199312257Y-82875000D03*
X183250000Y-116212748D03*
X183250000Y-114754252D03*
X183250000Y-113295756D03*
X183250000Y-111837260D03*
X187350000Y-111837260D03*
X187350000Y-113295761D03*
X187350000Y-114754262D03*
X187350000Y-116212763D03*
X183250000Y-99212768D03*
X183250000Y-97754257D03*
X183250000Y-96295746D03*
X183250000Y-94837235D03*
X187350000Y-94837265D03*
X187350000Y-96295754D03*
X187350000Y-97754243D03*
X187350000Y-99212732D03*
X172687748Y-82275000D03*
X171229252Y-82275000D03*
X169770756Y-82275000D03*
X168312260Y-82275000D03*
X168312250Y-77775000D03*
X169770746Y-77775000D03*
X171229242Y-77775000D03*
X172687738Y-77775000D03*
X147312252Y-77775000D03*
X148770754Y-77775000D03*
X150229256Y-77775000D03*
X151687758Y-77775000D03*
X151687748Y-82275000D03*
X150229246Y-82275000D03*
X148770744Y-82275000D03*
X147312242Y-82275000D03*
X134674999Y-117212757D03*
X134674999Y-115754264D03*
X134674999Y-114295771D03*
X134674999Y-112837278D03*
X138750000Y-112837251D03*
X138750000Y-114295749D03*
X138750000Y-115754247D03*
X138750000Y-117212745D03*
X134674999Y-96212749D03*
X134674999Y-94754272D03*
X134674999Y-93295795D03*
X134674999Y-91837318D03*
X138750000Y-91837259D03*
X138750000Y-93295757D03*
X138750000Y-94754255D03*
X138750000Y-96212753D03*
X138750000Y-63837251D03*
X138750000Y-65295749D03*
X138750000Y-66754247D03*
X138750000Y-68212745D03*
X134675000Y-68212778D03*
X134675000Y-66754269D03*
X134675000Y-65295760D03*
X134675000Y-63837251D03*
X134675000Y-47212749D03*
X134675000Y-45754251D03*
X134675000Y-44295753D03*
X134675000Y-42837255D03*
X138750000Y-42837259D03*
X138750000Y-44295757D03*
X138750000Y-45754255D03*
X138750000Y-47212753D03*
M02*
